<svg width="3283" height="3660" viewBox="0 0 3283 3660" fill="none" xmlns="http://www.w3.org/2000/svg">
<path d="M1934.59 3659.46C1247.89 3659.46 691.216 3592.64 691.216 3510.2C691.216 3459.75 899.825 3415.14 1219.19 3388.12C1221.62 3397.24 1224.95 3406.2 1229.16 3414.88C1238.23 3432.98 1251.47 3449.15 1267.04 3461.27C1282.51 3473.64 1299.75 3482.59 1317.24 3489.15C1352.36 3502.3 1388.34 3507.27 1423.73 3509.51C1435.92 3510.19 1448.07 3510.51 1460.18 3510.51C1483.28 3510.51 1506.25 3509.39 1529.06 3507.6C1546.43 3506.1 1563.78 3504.43 1580.99 3502.19L1632.19 3495.46C1666.42 3490.64 1701 3485.04 1735.47 3475.78C1752.68 3471.16 1769.88 3465.46 1786.82 3458.14C1803.7 3450.71 1820.4 3441.48 1835.66 3428.95C1843.21 3422.59 1850.35 3415.42 1856.66 3407.32C1862.96 3399.44 1868.36 3389.68 1872.13 3380.84C1875.07 3374.34 1877.63 3367.74 1879.89 3361.1C1898.02 3361 1916.27 3360.96 1934.59 3360.96C1961.03 3360.96 1987.25 3361.06 2013.29 3361.26C2015.56 3367.84 2018.09 3374.39 2021.02 3380.84C2024.77 3389.68 2030.18 3399.44 2036.47 3407.32C2042.79 3415.42 2049.92 3422.59 2057.48 3428.95C2072.73 3441.48 2089.43 3450.71 2106.33 3458.14C2123.25 3465.46 2140.45 3471.16 2157.68 3475.78C2192.15 3485.04 2226.73 3490.64 2260.96 3495.46L2312.14 3502.19C2329.35 3504.43 2346.7 3506.1 2364.08 3507.6C2386.9 3509.39 2409.85 3510.51 2432.95 3510.51C2445.08 3510.51 2457.23 3510.19 2469.42 3509.51C2504.81 3507.27 2540.79 3502.3 2575.89 3489.15C2593.39 3482.59 2610.63 3473.64 2626.09 3461.27C2641.66 3449.15 2654.9 3432.98 2663.97 3414.88C2667.88 3406.84 2671.02 3398.58 2673.39 3390.15C2979.51 3417.34 3177.94 3460.99 3177.94 3510.2C3177.94 3592.64 2621.27 3659.46 1934.59 3659.46" fill="#845EBE"/>
<path d="M1288.93 1571.62V2412.66C1288.93 2460.87 1301.58 2506.32 1323.68 2545.75C1370.24 2628.83 1458.84 2685.19 1559.87 2685.19H2338.26C2435.59 2685.19 2521.38 2632.87 2569.16 2554.8C2594.55 2513.34 2609.2 2464.64 2609.2 2412.66V1571.62C2609.2 1553.15 2607.35 1535.16 2603.8 1517.71C2594.13 1469.43 2571.64 1425.75 2540.06 1390.3C2490.39 1334.42 2418.24 1299.08 2338.26 1299.08H1559.87C1443.66 1299.08 1343.89 1373.64 1305.65 1477.58C1294.86 1506.96 1288.93 1538.63 1288.93 1571.62" fill="white"/>
<path d="M1559.86 1319.42C1421.63 1319.42 1309.17 1432.55 1309.17 1571.62V2412.64C1309.17 2551.71 1421.63 2664.86 1559.86 2664.86H2338.27C2476.5 2664.86 2588.96 2551.71 2588.96 2412.64V1571.62C2588.96 1432.55 2476.5 1319.42 2338.27 1319.42H1559.86ZM2338.27 2705.54H1559.86C1399.33 2705.54 1268.74 2574.15 1268.74 2412.64V1571.62C1268.74 1410.11 1399.33 1278.72 1559.86 1278.72H2338.27C2498.8 1278.72 2629.39 1410.11 2629.39 1571.62V2412.64C2629.39 2574.15 2498.8 2705.54 2338.27 2705.54" fill="#371A45"/>
<path d="M1462.81 1378.67C1462.81 1378.67 1125.69 1764.36 1125.69 2086.48C1125.69 2362.18 1462.81 2457.02 1462.81 2457.02L1930.04 1660.88L1462.81 1378.67" fill="white"/>
<path d="M1125.69 2086.46C1125.69 2362.2 1462.81 2457.02 1462.81 2457.02L1474.34 2437.4L1930.05 1660.88L1577.8 1448.1L1462.81 1378.64C1462.81 1378.64 1125.69 1764.38 1125.69 2086.46" fill="white"/>
<path d="M1306.96 2277.64C1300.05 2265.4 1293.88 2252.55 1288.53 2239.1C1293.6 2240.43 1298.78 2241.42 1304.05 2242.06C1305.78 2242.27 1307.51 2242.47 1309.25 2242.68C1308.41 2254.34 1307.65 2265.98 1306.96 2277.64V2277.64ZM1277.91 2018.22C1295.48 1928.74 1332.41 1838.16 1375.34 1755.39C1363.9 1808.75 1354.27 1862.1 1346.02 1916C1341.08 1947.8 1336.71 1979.71 1332.71 2011.66C1329.51 2011.51 1326.36 2011.38 1323.24 2011.23C1321.37 2011.14 1319.52 2011.1 1317.66 2011.1C1303.76 2011.1 1290.35 2013.59 1277.91 2018.22" fill="#B9AFBE"/>
<path d="M1467.11 1405C1409.81 1474.23 1145.91 1808.18 1145.91 2086.48C1145.91 2311.76 1390.57 2410.9 1453.6 2432.68L1902.42 1667.94L1467.11 1405V1405ZM1472.31 2480.82L1457.36 2476.62C1453.78 2475.6 1368.86 2451.31 1282.81 2391.91C1166.78 2311.84 1105.46 2206.23 1105.46 2086.48C1105.46 1760.43 1433.65 1381.22 1447.62 1365.23L1458.75 1352.5L1957.66 1653.84L1472.31 2480.82" fill="#371A45"/>
<path d="M2467.27 1846.16C2467.27 1846.16 2610.11 2026.12 2838.9 1986.4C3076.16 1945.22 3034.17 1547.95 3034.17 1547.95L2673.67 1408.3C2673.67 1408.3 2696.07 1532.39 2643.86 1532.36C2585.39 1532.34 2481.03 1393.94 2389.88 1352.4L2467.27 1846.16Z" fill="white"/>
<path d="M2774.12 1971.7C2671.83 1971.7 2591.56 1926.75 2541.45 1888.11L2539.1 1874.08C2536.01 1856.86 2532.56 1839.68 2529.27 1822.5C2522.63 1788.12 2515.13 1753.91 2507.18 1719.83C2506.63 1717.54 2506.09 1715.23 2505.55 1712.92C2562.35 1800.24 2649.7 1894.83 2761.57 1894.83C2772.93 1894.83 2784.58 1893.86 2796.45 1891.79C2966.07 1862.32 2980.23 1657.87 2868.61 1637.5C2877.79 1638.23 2886.7 1638.56 2895.24 1638.56C2925.31 1638.56 2950.7 1634.55 2965.54 1630.91C2984.6 1626.24 3001.59 1619.34 3016.66 1611.08C3017.11 1719.78 2997.5 1938.23 2835.47 1966.36C2814.25 1970.04 2793.79 1971.7 2774.12 1971.7" fill="#B9AFBE"/>
<path d="M2772.42 2012.58C2575.97 2012.58 2456.99 1865.8 2451.48 1858.86C2444.51 1850.08 2445.92 1837.27 2454.66 1830.26C2463.38 1823.26 2476.09 1824.68 2483.06 1833.44C2484.42 1835.15 2621.6 2003.47 2835.47 1966.36C3029 1932.76 3019.35 1627.64 3015.02 1562.34L2697.92 1439.5C2700.24 1470.43 2699.17 1512.82 2680.22 1535.64C2670.95 1546.82 2658.38 1552.72 2643.88 1552.72H2643.85C2604.98 1552.7 2559.37 1512.07 2506.55 1465.03C2464.61 1427.66 2421.23 1389.03 2381.53 1370.94C2371.37 1366.3 2366.85 1354.24 2371.46 1344.02C2376.07 1333.78 2388.06 1329.23 2398.22 1333.87C2443.49 1354.5 2489.18 1395.2 2533.37 1434.56C2574.13 1470.87 2620.32 1512.02 2643.88 1512.03C2646.34 1512.03 2647.63 1511.43 2649.18 1509.56C2661.58 1494.63 2659.25 1442.47 2653.78 1411.92L2647.39 1376.34L3052.96 1533.43L3054.27 1545.79C3056.06 1562.79 3095.37 1962.52 2842.35 2006.46C2818.07 2010.67 2794.73 2012.58 2772.42 2012.58Z" fill="#371A45"/>
<path d="M1234.66 3360.34C1234.98 3363.79 1235.46 3367.26 1236.1 3370.55C1253.23 3472.68 1372.15 3509.19 1586.16 3480.99C1683.07 3468.32 1817.06 3453.26 1852.39 3375.6C1922.96 3220.63 1850.96 2907.06 1859.32 2706.11V2705.79C1859.32 2705.79 1898.26 2710.58 1946.55 2710.58C1994.9 2710.58 2033.83 2705.79 2033.83 2705.79C2033.89 2707.43 2033.94 2709.03 2033.99 2710.68C2041.14 2911.75 1970.78 3221.8 2040.77 3375.6C2076.1 3453.26 2210.04 3468.32 2307 3480.99C2521.28 3509.19 2640.19 3472.63 2657.18 3370.23C2657.7 3366.94 2658.18 3363.68 2658.55 3360.34C2670.87 3235.54 2497.85 3177.58 2497.85 3177.58C2497.85 3177.58 2535.56 2912.75 2560.48 2673.8C2570.96 2573.32 2573.33 2469.38 2570.06 2365.98C2569.27 2339.2 2568.05 2312.44 2566.51 2285.78C2564.3 2247.83 2561.43 2210.15 2558 2172.84C2554.98 2140.48 2551.6 2108.5 2547.78 2076.94C2533.71 1958.31 2514.78 1846.07 2495.26 1747.35C2477.8 1658.79 2459.87 1581.04 2444.48 1519.31C2441.03 1505.68 2437.81 1492.86 2434.69 1480.83C2415.91 1408.07 2402.91 1365.71 2402.91 1365.71H1490.27C1490.27 1365.71 1477.15 1408.39 1458.31 1481.52C1447.21 1524.36 1434.14 1577.74 1420.54 1639.15C1415.26 1663.15 1409.85 1688.39 1404.46 1714.72C1382.62 1821.32 1360.97 1945.59 1345.32 2077.84C1341.68 2108.71 1338.34 2140 1335.37 2171.62C1331.78 2210.26 1328.82 2249.38 1326.6 2288.7C1324.95 2316.59 1323.73 2344.58 1322.94 2372.63C1322.42 2391.2 1322.05 2409.78 1321.89 2428.4C1321.15 2511.06 1324.37 2593.6 1332.73 2673.8C1357.59 2912.75 1395.31 3177.58 1395.31 3177.58C1395.31 3177.58 1222.34 3235.54 1234.66 3360.34" fill="white"/>
<path d="M2432.99 3469.82C2411.19 3469.82 2389.23 3468.76 2367.3 3467.04C2350.57 3465.59 2333.85 3463.99 2317.12 3461.8L2266.51 3455.15C2232.99 3450.46 2199.86 3445.02 2168.18 3436.48C2136.75 3427.91 2105.92 3416.26 2083.23 3397.56C2077.67 3392.87 2072.68 3387.79 2068.41 3382.35L2065.35 3378.19L2062.67 3373.86C2061.7 3372.44 2061.11 3370.87 2060.29 3369.38L2059.13 3367.14L2058.01 3364.4C2051.53 3350.16 2047.07 3334.6 2043.15 3318.9C2035.64 3287.24 2032.18 3253.96 2030.68 3220.42C2029.1 3186.86 2029.58 3152.92 2030.96 3118.91C2033.72 3050.86 2040.09 2982.51 2045.67 2913.72C2050.64 2850.74 2055.67 2787.36 2054.52 2722.8C2070.38 2719.5 2085.33 2715 2100.49 2709.87C2120.81 2702.8 2140.6 2694.34 2159.71 2684.52C2169.3 2679.72 2178.61 2674.3 2187.91 2669.02C2197 2663.27 2206.08 2657.6 2214.56 2650.94C2231.84 2638.23 2247.68 2623.35 2261.2 2606.48C2261.18 2606.48 2261.17 2606.48 2261.17 2606.5C2261.18 2606.48 2261.2 2606.47 2261.21 2606.46C2261.21 2606.46 2252.97 2793.86 2146.52 2937.36C2040.02 3080.92 2051.12 3196.08 2119.59 3311.31C2153.81 3368.9 2295.4 3405.99 2438.61 3405.98C2507.51 3405.98 2576.81 3397.39 2634.68 3378.36C2632.9 3384.76 2630.6 3390.91 2627.79 3396.7C2615.3 3422.1 2590.8 3440.35 2561.61 3451.08C2532.46 3462.06 2499.86 3466.87 2467.07 3468.9C2455.77 3469.52 2444.4 3469.82 2432.99 3469.82" fill="#B9AFBE"/>
<path d="M1460.16 3469.82C1448.73 3469.82 1437.36 3469.52 1426.06 3468.9C1393.27 3466.87 1360.68 3462.06 1331.54 3451.08C1302.33 3440.35 1277.83 3422.1 1265.34 3396.7C1262.19 3390.2 1259.66 3383.23 1257.83 3375.99C1315.78 3389.3 1380.75 3395.48 1444.55 3395.48C1592.19 3395.48 1733.47 3362.3 1766.12 3307.34C1834.6 3192.18 1827.31 3073.95 1727.24 2925.35C1603.21 2741.19 1632.35 2606.46 1632.35 2606.46C1632.37 2606.47 1632.39 2606.48 1632.4 2606.5C1632.39 2606.48 1632.39 2606.48 1632.37 2606.48C1645.89 2623.35 1661.73 2638.23 1679.01 2650.94C1687.49 2657.6 1696.57 2663.27 1705.66 2669.02C1714.96 2674.3 1724.27 2679.72 1733.86 2684.52C1752.96 2694.34 1772.76 2702.8 1793.08 2709.87C1808.09 2714.95 1822.91 2719.42 1838.62 2722.71C1837.46 2787.3 1842.49 2850.7 1847.46 2913.72C1853.04 2982.51 1859.42 3050.86 1862.19 3118.91C1863.57 3152.92 1864.03 3186.86 1862.45 3220.42C1860.97 3253.96 1857.5 3287.24 1850 3318.9C1846.07 3334.6 1841.61 3350.16 1835.13 3364.4L1834.01 3367.14L1832.85 3369.38C1832.04 3370.87 1831.44 3372.44 1830.46 3373.86L1827.78 3378.19L1824.74 3382.35C1820.47 3387.79 1815.47 3392.87 1809.92 3397.56C1787.23 3416.26 1756.38 3427.91 1724.97 3436.48C1693.28 3445.02 1660.15 3450.46 1626.62 3455.15L1576.01 3461.8C1559.3 3463.99 1542.56 3465.59 1525.85 3467.04C1503.9 3468.76 1481.96 3469.82 1460.16 3469.82" fill="#B9AFBE"/>
<path d="M2450.96 1517.64C2473.04 1584.07 2491.12 1651.72 2507.18 1719.83C2515.13 1753.91 2522.63 1788.12 2529.27 1822.5C2532.56 1839.68 2536.02 1856.86 2539.1 1874.08L2547.78 1925.9C2550.78 1943.15 2553.4 1960.48 2555.93 1977.82L2563.58 2029.82C2565.89 2047.19 2568.03 2064.59 2570.09 2082C2572.33 2099.39 2574.04 2116.84 2575.72 2134.3C2583.42 2204.02 2587.32 2274.18 2590.27 2344.32C2591.83 2414.55 2593.04 2484.86 2589.08 2555.18L2587.86 2581.54L2587.26 2594.72L2586.18 2607.88L2581.82 2660.55C2578.82 2695.62 2574.62 2730.12 2570.84 2764.9C2555.02 2903.72 2537.22 3042.08 2517.86 3180.46L2504.24 3158.27C2513.63 3161.56 2521.53 3164.9 2529.91 3168.63C2538.14 3172.34 2546.22 3176.32 2554.2 3180.55C2570.1 3189.1 2585.57 3198.7 2600.22 3209.83C2614.92 3220.83 2628.72 3233.59 2641 3248.16C2653.26 3262.74 2663.58 3279.71 2670.56 3298.4C2677.51 3317.11 2680.23 3337.66 2678.9 3357.51C2677.74 3377.07 2672.86 3396.62 2663.97 3414.88C2654.9 3432.98 2641.66 3449.15 2626.09 3461.27C2610.63 3473.64 2593.39 3482.59 2575.89 3489.15C2540.79 3502.3 2504.81 3507.27 2469.42 3509.51C2433.98 3511.5 2398.86 3510.32 2364.08 3507.6C2346.7 3506.1 2329.35 3504.43 2312.14 3502.19L2260.96 3495.46C2226.73 3490.64 2192.15 3485.04 2157.68 3475.78C2140.45 3471.16 2123.25 3465.46 2106.33 3458.14C2089.43 3450.71 2072.73 3441.48 2057.48 3428.95C2049.92 3422.59 2042.79 3415.42 2036.47 3407.32C2030.18 3399.44 2024.77 3389.68 2021.02 3380.84C2013.28 3363.72 2008.22 3346.03 2003.82 3328.39C1995.46 3293 1991.88 3257.48 1990.27 3222.28C1988.63 3187.04 1989.13 3152.06 1990.54 3117.28C1993.37 3047.71 1999.82 2978.88 2005.37 2910.42C2010.79 2842.03 2016.09 2773.64 2013.62 2706.66L2036.3 2725.99C2020.91 2727.75 2006.35 2728.86 1991.36 2729.7C1976.46 2730.51 1961.54 2730.92 1946.57 2730.95C1931.59 2730.92 1916.67 2730.51 1901.77 2729.7C1886.8 2728.86 1872.23 2727.75 1856.85 2725.99L1879.52 2706.66C1877.04 2773.64 1882.34 2842.03 1887.78 2910.42C1893.32 2978.88 1899.77 3047.71 1902.59 3117.28C1904 3152.06 1904.5 3187.04 1902.86 3222.28C1901.27 3257.48 1897.69 3293 1889.32 3328.39C1884.92 3346.03 1879.87 3363.72 1872.13 3380.84C1868.36 3389.68 1862.96 3399.44 1856.66 3407.32C1850.35 3415.42 1843.21 3422.59 1835.66 3428.95C1820.4 3441.48 1803.7 3450.71 1786.82 3458.14C1769.88 3465.46 1752.68 3471.16 1735.47 3475.78C1701 3485.04 1666.42 3490.64 1632.19 3495.46L1580.99 3502.19C1563.78 3504.43 1546.43 3506.1 1529.06 3507.6C1494.27 3510.32 1459.16 3511.5 1423.73 3509.51C1388.34 3507.27 1352.36 3502.3 1317.24 3489.15C1299.75 3482.59 1282.51 3473.64 1267.04 3461.27C1251.47 3449.15 1238.23 3432.98 1229.16 3414.88C1220.27 3396.62 1215.4 3377.07 1214.24 3357.51C1212.92 3337.66 1215.63 3317.11 1222.58 3298.4C1229.56 3279.71 1239.89 3262.74 1252.13 3248.16C1264.42 3233.59 1278.21 3220.83 1292.92 3209.83C1307.58 3198.7 1323.03 3189.1 1338.95 3180.55C1346.93 3176.32 1355.01 3172.34 1363.24 3168.63C1371.6 3164.9 1379.5 3161.56 1388.91 3158.27L1375.27 3180.46C1355.78 3041 1337.82 2901.55 1321.93 2761.63C1318.13 2726.58 1313.91 2691.84 1310.89 2656.42C1309.48 2638.74 1307.5 2621.06 1306.56 2603.35L1303.58 2550.22C1300.82 2479.34 1301.21 2408.47 1304 2337.76C1306.68 2267.04 1312.26 2196.51 1319.55 2126.23C1321.15 2108.64 1323.2 2091.1 1325.23 2073.55C1327.17 2055.99 1329.27 2038.46 1331.55 2020.95C1335.87 1985.9 1340.61 1950.9 1346.03 1916C1356.73 1846.06 1369.75 1777.07 1386.04 1707.76C1390.3 1690.58 1394.82 1673.54 1399.69 1656.56C1404.4 1639.54 1409.48 1622.63 1414.79 1605.76C1425.54 1572.08 1437.02 1538.52 1451.72 1506.02C1453.27 1502.59 1457.28 1501.07 1460.69 1502.63C1463.63 1503.98 1465.15 1507.16 1464.53 1510.2L1464.5 1510.3C1450.5 1578.84 1437.63 1647.76 1424.07 1716.32C1411.93 1784.62 1399.82 1853.94 1388.58 1922.82C1365.76 2060.74 1349.72 2199.92 1344.41 2339.42C1341.65 2409.14 1341.28 2478.91 1343.98 2548.51C1346.83 2618.06 1354.22 2687.11 1362.11 2757.04C1377.94 2896.42 1395.88 3035.78 1415.31 3174.68L1417.63 3191.28L1401.69 3196.87C1394.93 3199.24 1387 3202.51 1379.75 3205.78C1372.36 3209.11 1365.07 3212.7 1357.91 3216.5C1343.64 3224.16 1329.91 3232.71 1317.24 3242.34C1291.92 3261.42 1270.53 3285.19 1260.55 3312.44C1255.52 3326 1253.67 3340.34 1254.6 3354.79C1255.42 3369.59 1259.21 3384.04 1265.34 3396.7C1277.83 3422.1 1302.33 3440.35 1331.54 3451.08C1360.68 3462.06 1393.27 3466.87 1426.06 3468.9C1458.98 3470.74 1492.41 3469.66 1525.85 3467.04C1542.56 3465.59 1559.3 3463.99 1576.01 3461.8L1626.62 3455.15C1660.15 3450.46 1693.28 3445.02 1724.97 3436.48C1756.38 3427.91 1787.23 3416.26 1809.92 3397.56C1815.47 3392.87 1820.47 3387.79 1824.74 3382.35L1827.78 3378.19L1830.46 3373.86C1831.44 3372.44 1832.04 3370.87 1832.85 3369.38L1834.01 3367.14L1835.13 3364.4C1841.61 3350.16 1846.07 3334.6 1850 3318.9C1857.5 3287.24 1860.97 3253.96 1862.45 3220.42C1864.03 3186.86 1863.57 3152.92 1862.19 3118.91C1859.42 3050.86 1853.04 2982.51 1847.46 2913.72C1842.04 2844.92 1836.53 2775.68 1839.1 2704.94L1839.91 2683.08L1861.78 2685.6C1875.35 2687.16 1889.86 2688.28 1903.97 2689.06C1918.18 2689.84 1932.4 2690.24 1946.57 2690.26C1960.73 2690.24 1974.95 2689.84 1989.16 2689.06C2003.27 2688.28 2017.79 2687.16 2031.36 2685.6L2053.24 2683.08L2054.03 2704.94C2056.62 2775.68 2051.1 2844.92 2045.67 2913.72C2040.09 2982.51 2033.72 3050.86 2030.96 3118.91C2029.58 3152.92 2029.1 3186.86 2030.68 3220.42C2032.18 3253.96 2035.64 3287.24 2043.15 3318.9C2047.07 3334.6 2051.53 3350.16 2058.01 3364.4L2059.13 3367.14L2060.29 3369.38C2061.11 3370.87 2061.71 3372.44 2062.67 3373.86L2065.35 3378.19L2068.41 3382.35C2072.68 3387.79 2077.67 3392.87 2083.23 3397.56C2105.92 3416.26 2136.75 3427.91 2168.18 3436.48C2199.86 3445.02 2232.99 3450.46 2266.51 3455.15L2317.12 3461.8C2333.85 3463.99 2350.57 3465.59 2367.3 3467.04C2400.72 3469.66 2434.17 3470.74 2467.08 3468.9C2499.86 3466.87 2532.46 3462.06 2561.61 3451.08C2590.8 3440.35 2615.31 3422.1 2627.79 3396.7C2633.94 3384.04 2637.72 3369.59 2638.55 3354.79C2639.46 3340.34 2637.62 3326 2632.6 3312.44C2622.61 3285.19 2601.22 3261.42 2575.91 3242.34C2563.24 3232.71 2549.49 3224.16 2535.22 3216.5C2528.06 3212.7 2520.77 3209.11 2513.39 3205.78C2506.14 3202.51 2498.22 3199.24 2491.46 3196.87L2475.5 3191.28L2477.82 3174.68C2497.12 3036.86 2514.9 2898.59 2530.66 2760.3C2534.41 2725.76 2538.63 2691.04 2541.55 2656.63L2545.82 2605.06L2546.9 2592.16L2547.43 2579.23L2548.49 2553.34C2551.91 2484.35 2550.7 2415.1 2548.33 2345.95C2541.65 2207.64 2526.88 2069.67 2506.78 1932.36C2486.3 1795.08 2461.54 1658.48 2437.89 1520.94C2437.26 1517.23 2439.72 1513.71 2443.39 1513.07C2446.73 1512.5 2449.93 1514.5 2450.96 1517.64" fill="#371A45"/>
<path d="M1573.29 3026.68C1407.53 3026.68 1350.52 2954.06 1347.18 2949.6C1340.47 2940.62 1342.26 2927.87 1351.19 2921.11C1360.06 2914.39 1372.64 2916.14 1379.38 2924.98C1381.16 2927.2 1489.71 3056.94 1858.08 2930.19C1868.68 2926.56 1880.14 2932.23 1883.75 2942.86C1887.37 2953.5 1881.73 2965.06 1871.16 2968.7C1746.07 3011.74 1648.49 3026.68 1573.29 3026.68" fill="#371A45"/>
<path d="M2336.43 3036.2C2188.06 3036.2 2029.04 2983.54 2018.93 2980.12C2008.34 2976.56 2002.63 2965.04 2006.18 2954.39C2009.7 2943.72 2021.21 2937.98 2031.76 2941.54C2035.33 2942.74 2390.12 3060.26 2513.1 2945.9C2521.31 2938.27 2534.11 2938.78 2541.67 2947.03C2549.26 2955.27 2548.76 2968.15 2540.55 2975.78C2491.69 3021.22 2415.58 3036.2 2336.43 3036.2" fill="#371A45"/>
<path d="M1184.65 1132.59C1193.2 1131.42 1199.17 1123.5 1197.99 1114.9L1136.82 666.696C1135.65 658.109 1127.77 652.096 1119.23 653.269C1029.62 665.656 966.949 748.776 979.261 838.936L1000.12 991.763C1012.42 1081.92 1095.05 1144.98 1184.65 1132.59" fill="white"/>
<path d="M1121.38 656.776C1120.84 656.776 1120.28 656.816 1119.72 656.896C1077.34 662.749 1039.77 684.856 1013.93 719.149C988.073 753.429 977.033 795.789 982.851 838.429L1003.72 991.269C1009.54 1033.91 1031.51 1071.71 1065.6 1097.72C1099.67 1123.74 1141.78 1134.82 1184.16 1128.98C1190.7 1128.07 1195.29 1121.98 1194.4 1115.39L1133.23 667.189C1132.79 664.002 1131.15 661.176 1128.59 659.229C1126.5 657.629 1123.98 656.776 1121.38 656.776ZM1162.03 1137.82C1125.74 1137.82 1090.61 1125.99 1061.2 1103.55C1025.56 1076.35 1002.61 1036.84 996.528 992.269L975.655 839.429C969.572 794.856 981.102 750.575 1008.14 714.722C1035.16 678.882 1074.43 655.775 1118.74 649.655C1123.78 648.949 1128.88 650.282 1132.98 653.402C1137.08 656.535 1139.72 661.069 1140.42 666.202L1201.6 1114.4C1203.04 1124.98 1195.66 1134.76 1185.14 1136.22C1177.43 1137.28 1169.7 1137.82 1162.03 1137.82" fill="#371A45"/>
<path d="M1162.09 1113.8C1130.95 1113.8 1100.84 1103.67 1075.62 1084.43C1045.07 1061.11 1025.37 1027.22 1020.16 989.002L1015.76 956.802C1044.98 988.669 1086.27 1008.51 1131.1 1009.83C1133.67 1018.86 1136.38 1027.84 1139.25 1036.74C1146.88 1062.99 1156 1088.68 1166.53 1113.74C1165.05 1113.78 1163.58 1113.8 1162.09 1113.8" fill="#B9AFBE"/>
<path d="M1117.42 674.136C1081.3 680.282 1049.38 699.736 1027.14 729.229C1003.96 759.962 994.076 797.949 999.298 836.162L1020.16 989.002C1025.37 1027.22 1045.07 1061.11 1075.62 1084.43C1104.93 1106.8 1140.86 1116.86 1177.33 1113L1117.42 674.136V674.136ZM1161.99 1154.51C1122.11 1154.51 1083.5 1141.51 1051.18 1116.84C1012.02 1086.96 986.774 1043.52 980.082 994.536L959.222 841.696C952.543 792.709 965.212 744.042 994.911 704.642C1024.62 665.242 1067.79 639.842 1116.48 633.122C1125.94 631.789 1135.38 634.282 1143.01 640.109C1150.63 645.936 1155.56 654.389 1156.86 663.936L1218.03 1112.14C1220.72 1131.83 1206.98 1150.04 1187.4 1152.75C1178.91 1153.92 1170.42 1154.51 1161.99 1154.51Z" fill="#371A45"/>
<path d="M2589.69 450.122C2581.14 451.296 2575.16 459.216 2576.34 467.816L2637.52 916.016C2638.68 924.616 2646.57 930.616 2655.1 929.442C2744.72 917.056 2807.39 833.936 2795.08 743.776L2774.22 590.949C2761.9 500.789 2679.29 437.736 2589.69 450.122" fill="white"/>
<path d="M2590.18 453.736C2583.63 454.642 2579.05 460.736 2579.93 467.322L2641.11 915.522C2641.54 918.709 2643.19 921.536 2645.73 923.483C2648.29 925.429 2651.43 926.256 2654.61 925.816C2696.99 919.963 2734.56 897.856 2760.41 863.562C2786.26 829.282 2797.29 786.923 2791.47 744.283L2770.61 591.442C2764.79 548.802 2742.82 511.002 2708.74 484.989C2674.66 458.989 2632.57 447.909 2590.18 453.736ZM2652.94 933.242C2648.77 933.242 2644.73 931.882 2641.35 929.309C2637.25 926.176 2634.61 921.642 2633.91 916.509L2572.74 468.309C2571.29 457.736 2578.67 447.949 2589.18 446.496C2633.47 440.376 2677.51 451.976 2713.14 479.163C2748.76 506.363 2771.72 545.882 2777.81 590.442L2798.67 743.283C2804.75 787.856 2793.22 832.149 2766.2 867.989C2739.18 903.829 2699.9 926.936 2655.59 933.056C2654.7 933.189 2653.82 933.242 2652.94 933.242" fill="#371A45"/>
<path d="M2665.18 906.922C2670.79 868.895 2673.68 830.202 2673.66 791.096C2715.54 779.269 2749.87 751.455 2770.79 715.389L2775.04 746.549C2780.26 784.776 2770.37 822.749 2747.2 853.482C2726.67 880.709 2697.88 899.375 2665.18 906.922Z" fill="#B9AFBE"/>
<path d="M2597 469.709L2656.92 908.576C2693.03 902.429 2724.96 882.989 2747.19 853.482C2770.37 822.749 2780.26 784.776 2775.04 746.549L2754.18 593.709C2748.96 555.496 2729.26 521.602 2698.72 498.282C2669.4 475.922 2633.46 465.842 2597 469.709V469.709ZM2652.96 949.936C2635.34 949.936 2619.94 936.816 2617.48 918.776L2556.3 470.576C2553.61 450.896 2567.36 432.669 2586.92 429.962H2586.93C2635.59 423.229 2683.99 435.989 2723.15 465.869C2762.32 495.749 2787.56 539.189 2794.24 588.176L2815.11 741.016C2821.79 790.002 2809.12 838.682 2779.42 878.069C2749.71 917.469 2706.55 942.869 2657.86 949.602C2656.2 949.829 2654.57 949.936 2652.96 949.936" fill="#371A45"/>
<path d="M1337.08 1508.94C1331.79 1503.95 1326.56 1498.88 1321.4 1493.74C1333.36 1456.79 1353.58 1423.55 1379.85 1396.26C1388.16 1403.28 1396.64 1410.16 1405.26 1416.87C1386.47 1440.78 1362.8 1472.08 1337.08 1508.94ZM2517.58 1420.54C2491.21 1397.2 2464.38 1374.3 2437.52 1356.26C2441.23 1352.59 2444.89 1348.88 2448.53 1345.14C2479 1360.22 2506.01 1381.34 2527.98 1406.94C2524.58 1411.5 2521.11 1416.04 2517.58 1420.54Z" fill="#B9AFBE"/>
<path d="M1321.4 1493.74C1316.09 1488.43 1310.84 1483.04 1305.65 1477.58C1318.73 1442.04 1338.99 1409.95 1364.65 1383.08C1369.64 1387.52 1374.72 1391.94 1379.85 1396.26C1353.58 1423.55 1333.36 1456.79 1321.4 1493.74V1493.74ZM2527.98 1406.94C2506.01 1381.34 2479 1360.22 2448.54 1345.14C2453.41 1340.12 2458.24 1335.03 2462.98 1329.88C2492.18 1345.23 2518.28 1365.79 2540.06 1390.3C2536.12 1395.9 2532.09 1401.44 2527.98 1406.94" fill="#371A45"/>
<path d="M1423.31 1579.7C1404.27 1566.18 1385.8 1551.79 1367.96 1536.6C1394.62 1498.07 1419.09 1465.51 1438.14 1441.1C1444.49 1445.54 1450.92 1449.88 1457.41 1454.14C1459.69 1455.64 1461.99 1457.12 1464.28 1458.6C1462.37 1465.87 1460.37 1473.51 1458.32 1481.52C1456.37 1489.02 1454.37 1496.83 1452.31 1504.96C1452.09 1505.3 1451.89 1505.64 1451.72 1506.02C1440.82 1530.12 1431.69 1554.82 1423.31 1579.7Z" fill="#B9AFBE"/>
<path d="M1367.96 1536.6C1361.09 1530.76 1354.32 1524.8 1347.66 1518.72C1344.09 1515.5 1340.57 1512.23 1337.08 1508.94C1362.8 1472.08 1386.47 1440.78 1405.26 1416.87C1415.99 1425.2 1426.95 1433.28 1438.14 1441.1C1419.09 1465.51 1394.62 1498.07 1367.96 1536.6Z" fill="#371A45"/>
<path d="M2440.93 1505.26C2438.78 1496.78 2436.71 1488.63 2434.69 1480.83C2423.58 1437.76 2414.48 1405.35 2408.91 1386.07C2435.92 1403.31 2464 1427.3 2491.74 1451.84C2475.66 1470.4 2458.71 1488.23 2440.93 1505.26" fill="#B9AFBE"/>
<path d="M2491.74 1451.84C2464 1427.3 2435.92 1403.31 2408.91 1386.07C2408.68 1385.28 2408.46 1384.52 2408.25 1383.79C2418.24 1374.86 2428.02 1365.67 2437.52 1356.26C2464.38 1374.3 2491.21 1397.2 2517.58 1420.54C2513.41 1425.86 2509.16 1431.12 2504.83 1436.34C2500.54 1441.56 2496.16 1446.74 2491.74 1451.84Z" fill="#371A45"/>
<path d="M1886.9 1728.19C1882.65 1728.19 1878.38 1728.15 1874.14 1728.08C1719.71 1725.78 1572.26 1678.4 1447.43 1596.2C1453.01 1567.55 1458.66 1538.88 1464.5 1510.3L1464.53 1510.2C1465.15 1507.16 1463.63 1503.98 1460.69 1502.63C1459.79 1502.22 1458.83 1502.02 1457.89 1502.02C1455.7 1502.02 1453.58 1503.1 1452.31 1504.96C1454.36 1496.83 1456.37 1489.02 1458.31 1481.52C1460.37 1473.51 1462.37 1465.87 1464.28 1458.6C1591.99 1540.56 1737.24 1582.92 1885.48 1582.92C1939.85 1582.91 1994.63 1577.22 2049.07 1565.68C2187.34 1536.4 2309.47 1472.04 2408.25 1383.79C2408.46 1384.52 2408.68 1385.28 2408.91 1386.07C2414.47 1405.35 2423.58 1437.76 2434.68 1480.83C2436.71 1488.63 2438.78 1496.78 2440.93 1505.26C2433.21 1512.71 2425.33 1519.99 2417.28 1527.12C2316.83 1616.11 2192.79 1681.04 2052.45 1710.74C1996.9 1722.48 1941.5 1728.19 1886.9 1728.19" fill="#B9AFBE"/>
<path d="M1447.43 1596.2C1442.45 1592.92 1437.51 1589.59 1432.6 1586.2C1429.49 1584.06 1426.39 1581.9 1423.31 1579.7C1431.69 1554.82 1440.82 1530.12 1451.71 1506.02C1451.89 1505.64 1452.09 1505.3 1452.31 1504.96C1453.58 1503.1 1455.7 1502.02 1457.89 1502.02C1458.83 1502.02 1459.79 1502.22 1460.69 1502.63C1463.63 1503.98 1465.15 1507.16 1464.53 1510.2L1464.5 1510.3C1458.66 1538.88 1453.01 1567.55 1447.43 1596.2" fill="#371A45"/>
<path d="M1137.23 950.162C1224.41 1366.82 1630.78 1633.48 2044.9 1545.78C2459.03 1458.08 2724.08 1049.23 2636.92 632.576C2549.74 215.922 2143.37 -50.7441 1729.25 36.9625C1315.12 124.656 1050.07 533.509 1137.23 950.162Z" fill="white"/>
<path d="M1887.26 23.989C1835.38 23.989 1782.74 29.3623 1729.99 40.5356C1530.65 82.7489 1359.58 200.536 1248.3 372.202C1137.01 543.869 1098.83 748.856 1140.78 949.402C1182.74 1149.96 1299.81 1322.07 1470.44 1434.04C1641.08 1546 1844.83 1584.42 2044.16 1542.2C2455.67 1455.06 2719.97 1047.34 2633.37 633.322C2557.86 272.389 2240.14 23.989 1887.26 23.989ZM1885.53 1566.23C1737.8 1566.23 1593.11 1523.26 1466.47 1440.16C1294.22 1327.14 1176.04 1153.38 1133.68 950.909C1091.32 748.442 1129.86 541.509 1242.21 368.202C1354.56 194.909 1527.26 76.0024 1728.5 33.3757C2143.91 -54.5976 2553.02 213.869 2640.47 631.829C2727.91 1049.78 2461.07 1461.38 2045.66 1549.36C1992.37 1560.64 1938.73 1566.22 1885.53 1566.23" fill="#371A45"/>
<path d="M1885.59 1542.2C1766.01 1542.2 1648.44 1513.15 1541.43 1456.63C1621.89 1479.82 1719.7 1496.14 1827.88 1496.14C1890.3 1496.14 1956.16 1490.7 2024.15 1478.02C2199.29 1445.34 2352.15 1359.68 2458.26 1273.76C2354.67 1398.19 2210.49 1489.92 2040.74 1525.87C1989.09 1536.8 1937.17 1542.22 1885.59 1542.2" fill="#B9AFBE"/>
<path d="M1887.26 40.6826C1836.5 40.6826 1785 45.9357 1733.41 56.8691C1538.4 98.1624 1371.06 213.389 1262.19 381.309C1153.33 549.242 1115.97 749.776 1157.02 945.976C1198.07 1142.16 1312.59 1310.54 1479.5 1420.06C1646.42 1529.59 1845.75 1567.16 2040.74 1525.87C2443.3 1440.63 2701.86 1041.78 2617.13 636.763C2543.25 283.683 2232.46 40.6826 1887.26 40.6826V40.6826ZM1885.48 1582.92C1734.58 1582.92 1586.77 1539.03 1457.41 1454.14C1281.46 1338.68 1160.71 1161.18 1117.44 954.349C1074.17 747.523 1113.55 536.123 1228.31 359.096C1343.08 182.056 1519.5 60.5891 1725.07 17.0558C2149.42 -72.8109 2567.37 201.429 2656.71 628.389C2746.03 1055.35 2473.43 1475.82 2049.07 1565.68C1994.63 1577.22 1939.85 1582.91 1885.48 1582.92Z" fill="#371A45"/>
<path d="M1143.68 969.029C1172.35 1117.11 1246.74 1245.23 1350.46 1342.96C1428.23 1416.23 1708.95 1516.14 2020.45 1458.02C2309.28 1404.12 2541.67 1198.06 2586.43 1100.78C2646.12 971.029 2667.28 824.189 2638.62 676.109C2562.76 284.243 2196.68 187.363 1783.85 268.256C1371.02 349.149 1067.83 577.176 1143.68 969.029Z" fill="#371A45"/>
<path d="M1163.54 965.136C1190.45 1104.23 1259.88 1229.74 1364.29 1328.11C1433.61 1393.43 1704.57 1496.27 2016.76 1438.02C2298.46 1385.46 2525.41 1184.96 2568.07 1092.24C2628.16 961.616 2645.68 819.069 2618.76 680.002C2584.29 501.949 2487.11 378.709 2329.91 313.723C2188.48 255.243 2000.99 246.429 1787.71 288.229C1574.43 330.016 1403.93 408.976 1294.66 516.576C1173.18 636.163 1129.07 787.082 1163.54 965.136ZM1827.88 1496.14C1587.04 1496.14 1397.6 1415.24 1336.64 1357.82C1225.98 1253.55 1152.39 1120.46 1123.85 972.922C1086.61 780.589 1134.55 617.269 1266.36 487.483C1381.3 374.323 1558.91 291.603 1779.98 248.283C2001.05 204.976 2196.52 214.576 2345.28 276.083C2515.87 346.603 2621.23 479.883 2658.45 672.216C2687.03 819.749 2668.46 970.896 2604.78 1109.32C2557.75 1211.55 2323.51 1422.16 2024.15 1478.02C1956.16 1490.7 1890.3 1496.14 1827.88 1496.14" fill="#371A45"/>
<path d="M1398.77 1000.32C1369.54 1000.32 1339.04 983.749 1315.2 955.749C1299.84 926.109 1286.1 895.416 1274.09 863.776C1265.99 807.842 1286.2 757.096 1327.08 741.069C1335.72 737.682 1344.73 736.069 1353.86 736.069C1398.14 736.069 1445.31 774.082 1467.87 832.296C1495.06 902.509 1476.11 975.496 1425.55 995.322C1416.91 998.709 1407.9 1000.32 1398.77 1000.32" fill="#C3BAC7"/>
<path d="M1553.07 1170.95C1532.53 1170.95 1511.29 1158.28 1499.2 1136.56C1482.42 1106.39 1489.67 1070.16 1515.42 1055.67C1522.63 1051.6 1530.54 1049.68 1538.55 1049.68C1559.1 1049.68 1580.34 1062.36 1592.43 1084.07C1609.21 1114.26 1601.96 1150.47 1576.21 1164.96C1568.99 1169.03 1561.09 1170.95 1553.07 1170.95Z" fill="#C3BAC7"/>
<path d="M1829.36 1455.24C1600.93 1455.23 1419.23 1379.88 1364.29 1328.11C1259.88 1229.74 1190.45 1104.23 1163.54 965.136C1137.51 830.669 1156.29 711.669 1219.38 609.963C1221.31 645.243 1225.8 681.696 1233.11 719.336C1242.79 769.362 1256.58 817.589 1274.09 863.776C1276.03 877.056 1279.54 890.629 1284.76 904.096C1292.42 923.883 1302.93 941.336 1315.2 955.749C1361.66 1045.38 1422.93 1125.51 1495.53 1193.91C1573.56 1267.43 1812.38 1362 2104.34 1362C2155.39 1362 2208.11 1359.11 2261.83 1352.71C2188.21 1390.44 2105.19 1421.51 2016.77 1438.02C1952.04 1450.1 1889.12 1455.24 1829.36 1455.24" fill="#2A1A3B"/>
<path d="M1830.34 1475.44C1600.28 1475.44 1411.93 1400.88 1350.45 1342.96C1246.78 1245.22 1172.36 1117.11 1143.68 969.002C1113.24 811.616 1143.9 680.602 1218.3 574.976C1218.38 586.509 1218.73 598.162 1219.38 609.962C1156.29 711.669 1137.51 830.669 1163.54 965.136C1190.45 1104.23 1259.88 1229.74 1364.29 1328.11C1419.23 1379.88 1600.93 1455.23 1829.36 1455.24C1889.12 1455.24 1952.04 1450.1 2016.76 1438.02C2105.19 1421.51 2188.21 1390.44 2261.83 1352.71C2280.64 1350.46 2299.58 1347.79 2318.61 1344.66C2232.23 1394.96 2130.46 1437.55 2020.48 1458.04C1955.21 1470.2 1891.33 1475.44 1830.34 1475.44Z" fill="#2A1A3B"/>
<path d="M1315.2 955.749C1302.93 941.336 1292.42 923.882 1284.76 904.096C1279.54 890.629 1276.02 877.056 1274.09 863.776C1286.1 895.416 1299.84 926.109 1315.2 955.749" fill="#858290"/>
<path d="M1141.43 633.149C1136.91 633.149 1132.35 631.629 1128.59 628.509C1121.04 622.242 1119.15 611.629 1123.58 603.256C1221.34 388.282 1456.49 229.949 1768.94 168.722C2083.9 107.002 2361.93 168.882 2531.75 338.469L2517.62 352.989L2504.87 368.789L2517.62 352.989L2504.86 368.776L2503.27 367.349C2343.1 207.416 2078.28 149.549 1776.67 208.656C1476.74 267.429 1251.94 417.762 1159.93 621.122L1159.03 623.136L1157.06 625.736C1153.05 630.616 1147.28 633.149 1141.43 633.149" fill="#371A45"/>
<path d="M2515.87 942.109C2515.87 942.109 2464.65 817.363 2325.97 634.563C2146.14 397.523 1800.77 381.816 1800.77 381.816C1795 372.176 1879.16 350.536 1995.15 350.536C2093.93 350.536 2215.82 366.243 2324.78 418.429C2561.67 531.909 2515.87 942.109 2515.87 942.109" fill="#C3BAC7"/>
<path d="M2030.44 2685.74L2058.91 2678.38C2068.56 2675.64 2078.28 2673.11 2087.92 2670.15C2107.28 2664.58 2126.52 2658.35 2145.59 2651.52C2164.78 2644.88 2183.51 2637.08 2202.65 2629.56C2221.93 2622.23 2240.68 2613.68 2261.2 2606.48C2247.68 2623.35 2231.84 2638.23 2214.56 2650.94C2206.08 2657.6 2197 2663.27 2187.91 2669.02C2178.61 2674.3 2169.3 2679.72 2159.71 2684.52C2140.6 2694.34 2120.81 2702.8 2100.5 2709.87C2079.95 2716.82 2059.8 2722.62 2037.21 2725.86C2026.16 2727.44 2015.93 2719.71 2014.35 2708.59C2012.88 2698.26 2019.42 2688.63 2029.22 2686.04L2030.44 2685.74" fill="#371A45"/>
<path d="M1856.36 2725.86C1833.77 2722.62 1813.62 2716.82 1793.08 2709.87C1772.76 2702.8 1752.96 2694.34 1733.86 2684.52C1724.27 2679.72 1714.97 2674.3 1705.66 2669.02C1696.57 2663.27 1687.49 2657.6 1679.01 2650.94C1661.73 2638.23 1645.89 2623.35 1632.38 2606.48C1652.89 2613.68 1671.63 2622.23 1690.93 2629.56C1710.05 2637.08 1728.79 2644.88 1747.98 2651.52C1767.05 2658.35 1786.29 2664.58 1805.65 2670.15C1815.29 2673.11 1825.01 2675.64 1834.66 2678.38L1863.13 2685.74L1864.24 2686.03C1875.06 2688.82 1881.56 2699.91 1878.78 2710.78C1876.2 2720.9 1866.39 2727.26 1856.36 2725.86" fill="#371A45"/>
<path d="M2494.21 3197.59C2482.45 3196.15 2469.41 3194.82 2456.88 3193.72C2444.24 3192.7 2431.56 3191.64 2418.85 3191.14C2393.46 3189.8 2368.05 3189.64 2342.67 3190.68C2317.31 3191.98 2292.26 3195.27 2267.05 3199.38C2241.97 3204.11 2217.42 3210.94 2191.79 3219.52C2211.13 3200.74 2234.99 3186.5 2260.17 3175.87C2285.53 3165.71 2312.19 3159.32 2339.04 3154.95C2365.93 3150.99 2393.06 3149.22 2420.13 3149.47C2433.66 3149.74 2447.19 3150.23 2460.69 3151.63C2474.31 3152.84 2487.35 3154.64 2501.46 3157.55C2512.4 3159.8 2519.46 3170.55 2517.22 3181.56C2515.1 3191.99 2505.39 3198.91 2495.06 3197.68L2494.21 3197.59" fill="#371A45"/>
<path d="M1391.61 3157.55C1405.74 3154.64 1418.77 3152.84 1432.39 3151.63C1445.88 3150.23 1459.41 3149.74 1472.95 3149.47C1500.02 3149.22 1527.15 3150.99 1554.04 3154.95C1580.89 3159.32 1607.57 3165.71 1632.92 3175.87C1658.1 3186.5 1681.95 3200.74 1701.3 3219.52C1675.66 3210.94 1651.11 3204.11 1626.04 3199.38C1600.82 3195.27 1575.77 3191.98 1550.42 3190.68C1525.04 3189.64 1499.62 3189.8 1474.23 3191.14C1461.54 3191.64 1448.84 3192.7 1436.2 3193.72C1423.67 3194.82 1410.63 3196.15 1398.86 3197.59L1398.1 3197.68C1387.02 3199.03 1376.94 3191.08 1375.59 3179.92C1374.32 3169.35 1381.44 3159.67 1391.61 3157.55" fill="#371A45"/>
<path d="M1946.57 2690.26C1932.4 2690.24 1918.18 2689.84 1903.97 2689.06C1890.36 2688.31 1876.39 2687.24 1863.23 2685.76L1863.13 2685.74L1834.66 2678.38C1825.01 2675.64 1815.29 2673.11 1805.65 2670.15C1786.29 2664.58 1767.05 2658.35 1747.98 2651.52C1728.79 2644.88 1710.05 2637.08 1690.92 2629.56C1678.89 2624.99 1667.06 2619.94 1654.88 2615.03C1701.01 2621.03 1860.07 2640.64 1965.48 2640.64C2068.37 2640.64 2196.35 2621.96 2237.57 2615.48C2225.79 2620.24 2214.31 2625.14 2202.65 2629.56C2183.51 2637.08 2164.78 2644.88 2145.59 2651.52C2126.52 2658.35 2107.28 2664.58 2087.92 2670.15C2078.28 2673.11 2068.56 2675.64 2058.91 2678.38L2030.67 2685.68C2017.3 2687.2 2003.04 2688.3 1989.16 2689.06C1974.95 2689.84 1960.73 2690.24 1946.57 2690.26" fill="#B9AFBE"/>
<path d="M1940.14 2705.92C1918.87 2705.92 1898.51 2704.68 1879.16 2702.48C1877.93 2694.75 1872.27 2688.1 1864.24 2686.03L1863.23 2685.76C1876.39 2687.24 1890.36 2688.31 1903.97 2689.06C1918.18 2689.84 1932.4 2690.24 1946.57 2690.26C1960.73 2690.24 1974.95 2689.84 1989.16 2689.06C2003.04 2688.3 2017.29 2687.2 2030.67 2685.68L2030.44 2685.74L2029.22 2686.04C2021.76 2688.02 2016.18 2694.07 2014.6 2701.4C1994.95 2703.76 1974.12 2705.31 1952.11 2705.79C1948.08 2705.88 1944.1 2705.92 1940.14 2705.92" fill="#371A45"/>
<path d="M2014.61 2701.4C2016.18 2694.07 2021.76 2688.02 2029.22 2686.04L2030.44 2685.74L2030.67 2685.68L2058.91 2678.38C2068.56 2675.64 2078.28 2673.11 2087.92 2670.15C2107.28 2664.58 2126.52 2658.35 2145.59 2651.52C2164.78 2644.88 2183.51 2637.08 2202.65 2629.56C2214.31 2625.14 2225.79 2620.24 2237.57 2615.48C2246.19 2614.14 2251.02 2613.32 2251.02 2613.32C2251.02 2613.32 2169.5 2682.78 2014.61 2701.4" fill="#371A45"/>
<path d="M1879.16 2702.48C1731.49 2685.71 1641.9 2613.32 1641.9 2613.32C1641.9 2613.32 1646.56 2613.95 1654.88 2615.03C1667.06 2619.94 1678.89 2624.99 1690.92 2629.56C1710.05 2637.08 1728.79 2644.88 1747.98 2651.52C1767.05 2658.35 1786.29 2664.58 1805.65 2670.15C1815.29 2673.11 1825.01 2675.64 1834.66 2678.38L1863.13 2685.74L1863.23 2685.76L1864.24 2686.03C1872.27 2688.1 1877.93 2694.75 1879.16 2702.48" fill="#371A45"/>
<path d="M2245.85 2427.98H1654.56C1595 2427.98 1546.23 2378.91 1546.23 2319.04V2275.66C1545.07 2276.03 1543.95 2276.3 1542.79 2276.62H1542.73C1540.61 2277.2 1538.51 2277.68 1536.33 2278.16C1534.48 2278.64 1532.53 2279.02 1530.57 2279.5C1530.3 2279.55 1529.99 2279.6 1529.72 2279.66C1526.29 2280.4 1522.74 2281.1 1519.2 2281.74C1515.7 2282.42 1512.16 2283.06 1508.57 2283.59C1507.99 2283.75 1507.35 2283.8 1506.71 2283.86C1503.64 2284.39 1500.58 2284.87 1497.4 2285.3C1494.12 2285.78 1490.73 2286.26 1487.35 2286.63C1485.23 2286.9 1483.07 2287.16 1480.9 2287.32C1478.35 2287.64 1475.77 2287.9 1473.22 2288.16C1469.32 2288.54 1465.35 2288.91 1461.43 2289.18H1461.17C1457.26 2289.5 1453.29 2289.76 1449.37 2289.98C1446.26 2290.19 1443.13 2290.35 1440.01 2290.51C1437.42 2290.62 1434.77 2290.72 1432.08 2290.78C1428.11 2290.99 1424.14 2291.1 1420.17 2291.15C1416.36 2291.26 1412.66 2291.31 1408.86 2291.31C1406.01 2291.34 1403.16 2291.35 1400.31 2291.35C1382.27 2291.35 1364.3 2290.82 1346.74 2289.91C1347.55 2275.55 1348.45 2261.18 1349.47 2246.82C1378.92 2249.39 1410.3 2251.1 1441.8 2251.1C1480.79 2251.1 1519.94 2248.48 1555.75 2241.67V2256.26C1555.75 2322.87 1609.61 2377.07 1675.82 2377.07H2221.16C2287.37 2377.07 2341.23 2322.87 2341.23 2256.26V2247.43C2365.51 2250.02 2390.63 2251.1 2415.72 2251.1C2459.65 2251.1 2503.4 2247.78 2541.93 2243.42C2543.05 2258.15 2544.09 2272.9 2545.04 2287.64C2516.85 2289.87 2486.9 2291.34 2456.75 2291.34C2421.92 2291.34 2386.86 2289.39 2354.07 2284.39V2319.04C2354.07 2378.91 2305.3 2427.98 2245.85 2427.98" fill="#B9AFBE"/>
<path d="M1346.74 2289.91C1339.96 2289.56 1333.24 2289.15 1326.6 2288.7C1327.42 2274.07 1328.35 2259.47 1329.38 2244.91C1335.95 2245.59 1342.66 2246.23 1349.47 2246.82C1348.45 2261.18 1347.55 2275.55 1346.74 2289.91ZM2545.04 2287.64C2544.09 2272.9 2543.05 2258.15 2541.93 2243.42C2545.84 2242.98 2549.68 2242.52 2553.47 2242.06C2556.86 2241.64 2560.23 2241.08 2563.54 2240.39C2564.63 2255.47 2565.62 2270.6 2566.51 2285.78C2559.49 2286.44 2552.33 2287.07 2545.04 2287.64" fill="#371A45"/>
<path d="M2354.07 2011.95C2349.76 2011.72 2345.48 2011.46 2341.23 2011.18V1958.31C2341.23 1953.1 2340.91 1947.96 2340.26 1942.92C2349.05 1958.63 2354.07 1976.75 2354.07 1995.99V2011.95ZM1546.23 2008.67V1995.99C1546.23 1979.96 1549.72 1964.71 1555.96 1950.98C1555.81 1953.4 1555.75 1955.84 1555.75 1958.31V2007.63C1552.61 2007.99 1549.44 2008.34 1546.23 2008.67" fill="#B9AFBE"/>
<path d="M2249.19 2205.64C2332.97 2239.76 2462.63 2232.63 2551.03 2221.86C2604.05 2215.4 2641.27 2166.18 2633.46 2113.03C2626.33 2064.52 2583.9 2029.26 2535.22 2031.55C2452.54 2035.44 2328.51 2037.27 2249.97 2019.74L2249.19 2205.64Z" fill="white"/>
<path d="M2414.87 2210.51C2389.89 2210.51 2364.98 2209.38 2341.23 2206.63V2131.14C2365.4 2133.82 2390.53 2134.91 2415.55 2134.91C2463.76 2134.91 2511.51 2130.82 2551.02 2126C2573.77 2123.26 2593.58 2112.63 2608.19 2097.2C2610.69 2103.08 2612.48 2109.38 2613.46 2116C2616.43 2136.28 2611.28 2156.4 2598.92 2172.68C2586.61 2188.92 2568.75 2199.22 2548.61 2201.66C2508.45 2206.55 2461.54 2210.51 2414.87 2210.51" fill="#B9AFBE"/>
<path d="M2256.77 2186.78C2335.53 2218.86 2458.95 2212.58 2548.6 2201.66C2568.75 2199.22 2586.61 2188.92 2598.92 2172.68C2611.28 2156.4 2616.43 2136.28 2613.46 2116C2607.82 2077.64 2574.57 2050.12 2536.16 2051.87C2448.49 2056.02 2327.9 2057.3 2248.46 2040.23C2240.45 2048.31 2226.58 2087.36 2230.33 2131.5C2231.51 2145.36 2236.45 2178.51 2256.77 2186.78V2186.78ZM2415.72 2251.1C2353.29 2251.1 2290.47 2244.4 2241.59 2224.5C2183.19 2200.71 2181.48 2107.12 2198.71 2051.36C2215.39 1997.4 2243.18 1997.4 2254.34 1999.88C2329.37 2016.63 2447.99 2015.3 2534.28 2011.23C2593.3 2008.4 2644.78 2050.91 2653.46 2110.06C2658.06 2141.28 2650.11 2172.3 2631.07 2197.38C2612.08 2222.4 2584.53 2238.28 2553.47 2242.06C2512.25 2247.07 2464.11 2251.1 2415.72 2251.1" fill="#371A45"/>
<path d="M1306.49 2221.86C1347.96 2226.91 1398.59 2231.16 1449.26 2230.7C1452.75 2230.7 1456.19 2230.64 1459.68 2230.52C1463.32 2230.47 1467.04 2230.36 1470.68 2230.22C1473.17 2230.16 1475.6 2230.06 1477.98 2229.95C1480.88 2229.79 1483.75 2229.63 1486.61 2229.47C1490.25 2229.26 1493.9 2228.99 1497.5 2228.72H1497.77C1501.36 2228.46 1505.02 2228.14 1508.61 2227.76C1510.99 2227.55 1513.37 2227.28 1515.7 2227.02C1517.71 2226.86 1519.71 2226.59 1521.68 2226.38C1524.79 2226 1527.92 2225.58 1530.93 2225.15C1533.84 2224.74 1536.69 2224.31 1539.5 2223.83C1540.08 2223.78 1540.67 2223.72 1541.2 2223.56C1544.52 2223.08 1547.81 2222.5 1551.03 2221.86C1554.32 2221.27 1557.54 2220.63 1560.72 2219.94C1560.98 2219.88 1561.24 2219.83 1561.51 2219.78C1563.3 2219.35 1565.1 2218.98 1566.85 2218.55C1568.8 2218.14 1570.76 2217.66 1572.72 2217.12H1572.78C1578.75 2215.63 1584.63 2213.92 1590.34 2212.12C1593.4 2211.16 1596.47 2210.1 1599.48 2209.03C1602.5 2207.96 1605.46 2206.79 1608.32 2205.63L1607.95 2116.38L1607.53 2019.72C1587.42 2024.24 1564.31 2027.44 1539.71 2029.68C1468.2 2036.23 1383.82 2034.42 1322.3 2031.54C1320.82 2031.5 1319.35 2031.44 1317.81 2031.44C1271.04 2031.44 1230.95 2066.03 1224.08 2113.02C1216.24 2166.19 1253.48 2215.42 1306.49 2221.86" fill="white"/>
<path d="M1442.65 2210.51C1396 2210.51 1349.06 2206.55 1308.91 2201.66C1288.78 2199.22 1270.9 2188.92 1258.6 2172.7C1246.24 2156.42 1241.08 2136.28 1244.06 2116C1244.63 2112.11 1245.49 2108.32 1246.61 2104.68C1261.44 2121.72 1282.32 2133.56 1306.49 2136.5C1345.83 2141.28 1393.38 2145.36 1441.41 2145.36C1444.03 2145.36 1446.64 2145.35 1449.26 2145.32C1452.76 2145.32 1456.2 2145.27 1459.68 2145.16C1463.34 2145.11 1467.04 2145 1470.69 2144.84C1473.17 2144.79 1475.61 2144.68 1478 2144.58C1480.9 2144.42 1483.76 2144.27 1486.61 2144.11C1490.27 2143.9 1493.91 2143.63 1497.5 2143.36H1497.77C1501.37 2143.1 1505.02 2142.78 1508.62 2142.4C1511 2142.19 1513.38 2141.92 1515.7 2141.66C1517.71 2141.5 1519.73 2141.23 1521.69 2141.02C1524.8 2140.64 1527.92 2140.22 1530.94 2139.79C1533.86 2139.36 1536.71 2138.94 1539.51 2138.46C1540.1 2138.4 1540.67 2138.35 1541.2 2138.19C1544.54 2137.72 1547.81 2137.14 1551.04 2136.5C1552.62 2136.22 1554.19 2135.91 1555.75 2135.6V2200.27C1521.04 2207.71 1481.95 2210.51 1442.65 2210.51" fill="#B9AFBE"/>
<path d="M1317.78 2051.79C1280.89 2051.79 1249.52 2078.82 1244.06 2116C1241.08 2136.28 1246.23 2156.42 1258.6 2172.7C1270.9 2188.92 1288.77 2199.22 1308.91 2201.66C1398.57 2212.58 1521.98 2218.86 1600.74 2186.78L1608.33 2205.64L1600.74 2186.78C1621.07 2178.5 1626.01 2145.36 1627.19 2131.5C1630.94 2087.35 1617.07 2048.31 1609.06 2040.23C1529.61 2057.28 1409.04 2056 1321.35 2051.87C1320.16 2051.82 1318.96 2051.79 1317.78 2051.79V2051.79ZM1441.8 2251.1C1393.4 2251.1 1345.27 2247.07 1304.06 2242.06C1272.99 2238.28 1245.43 2222.42 1226.43 2197.38C1207.42 2172.3 1199.47 2141.28 1204.05 2110.06C1212.73 2050.92 1264.11 2008.39 1323.24 2011.23C1409.53 2015.3 1528.14 2016.63 1603.17 1999.88C1614.34 1997.4 1642.12 1997.4 1658.8 2051.36C1676.04 2107.12 1674.33 2200.71 1615.91 2224.5C1567.05 2244.4 1504.22 2251.1 1441.8 2251.1Z" fill="#371A45"/>
<path d="M1575.95 1958.31V2256.22C1575.95 2311.5 1620.92 2356.74 1675.86 2356.74H2221.17C2276.04 2356.74 2321.02 2311.5 2321.02 2256.22V1958.31C2321.02 1903.03 2276.04 1857.87 2221.17 1857.87H1675.86C1643.52 1857.87 1614.64 1873.54 1596.33 1897.68C1583.55 1914.55 1575.95 1935.58 1575.95 1958.31" fill="white"/>
<path d="M2073.22 2247.64C2067.03 2247.64 2060.58 2247.46 2053.87 2247.06C1882.79 2236.94 1857.26 2098.23 1857.26 2098.23H1840.97C1839.29 2082.02 1833.16 2067.14 1823.85 2054.83C1808.12 2034.04 1783.27 2020.64 1755.3 2020.64C1720.46 2020.64 1690.46 2041.46 1676.89 2071.4C1673.12 2079.72 1670.62 2088.75 1669.64 2098.23H1653.71C1653.71 2098.23 1654.27 2187.63 1621.06 2188.22C1620.92 2188.22 1620.78 2188.22 1620.64 2188.22C1610.4 2188.22 1602.5 2181.91 1596.19 2171.03V1958.31C1596.19 1914.12 1631.91 1878.19 1675.81 1878.19H2221.16C2265.06 1878.19 2300.79 1914.12 2300.79 1958.31V2039.11C2222.76 2094.3 2248.05 2247.64 2073.22 2247.64" fill="white"/>
<path d="M2221.16 2336.38H1675.81C1631.91 2336.38 1596.19 2300.43 1596.19 2256.26V2171.03C1602.5 2181.91 1610.4 2188.22 1620.64 2188.22C1620.78 2188.22 1620.92 2188.22 1621.06 2188.22C1654.27 2187.63 1653.71 2098.23 1653.71 2098.23H1669.64C1669.33 2101.2 1669.18 2104.24 1669.18 2107.31C1669.18 2111.38 1669.44 2115.36 1670 2119.28C1675.81 2161.46 1711.78 2193.92 1755.3 2193.92C1798.53 2193.92 1834.32 2161.87 1840.48 2120.11C1841.13 2115.92 1841.43 2111.66 1841.43 2107.31C1841.43 2104.24 1841.27 2101.2 1840.97 2098.23H1857.26C1857.26 2098.23 1882.79 2236.94 2053.87 2247.06C2060.58 2247.46 2067.03 2247.64 2073.22 2247.64C2248.05 2247.64 2222.76 2094.3 2300.79 2039.11V2256.26C2300.79 2300.43 2265.06 2336.38 2221.16 2336.38" fill="#B9AFBE"/>
<path d="M1675.82 1878.19C1631.91 1878.19 1596.19 1914.12 1596.19 1958.31V2256.26C1596.19 2300.43 1631.91 2336.38 1675.82 2336.38H2221.16C2265.07 2336.38 2300.8 2300.43 2300.8 2256.26V1958.31C2300.8 1914.12 2265.07 1878.19 2221.16 1878.19H1675.82ZM2221.16 2377.07H1675.82C1609.61 2377.07 1555.75 2322.87 1555.75 2256.26V1958.31C1555.75 1891.7 1609.61 1837.5 1675.82 1837.5H2221.16C2287.37 1837.5 2341.23 1891.7 2341.23 1958.31V2256.26C2341.23 2322.87 2287.37 2377.07 2221.16 2377.07" fill="#371A45"/>
<path d="M1669.19 2107.28C1669.19 2155.12 1707.74 2193.92 1755.31 2193.92C1802.86 2193.92 1841.42 2155.12 1841.42 2107.28C1841.42 2059.43 1802.86 2020.64 1755.31 2020.64C1707.74 2020.64 1669.19 2059.43 1669.19 2107.28Z" fill="#22A7F0"/>
<path d="M1669.18 2107.31C1669.18 2112 1669.54 2116.6 1670.29 2121.11C1676.85 2079.8 1712.42 2048.26 1755.31 2048.26C1798.19 2048.26 1833.76 2079.8 1840.32 2121.11C1841.08 2116.6 1841.43 2112 1841.43 2107.31C1841.43 2059.46 1802.87 2020.64 1755.31 2020.64C1707.74 2020.64 1669.18 2059.46 1669.18 2107.31Z" fill="white"/>
<path d="M1755.3 2193.88C1712.42 2193.88 1676.86 2162.35 1670.3 2121.06C1672.11 2109.7 1676.11 2099.08 1681.86 2089.66C1696.93 2114.52 1724.19 2131.11 1755.3 2131.11C1786.42 2131.11 1813.68 2114.54 1828.76 2089.67C1834.5 2099.11 1838.5 2109.74 1840.32 2121.11C1840.33 2121.02 1840.35 2120.92 1840.36 2120.83C1833.89 2162.23 1798.27 2193.88 1755.3 2193.88" fill="#2976B4"/>
<path d="M1840.32 2121.11C1838.51 2109.74 1834.5 2099.11 1828.76 2089.67C1831.39 2085.32 1833.65 2080.72 1835.51 2075.91C1839.34 2085.64 1841.41 2096.19 1841.41 2107.26C1841.41 2111.88 1841.05 2116.42 1840.36 2120.83C1840.35 2120.92 1840.33 2121.02 1840.32 2121.11V2121.11ZM1670.3 2121.06C1669.59 2116.56 1669.22 2111.96 1669.22 2107.26C1669.22 2096.19 1671.28 2085.64 1675.11 2075.91C1676.97 2080.72 1679.22 2085.31 1681.86 2089.66C1676.11 2099.08 1672.11 2109.7 1670.3 2121.06Z" fill="#B9AFBE"/>
<path d="M1755.29 2035.9C1716.17 2035.9 1684.35 2067.92 1684.35 2107.28C1684.35 2146.64 1716.17 2178.66 1755.29 2178.66C1794.43 2178.66 1826.25 2146.64 1826.25 2107.28C1826.25 2067.92 1794.43 2035.9 1755.29 2035.9ZM1755.29 2209.18C1699.46 2209.18 1654.02 2163.47 1654.02 2107.28C1654.02 2051.1 1699.46 2005.38 1755.29 2005.38C1811.14 2005.38 1856.58 2051.1 1856.58 2107.28C1856.58 2163.47 1811.14 2209.18 1755.29 2209.18" fill="#371A45"/>
<path d="M1999.34 2377.06C1988.17 2377.06 1979.12 2367.95 1979.12 2356.72V2183.76C1979.12 2152.68 1993.85 2122.96 2018.53 2104.28L2064.87 2069.16C2079.46 2058.12 2088.17 2040.56 2088.17 2022.19V1857.84C2088.17 1846.6 2097.22 1837.5 2108.39 1837.5C2119.57 1837.5 2128.62 1846.6 2128.62 1857.84V2022.19C2128.62 2053.28 2113.88 2082.99 2089.2 2101.68L2042.86 2136.79C2028.27 2147.83 2019.56 2165.39 2019.56 2183.76V2356.72C2019.56 2367.95 2010.51 2377.06 1999.34 2377.06" fill="#371A45"/>
<path d="M2662.96 1463.67C2710.68 1662.95 2910.52 1644.38 2965.52 1630.91C3080.25 1602.8 3119.61 1494.03 3119.61 1494.03L3027.08 1370.99L2985.93 1304.42L2936.79 1289.55C2898.17 1218.74 2815.91 1138.43 2768.68 1166.76C2768.68 1166.76 2621.81 1291.9 2662.96 1463.67Z" fill="white"/>
<path d="M2937.77 1531.8C2920.3 1531.38 2901.67 1530.04 2881.78 1527.71C2842.67 1523.12 2807.97 1503.9 2787.99 1474.44C2819.7 1444.32 2825.89 1408.8 2824.7 1382.08C2845.81 1400.96 2865.9 1410.83 2883.79 1414.07L2897.86 1448.66C2898.69 1450.66 2899.8 1452.5 2901.16 1454.11C2898.91 1460.62 2897.55 1467.56 2897.56 1474.8C2897.59 1487.56 2902.04 1506.23 2923.15 1522.7C2927.51 1526.11 2932.41 1529.15 2937.77 1531.8" fill="#B9AFBE"/>
<path d="M3130.5 1228.76C3084.82 1274.9 3044.81 1308.91 3044.81 1308.91L2916.59 1440.92L2830.05 1228.31C2830.05 1228.31 2829.55 1185.4 2832.87 1128.6C2839.35 1016.15 2860.64 849.336 2929.71 853.642C3053.94 861.416 2971.75 1190.56 2971.75 1190.56C2971.75 1190.56 3170.06 924.549 3249.48 1000.11C3295.97 1044.32 3205.55 1152.92 3130.5 1228.76" fill="white"/>
<path d="M2932.9 1282.6C2912.37 1247.23 2881.75 1210.47 2850.6 1186.74C2850.91 1173.59 2851.41 1159.15 2852.17 1143.91C2886.25 1170.98 2931.99 1208.06 2950 1231.78C2960.88 1246.12 2976.48 1251.04 2994.34 1251.04C3013.81 1251.04 3035.98 1245.2 3057.72 1239.38C3072.9 1235.3 3087.87 1231.23 3101.57 1229.14C3092.86 1237.72 3084.18 1246.06 3075.66 1254.04C3069.83 1253.24 3063.41 1252.86 3056.55 1252.86C3020.18 1252.86 2971.39 1263.8 2932.9 1282.6" fill="#B9AFBE"/>
<path d="M2850.25 1224.2L2923.64 1404.58L3030.35 1294.67C3030.8 1294.22 3031.28 1293.78 3031.77 1293.35C3112.14 1224.98 3240.3 1093.75 3241.98 1032.7C3242.26 1022.58 3238.72 1017.88 3235.6 1014.92C3229.11 1008.74 3221.32 1006.26 3211.14 1007.14C3143.43 1012.92 3027.03 1150.34 2987.9 1202.8C2982.12 1210.55 2971.72 1213.11 2963.02 1208.95C2954.33 1204.78 2949.77 1195.03 2952.12 1185.63C2967.76 1122.92 2999.22 947.602 2957.5 890.202C2950 879.882 2940.77 874.723 2928.46 873.949C2924.5 873.696 2918.28 874.229 2910.52 881.656C2859.32 930.602 2849.69 1141.76 2850.25 1224.2V1224.2ZM2916.57 1461.3C2915.29 1461.3 2914 1461.16 2912.7 1460.91C2906.03 1459.6 2900.45 1454.99 2897.86 1448.66L2811.34 1235.99C2810.37 1233.62 2809.86 1231.08 2809.82 1228.51C2809.48 1197.46 2808.57 923.003 2882.65 852.163C2896.68 838.749 2913.47 832.269 2930.97 833.336C2955.17 834.856 2975.63 846.216 2990.15 866.202C3029.83 920.789 3020.55 1035.11 3007.77 1114.14C3060.82 1053.44 3143.17 972.122 3207.69 966.589C3229.23 964.736 3248.55 971.229 3263.39 985.349C3276.37 997.696 3282.94 1014.46 3282.4 1033.83C3279.68 1132.03 3084.58 1301.66 3058.62 1323.8L2931.05 1455.16C2927.2 1459.12 2921.97 1461.3 2916.57 1461.3" fill="#371A45"/>
<path d="M3143.06 1471.02C3112.65 1520.79 2983.46 1544.02 2935.51 1506.62C2894.72 1474.76 2935.46 1434.18 2947.07 1423.86C2948.87 1422.22 2950 1421.36 2950 1421.36C2950 1421.36 2900.37 1406.06 2891.69 1364C2891.12 1361.28 2890.73 1358.44 2890.56 1355.44C2887.51 1306.92 3016.3 1265.04 3074.79 1274.51C3118.51 1281.59 3135.18 1299.5 3139.29 1318.66C3143.69 1339.07 3133.83 1360.88 3127.24 1372.56C3124.19 1377.9 3121.89 1381.07 3121.89 1381.07C3121.89 1381.07 3167.46 1431.18 3143.06 1471.02" fill="white"/>
<path d="M2970.17 1422.07C2970.21 1420.63 2970.12 1419.18 2969.85 1417.74C2968.51 1410.3 2963.16 1404.22 2956 1401.94C2955.84 1401.88 2949.83 1399.92 2942.22 1395.74C2948.06 1389.26 2952.45 1381.51 2955.09 1373.04C2963.29 1373.6 2971.86 1373.92 2980.69 1373.92C3026.03 1373.92 3077.98 1365.42 3119.68 1335.28C3117.64 1349.22 3109.41 1363.67 3105.56 1369.07C3102.19 1373.68 3101.02 1379.35 3101.98 1384.68C3068.98 1399.43 3021.97 1416.3 2970.17 1422.07Z" fill="#B9AFBE"/>
<path d="M3006.08 1504.68C2981.13 1504.68 2959.73 1499.75 2947.93 1490.55C2939.07 1483.63 2938.02 1478.23 2938 1474.76C2937.99 1473.59 2938.11 1472.39 2938.34 1471.18C2954.4 1479.79 2976.11 1483.71 2999.42 1483.71C3048.37 1483.71 3104.35 1466.42 3129.56 1438.99C3130.63 1446.42 3129.85 1453.83 3125.85 1460.38C3115.21 1477.78 3082.35 1494.16 3044.11 1501.15C3031.05 1503.54 3018.16 1504.68 3006.08 1504.68" fill="#B9AFBE"/>
<path d="M3055.93 1293.46C3014.62 1293.46 2949.43 1312.2 2920.73 1338.46C2914.14 1344.47 2910.51 1350.2 2910.76 1354.18C2912.91 1387.86 2955.57 1401.8 2956 1401.94C2963.16 1404.22 2968.51 1410.3 2969.85 1417.74C2971.19 1425.16 2968.37 1432.74 2962.46 1437.39C2954.48 1443.75 2937.93 1461.32 2938.01 1474.76C2938.02 1478.23 2939.07 1483.63 2947.93 1490.55C2965.43 1504.2 3004.07 1508.46 3044.11 1501.15C3082.35 1494.16 3115.21 1477.78 3125.85 1460.38C3141.65 1434.58 3107.27 1395.18 3106.92 1394.79C3100.47 1387.63 3099.87 1376.86 3105.56 1369.07C3111.02 1361.43 3125.21 1335.7 3118.29 1318.91C3112.17 1304.06 3089.51 1297.47 3071.59 1294.58C3066.94 1293.82 3061.67 1293.46 3055.93 1293.46ZM3005.74 1545.48C2971.6 1545.48 2942.27 1537.63 2923.15 1522.7C2902.04 1506.23 2897.59 1487.56 2897.56 1474.8C2897.52 1456.35 2906.51 1439.78 2916.01 1427.42C2896.14 1414.9 2872.67 1392.66 2870.41 1356.78C2869.65 1345 2873.06 1327.04 2893.53 1308.34C2936.67 1268.91 3029.75 1246.62 3078.01 1254.4C3118.98 1261.03 3145.13 1277.56 3155.73 1303.52C3167.48 1332.27 3155.68 1362.6 3146.48 1379.68C3160.97 1400.26 3184.03 1442.95 3160.29 1481.71C3143.21 1509.6 3102.48 1531.84 3051.33 1541.19C3035.55 1544.07 3020.2 1545.48 3005.74 1545.48" fill="#371A45"/>
<path d="M2966.21 1442.19C2960.48 1442.19 2954.68 1442.03 2948.82 1441.67C2937.66 1441.02 2929.15 1431.39 2929.8 1420.18C2930.46 1408.95 2940.05 1400.27 2951.18 1401.06C3038.08 1406.18 3110.9 1363.98 3111.61 1363.55C3121.26 1357.88 3133.64 1361.11 3139.29 1370.78C3144.93 1380.46 3141.75 1392.9 3132.14 1398.6C3128.97 1400.48 3057.62 1442.19 2966.21 1442.19" fill="#371A45"/>
<path d="M2768.69 1166.78C2831.39 1129.16 2955.67 1282.82 2957.95 1351.78C2959.7 1404.4 2897.73 1448.32 2823.68 1381.16C2748.64 1313.11 2670.22 1225.86 2768.69 1166.78" fill="white"/>
<path d="M3119.61 1494.06C3119.61 1494.06 3080.23 1602.79 2965.54 1630.9C2910.52 1644.38 2710.7 1662.96 2662.96 1463.66C2621.81 1291.9 2768.69 1166.78 2768.69 1166.78C2831.39 1129.16 2955.67 1282.82 2957.95 1351.78C2959.7 1404.4 2881.93 1434.26 2816.81 1341.63C2816.81 1341.63 2851.12 1425.76 2777.86 1483.16L2950.48 1583.2L3081.01 1557.56L3119.61 1494.06" fill="white"/>
<path d="M2811.97 1442.84L2808.53 1440.87C2811.12 1438.83 2813.48 1436.84 2815.74 1434.74C2814.61 1437.4 2813.38 1440.12 2811.97 1442.84Z" fill="white"/>
<path d="M2947.2 1383.8C2953.47 1376.32 2957.31 1366.88 2957.9 1356.38C2957.91 1356.36 2957.92 1356.36 2957.94 1356.35C2957.34 1366.88 2953.5 1376.32 2947.2 1383.8Z" fill="#B9AFBE"/>
<path d="M2906.92 1401.39C2888.08 1401.39 2865.9 1393.04 2843.74 1372.74C2840.41 1345.35 2819.51 1326.03 2819.51 1326.03C2817.98 1320.32 2819.42 1318.02 2823.15 1318.02C2831.08 1318.02 2849.35 1328.52 2870.92 1339.03C2892.51 1349.55 2917.41 1360.06 2938.63 1360.06C2945.52 1360.06 2952.03 1358.95 2957.9 1356.38C2957.31 1366.88 2953.47 1376.32 2947.2 1383.8C2938.1 1394.64 2923.85 1401.39 2906.92 1401.39" fill="#B9AFBE"/>
<path d="M3056.76 1582.68C3056.76 1582.67 3056.76 1582.67 3056.76 1582.66C3065.97 1574.46 3074.02 1565.95 3081.01 1557.58L3081.04 1557.56C3074.04 1565.94 3065.97 1574.47 3056.76 1582.68V1582.68ZM2656.68 1379.92C2656.98 1376.39 2657.37 1372.87 2657.81 1369.4C2657.37 1372.87 2656.98 1376.39 2656.68 1379.92Z" fill="#845EBE"/>
<path d="M2868.62 1637.5C2804.78 1632.31 2729.01 1606.6 2686.31 1526.6V1526.59C2727.95 1604.6 2801.01 1630.98 2863.8 1637.06C2865.38 1637.2 2866.95 1637.35 2868.51 1637.47C2868.55 1637.48 2868.58 1637.48 2868.62 1637.5Z" fill="#B9AFBE"/>
<path d="M2895.24 1638.56C2886.7 1638.56 2877.78 1638.23 2868.61 1637.5C2868.57 1637.48 2868.55 1637.48 2868.51 1637.47C2877.71 1638.22 2886.65 1638.55 2895.23 1638.55C2925.32 1638.55 2950.69 1634.55 2965.52 1630.91C2984.59 1626.23 3001.59 1619.34 3016.66 1611.07C3016.66 1611.08 3016.66 1611.07 3016.66 1611.08C3001.59 1619.34 2984.6 1626.24 2965.54 1630.91C2950.7 1634.55 2925.31 1638.56 2895.24 1638.56Z" fill="#8C7B94"/>
<path d="M3016.66 1611.08C3016.66 1611.07 3016.66 1611.08 3016.66 1611.07C3018.49 1610.07 3020.29 1609.04 3022.05 1608C3035.09 1600.35 3046.62 1591.7 3056.76 1582.66C3056.76 1582.67 3056.76 1582.67 3056.76 1582.68C3045.25 1592.94 3031.94 1602.71 3016.66 1611.08V1611.08ZM2686.31 1526.6C2676.66 1508.52 2668.7 1487.67 2662.95 1463.64C2655.91 1434.24 2654.37 1406.2 2656.68 1379.92C2654.39 1406.2 2655.91 1434.24 2662.96 1463.66C2668.71 1487.67 2676.66 1508.51 2686.31 1526.59V1526.6" fill="#371A45"/>
<path d="M2895.23 1638.55C2886.65 1638.55 2877.71 1638.22 2868.51 1637.47C2866.95 1637.35 2865.38 1637.2 2863.8 1637.06C2874.66 1638.1 2885.19 1638.55 2895.21 1638.55C2925.31 1638.55 2950.7 1634.54 2965.54 1630.9C2986.92 1625.66 3005.69 1617.62 3022.05 1608C3020.29 1609.04 3018.49 1610.07 3016.66 1611.07C3001.59 1619.34 2984.59 1626.23 2965.52 1630.91C2950.69 1634.55 2925.32 1638.55 2895.23 1638.55ZM3058.98 1561.9C3058.99 1561.88 3059 1561.88 3059.02 1561.88L3073.91 1558.96L3058.98 1561.9Z" fill="#B9AFBE"/>
<path d="M2657.82 1369.35C2657.83 1369.22 2657.85 1369.1 2657.87 1368.98C2657.85 1369.1 2657.83 1369.22 2657.82 1369.35ZM2657.87 1368.92C2657.89 1368.8 2657.9 1368.68 2657.92 1368.56C2657.9 1368.68 2657.89 1368.8 2657.87 1368.92ZM2657.95 1368.36C2657.95 1368.31 2657.95 1368.27 2657.96 1368.22C2657.96 1368.27 2657.95 1368.31 2657.95 1368.36Z" fill="#845EBE"/>
<path d="M2895.21 1638.55C2885.19 1638.55 2874.66 1638.1 2863.8 1637.06C2801.01 1630.98 2727.95 1604.6 2686.31 1526.59C2676.66 1508.51 2668.71 1487.67 2662.96 1463.66C2655.91 1434.24 2654.39 1406.2 2656.68 1379.92C2656.98 1376.39 2657.37 1372.87 2657.81 1369.4C2657.82 1369.38 2657.82 1369.36 2657.82 1369.35C2657.83 1369.22 2657.85 1369.1 2657.87 1368.98C2657.87 1368.95 2657.87 1368.94 2657.87 1368.92C2657.89 1368.8 2657.9 1368.68 2657.92 1368.56C2657.92 1368.5 2657.94 1368.43 2657.95 1368.36C2657.95 1368.31 2657.96 1368.27 2657.96 1368.22C2667.6 1295.5 2705.81 1237.28 2734.67 1202.52C2701.61 1255.58 2672.25 1332.2 2693.6 1421.36C2728.46 1566.91 2844.43 1596.27 2925.89 1596.27C2955.98 1596.27 2981.34 1592.27 2996.2 1588.63C3020.34 1582.68 3041.19 1573.23 3058.97 1561.9L3073.91 1558.96L3081.01 1557.58C3074.02 1565.95 3065.97 1574.46 3056.76 1582.66C3046.62 1591.7 3035.09 1600.35 3022.05 1608C3005.69 1617.62 2986.92 1625.66 2965.54 1630.9C2950.7 1634.54 2925.31 1638.55 2895.21 1638.55" fill="#B9AFBE"/>
<path d="M3119.57 1494.15C3119.18 1495.22 3116.03 1503.55 3109.43 1515.74L3106.05 1516.42L3119.57 1494.15Z" fill="white"/>
<path d="M3111.68 1515.28C3109.88 1517.44 3108.02 1519.66 3106.05 1521.8C3107.23 1519.71 3108.37 1517.67 3109.43 1515.74L3111.68 1515.28Z" fill="white"/>
<path d="M2743.15 1601.8C2731.81 1599.59 2721.52 1594.67 2712.13 1588.48C2702.73 1582.26 2694.26 1574.6 2687.09 1565.91C2672.37 1548.76 2661.52 1528.58 2654.16 1507.67C2640.06 1466.06 2632.56 1421.62 2636.69 1377.44C2640.54 1333.35 2655 1291.02 2675.76 1253.15C2686.15 1234.16 2698.08 1216.16 2711.31 1199.24C2717.91 1190.76 2724.82 1182.54 2732.1 1174.59C2735.76 1170.63 2739.44 1166.71 2743.3 1162.87C2747.25 1158.95 2750.85 1155.43 2755.62 1151.26C2756.37 1150.62 2757.13 1150.04 2757.94 1149.54L2758.33 1149.31C2771.37 1141.4 2787.22 1139.48 2800.28 1141.34C2813.55 1143.12 2824.96 1147.67 2835.31 1152.94C2845.7 1158.22 2854.9 1164.54 2863.63 1171.22C2872.38 1177.87 2880.46 1185.06 2888.14 1192.55C2903.55 1207.47 2917.23 1223.72 2929.79 1240.83C2942.19 1258.07 2953.47 1276.18 2962.73 1296.03C2967.31 1306 2971.43 1316.38 2974.45 1327.78C2975.93 1333.48 2977.19 1339.42 2977.75 1345.95L2978.13 1350.83C2978.13 1352.55 2978.03 1354.36 2977.94 1356.12C2977.62 1359.66 2977.78 1363.2 2976.84 1366.71C2974.5 1380.98 2966.35 1394.35 2955.66 1403.82C2944.91 1413.26 2931.42 1419.39 2918.06 1420.83C2914.71 1421.56 2911.42 1421.52 2908.12 1421.54C2904.86 1421.46 2901.44 1421.79 2898.31 1421.23C2891.99 1420.24 2885.5 1419.5 2879.73 1417.3C2876.78 1416.34 2873.78 1415.43 2870.89 1414.35L2862.73 1410.43C2857.11 1407.98 2852.31 1404.62 2847.42 1401.36C2828.11 1388.03 2813.22 1371.06 2800.3 1353.39L2835.51 1333.91C2837.3 1338.58 2838.24 1341.76 2839.3 1345.58C2840.32 1349.24 2841.17 1352.91 2841.87 1356.59C2843.38 1363.94 2844.22 1371.38 2844.76 1378.88C2845.5 1393.9 2844.56 1409.24 2841.41 1424.48C2840.12 1432.16 2837.15 1439.52 2834.14 1446.72C2832.33 1450.19 2830.29 1453.55 2828.35 1456.94C2826.42 1460.34 2823.65 1463.15 2821.29 1466.2C2811.38 1478.11 2797.65 1486.34 2782.01 1488.52C2777.78 1489.11 2773.89 1486.14 2773.3 1481.9C2773.17 1480.92 2773.22 1479.96 2773.42 1479.07L2773.73 1477.82C2775.53 1470.1 2778.56 1464.6 2780.83 1458.83C2783.07 1453.08 2785.89 1448.24 2787.97 1443.15C2792.84 1433.39 2796.9 1423.91 2800.3 1413.72C2803.77 1403.6 2805.21 1392.47 2804.39 1381.28C2803.97 1375.7 2803.36 1370.08 2802.22 1364.58C2801.69 1361.8 2801.05 1359.08 2800.31 1356.42C2799.66 1353.91 2798.64 1350.82 2798.1 1349.36L2797.99 1349.07C2794.1 1338.51 2799.46 1326.76 2809.96 1322.86C2818.63 1319.63 2828.09 1322.75 2833.31 1329.88C2844.12 1344.66 2856.29 1358.18 2870.14 1367.7C2883.79 1377.07 2899.4 1382.59 2912.47 1380.52C2919.13 1379.98 2924.63 1376.94 2928.91 1373.3C2933.05 1369.5 2936.32 1364.79 2937.12 1358.98C2937.66 1357.64 2937.28 1356.02 2937.53 1354.56L2937.73 1352.31L2937.48 1349.66C2937.2 1346.14 2936.4 1342.15 2935.33 1338.11C2933.19 1330 2929.91 1321.55 2926.08 1313.23C2910.25 1279.84 2886.78 1248.06 2860.04 1221.82C2846.66 1208.76 2831.96 1197 2816.88 1189.15C2809.4 1185.31 2801.8 1182.56 2795.17 1181.71C2788.45 1180.86 2783.36 1181.76 2779.04 1184.26L2781.76 1182.31C2778.84 1184.86 2775.09 1188.43 2771.82 1191.72C2768.43 1195.1 2765.13 1198.62 2761.85 1202.16C2755.33 1209.28 2749.08 1216.71 2743.13 1224.36C2731.19 1239.64 2720.45 1255.86 2711.19 1272.76C2692.67 1306.56 2680.24 1343.43 2676.97 1381.11C2673.55 1418.62 2679.08 1457.22 2694.18 1492.03C2701.53 1509.31 2710.03 1525.6 2719.77 1541.24C2729.67 1556.88 2740.24 1571.76 2750.92 1590.72L2750.98 1590.83C2753 1594.4 2751.75 1598.95 2748.2 1600.96C2746.61 1601.88 2744.82 1602.12 2743.15 1601.8" fill="#371A45"/>
<path d="M3138.61 1501.02C3136.54 1506.63 3134.87 1510.79 3132.69 1515.32C3130.59 1519.76 3128.38 1524.08 3125.99 1528.28C3123.65 1532.52 3121.02 1536.56 3118.53 1540.7C3115.87 1544.71 3113.05 1548.62 3110.29 1552.55L3101.38 1563.91L3091.71 1574.62C3084.96 1581.5 3078.18 1588.3 3070.52 1594.16C3063.23 1600.42 3055.14 1605.72 3047.19 1610.99C3038.71 1615.54 3030.65 1620.62 3021.75 1624.12C3004.67 1632.36 2985.16 1635.76 2965.94 1632.55C2964.95 1632.38 2964.27 1631.43 2964.44 1630.43C2964.51 1629.99 2964.74 1629.62 2965.05 1629.34L2965.15 1629.26C2980.04 1616.31 2994.62 1608.67 3008.5 1599.18C3015.69 1595.02 3021.96 1589.39 3028.55 1584.5C3034.56 1578.75 3041.06 1573.74 3046.56 1567.54C3049.42 1564.58 3052.31 1561.68 3054.88 1558.44C3057.53 1555.28 3060.38 1552.34 3062.87 1549.06L3070.32 1539.24L3077.38 1529.14C3081.8 1522.19 3086.2 1515.26 3090.08 1508.07C3092 1504.46 3094.01 1500.92 3095.75 1497.28C3097.5 1493.82 3099.43 1489.8 3100.61 1487.1L3101.14 1485.84C3105.61 1475.55 3117.51 1470.84 3127.74 1475.32C3137.6 1479.64 3142.28 1490.99 3138.61 1501.02" fill="#371A45"/>
<path d="M2805.48 2005.35C2768.01 2005.35 2640.74 1995.3 2599.87 1862.38C2541.04 1671.1 2627.32 1530.14 2631.04 1524.23C2635.5 1517.1 2644.87 1514.96 2651.95 1519.47C2659.02 1523.96 2661.16 1533.36 2656.71 1540.5C2655.7 1542.1 2574.35 1676.18 2628.84 1853.35C2669.41 1985.3 2807.45 1975.14 2813.3 1974.63C2821.7 1973.98 2828.99 1980.14 2829.7 1988.52C2830.42 1996.91 2824.27 2004.3 2815.94 2005.03C2815.7 2005.06 2811.91 2005.35 2805.48 2005.35" fill="#371A45"/>
<path d="M1351.43 2048.02C1350.11 2048.02 1348.77 2047.84 1347.43 2047.47C1193.32 2005.11 1154.43 1879.35 1152.84 1874.02C1150.46 1865.94 1155.03 1857.44 1163.05 1855.03C1171.07 1852.63 1179.51 1857.2 1181.91 1865.27C1183.38 1870.11 1218.22 1980.31 1355.42 2018.03C1363.51 2020.26 1368.26 2028.64 1366.05 2036.78C1364.21 2043.55 1358.1 2048.02 1351.43 2048.02" fill="#371A45"/>
<path d="M676.505 953.722C672.384 953.722 668.236 952.656 664.485 950.456L514.85 862.549C506.398 857.589 496.813 854.963 487.134 854.963C482.436 854.963 477.77 855.589 473.253 856.802C444.166 864.656 414.056 868.776 383.76 869.029L380.686 869.042C187.014 869.042 26.9564 710.616 23.8937 515.883C22.3684 418.856 58.76 327.362 126.356 258.269C193.971 189.162 284.28 151.096 380.655 151.096C382.996 151.096 385.325 151.123 387.681 151.163C582.054 154.936 738.965 317.202 737.441 512.909C736.765 600.802 704.15 685.136 645.587 750.389C629.061 768.829 626.397 795.776 638.987 817.456L697.113 917.629C702.573 927.056 701.036 938.989 693.376 946.696C688.777 951.323 682.668 953.722 676.505 953.722" fill="#F9195A"/>
<path d="M380.654 127.109H380.648C277.835 127.109 181.489 167.722 109.357 241.442C37.2375 315.162 -1.58199 412.762 0.0494046 516.256C3.31617 724.016 174.073 893.042 380.686 893.042L383.973 893.029C416.283 892.749 448.398 888.362 479.434 879.976C481.937 879.296 484.525 878.963 487.134 878.963C492.595 878.963 498.018 880.456 502.826 883.269L652.465 971.176C659.966 975.576 668.262 977.722 676.505 977.722C688.843 977.722 701.049 972.909 710.246 963.669C725.566 948.242 728.628 924.362 717.707 905.536L659.568 805.363C652.253 792.736 653.737 777.109 663.292 766.469C725.765 696.856 760.566 606.869 761.295 513.109C762.912 304.322 595.505 131.189 388.139 127.176C385.636 127.122 383.144 127.109 380.654 127.109V127.109ZM380.654 175.083C382.841 175.083 385.021 175.109 387.221 175.149C568.589 178.669 715.004 330.229 713.599 512.722C712.936 597.962 680.6 675.562 627.881 734.322C604.384 760.509 600.7 799.083 618.379 829.563L676.518 929.736L526.87 841.829C514.718 834.683 500.975 830.976 487.134 830.976C480.41 830.976 473.668 831.843 467.066 833.629C440.406 840.829 412.419 844.789 383.559 845.042C382.601 845.056 381.644 845.056 380.686 845.056C200.03 845.056 50.6067 697.576 47.7401 515.496C44.7901 328.016 194.975 175.096 380.654 175.083" fill="#371A45"/>
<path d="M98.1058 681.002C95.4474 678.442 92.83 675.829 90.2563 673.176C64.0242 626.349 48.6405 572.656 47.742 515.496C46.9866 467.536 56.2568 421.829 73.5792 380.362C123.197 261.616 238.881 177.682 374.343 175.149C376.443 175.109 378.54 175.082 380.651 175.082C381.304 175.082 381.944 175.096 382.599 175.096C384.136 175.109 385.674 175.122 387.22 175.149C399.618 175.389 411.849 176.322 423.885 177.909H423.895C424.057 177.936 424.211 177.949 424.371 177.976C424.386 177.976 424.403 177.976 424.418 177.989C424.567 178.002 424.703 178.016 424.852 178.042C424.908 178.056 424.972 178.056 425.027 178.069C425.113 178.082 425.173 178.082 425.258 178.096C425.433 178.122 425.609 178.149 425.784 178.162L425.804 178.176C500.722 188.496 567.793 224.202 618.312 276.216C621.731 282.309 624.965 288.522 628.013 294.842C569.662 238.549 491.164 203.216 404.702 201.536C402.514 201.496 400.31 201.469 398.131 201.469C212.441 201.469 62.2708 354.389 65.2235 541.882C66.0054 591.629 77.7804 638.749 98.1058 681.002" fill="#FC8CAD"/>
<path d="M73.5791 380.362C123.189 261.616 238.884 177.682 374.343 175.149C238.881 177.682 123.197 261.616 73.5791 380.362ZM425.804 178.176L425.784 178.162C425.792 178.162 425.797 178.176 425.804 178.176ZM425.258 178.096C425.173 178.082 425.113 178.082 425.027 178.069C425.105 178.069 425.181 178.082 425.258 178.096ZM424.852 178.042C424.702 178.016 424.567 178.002 424.417 177.989C424.565 178.002 424.705 178.016 424.852 178.042ZM424.371 177.976C424.211 177.949 424.057 177.936 423.895 177.909C424.057 177.936 424.211 177.949 424.371 177.976ZM423.885 177.909C411.849 176.322 399.618 175.389 387.22 175.149C385.674 175.122 384.136 175.109 382.599 175.096C384.138 175.109 385.678 175.122 387.22 175.149C399.619 175.389 411.849 176.322 423.885 177.909Z" fill="#9B8DA2"/>
<path d="M676.518 929.736L621.348 897.336L526.87 841.829C514.718 834.682 500.974 830.976 487.133 830.976C480.41 830.976 473.668 831.842 467.066 833.629C467.051 833.642 467.033 833.642 467.017 833.642C466.902 833.669 466.787 833.709 466.672 833.736C453.509 837.269 440.029 840.016 426.278 841.922C426.266 841.922 426.251 841.922 426.239 841.922C426.166 841.936 426.093 841.949 426.021 841.962C425.965 841.962 425.908 841.976 425.852 841.989C425.817 841.989 425.785 841.989 425.749 842.002C425.669 842.002 425.59 842.016 425.509 842.029C425.49 842.029 425.473 842.029 425.455 842.042C411.737 843.896 397.753 844.922 383.559 845.042C382.601 845.056 381.644 845.056 380.686 845.056C344.177 845.056 308.958 839.029 275.952 827.922C275.926 827.909 275.881 827.896 275.854 827.882C275.744 827.856 275.616 827.802 275.506 827.762C275.471 827.762 275.442 827.749 275.408 827.736C275.288 827.696 275.148 827.642 275.029 827.602C274.96 827.589 274.897 827.562 274.828 827.536C274.769 827.522 274.712 827.496 274.652 827.482C196.075 800.656 130.251 744.936 90.0596 672.976C90.1272 673.042 90.1895 673.109 90.2571 673.176C96.9735 685.162 104.404 696.709 112.482 707.749C107.306 699.082 102.505 690.149 98.1066 681.002C158.124 738.949 239.382 774.696 328.243 774.696C329.2 774.696 330.153 774.696 331.111 774.682C359.975 774.442 387.957 770.482 414.622 763.282C417.445 762.509 421.687 761.989 426.894 761.642C476.498 758.336 520.853 731.522 551.109 691.829C558.557 682.056 567.052 673.309 575.441 663.962C628.16 605.216 660.496 527.602 661.145 442.376C661.556 389.656 649.562 339.562 628.014 294.842C641.929 308.269 654.705 322.896 666.168 338.549C652.65 315.936 636.562 295.003 618.313 276.216C618.3 276.189 618.286 276.176 618.273 276.162C677.764 337.362 714.301 421.149 713.599 512.722C712.95 597.176 681.196 674.122 629.352 732.669L629.339 732.682C629.246 732.789 629.14 732.896 629.048 733.016C629.034 733.029 629.034 733.029 629.021 733.042C628.928 733.149 628.849 733.242 628.756 733.336C628.464 733.669 628.173 733.989 627.881 734.322C614.112 749.669 607.141 769.282 607.3 789.016C607.3 802.736 610.799 816.482 618.048 828.989L633.924 856.336L676.518 929.736" fill="#B31D61"/>
<path d="M676.517 929.736L633.924 856.336L676.517 929.736ZM621.347 897.336L526.869 841.829C514.703 834.682 500.986 831.029 487.145 831.029C480.41 831.029 473.645 831.896 467.016 833.642C467.032 833.642 467.05 833.642 467.066 833.629C473.667 831.842 480.41 830.976 487.133 830.976C500.974 830.976 514.717 834.682 526.869 841.829L621.347 897.336V897.336ZM380.687 845.056C344.178 845.056 308.957 839.029 275.951 827.922C308.957 839.029 344.176 845.056 380.685 845.056C381.643 845.056 382.6 845.056 383.558 845.042C397.752 844.922 411.736 843.896 425.454 842.042C411.736 843.896 397.752 844.922 383.556 845.042C382.6 845.056 381.641 845.056 380.687 845.056V845.056ZM425.508 842.029C425.589 842.016 425.669 842.002 425.748 842.002C425.669 842.002 425.588 842.016 425.508 842.029ZM425.851 841.989C425.907 841.976 425.964 841.962 426.02 841.962C425.964 841.962 425.907 841.976 425.851 841.989ZM426.238 841.922C426.25 841.922 426.265 841.922 426.277 841.922C426.265 841.922 426.25 841.922 426.238 841.922ZM275.853 827.882C275.735 827.842 275.623 827.802 275.505 827.762C275.615 827.802 275.743 827.856 275.853 827.882ZM275.407 827.736C275.282 827.696 275.152 827.656 275.028 827.602C275.147 827.642 275.288 827.696 275.407 827.736ZM274.828 827.536C274.772 827.522 274.707 827.496 274.651 827.482C274.711 827.496 274.768 827.522 274.828 827.536ZM607.299 789.016C607.14 769.282 614.111 749.669 627.88 734.322C628.172 733.989 628.464 733.669 628.755 733.336C628.755 733.349 628.742 733.349 628.742 733.362C614.721 749.096 607.299 769.016 607.299 789.016ZM629.02 733.042C629.033 733.029 629.033 733.029 629.047 733.016C629.033 733.029 629.033 733.029 629.02 733.042ZM629.338 732.682L629.351 732.669L629.338 732.682Z" fill="#2B1E52"/>
<path d="M112.48 707.749C104.403 696.709 96.9723 685.162 90.2559 673.176C92.8295 675.829 95.4469 678.442 98.1054 681.002C102.504 690.149 107.305 699.082 112.48 707.749ZM666.167 338.549C654.703 322.896 641.928 308.269 628.013 294.842C624.964 288.522 621.731 282.309 618.312 276.216C636.561 295.002 652.649 315.936 666.167 338.549Z" fill="#B56E9B"/>
<path d="M502.064 398.122C468.047 363.896 412.897 370.029 378.88 404.243L373.585 409.576L368.291 404.243C334.276 370.029 279.125 363.896 245.108 398.122C211.092 432.336 211.092 487.829 245.108 522.056L250.401 527.376L357.348 634.976C366.316 644.003 380.856 644.003 389.824 634.976L496.769 527.376L502.064 522.056C536.081 487.829 536.081 432.336 502.064 398.122" fill="white"/>
<path d="M489.692 487.869C484.146 487.869 477.918 474.269 468.7 461.509C458.229 447.002 447.863 439.042 454.003 434.562C456.078 433.042 459.774 432.109 464.165 432.109C472.756 432.109 484.001 435.656 490.93 445.256C501.399 459.762 498.056 482.589 491.916 487.082C491.183 487.616 490.445 487.869 489.692 487.869Z" fill="#FDF2F2"/>
<path d="M435.871 425.843C434.608 425.843 433.337 425.616 432.153 425.163C428.288 423.603 425.354 419.656 425.913 415.363C426.317 412.149 429.553 409.776 433.612 409.776C434.938 409.776 436.352 410.029 437.785 410.589C443.599 412.869 445.801 418.669 443.333 422.176C441.612 424.643 438.759 425.843 435.871 425.843" fill="#FDF2F2"/>
</svg>
