<svg width="3436" height="3864" viewBox="0 0 3436 3864" fill="none" xmlns="http://www.w3.org/2000/svg">
<path d="M58.3711 3614.12C244.179 3533.4 397.673 3565.32 533.948 3597.26C650.994 3624.69 755.345 3652.1 856.557 3608.13C1075.59 3512.95 996.439 3206.05 996.439 3206.05C996.439 3206.05 826.603 2938.56 607.545 3033.72C388.507 3128.89 403.796 3464.05 58.3711 3614.12Z" fill="#EC1C24"/>
<path d="M354.891 3480.17C481.931 3425.03 586.877 3446.83 680.051 3468.65C760.077 3487.38 831.424 3506.1 900.624 3476.07C1050.38 3411.07 996.264 3201.47 996.264 3201.47C996.264 3201.47 880.144 3018.79 730.371 3083.78C580.611 3148.78 591.064 3377.67 354.891 3480.17Z" fill="#FFD553"/>
<path d="M288.203 3536.93C379.411 3536.93 455.037 3558.78 525.584 3579.17C625.117 3607.93 711.091 3632.77 817.904 3586.42C1040 3490.05 1003.53 3240.61 997.184 3205.54C975.077 3175.27 820.677 2979.22 596.611 3076.49C489.477 3122.98 447.623 3199.93 399.16 3289.03C354.133 3371.82 304.863 3462.41 197.529 3544.09C229.501 3539.07 259.616 3536.93 288.203 3536.93ZM697.197 3656.02C633.837 3656.02 574.651 3638.91 513.437 3621.22C389.587 3585.43 249.212 3544.87 30.6079 3639.74C19.5213 3644.55 6.63062 3639.47 1.81595 3628.38C0.585284 3625.54 0.00266667 3622.58 0 3619.67C0 3611.22 4.92795 3603.17 13.1799 3599.58C232.093 3504.58 300.419 3378.95 360.703 3268.11C410.856 3175.91 458.224 3088.82 579.171 3036.33C691.424 2987.61 806.251 2997.99 911.224 3066.35C989.291 3117.17 1033.94 3181.61 1035.81 3184.34C1037.4 3186.65 1038.52 3189.23 1039.12 3191.97C1039.84 3195.18 1056.41 3271.81 1040.21 3363.54C1018.42 3486.91 947.584 3577.86 835.344 3626.58C786.024 3647.98 740.624 3656.02 697.197 3656.02Z" fill="#371A45"/>
<path d="M2343.01 1882.9C2343.01 1882.9 2627.37 2002.39 2675.57 2076.27C2723.77 2150.15 2547.05 2151.95 2547.05 2151.95L2343.01 1882.9Z" fill="white"/>
<path d="M2422.85 1946.41L2559.3 2126.34C2606.56 2124.1 2652.04 2112.61 2658.48 2100.57C2659.09 2099.42 2657.88 2095.35 2654.42 2090.07C2630.3 2053.1 2521.1 1993.05 2422.85 1946.41ZM2547.05 2177.19C2539.16 2177.19 2531.7 2173.5 2526.93 2167.21L2322.89 1898.15C2316 1889.06 2316.06 1876.46 2323.06 1867.43C2330.06 1858.41 2342.26 1855.21 2352.78 1859.63C2382.62 1872.17 2645.76 1984.38 2696.72 2062.47C2714.61 2089.9 2710 2111.27 2703 2124.38C2677.42 2172.17 2577.36 2176.89 2547.3 2177.19H2547.05Z" fill="#371A45"/>
<path d="M1149.3 1256.38C1038.85 1339.17 937.624 1733.37 963.21 1968.34C988.797 2203.33 1404.17 2220.93 1641.7 2213.3C1879.25 2205.69 1878.42 1668.58 1875.32 1524.71C1870.45 1300.03 1312.98 1133.71 1149.3 1256.38Z" fill="white"/>
<path d="M1218.41 2154.66C1095.46 2123.47 999.291 2066.5 988.304 1965.61C986.651 1950.33 985.544 1934.31 984.971 1917.71C995.877 1935.5 1010.96 1949.35 1031.18 1957.82C1048.5 1965.09 1064.94 1968.71 1080.37 1968.71C1096.94 1968.71 1112.37 1964.53 1126.53 1956.18C1152.32 1940.97 1172.4 1913.42 1188.06 1869.99C1191.05 1875.09 1194.53 1880.05 1198.5 1884.86C1195.4 1918.95 1194 1953.26 1194.62 1987.69C1195.38 2018.94 1197.88 2050.25 1202.33 2081.47C1206.22 2106.01 1211.36 2130.49 1218.41 2154.66ZM1219.28 1722.85C1220.32 1714.51 1221.32 1705.94 1222.28 1697.1C1225.46 1667.77 1208.46 1639.66 1180.94 1628.77L1170.56 1624.65C1204.12 1510.75 1244.46 1426.23 1283.96 1363.87C1308.4 1372.75 1332.78 1381.75 1356.85 1391.1C1346.21 1410.94 1335.94 1430.98 1325.76 1451.01C1284.17 1534.79 1250.93 1622.89 1228.02 1713.83C1226.26 1715.51 1223.14 1718.59 1219.28 1722.85ZM1369.66 1367.71C1347.48 1356.61 1325.24 1345.94 1302.97 1335.41C1332.16 1293.95 1360.16 1264.29 1383.76 1243.38C1403.89 1245.53 1424.58 1248.62 1445.58 1252.61C1435.88 1264.87 1426.58 1277.47 1417.58 1290.23C1400.24 1315.21 1384.5 1341.21 1369.66 1367.71Z" fill="#CDC6D0"/>
<path d="M1149.3 1256.38H1149.37H1149.3ZM1317.85 1239.71C1252.5 1239.71 1197.7 1251.66 1164.45 1276.58C1062.45 1353.02 963.677 1739.39 988.304 1965.61C1011.29 2176.65 1407.05 2195.57 1640.9 2188.07C1848.14 2181.42 1853.41 1679.06 1850.08 1525.26C1848.56 1455.15 1778.88 1381.46 1658.9 1323.06C1547.46 1268.81 1419.82 1239.71 1317.85 1239.71ZM1558.9 2239.91C1271.86 2239.91 961.797 2188.62 938.117 1971.07C913.37 1743.74 1007.56 1331.07 1134.17 1236.18C1246.44 1152.03 1505.42 1192.19 1681.01 1277.66C1820.61 1345.62 1898.58 1433.15 1900.56 1524.17C1906.25 1787.69 1880.32 2230.9 1642.52 2238.54C1615.06 2239.42 1587.09 2239.91 1558.9 2239.91Z" fill="#371A45"/>
<path d="M1172.64 1650.65L1067.21 1608.62C1043.38 1599.13 1016.57 1612.61 1010.13 1637.45C987.984 1722.87 953.877 1899.95 1039.84 1936.19C1144.02 1980.13 1180.96 1859.94 1199.26 1694.83C1201.37 1675.81 1190.41 1657.73 1172.64 1650.65Z" fill="white"/>
<path d="M1080.12 1921.97C1070.92 1921.97 1060.66 1919.58 1049.22 1914.78C1024.9 1904.59 1012.84 1875.19 1009.25 1835.91C1013.49 1838.94 1018.09 1841.53 1023.13 1843.62C1037.76 1849.75 1051.06 1852.65 1063.17 1852.65C1123.4 1852.65 1154.01 1780.91 1171.6 1677.86C1174.8 1681.75 1176.45 1686.85 1175.88 1692.06C1170.69 1739.85 1154.9 1885.27 1102.82 1915.98C1096.06 1919.98 1088.53 1921.97 1080.12 1921.97Z" fill="#CDC6D0"/>
<path d="M1051.06 1628.97C1048.06 1628.97 1045.08 1629.69 1042.29 1631.11C1039.41 1632.58 1034.29 1636.14 1032.41 1643.42C1002.78 1758.79 991.637 1890.66 1049.22 1914.78C1071.12 1923.95 1088.65 1924.34 1102.82 1915.98C1154.9 1885.27 1170.69 1739.85 1175.88 1692.06C1176.81 1683.53 1171.82 1675.34 1163.76 1672.15L1058.24 1630.35C1055.9 1629.43 1053.48 1628.97 1051.06 1628.97ZM1080.37 1968.71C1064.94 1968.71 1048.5 1965.09 1031.18 1957.82C935.891 1917.9 954.677 1758.5 987.211 1631.82C991.904 1613.53 1004.26 1598.11 1021.1 1589.53C1038 1580.93 1057.8 1579.99 1075.42 1586.97L1180.94 1628.77C1208.46 1639.66 1225.46 1667.77 1222.28 1697.1C1205.8 1848.83 1177.17 1926.31 1126.53 1956.18C1112.37 1964.53 1096.94 1968.71 1080.37 1968.71Z" fill="#371A45"/>
<path d="M1133.86 1256.9L1258.08 1314.27C1299.4 1333.7 1340.62 1352.9 1381.68 1373.78C1387.9 1376.94 1390.38 1384.54 1387.21 1390.77C1384.24 1396.62 1377.33 1399.15 1371.34 1396.79L1371.13 1396.71C1329.29 1380.1 1286.34 1364.73 1243.64 1349.29L1115.05 1303.75L1114.82 1303.67C1101.66 1299.02 1094.77 1284.57 1099.44 1271.41C1104.09 1258.26 1118.54 1251.37 1131.7 1256.02C1132.42 1256.29 1133.17 1256.59 1133.86 1256.9Z" fill="#371A45"/>
<path d="M3042.21 1180.91C3001.25 1320.65 2690.18 1579.39 2243.92 1592.34C2200.74 1593.66 2156.32 1592.59 2110.74 1588.93L2070.92 1418.85L2039.05 1282.71C2039.05 1282.71 2108.34 1270.09 2203.08 1244.9C2277.93 1225.09 2368.62 1197.45 2453.64 1162.1C2533.78 1128.78 2608.96 1088.58 2660.82 1041.55C2660.82 1041.55 2663.66 901.581 2703.37 887.314C2751.84 869.901 2787.74 968.354 2787.74 968.354C2787.74 968.354 2897.94 854.941 2962.25 865.914C3057.86 882.194 3087.21 1027.67 3042.21 1180.91Z" fill="white"/>
<path d="M2264.44 1566.34C2256.85 1526.74 2248.32 1487.22 2237.33 1447.91C2283.5 1457.5 2329.08 1461.87 2373.61 1461.89C2675.81 1461.91 2931.97 1260.5 3030.45 1121.02C3027.34 1138.42 3023.2 1156.09 3018.01 1173.78C2982.37 1295.18 2692.09 1545.93 2264.44 1566.34Z" fill="#B9AFBE"/>
<path d="M2208.78 1618.15C2176.05 1618.15 2142.73 1616.85 2108.74 1614.11C2094.85 1612.99 2084.49 1600.82 2085.61 1586.93C2086.73 1573.02 2098.96 1562.67 2112.8 1563.79C2622.46 1604.85 2978.32 1309.03 3018.01 1173.78C3046.33 1077.23 3043.57 981.114 3010.94 928.888C2997.45 907.301 2979.66 894.487 2958.04 890.794C2922.8 884.794 2847.82 942.834 2805.86 985.968L2777.82 1014.79L2764.05 977.021C2752.94 946.794 2727.42 906.341 2712.3 910.941C2699.78 919.874 2687.32 982.047 2686.05 1042.06L2685.82 1052.93L2677.76 1060.25C2497.94 1223.1 2062.06 1304.18 2043.6 1307.55C2029.89 1310.05 2016.74 1300.97 2014.24 1287.26C2011.73 1273.54 2020.82 1260.39 2034.53 1257.89C2038.85 1257.1 2461.46 1178.49 2635.9 1029.82C2637.88 978.034 2647.89 880.448 2694.82 863.568C2742.45 846.394 2777.1 891.181 2795.85 925.568C2836.25 888.914 2910.05 831.421 2966.52 841.021C3002.45 847.141 3032.61 868.274 3053.77 902.141C3094.29 967.021 3099.16 1076.55 3066.45 1187.99C3020.64 1344.09 2682.97 1618.13 2208.78 1618.15Z" fill="#371A45"/>
<path d="M2578.92 2193.93C2578.92 2193.93 1954.04 2435.58 1734.78 2418.29C1515.6 2400.99 1279.49 2366.29 1266.56 1950.43C1258.54 1691.93 1386.41 1437.58 1484.36 1282.21C1544 1187.54 1592.53 1129.54 1592.53 1129.54L2195.88 1160.34C2195.88 1160.34 2198.22 1192.14 2203.08 1244.9C2206.1 1277.85 2210.14 1318.94 2215.26 1365.51C2222.58 1432.41 2232.05 1510.61 2243.92 1592.34C2262.09 1717.55 2285.88 1850.97 2315.86 1964.45C2328.8 2013.55 2534.8 2026.99 2578.92 2193.93Z" fill="white"/>
<path d="M2230.33 1423.98C2252.9 1497.58 2265.84 1571.98 2278.92 1646.33C2292.17 1720.59 2304.01 1795.02 2319.37 1868.59C2323.28 1886.97 2327.44 1905.26 2331.73 1923.51L2338.45 1950.78L2340.16 1957.59L2340.26 1958.01L2340.29 1957.93L2340.3 1957.75L2340.21 1957.45L2340 1957.23L2340.18 1957.34C2340.3 1957.43 2340.24 1957.51 2340.37 1957.73C2340.7 1958.02 2341.02 1958.34 2341.3 1958.67C2341.62 1959.3 2343.2 1960.3 2344.08 1961.18C2348.8 1965.02 2356.28 1969.25 2363.98 1973.15C2371.74 1977.13 2380.12 1980.97 2388.66 1984.86C2405.74 1992.61 2423.5 2000.54 2441.08 2009.43C2476.2 2027.14 2511.36 2048.78 2540.8 2078.71C2555.49 2093.61 2568.6 2110.46 2579.2 2128.86C2589.82 2147.26 2597.88 2167.13 2603.34 2187.47L2609.22 2209.41L2588.04 2217.47C2488.68 2255.3 2388.96 2290.38 2288.1 2323.34C2187.26 2356.11 2085.56 2386.66 1981.66 2411.19C1929.64 2423.27 1877.21 2434.18 1823.04 2440.26C1795.97 2443.35 1768.53 2445.39 1739.77 2443.75C1732.38 2443.57 1726.08 2442.87 1719.38 2442.35L1699.46 2440.63C1686.17 2439.42 1672.82 2438.13 1659.45 2436.51C1606.06 2430.26 1551.77 2420.79 1499.26 2401.46C1473.08 2391.79 1447.45 2379.57 1423.48 2364.26C1399.5 2348.98 1377.28 2330.58 1357.82 2309.66C1338.37 2288.71 1321.94 2265.22 1308.28 2240.58C1294.64 2215.91 1283.34 2190.11 1274.94 2163.7L1271.61 2153.83L1268.82 2143.86L1263.3 2123.89L1258.78 2103.78L1256.56 2093.71L1254.78 2083.61L1251.26 2063.41C1250.21 2056.66 1249.46 2049.9 1248.54 2043.15C1246.58 2029.65 1245.45 2016.13 1244.32 2002.62C1239.82 1948.86 1239.96 1893.78 1245.74 1839.82C1251.37 1785.79 1261.88 1732.51 1275.98 1680.42C1304.2 1576.13 1346.81 1476.86 1396.97 1382.29C1422.05 1334.99 1447.12 1287.5 1477.56 1243.37C1508.01 1199.34 1541.7 1157.26 1586.06 1124.17C1589.89 1121.3 1595.32 1122.1 1598.17 1125.93C1600.12 1128.53 1600.36 1131.87 1599.12 1134.65L1598.97 1134.97C1576.81 1183.86 1549.74 1228.31 1522.25 1272.51C1495.22 1316.95 1466.05 1360.14 1441.62 1406.11C1392.69 1497.83 1351.7 1593.97 1324.7 1693.65C1311.22 1743.45 1301.26 1794.09 1295.96 1845.07C1290.52 1896.13 1290.37 1947.06 1294.64 1998.5C1295.72 2011.3 1296.77 2024.09 1298.62 2036.71C1299.48 2043.03 1300.17 2049.41 1301.16 2055.7L1304.45 2074.49L1306.08 2083.89L1308.14 2093.15L1312.3 2111.67L1317.33 2129.86L1319.86 2138.95L1322.88 2147.83C1330.44 2171.74 1340.52 2194.51 1352.38 2216.02C1364.3 2237.49 1378.36 2257.57 1394.85 2275.34C1427.8 2310.98 1470.09 2337.05 1516.77 2354.1C1563.48 2371.34 1613.97 2380.38 1665.29 2386.37C1678.12 2387.91 1691.05 2389.17 1704.04 2390.35L1723.57 2392.05C1730.02 2392.54 1736.85 2393.26 1742.68 2393.35C1748.76 2393.46 1754.64 2394.13 1760.9 2393.82L1779.53 2393.38C1792.13 2392.43 1804.69 2391.75 1817.42 2390.09C1868.22 2384.41 1919.37 2373.85 1970.14 2362.03C2071.78 2338.05 2172.53 2307.82 2272.46 2275.33C2372.32 2242.7 2471.85 2207.69 2569.82 2170.38L2554.53 2200.38C2545.88 2167.75 2528.86 2138.34 2504.86 2114.18C2481 2089.85 2450.8 2070.85 2418.33 2054.51C2402.08 2046.27 2385.18 2038.73 2367.74 2030.81C2359.02 2026.85 2350.16 2022.78 2341.02 2018.13C2331.89 2013.38 2322.58 2008.54 2312.45 2000.54C2309.82 1998.22 2307.42 1996.55 2304.72 1993.47L2300.86 1989.18C2299.57 1987.5 2298.3 1985.53 2297.09 1983.66C2294.69 1980.5 2292.53 1974.19 2291.34 1970.49L2289.53 1963.51L2282.28 1935.63C2277.64 1917.03 2273.14 1898.39 2268.92 1879.71C2260.4 1842.39 2252.24 1805.03 2245.06 1767.5C2237.82 1729.99 2231.84 1692.3 2226.5 1654.54C2216.08 1579.01 2208.9 1503.01 2213.61 1425.95C2213.9 1421.25 2217.96 1417.65 2222.68 1417.94C2226.32 1418.17 2229.3 1420.69 2230.33 1423.98Z" fill="#371A45"/>
<path d="M1327.13 3464.43L1219 3481.25C1170.08 3488.86 1120.92 3468.99 1091.02 3429.54C1002.01 3312.01 946.837 3172.37 931.504 3025.74C926.357 2976.49 948.664 2928.41 989.57 2900.53L1080.01 2838.9L1327.13 3464.43Z" fill="#00AAFF"/>
<path d="M956.904 3025.81C956.811 3024.91 956.704 3024.01 956.611 3023.11C952.424 2983.05 970.504 2944.07 1003.8 2921.38L1056.77 2885.29C1057.72 2899.34 1058.96 2913.34 1060.49 2927.3L1009.68 2961.93C987.104 2977.33 969.637 2998.3 958.491 3022.27C957.944 3023.45 957.411 3024.62 956.904 3025.81Z" fill="#99DDFF"/>
<path d="M1184.9 3429.53C1153.98 3429.53 1124.08 3418.85 1100.24 3399.53C1071.58 3359.79 1046.82 3317.61 1026.21 3273.57C1047.93 3287.78 1073.49 3295.51 1099.78 3295.51C1106.64 3295.51 1113.56 3294.98 1120.45 3293.91L1171.53 3285.95C1196.53 3332.82 1225.24 3377.53 1257.48 3419.85L1205.65 3427.91C1198.72 3428.99 1191.8 3429.53 1184.9 3429.53Z" fill="#1378BE"/>
<path d="M1346.24 2672.75C1290.02 2562.62 1097.4 2416.89 718.49 2657.31C713.517 2660.47 715.024 2668.14 720.81 2669.18C783.864 2680.42 1080.48 2730.95 1134.78 2885.21L1346.24 2672.75Z" fill="#EC1C24"/>
<path d="M807.277 2660.94C796.317 2658.41 785.01 2655.93 773.384 2653.51C888.784 2586.65 994.77 2552.49 1085.88 2552.49C1115.17 2552.49 1142.94 2556.02 1168.98 2563.14C1198.72 2571.26 1223.4 2583.14 1243.76 2596.49C1238.38 2601.75 1233.17 2606.97 1228.06 2612.13C1189.69 2593.42 1142.77 2581.33 1086.61 2581.33C1010.82 2581.33 918.25 2603.35 807.277 2660.94Z" fill="#F7A4A7"/>
<path d="M1134.78 2910.46C1124.37 2910.46 1114.62 2903.97 1110.97 2893.59C1092.82 2842.03 1017.81 2747.61 719.37 2694.55L716.384 2694.03C703.424 2691.71 693.397 2681.86 690.85 2668.93C688.304 2655.98 693.837 2643.06 704.97 2636.01C889.17 2519.11 1049.77 2478.21 1182.29 2514.43C1299.22 2546.38 1351.62 2627.77 1368.73 2661.29C1375.06 2673.7 1370.13 2688.9 1357.72 2695.25C1345.29 2701.58 1330.09 2696.65 1323.76 2684.23C1309.7 2656.7 1266.49 2589.78 1168.98 2563.14C1061.97 2533.89 925.904 2565.14 773.384 2653.51C1045.26 2709.75 1133.32 2805.01 1158.6 2876.82C1163.22 2889.98 1156.32 2904.39 1143.17 2909.02C1140.4 2909.99 1137.57 2910.46 1134.78 2910.46Z" fill="#371A45"/>
<path d="M1630.28 3391.74C1664.5 3510.55 1626.02 3755.01 1185.09 3838.45C1179.32 3839.54 1175.17 3832.93 1178.69 3828.21C1217.04 3776.91 1396.34 3530.49 1330.56 3380.77L1630.28 3391.74Z" fill="#D25658"/>
<path d="M1185.1 3838.47C1179.32 3839.51 1175.18 3832.91 1178.7 3828.19C1198.33 3801.93 1254.96 3724.45 1296.66 3634.99C1336.12 3550.47 1362.21 3455.21 1331.22 3382.38C1331.01 3381.85 1330.74 3381.3 1330.53 3380.78L1332.36 3380.83L1630.25 3391.73C1639.86 3425.07 1643.74 3468.33 1634.57 3515.15C1611.21 3635.1 1502.29 3778.41 1185.1 3838.47Z" fill="#EC1C24"/>
<path d="M1325.52 3632.34C1344.54 3589.38 1359.62 3544.54 1366.29 3501.05C1413.58 3511.89 1495.01 3526.15 1605.32 3529.3C1604.36 3532.79 1603.32 3536.33 1602.17 3539.9C1537.04 3584.7 1447.29 3619.26 1325.52 3632.34Z" fill="#AD1B30"/>
<path d="M1180.41 3813.65H1180.38H1180.41ZM1183.78 3863.82C1173 3863.82 1162.89 3858.33 1156.98 3848.87C1150 3837.69 1150.58 3823.63 1158.48 3813.09C1207.89 3746.98 1364.66 3521.17 1307.44 3390.93C1301.84 3378.15 1307.64 3363.26 1320.4 3357.66C1333.16 3352.05 1348.06 3357.85 1353.66 3370.61C1411.9 3503.14 1301.61 3696.38 1227.34 3803.77C1396.77 3764.42 1516.36 3694.23 1574.72 3599.38C1631.04 3507.85 1612.9 3422.66 1606.01 3398.73C1602.16 3385.33 1609.89 3371.34 1623.29 3367.47C1636.68 3363.61 1650.66 3371.34 1654.53 3384.75C1665.22 3421.86 1683.05 3519.66 1617.72 3625.83C1545.44 3743.31 1401.46 3823.19 1189.8 3863.25C1187.78 3863.63 1185.77 3863.82 1183.78 3863.82Z" fill="#371A45"/>
<path d="M3411.54 2276.54C3411.54 2276.54 3312.46 2906.83 2496.1 3296.18C1800.61 3627.83 1319.76 3464.43 1319.76 3464.43C1222.06 3355.5 1151.13 3226.57 1110.86 3088.03C1087.5 3007.57 1074.5 2923.87 1072.68 2838.86C1072.68 2838.86 1179.46 2638.93 1469.4 2436.71C1479.37 2429.77 1489.6 2422.77 1500.01 2415.82C1613.24 2340.22 1752.4 2265.18 1921.53 2201.18C1961.42 2186.03 2003.01 2171.58 2046.3 2157.82C2048.01 2157.26 2049.72 2156.75 2051.42 2156.25C2226.12 2101.15 2385.97 2073.5 2529.81 2064.29C2534.41 2063.98 2538.96 2063.73 2543.5 2063.47C3098.64 2032.42 3411.54 2276.54 3411.54 2276.54Z" fill="white"/>
<path d="M2995.29 2968.43C2941.05 2644.1 2818.85 2334.77 2636.76 2060.86C3138.12 2057.51 3418.85 2276.54 3418.85 2276.54C3418.85 2276.54 3363.57 2628.23 2995.29 2968.43Z" fill="#EC1C24"/>
<path d="M3339.5 2273.11C3230.24 2212.51 3010.66 2117.42 2697.25 2108.25C2695.44 2105.33 2693.62 2102.43 2691.8 2099.53C2691.65 2099.29 2691.5 2099.05 2691.34 2098.81C2691.2 2098.58 2691.04 2098.3 2690.89 2098.07C2690.69 2097.77 2690.5 2097.46 2690.3 2097.15C2690.22 2097.02 2690.16 2096.9 2690.08 2096.78C2689.82 2096.38 2689.57 2095.98 2689.32 2095.58C2689.26 2095.5 2689.21 2095.42 2689.17 2095.34C2688.88 2094.87 2688.6 2094.43 2688.3 2093.98C2688.29 2093.94 2688.26 2093.91 2688.25 2093.89C2686.68 2091.39 2685.12 2088.93 2683.53 2086.45C3018.92 2093.65 3247.05 2201.33 3346.05 2259.22C3343.93 2263.79 3341.74 2268.42 3339.5 2273.11Z" fill="#F7A4A7"/>
<path d="M2683.53 2086.45C2845.96 2341.43 2956.26 2620.69 3011.96 2917.79C3268.05 2667.53 3356.68 2417.25 3383.36 2318.46C3388.4 2299.78 3380.73 2280.38 3364.29 2270.18C3277.3 2216.29 3041.5 2094.13 2683.53 2086.45ZM2978.1 3018.69L2970.4 2972.59C2916.38 2649.63 2797.06 2347.58 2615.73 2074.83L2589.86 2035.93L2636.58 2035.62C3034 2032.87 3296.45 2168.75 3390.88 2227.27C3426.44 2249.3 3443.01 2291.23 3432.1 2331.62C3403.14 2438.86 3304.26 2717.39 3012.42 2986.98L2978.1 3018.69Z" fill="#371A45"/>
<path d="M1341.28 3442.38C1368 3450.27 1481.22 3480.42 1657.08 3479.42C1842.94 3478.57 2138.76 3442.13 2492.49 3273.43C2673.9 3186.93 2833.85 3081.23 2968.12 2959.19C2913.85 2645.75 2797.88 2352.21 2623.28 2086.25C2441.84 2088.91 2252.85 2121.07 2061.29 2181.9C1388.77 2395.46 1135.73 2793.83 1105.4 2845.3C1108.53 2954.99 1130.57 3062.34 1170.93 3164.51C1211.28 3266.66 1268.58 3360.11 1341.28 3442.38ZM1649.92 3529.93C1443.77 3529.93 1324 3490.03 1318.97 3488.31L1312.72 3486.19L1308.29 3481.27C1229.4 3393.27 1167.38 3292.94 1123.97 3183.06C1080.54 3073.15 1057.26 2957.54 1054.74 2839.43L1054.61 2832.83L1057.72 2827.01C1060.25 2822.29 1121.3 2709.67 1274.25 2567.33C1414.49 2436.81 1662.22 2255.65 2046.01 2133.78C2247.22 2069.89 2445.92 2036.86 2636.6 2035.62L2650.24 2035.53L2657.78 2046.89C2842.62 2324.93 2964.42 2632.78 3019.8 2961.93L3024.81 2975.53L3012.45 2987.03C2872.41 3116.45 2704.78 3228.14 2514.22 3319.01C2150.77 3492.33 1846.1 3529.37 1654.52 3529.93C1653 3529.93 1651.44 3529.93 1649.92 3529.93Z" fill="#371A45"/>
<path d="M1198.2 3508.1C1148.64 3508.1 1101.42 3485.07 1070.9 3444.78C979.091 3323.57 922.211 3179.58 906.397 3028.35C900.277 2969.79 926.704 2912.82 975.357 2879.66L1065.8 2818.03C1077.33 2810.19 1093.02 2813.17 1100.88 2824.69C1108.73 2836.21 1105.74 2851.91 1094.22 2859.77L1003.8 2921.38C970.504 2944.07 952.424 2983.05 956.611 3023.11C971.464 3165.17 1024.9 3300.43 1111.14 3414.29C1135.48 3446.41 1175.3 3462.5 1215.1 3456.3L1323.25 3439.49C1337.02 3437.39 1349.93 3446.77 1352.08 3460.55C1354.21 3474.33 1344.78 3487.23 1331.01 3489.38L1222.86 3506.19C1214.62 3507.47 1206.37 3508.1 1198.2 3508.1Z" fill="#371A45"/>
<path d="M2395.28 3068.15C2308 3068.15 2223.73 3035.02 2159.88 2976.3C2160.04 2975.78 2160.21 2975.27 2160.37 2974.75C2166 2957.5 2168.08 2939.98 2168.53 2922.98C2168.54 2922.35 2168.56 2921.73 2168.57 2921.09C2197.25 2948.7 2230.96 2971.23 2268.58 2987.54C2311.66 3006.23 2357.18 3015.59 2402.77 3015.59C2444.7 3015.59 2486.69 3007.66 2526.86 2991.79C2610.72 2958.67 2676.64 2894.89 2712.5 2812.17C2730.44 2770.82 2739.78 2727.21 2740.5 2683.46C2756.98 2835.07 2671.46 2985.03 2522.77 3043.77C2480.89 3060.31 2437.72 3068.15 2395.28 3068.15Z" fill="#B9AFBE"/>
<path d="M2517.58 2968.31C2357.18 3031.69 2175.78 2953.02 2112.42 2792.62C2049.06 2632.22 2127.72 2450.82 2288.12 2387.46C2448.52 2324.1 2629.92 2402.75 2693.28 2563.15C2756.65 2723.55 2677.98 2904.95 2517.58 2968.31Z" fill="#EC1C24"/>
<path d="M2176.66 2517.59C2176.93 2516.47 2177.2 2515.37 2177.45 2514.26C2178.9 2507.94 2180.16 2501.61 2181.25 2495.26C2211.78 2458.1 2251.42 2429.1 2297.4 2410.94C2331.56 2397.45 2367.26 2390.71 2402.92 2390.71C2441.69 2390.71 2480.41 2398.67 2517.05 2414.55C2555.62 2431.29 2589.37 2455.7 2616.61 2486.11C2560.17 2437.43 2487.49 2410.11 2412.33 2410.11C2374.16 2410.11 2335.37 2417.15 2297.7 2432.03C2249.4 2451.11 2208.49 2480.9 2176.66 2517.59Z" fill="#F7A4A7"/>
<path d="M2402.78 2965.07C2364.02 2965.07 2325.3 2957.11 2288.66 2941.22C2229.8 2915.7 2182.21 2872.27 2151.74 2817.01C2143.81 2791.23 2134.09 2766.35 2123.06 2742.22C2121.92 2737.27 2120.9 2732.3 2120.02 2727.33C2172.88 2838.18 2284.33 2904.99 2401.85 2904.99C2440.04 2904.99 2478.84 2897.94 2516.5 2883.06C2595.65 2851.79 2654.88 2791.75 2686.94 2719.71C2683.28 2744.33 2676.36 2768.63 2666.18 2792.09C2635.69 2862.42 2579.62 2916.67 2508.32 2944.83C2474.14 2958.34 2438.45 2965.07 2402.78 2965.07Z" fill="#AD1B30"/>
<path d="M2402.92 2390.71C2367.26 2390.71 2331.56 2397.45 2297.4 2410.94C2226.09 2439.1 2170.02 2493.35 2139.52 2563.7C2109.02 2634.03 2107.73 2712.05 2135.9 2783.35C2164.08 2854.65 2218.32 2910.73 2288.66 2941.22C2359.01 2971.73 2437.01 2973.01 2508.32 2944.83C2579.62 2916.67 2635.69 2862.42 2666.18 2792.09C2696.69 2721.74 2697.97 2643.74 2669.81 2572.43C2641.64 2501.13 2587.38 2445.06 2517.05 2414.55C2480.41 2398.67 2441.69 2390.71 2402.92 2390.71ZM2402.77 3015.59C2357.18 3015.59 2311.66 3006.23 2268.58 2987.54C2185.86 2951.67 2122.06 2885.74 2088.94 2801.9C2055.82 2718.05 2057.33 2626.31 2093.2 2543.61C2129.06 2460.9 2195 2397.1 2278.85 2363.98C2362.69 2330.86 2454.42 2332.37 2537.13 2368.23C2619.85 2404.1 2683.64 2470.03 2716.77 2553.89C2749.89 2637.73 2748.37 2729.46 2712.5 2812.17C2676.64 2894.89 2610.72 2958.67 2526.86 2991.79C2486.69 3007.66 2444.7 3015.59 2402.77 3015.59Z" fill="#371A45"/>
<path d="M2477.93 2857.83C2375.89 2898.14 2260.49 2848.1 2220.18 2746.06C2179.86 2644.02 2229.92 2528.62 2331.96 2488.3C2434 2447.99 2549.4 2498.03 2589.72 2600.07C2630.02 2702.11 2579.98 2817.53 2477.93 2857.83Z" fill="#6BD6F0"/>
<path d="M2405.01 2871.81C2345.89 2871.81 2289.2 2845.23 2251.42 2799.25C2289.2 2845.22 2345.89 2871.78 2405 2871.78C2429.28 2871.78 2453.98 2867.3 2477.93 2857.83C2537.73 2834.22 2579.66 2784.82 2596.04 2727.42C2579.66 2784.82 2537.72 2834.23 2477.93 2857.86C2453.98 2867.33 2429.28 2871.81 2405.01 2871.81ZM2217.41 2738.65C2213.12 2726.42 2210.1 2714.01 2208.3 2701.61C2210.1 2714.01 2213.13 2726.41 2217.41 2738.65ZM2596.04 2727.42C2596.06 2727.33 2596.09 2727.23 2596.12 2727.14C2596.09 2727.23 2596.06 2727.33 2596.04 2727.42ZM2596.12 2727.14C2596.14 2727.05 2596.17 2726.95 2596.2 2726.86C2596.17 2726.95 2596.14 2727.05 2596.12 2727.14ZM2596.2 2726.85C2596.22 2726.75 2596.25 2726.66 2596.28 2726.57C2596.25 2726.66 2596.22 2726.75 2596.2 2726.85ZM2596.28 2726.57C2596.3 2726.47 2596.33 2726.38 2596.36 2726.3C2596.33 2726.38 2596.3 2726.47 2596.28 2726.57ZM2596.36 2726.26C2596.38 2726.18 2596.41 2726.1 2596.44 2726.01C2596.41 2726.1 2596.38 2726.18 2596.36 2726.26ZM2596.44 2725.98C2596.46 2725.9 2596.49 2725.82 2596.5 2725.74C2596.49 2725.82 2596.46 2725.9 2596.44 2725.98ZM2596.53 2725.67C2596.54 2725.61 2596.57 2725.53 2596.58 2725.45C2596.57 2725.53 2596.54 2725.61 2596.53 2725.67ZM2596.6 2725.39C2596.62 2725.33 2596.64 2725.26 2596.66 2725.18C2596.64 2725.25 2596.62 2725.33 2596.6 2725.39ZM2596.69 2725.1C2596.7 2725.03 2596.72 2724.95 2596.74 2724.89C2596.73 2724.95 2596.7 2725.03 2596.69 2725.1ZM2596.76 2724.82C2596.78 2724.75 2596.8 2724.67 2596.82 2724.61C2596.8 2724.67 2596.78 2724.75 2596.76 2724.82ZM2596.84 2724.53C2596.86 2724.45 2596.88 2724.37 2596.9 2724.29C2596.88 2724.37 2596.86 2724.45 2596.84 2724.53ZM2596.92 2724.26C2596.93 2724.18 2596.96 2724.1 2596.97 2724.02C2596.96 2724.1 2596.93 2724.18 2596.92 2724.26ZM2597 2723.95C2597.01 2723.89 2597.04 2723.81 2597.05 2723.73C2597.04 2723.81 2597.01 2723.89 2597 2723.95ZM2597.06 2723.67C2597.09 2723.61 2597.1 2723.53 2597.12 2723.46C2597.1 2723.53 2597.09 2723.61 2597.06 2723.67ZM2597.14 2723.38C2597.16 2723.31 2597.18 2723.23 2597.2 2723.17C2597.18 2723.25 2597.17 2723.3 2597.14 2723.38ZM2597.22 2723.1C2597.24 2723.03 2597.25 2722.98 2597.26 2722.91C2597.25 2722.98 2597.24 2723.03 2597.22 2723.1ZM2597.29 2722.79C2597.3 2722.75 2597.32 2722.7 2597.33 2722.65C2597.32 2722.7 2597.3 2722.74 2597.29 2722.79ZM2597.37 2722.51C2597.38 2722.46 2597.4 2722.41 2597.41 2722.35C2597.4 2722.41 2597.38 2722.46 2597.37 2722.51ZM2597.44 2722.23C2597.46 2722.15 2597.48 2722.07 2597.5 2721.99C2597.49 2722.07 2597.46 2722.15 2597.44 2722.23ZM2597.52 2721.95C2597.53 2721.9 2597.54 2721.85 2597.56 2721.79C2597.54 2721.85 2597.53 2721.9 2597.52 2721.95ZM2598.08 2719.7C2598.08 2719.69 2598.08 2719.67 2598.08 2719.66C2598.08 2719.67 2598.08 2719.69 2598.08 2719.7ZM2598.22 2719.1C2598.22 2719.09 2598.22 2719.1 2598.22 2719.1V2719.1Z" fill="#F26166"/>
<path d="M2405 2871.78C2345.89 2871.78 2289.2 2845.22 2251.42 2799.25C2238.62 2783.65 2228 2765.83 2220.18 2746.06C2219.72 2744.89 2219.26 2743.7 2218.82 2742.53C2219.02 2732.27 2220.04 2722.11 2221.8 2712.11C2257.78 2773.98 2323.96 2810.75 2393.49 2810.75C2417.77 2810.75 2442.46 2806.27 2466.41 2796.81C2533.02 2770.51 2577.45 2712.25 2589.1 2646.59C2594.08 2655.15 2598.48 2664.19 2602.22 2673.69C2602.7 2674.89 2603.17 2676.1 2603.61 2677.31C2603.3 2691.47 2601.48 2705.49 2598.22 2719.1C2598.22 2719.1 2598.22 2719.09 2598.22 2719.1C2598.17 2719.29 2598.13 2719.47 2598.08 2719.66C2598.08 2719.67 2598.08 2719.69 2598.08 2719.7C2597.9 2720.39 2597.73 2721.1 2597.56 2721.79C2597.54 2721.85 2597.53 2721.9 2597.52 2721.95C2597.52 2721.95 2597.5 2721.98 2597.5 2721.99C2597.48 2722.07 2597.46 2722.15 2597.44 2722.23C2597.44 2722.27 2597.42 2722.31 2597.41 2722.35C2597.4 2722.41 2597.38 2722.46 2597.37 2722.51C2597.36 2722.55 2597.34 2722.61 2597.33 2722.65C2597.32 2722.7 2597.3 2722.75 2597.29 2722.79C2597.29 2722.83 2597.28 2722.89 2597.26 2722.91C2597.25 2722.98 2597.24 2723.03 2597.22 2723.1C2597.21 2723.11 2597.21 2723.14 2597.2 2723.17C2597.18 2723.23 2597.16 2723.31 2597.14 2723.38C2597.14 2723.41 2597.13 2723.43 2597.12 2723.46C2597.1 2723.53 2597.09 2723.61 2597.06 2723.67C2597.06 2723.69 2597.05 2723.71 2597.05 2723.73C2597.04 2723.81 2597.01 2723.89 2597 2723.95C2596.98 2723.98 2596.98 2723.99 2596.97 2724.02C2596.96 2724.1 2596.93 2724.18 2596.92 2724.26C2596.9 2724.26 2596.9 2724.27 2596.9 2724.29C2596.88 2724.37 2596.86 2724.45 2596.84 2724.53C2596.84 2724.55 2596.82 2724.58 2596.82 2724.61C2596.8 2724.67 2596.78 2724.75 2596.76 2724.82C2596.76 2724.85 2596.74 2724.86 2596.74 2724.89C2596.72 2724.95 2596.7 2725.03 2596.69 2725.1C2596.68 2725.13 2596.66 2725.15 2596.66 2725.18C2596.64 2725.26 2596.62 2725.33 2596.6 2725.39C2596.6 2725.42 2596.6 2725.43 2596.58 2725.45C2596.57 2725.53 2596.54 2725.61 2596.53 2725.67C2596.52 2725.7 2596.52 2725.73 2596.5 2725.74C2596.49 2725.82 2596.46 2725.9 2596.44 2725.98C2596.44 2725.99 2596.44 2726.01 2596.44 2726.01C2596.41 2726.1 2596.38 2726.18 2596.36 2726.26C2596.36 2726.27 2596.36 2726.29 2596.36 2726.3C2596.33 2726.38 2596.3 2726.47 2596.28 2726.57C2596.25 2726.66 2596.22 2726.75 2596.2 2726.85V2726.86C2596.17 2726.95 2596.14 2727.05 2596.12 2727.14C2596.09 2727.23 2596.06 2727.33 2596.04 2727.42C2579.66 2784.82 2537.73 2834.22 2477.93 2857.83C2453.98 2867.3 2429.28 2871.78 2405 2871.78ZM2217.9 2740.02C2217.74 2739.55 2217.57 2739.1 2217.41 2738.65C2213.13 2726.41 2210.1 2714.01 2208.3 2701.61C2207.2 2693.98 2206.54 2686.34 2206.34 2678.75C2207.01 2680.66 2207.73 2682.55 2208.48 2684.49C2208.94 2702.98 2212.01 2721.65 2217.9 2740.02ZM2594.02 2612.1C2593.4 2610.38 2592.74 2608.65 2592.08 2606.93C2592.08 2606.74 2592.06 2606.55 2592.06 2606.37C2592.74 2608.27 2593.4 2610.18 2594.02 2612.1Z" fill="#98E2F5"/>
<path d="M2218.81 2742.79C2218.5 2741.87 2218.21 2740.97 2217.92 2740.05C2218.21 2740.87 2218.52 2741.7 2218.82 2742.53C2218.82 2742.62 2218.82 2742.7 2218.81 2742.79ZM2605.76 2683.33C2605.06 2681.31 2604.36 2679.31 2603.61 2677.31C2604.08 2655.79 2601.04 2633.9 2594.13 2612.43C2602.5 2635.82 2606.28 2659.79 2605.76 2683.33Z" fill="#AD1B30"/>
<path d="M2218.82 2742.53C2218.52 2741.7 2218.21 2740.87 2217.92 2740.05C2217.92 2740.03 2217.9 2740.02 2217.9 2740.02C2218.21 2740.85 2218.5 2741.69 2218.82 2742.53ZM2221.8 2712.11C2216.82 2703.54 2212.42 2694.5 2208.66 2685.01C2208.6 2684.83 2208.54 2684.66 2208.48 2684.49C2206.44 2603.5 2254.44 2526.18 2334.16 2494.69C2358.12 2485.23 2382.81 2480.74 2407.09 2480.74C2486.22 2480.74 2561.04 2528.34 2591.88 2606.43C2591.94 2606.59 2592.01 2606.77 2592.08 2606.93C2592.42 2620.31 2591.41 2633.59 2589.1 2646.59C2553.12 2584.71 2486.93 2547.93 2417.4 2547.93C2393.12 2547.93 2368.42 2552.41 2344.48 2561.87C2277.88 2588.15 2233.41 2646.45 2221.8 2712.11ZM2603.61 2677.31C2604.08 2655.69 2601 2633.67 2594.02 2612.1C2594.05 2612.22 2594.09 2612.33 2594.13 2612.43C2601.04 2633.9 2604.08 2655.79 2603.61 2677.31Z" fill="#5994B4"/>
<path d="M2218.82 2742.53C2218.5 2741.69 2218.21 2740.85 2217.9 2740.02C2212.01 2721.65 2208.94 2702.98 2208.48 2684.49C2208.54 2684.66 2208.6 2684.83 2208.66 2685.01C2212.42 2694.5 2216.82 2703.54 2221.8 2712.11C2220.04 2722.11 2219.02 2732.27 2218.82 2742.53ZM2603.61 2677.31C2603.17 2676.1 2602.7 2674.89 2602.22 2673.69C2598.48 2664.19 2594.08 2655.15 2589.1 2646.59C2591.41 2633.59 2592.42 2620.31 2592.08 2606.93C2592.74 2608.65 2593.4 2610.38 2594.02 2612.1C2601 2633.67 2604.08 2655.69 2603.61 2677.31Z" fill="#769CB8"/>
<path d="M2404.74 2499.65C2383.57 2499.65 2362.08 2503.54 2341.22 2511.78C2252.29 2546.91 2208.53 2647.85 2243.66 2736.78C2260.68 2779.86 2293.45 2813.74 2335.96 2832.17C2378.45 2850.61 2425.58 2851.38 2468.66 2834.35C2557.6 2799.22 2601.37 2698.29 2566.24 2609.35C2539.33 2541.27 2473.86 2499.65 2404.74 2499.65ZM2404.89 2897.1C2374.65 2897.1 2344.45 2890.89 2315.86 2878.49C2261 2854.7 2218.68 2810.95 2196.7 2755.34C2151.34 2640.51 2207.85 2510.19 2322.68 2464.82C2437.5 2419.46 2567.84 2475.97 2613.2 2590.81C2658.56 2705.63 2602.04 2835.95 2487.21 2881.31C2460.56 2891.85 2432.7 2897.1 2404.89 2897.1Z" fill="#371A45"/>
<path d="M3016.25 2276.09C2979.85 2276.07 2926.42 2257.03 2902.85 2256.14C2849.38 2254.11 2804.41 2240.35 2804.76 2201.33C2805.01 2173.37 2839.76 2163.42 2897.49 2162.97C2897.82 2162.97 2898.14 2162.97 2898.46 2162.97C2954.38 2162.97 3051.78 2199.98 3053.28 2247.13C3053.98 2269.15 3038.21 2276.09 3016.25 2276.09Z" fill="#F04950"/>
<path d="M3184.58 2329.98C3167.12 2329.98 3137.58 2307.82 3125.4 2305.43C3099.33 2300.34 3076.81 2285.65 3075.02 2251.91C3073.96 2231.54 3085.44 2223.77 3105.88 2223.77C3109.66 2223.77 3113.77 2224.03 3118.14 2224.54C3145.2 2227.65 3194.89 2265.94 3197.98 2307.05C3199.28 2324.21 3193.5 2329.98 3184.58 2329.98Z" fill="#F04950"/>
<path d="M1636.6 3458.01C1464.44 3458.01 1353.24 3429.43 1322.48 3420.43C1282.04 3371.78 1246.78 3319.46 1217.02 3263.95C1238.33 3260.05 1259.42 3254.34 1279.66 3246.34C1318.98 3230.83 1352.53 3207.58 1380.49 3182.03C1468.5 3234.26 1570.86 3263.57 1678.13 3263.57C1683.06 3263.57 1688.06 3263.5 1693.02 3263.37C1897.66 3258.21 2178.2 3211.98 2506.58 3055.39C2677.9 2973.69 2817.62 2881.39 2931.48 2786.53C2944.06 2836.45 2955.02 2886.91 2964.33 2937.95C2842.21 3047.69 2687.04 3155.61 2490.08 3249.54C2139.8 3416.55 1843.97 3458.01 1636.6 3458.01Z" fill="#B9AFBE"/>
<path d="M3008.02 2897.3C2998.26 2847.61 2986.97 2798.45 2974.16 2749.79C3164.3 2580.75 3275.46 2406.94 3339.5 2273.11C3357.4 2283.03 3372.34 2292.03 3384.25 2299.58C3384.96 2303.59 3385.09 2307.75 3384.61 2311.93C3347.25 2431.55 3248.97 2665.06 3008.02 2897.3Z" fill="#AD1B30"/>
<path d="M3384.25 2299.58C3372.34 2292.03 3357.4 2283.03 3339.5 2273.11C3341.74 2268.42 3343.93 2263.79 3346.05 2259.22C3352.72 2263.11 3358.8 2266.78 3364.29 2270.18C3375.16 2276.91 3382.18 2287.67 3384.25 2299.58Z" fill="#B47485"/>
<path d="M2964.33 2937.95C2955.02 2886.91 2944.06 2836.45 2931.48 2786.53C2944.06 2836.43 2955.02 2886.94 2964.34 2937.95H2964.33ZM3384.61 2311.93C3385.09 2307.75 3384.96 2303.59 3384.25 2299.58C3382.18 2287.67 3375.16 2276.91 3364.29 2270.18C3358.8 2266.78 3352.72 2263.11 3346.05 2259.22C3349.69 2251.37 3353.18 2243.65 3356.5 2236.1C3380.12 2249.83 3397.12 2261.1 3407.36 2268.22C3404.84 2266.46 3401.9 2264.46 3398.56 2262.23C3395.34 2275.3 3390.82 2292.03 3384.61 2311.93Z" fill="#371A45"/>
<path d="M1322.48 3420.43C1316.72 3418.75 1313.77 3417.75 1313.77 3417.75C1271.58 3370.73 1234.41 3319.98 1202.53 3266.34C1207.37 3265.63 1212.2 3264.85 1217.02 3263.95C1246.78 3319.46 1282.04 3371.78 1322.48 3420.43ZM2964.34 2937.95C2955.02 2886.94 2944.06 2836.43 2931.48 2786.53C2946.1 2774.33 2960.37 2762.06 2974.16 2749.79C2986.97 2798.45 2998.26 2847.61 3008.02 2897.3C2993.96 2910.86 2979.38 2924.43 2964.34 2937.95Z" fill="#371A45"/>
<path d="M1133.58 3048.74C1116.81 2982.33 1107.37 2914.27 1105.4 2845.3C1107.68 2841.45 1111.2 2835.63 1116.06 2828.09C1117.77 2834.53 1119.54 2840.95 1121.4 2847.34C1121.8 2848.73 1122.21 2850.1 1122.62 2851.49C1140.28 2911.29 1167.06 2966.34 1201.2 3015.46C1197.48 3016.75 1193.76 3018.14 1190.05 3019.61C1170.29 3027.42 1151.42 3037.38 1133.58 3048.74Z" fill="#B9AFBE"/>
<path d="M1111.72 3063.7C1111.29 3062.37 1110.88 3061.05 1110.46 3059.71C1094.42 2997.51 1084.5 2933.57 1081.12 2868.7L1094.22 2859.77C1105.74 2851.91 1108.73 2836.21 1100.88 2824.69C1098.74 2821.55 1096.02 2819.06 1092.97 2817.23C1096.94 2810.98 1101.85 2803.47 1107.77 2794.85C1107.45 2795.31 1107.16 2795.74 1106.84 2796.21C1107.26 2797.69 1107.64 2799.18 1108.06 2800.67C1108.48 2802.06 1108.88 2803.43 1109.29 2804.82C1110.53 2809.02 1111.93 2813.14 1113.26 2817.3C1114.18 2820.9 1115.12 2824.5 1116.06 2828.09C1111.2 2835.63 1107.68 2841.45 1105.4 2845.3C1107.37 2914.27 1116.81 2982.33 1133.58 3048.74C1126.12 3053.5 1118.82 3058.5 1111.72 3063.7Z" fill="#371A45"/>
<path d="M1081.12 2868.7C1080.6 2858.78 1080.22 2848.85 1080.01 2838.9C1080.01 2838.9 1084.14 2831.17 1092.97 2817.23C1096.02 2819.06 1098.74 2821.55 1100.88 2824.69C1108.73 2836.21 1105.74 2851.91 1094.22 2859.77L1081.12 2868.7Z" fill="#371A45"/>
<path d="M1279.66 3246.34C1136.49 3302.86 950.757 3245.23 950.757 3245.23C950.757 3245.23 951.117 3244.58 951.824 3243.45C962.611 3225.11 1055.64 3072.78 1190.05 3019.61C1319.05 2968.61 1459.56 3020.95 1484.58 3031.15C1487.14 3032.21 1488.49 3032.81 1488.49 3032.81C1488.49 3032.81 1421.89 3190.25 1279.66 3246.34Z" fill="#EC1C24"/>
<path d="M962.357 3253.35C959.117 3252.43 957.397 3251.9 957.397 3251.9C957.397 3251.9 957.797 3251.25 958.477 3250.09C958.837 3249.49 959.291 3248.71 959.837 3247.82C959.957 3247.85 960.064 3247.89 960.184 3247.91C960.904 3249.73 961.624 3251.54 962.357 3253.35Z" fill="#FFEEBA"/>
<path d="M983.61 3258.81C974.05 3256.54 966.784 3254.59 962.357 3253.35C961.624 3251.54 960.904 3249.73 960.184 3247.91C966.357 3249.58 975.344 3251.89 986.597 3254.39C985.57 3255.9 984.57 3257.38 983.61 3258.81Z" fill="#AFA3B5"/>
<path d="M1482.9 3064.29C1480.21 3063.35 1477.3 3062.37 1474.18 3061.37C1480.68 3049.58 1484.93 3040.67 1487.01 3036.14C1488.65 3036.78 1490.06 3037.34 1491.22 3037.82C1493.84 3038.87 1495.18 3039.45 1495.18 3039.45C1495.18 3039.45 1491.12 3049.05 1482.9 3064.29Z" fill="white"/>
<path d="M966.077 3237.77C992.704 3195.97 1078.78 3072.94 1196.73 3026.29C1237.74 3010.07 1279.9 3004.3 1319.16 3004.3C1390.1 3004.3 1451.52 3023.15 1479.32 3033.25L1435.77 3050.59C1406.09 3043.53 1368.98 3037.49 1328.82 3037.49C1289.57 3037.49 1247.4 3043.25 1206.37 3059.47C1121.81 3092.91 1053.64 3165.61 1012 3219.47L966.077 3237.77Z" fill="#F7A4A7"/>
<path d="M1132.66 3271.18C1073.77 3271.18 1020.13 3261.86 986.597 3254.39C993.424 3244.39 1001.93 3232.49 1012 3219.47L1435.77 3050.59C1450.61 3054.14 1463.6 3057.94 1474.18 3061.37C1447.7 3109.41 1384.05 3205.17 1279.66 3246.34C1259.42 3254.34 1238.33 3260.05 1217.02 3263.95C1212.2 3264.85 1207.37 3265.63 1202.53 3266.34C1189.45 3268.26 1176.34 3269.54 1163.36 3270.3C1153.02 3270.9 1142.77 3271.18 1132.66 3271.18ZM959.837 3247.82C953.957 3246.22 950.757 3245.23 950.757 3245.23C950.757 3245.23 951.117 3244.58 951.824 3243.45L966.077 3237.77C963.371 3242.01 961.291 3245.42 959.837 3247.82ZM1487.01 3036.14C1484.85 3035.3 1482.28 3034.33 1479.32 3033.25L1484.58 3031.15C1487.14 3032.21 1488.49 3032.81 1488.49 3032.81C1488.49 3032.81 1488.01 3033.97 1487.01 3036.14Z" fill="#AD1B30"/>
<path d="M986.597 3254.39C975.117 3251.83 966.01 3249.5 959.837 3247.82C961.29 3245.42 963.37 3242.01 966.077 3237.77L1012 3219.47C1001.93 3232.49 993.424 3244.39 986.597 3254.39ZM1474.18 3061.37C1463.6 3057.94 1450.61 3054.14 1435.77 3050.59L1479.32 3033.25C1482.28 3034.33 1484.85 3035.3 1487.01 3036.14C1484.93 3040.67 1480.68 3049.58 1474.18 3061.37Z" fill="#B47485"/>
<path d="M950.744 3245.23H950.811H950.744ZM990.771 3229.39C1048.42 3242.3 1171.65 3261.86 1270.38 3222.89C1369.18 3183.89 1429.5 3090.67 1453.4 3046.7C1405.81 3030.98 1297.8 3004.17 1199.36 3043.1C1100.41 3082.22 1023.98 3180.61 990.771 3229.39ZM1132.25 3296.54C1032.58 3296.54 948.517 3270.97 943.264 3269.34L913.277 3260.03L928.811 3232.74C932.917 3225.53 1031.12 3055.31 1180.8 2996.14C1331.12 2936.71 1491.96 3006.73 1498.73 3009.74L1521.38 3019.81L1511.73 3042.63C1508.84 3049.46 1439.29 3210.5 1288.92 3269.85C1238.26 3289.85 1183.21 3296.54 1132.25 3296.54Z" fill="#371A45"/>
<path d="M1888.29 3134.11C1808.33 3134.11 1723.76 3098.82 1668.4 3024.23C1606.22 2940.35 1593.61 2843.66 1597.14 2769.7C1601.3 2683.3 1616.77 2600.87 1573.66 2536.18C1555.12 2508.26 1526.86 2482.85 1493.82 2456.14C1506.34 2447.42 1519.2 2438.7 1532.4 2430.01C1549.89 2438.34 1566.73 2447.03 1581.93 2456.77C1593.41 2464.19 1603.69 2472.39 1611.09 2481.02C1613.06 2483.19 1614.37 2485.26 1616.1 2487.62L1621 2495.78C1622.7 2498.45 1623.81 2501.47 1625.28 2504.29C1626.77 2507.1 1627.94 2510.09 1629.02 2513.13C1638.48 2537.05 1641.04 2564.75 1641.08 2593.37C1641.02 2622.1 1638.34 2651.91 1636.38 2682.54L1635.05 2705.66C1634.77 2713.63 1634.46 2721.61 1634.53 2729.59C1634.57 2745.55 1635.25 2761.55 1636.96 2777.49C1639.98 2809.38 1646.86 2841.06 1656.98 2871.77C1667.45 2902.38 1681.6 2931.91 1699.4 2959.15C1704.16 2965.78 1708.44 2972.61 1713.64 2979.03L1729.48 2998.17C1734.9 3004.41 1741.17 3009.9 1747.01 3015.77C1752.73 3021.79 1759.36 3026.79 1765.88 3031.91C1791.92 3052.3 1821.13 3069.01 1852.56 3079.43C1883.85 3090.09 1916.77 3095.75 1949.88 3095.98C1950.52 3095.98 1951.17 3095.98 1951.81 3095.98C1981.21 3095.98 2010.78 3091.7 2039.14 3082.47C2038.69 3082.85 2038.24 3083.23 2037.78 3083.62C1997.96 3116.82 1944.25 3134.11 1888.29 3134.11Z" fill="#CDC6D0"/>
<path d="M1493.82 2456.14C1485.93 2449.75 1477.77 2443.3 1469.4 2436.71C1479.37 2429.77 1489.6 2422.77 1500.01 2415.82C1500.24 2415.67 1500.48 2415.51 1500.7 2415.37C1501.94 2415.93 1503.18 2416.49 1504.42 2417.05C1513.82 2421.33 1523.21 2425.62 1532.4 2430.01C1519.2 2438.7 1506.34 2447.42 1493.82 2456.14Z" fill="#371A45"/>
<path d="M2054.2 2668.21C2074.08 2696.74 2211.41 2928.42 2100.9 3020.5C2004.14 3101.15 1825.6 3087.9 1731.5 2961.11C1669.34 2877.23 1656.72 2780.55 1660.25 2706.58C1664.41 2620.18 1679.88 2537.75 1636.77 2473.07C1587.73 2399.35 1396.38 2371.83 1301.21 2262.71C1245.1 2198.46 1215.06 2081.77 1220.17 1938.82C1221.74 1895.41 1226.54 1849.51 1234.88 1801.93C1270.21 1599.85 1369.05 1367.41 1551.06 1161.59C1551.06 1161.59 1623.4 1450.9 1699.2 1707.95C1752.01 1887.14 1806.54 2050.66 1839.3 2089.34C1843.65 2094.53 1847.64 2097.42 1851.17 2097.93C1894.26 2103.93 1936.56 2115.98 1976.64 2134.29C2012.48 2150.69 2047.13 2172.27 2075.85 2200.67C2180.61 2304.62 2183.52 2513.27 2112.38 2597.83C2084.36 2631.17 2054.2 2668.21 2054.2 2668.21Z" fill="white"/>
<path d="M1993.04 2093.13L1839.3 2089.34C1832.26 2081.03 1824.22 2066.97 1815.42 2048.23L1865.4 2051.37C1868.58 2051.81 1871.84 2052.06 1875.13 2052.11C1883.01 2052.23 1890.89 2052.29 1898.76 2052.29C1905.96 2052.29 1913.14 2052.23 1920.32 2052.14C1934.7 2059.7 1948.66 2066.67 1962.08 2073.1C1971.73 2077.74 1981.13 2082.1 1990.17 2086.18L1993.04 2093.13Z" fill="#CDC6D0"/>
<path d="M1951.89 3045.5C1951.3 3045.5 1950.72 3045.5 1950.12 3045.49C1922.65 3045.3 1895.14 3040.57 1869.06 3031.73C1842.85 3023.09 1818.69 3009.11 1797.13 2992.26C1753.69 2958.97 1723.18 2908.78 1704.82 2855.63C1696.01 2828.79 1689.88 2800.87 1687.18 2772.42C1685.65 2758.22 1685.06 2743.89 1685.02 2729.55C1684.96 2722.39 1685.24 2715.22 1685.48 2708.05L1686.77 2685.78C1688.65 2655.94 1691.48 2625.33 1691.57 2593.42C1691.7 2577.51 1690.77 2561.13 1688.57 2544.62C1686.45 2528.11 1682.46 2511.27 1676.16 2495.01C1674.66 2490.91 1673.05 2486.86 1671.04 2482.94C1669.05 2479.02 1667.4 2474.94 1665.09 2471.18L1658.28 2459.85C1655.61 2456.06 1652.68 2451.81 1649.58 2448.34C1637.2 2433.98 1623.24 2423.43 1609.34 2414.38C1581.4 2396.55 1553.06 2383.78 1525.26 2371.06C1469.78 2346.02 1415.14 2322.46 1368.74 2289.34C1345.82 2272.85 1324.81 2253.89 1309.3 2232.29C1293.44 2210.39 1281.45 2184.69 1272.32 2157.81C1263.18 2130.86 1256.81 2102.61 1252.26 2073.94C1248.16 2045.14 1245.82 2015.97 1245.1 1986.62C1244.72 1965.42 1245.16 1944.17 1246.33 1922.91C1318.08 1962.15 1425.38 1969.23 1493.4 1969.23C1495.34 1969.23 1497.26 1969.22 1499.14 1969.21C1562.45 1968.83 1637.18 1961.87 1694.14 1947.65L1695.04 1976.54C1696.14 2013.19 1724.58 2042.55 1761.17 2044.83L1815.42 2048.23C1824.22 2066.97 1832.26 2081.03 1839.3 2089.34L1723.68 2086.5C1698.81 2084.93 1679.18 2064.67 1678.42 2039.74L1676.97 1991.71C1626.92 2002.93 1560.61 2010.03 1493.29 2010.03C1424.56 2010.05 1354.74 2002.62 1300.01 1984.58C1308.09 2084.42 1335.92 2165.07 1379.09 2214.57C1474.26 2323.69 1616.96 2265.11 1713.52 2377.7C1773.85 2448.14 1742.29 2572.02 1738.13 2658.43C1734.6 2732.39 1706.01 2840.89 1768.1 2924.7C1813.32 2985.66 1887.45 3010.11 1963 3010.11C2010.41 3010.11 2058.38 3000.49 2100.13 2984.22C2098.64 2986.35 2097.04 2988.41 2095.34 2990.38L2092.54 2993.74C2091.56 2994.82 2090.4 2995.75 2089.34 2996.77C2087.05 2998.74 2085.41 3000.89 2082.48 3002.77C2077.06 3006.55 2071.98 3010.78 2066.38 3014.33C2060.53 3017.54 2054.85 3020.99 2048.94 3024.11L2030.42 3032.09C2005.57 3041.14 1978.74 3045.5 1951.89 3045.5Z" fill="#CDC6D0"/>
<path d="M2215.26 1365.51C2213.54 1349.86 2211.94 1334.82 2210.46 1320.5C2263.45 1295.3 2313.34 1263.21 2359.04 1224.7C2380.05 1217.57 2401.22 1209.98 2422.3 1201.9C2365.06 1269.26 2294.7 1325.13 2215.26 1365.51Z" fill="#CDC6D0"/>
<path d="M2359.04 1224.7C2373.02 1212.91 2386.61 1200.53 2399.77 1187.55C2402.09 1185.27 2404.37 1182.99 2406.65 1180.69C2422.41 1174.75 2438.12 1168.55 2453.64 1162.1C2443.69 1175.77 2433.24 1189.05 2422.3 1201.9C2401.22 1209.98 2380.05 1217.57 2359.04 1224.7Z" fill="#371A45"/>
<path d="M1912.73 1437.66C1911.18 1437.66 1909.64 1437.66 1908.09 1437.65C1808.34 1436.97 1713.89 1414.46 1629.18 1374.69C1620.86 1370.78 1612.37 1367.63 1603.8 1365.19C1598.37 1344.73 1593.24 1325.27 1588.48 1307.07C1685.74 1358.65 1794.64 1386.38 1907.89 1387.19C1909.6 1387.21 1911.28 1387.21 1912.98 1387.21C2017.54 1387.21 2118.64 1364.19 2210.46 1320.5C2211.94 1334.82 2213.54 1349.86 2215.26 1365.51C2169.88 1388.55 2121.53 1406.59 2070.92 1418.85C2020.17 1431.18 1967.2 1437.66 1912.73 1437.66Z" fill="#CDC6D0"/>
<path d="M1317.45 1728.38C1301.7 1724.47 1288.97 1720.81 1279.14 1717.73C1301.01 1633.51 1332.2 1551.55 1370.97 1473.47C1397 1419.93 1429.69 1370.05 1462.24 1320.41C1476.4 1298.49 1490.9 1276.9 1505.14 1254.94C1531.77 1274.37 1559.61 1291.77 1588.48 1307.07C1593.24 1325.27 1598.37 1344.73 1603.8 1365.19C1588.88 1360.95 1573.68 1358.91 1558.64 1358.91C1494.66 1358.91 1433.28 1395.83 1405.2 1457.89C1363.42 1550.17 1334.68 1641.78 1317.45 1728.38Z" fill="#CDC6D0"/>
<path d="M1863.26 2091.25C1896.04 2090.82 1928.96 2096.13 1960.73 2105.75C1992.46 2115.43 2023.37 2129.03 2051.82 2147.99C2066 2157.47 2079.64 2168.09 2092.34 2179.94C2105.12 2192.06 2116.62 2205.61 2126.72 2219.85C2146.86 2248.51 2160.86 2280.42 2170.57 2313.05C2179.94 2345.79 2185.22 2379.39 2186.3 2413.13C2187.66 2446.85 2185.1 2480.79 2177.45 2514.26C2169.72 2547.55 2157.57 2581.14 2134.4 2610.65L2073.74 2684.14L2074.88 2653.75C2079.96 2661.19 2083.88 2667.73 2088 2674.62C2091.98 2681.45 2095.88 2688.29 2099.6 2695.18C2107.09 2708.98 2114.13 2722.97 2120.74 2737.19C2134.01 2765.62 2145.49 2795.07 2154.37 2825.82C2163 2856.61 2169.33 2888.83 2168.53 2922.98C2168.08 2939.98 2166 2957.5 2160.37 2974.75C2154.89 2991.97 2145.98 3008.77 2133.9 3022.97L2129.37 3028.29C2127.8 3029.99 2126.04 3031.51 2124.38 3033.13C2121 3036.17 2117.6 3039.81 2114.17 3042.07C2107.25 3047.07 2100.54 3052.47 2093.36 3057.01C2085.97 3061.18 2078.66 3065.55 2071.16 3069.46L2047.92 3079.45C2016.29 3090.98 1982.96 3096.19 1949.88 3095.98C1916.77 3095.75 1883.85 3090.09 1852.56 3079.43C1821.13 3069.01 1791.92 3052.3 1765.88 3031.91C1759.36 3026.79 1752.73 3021.79 1747.01 3015.77C1741.17 3009.9 1734.9 3004.41 1729.48 2998.17L1713.64 2979.03C1708.44 2972.61 1704.16 2965.78 1699.4 2959.15C1681.6 2931.91 1667.45 2902.38 1656.98 2871.77C1646.86 2841.06 1639.98 2809.38 1636.96 2777.49C1635.25 2761.55 1634.57 2745.55 1634.53 2729.59C1634.46 2721.61 1634.77 2713.63 1635.05 2705.66L1636.38 2682.54C1638.34 2651.91 1641.02 2622.1 1641.08 2593.37C1641.04 2564.75 1638.48 2537.05 1629.02 2513.13C1627.94 2510.09 1626.77 2507.1 1625.28 2504.29C1623.81 2501.47 1622.7 2498.45 1621 2495.78L1616.1 2487.62C1614.37 2485.26 1613.06 2483.19 1611.09 2481.02C1603.69 2472.39 1593.41 2464.19 1581.93 2456.77C1558.73 2441.91 1531.72 2429.47 1504.42 2417.05C1449.69 2392.22 1391.96 2367.81 1339.33 2330.38C1313.18 2311.49 1288.38 2289.55 1268.37 2261.85C1248.66 2234.55 1234.93 2204.58 1224.56 2174.19C1214.22 2143.73 1207.28 2112.65 1202.33 2081.47C1197.88 2050.25 1195.38 2018.94 1194.62 1987.69C1193.48 1925.18 1199.06 1863.05 1209.29 1801.9C1230.52 1679.7 1270.86 1561.58 1325.76 1451.01C1353.69 1396.03 1382.29 1341.03 1417.58 1290.23C1453.12 1239.79 1493.4 1192.11 1544.77 1156.02C1548.68 1153.27 1554.08 1154.21 1556.82 1158.11C1558.74 1160.86 1558.86 1164.31 1557.42 1167.09L1557.38 1167.17C1528.66 1222.07 1494.56 1270.39 1462.24 1320.41C1429.69 1370.05 1397 1419.93 1370.97 1473.47C1318.09 1579.95 1279.33 1693.66 1259.06 1810.41C1249.3 1868.78 1244.02 1927.9 1245.1 1986.62C1245.82 2015.97 1248.16 2045.14 1252.26 2073.94C1256.81 2102.61 1263.18 2130.86 1272.32 2157.81C1281.45 2184.69 1293.44 2210.39 1309.3 2232.29C1324.81 2253.89 1345.82 2272.85 1368.74 2289.34C1415.14 2322.46 1469.78 2346.02 1525.26 2371.06C1553.06 2383.78 1581.4 2396.55 1609.34 2414.38C1623.24 2423.43 1637.2 2433.98 1649.58 2448.34C1652.68 2451.81 1655.61 2456.06 1658.28 2459.85L1665.09 2471.18C1667.4 2474.94 1669.05 2479.02 1671.04 2482.94C1673.05 2486.86 1674.66 2490.91 1676.16 2495.01C1682.46 2511.27 1686.45 2528.11 1688.57 2544.62C1690.77 2561.13 1691.7 2577.51 1691.57 2593.42C1691.48 2625.33 1688.65 2655.94 1686.77 2685.78L1685.48 2708.05C1685.24 2715.22 1684.96 2722.39 1685.02 2729.55C1685.06 2743.89 1685.65 2758.22 1687.18 2772.42C1689.88 2800.87 1696.01 2828.79 1704.82 2855.63C1723.18 2908.78 1753.69 2958.97 1797.13 2992.26C1818.69 3009.11 1842.85 3023.09 1869.06 3031.73C1895.14 3040.57 1922.65 3045.3 1950.12 3045.49C1977.57 3045.69 2005.04 3041.34 2030.42 3032.09L2048.94 3024.11C2054.85 3020.99 2060.53 3017.54 2066.38 3014.33C2071.98 3010.78 2077.06 3006.55 2082.48 3002.77C2085.41 3000.89 2087.05 2998.74 2089.34 2996.77C2090.4 2995.75 2091.56 2994.82 2092.54 2993.74L2095.34 2990.38C2110.52 2972.77 2117.68 2948.34 2118.05 2921.7C2118.76 2895.14 2113.57 2867.11 2105.81 2839.67C2097.86 2812.18 2087.33 2784.97 2074.97 2758.47C2068.8 2745.23 2062.21 2732.14 2055.24 2719.3C2051.77 2712.86 2048.16 2706.53 2044.5 2700.27C2040.88 2694.14 2036.93 2687.71 2033.46 2682.65L2022.62 2666.77L2034.6 2652.25L2094.93 2579.17C2111.1 2558.71 2121.89 2531.46 2128.05 2503.22C2140.3 2446.27 2136.25 2384.43 2118.9 2328.62C2110.08 2300.74 2098.09 2274.03 2082.14 2250.55C2074.24 2238.73 2065.29 2227.94 2055.5 2217.81C2045.53 2207.57 2034.53 2198.09 2022.77 2189.39C1999.32 2171.97 1973.36 2156.61 1946.13 2143.21C1918.88 2129.82 1890.32 2118.49 1860.57 2107.86L1860.5 2107.83C1856.06 2106.25 1853.74 2101.37 1855.33 2096.91C1856.57 2093.46 1859.81 2091.3 1863.26 2091.25Z" fill="#371A45"/>
<path d="M1662.53 2559.73C1653.2 2559.73 1645.08 2552.83 1643.8 2543.33C1614.34 2325.46 1743.36 2222.46 1800.2 2188.29C1894.42 2131.65 2007.97 2126.35 2076.33 2175.43C2084.82 2181.53 2086.77 2193.35 2080.68 2201.86C2074.58 2210.35 2062.76 2212.3 2054.25 2206.19C1998.7 2166.31 1900.08 2172.43 1819.7 2220.75C1769.29 2251.06 1654.88 2342.67 1681.32 2538.25C1682.72 2548.62 1675.45 2558.15 1665.09 2559.55C1664.24 2559.67 1663.37 2559.73 1662.53 2559.73Z" fill="#371A45"/>
<path d="M2088.93 2665.03C2086.26 2667.58 2084.46 2669.09 2082.25 2670.97C2080.14 2672.77 2077.97 2674.39 2075.81 2676.05C2071.52 2679.38 2067.04 2682.35 2062.52 2685.27C2053.5 2691.14 2043.92 2696.07 2034.16 2700.66C2014.5 2709.5 1993.36 2715.78 1971.48 2718.25C1949.7 2720.63 1927.02 2719.7 1906.24 2712.5C1885.49 2705.57 1866.96 2693.27 1854 2676.89C1874.69 2680.49 1893.18 2683.26 1911.29 2682.37C1920.24 2682.27 1929.01 2681.37 1937.62 2680.07C1946.24 2678.86 1954.76 2677.1 1963.08 2674.47C1979.76 2669.54 1995.92 2662.58 2011.48 2654.17C2019.36 2650.15 2026.92 2645.49 2034.52 2640.93L2045.65 2633.75L2055.88 2626.86L2057.44 2625.82C2069 2618.03 2084.68 2621.09 2092.46 2632.65C2099.45 2643.02 2097.7 2656.7 2088.93 2665.03Z" fill="#371A45"/>
<path d="M2572.12 861.607C2564.61 862.087 2558.14 856.394 2557.66 848.887L2532.64 457.474C2532.16 449.967 2537.86 443.501 2545.36 443.021C2624.09 437.994 2692 497.74 2697.04 576.46L2705.57 709.94C2710.6 788.674 2650.85 856.58 2572.12 861.607Z" fill="white"/>
<path d="M2554.68 445.434C2551.64 445.434 2548.6 445.527 2545.54 445.727C2542.62 445.914 2539.97 447.22 2538.04 449.407C2536.12 451.594 2535.16 454.394 2535.34 457.301L2560.37 848.714C2560.74 854.714 2565.97 859.38 2571.94 858.914C2609.3 856.527 2643.49 839.727 2668.22 811.621C2692.96 783.527 2705.25 747.474 2702.86 710.114L2694.33 576.634C2691.94 539.287 2675.16 505.087 2647.05 480.367C2621.25 457.661 2588.73 445.434 2554.68 445.434ZM2572.12 861.607H2572.18H2572.12ZM2571.25 864.34C2562.72 864.34 2555.52 857.687 2554.96 849.06L2529.94 457.647C2529.37 448.674 2536.21 440.887 2545.18 440.327C2625.33 435.247 2694.61 496.194 2699.73 576.301L2708.26 709.767C2710.74 748.567 2697.97 786.007 2672.29 815.207C2646.61 844.394 2611.09 861.834 2572.29 864.314C2571.94 864.327 2571.6 864.34 2571.25 864.34Z" fill="#371A45"/>
<path d="M2592.53 832.9C2598.32 804.367 2602.32 775.367 2604.5 745.967C2635.01 736.98 2661.05 718.167 2679.21 693.367L2680.37 711.554C2684.02 768.7 2646.02 819.06 2592.53 832.9Z" fill="#B9AFBE"/>
<path d="M2558.61 468.034L2582.08 835.1C2641 825.474 2684.26 772.354 2680.37 711.554L2671.84 578.074C2669.84 546.727 2655.74 518.034 2632.16 497.287C2611.5 479.127 2585.74 468.941 2558.61 468.034ZM2572.12 861.607H2572.18H2572.12ZM2571.22 886.887C2550.93 886.887 2533.78 871.047 2532.46 850.5L2507.45 459.087C2506.09 437.701 2522.37 419.194 2543.76 417.834C2588.52 414.941 2631.8 429.714 2665.52 459.38C2699.22 489.034 2719.37 530.047 2722.22 574.86L2730.76 708.327C2733.62 753.14 2718.86 796.381 2689.21 830.087C2659.56 863.794 2618.54 883.94 2573.73 886.807C2572.89 886.86 2572.05 886.887 2571.22 886.887Z" fill="#371A45"/>
<path d="M1253.41 525.607C1260.92 525.127 1267.38 530.821 1267.86 538.327L1292.88 929.741C1293.37 937.247 1287.66 943.714 1280.16 944.194C1201.44 949.234 1133.53 889.487 1128.49 810.754L1119.96 677.287C1114.93 598.554 1174.68 530.647 1253.41 525.607Z" fill="white"/>
<path d="M1253.57 528.314C1216.22 530.701 1182.04 547.487 1157.3 575.594C1132.57 603.7 1120.28 639.754 1122.66 677.114L1131.2 810.58C1133.58 847.94 1150.37 882.127 1178.48 906.86C1206.58 931.58 1242.66 943.927 1280 941.501C1282.9 941.314 1285.56 940.007 1287.49 937.821C1289.41 935.634 1290.37 932.82 1290.18 929.914L1265.16 538.501C1264.78 532.501 1259.6 527.9 1253.57 528.314ZM1270.85 947.207C1235.46 947.207 1201.7 934.5 1174.9 910.927C1145.72 885.234 1128.28 849.727 1125.78 810.927L1117.26 677.447C1114.78 638.66 1127.56 601.207 1153.24 572.021C1178.92 542.834 1214.44 525.394 1253.24 522.914C1262.32 522.46 1269.98 529.181 1270.57 538.154L1295.58 929.567C1295.86 933.914 1294.42 938.114 1291.54 941.394C1288.68 944.674 1284.69 946.621 1280.34 946.901C1277.16 947.101 1274 947.207 1270.85 947.207Z" fill="#371A45"/>
<path d="M1256.28 918.354C1233.09 915.461 1211.29 905.714 1193.37 889.927C1169.78 869.181 1155.69 840.5 1153.69 809.14L1152.52 790.834C1174 811.287 1201.78 825.047 1232.37 829.047C1238.34 859.421 1246.34 889.247 1256.28 918.354Z" fill="#B9AFBE"/>
<path d="M1243.45 552.114C1184.53 561.754 1141.26 614.874 1145.16 675.674L1153.69 809.14C1155.69 840.5 1169.78 869.18 1193.37 889.927C1214.01 908.1 1239.78 918.274 1266.92 919.18L1243.45 552.114ZM1270.93 969.74C1183.1 969.74 1108.98 901.234 1103.3 812.367L1094.77 678.887C1091.9 634.087 1106.66 590.847 1136.32 557.127C1165.97 523.42 1206.98 503.274 1251.8 500.42C1273.21 499.034 1291.68 515.34 1293.05 536.714L1318.08 928.127C1318.74 938.487 1315.33 948.487 1308.48 956.274C1301.61 964.074 1292.13 968.727 1281.77 969.394C1278.14 969.62 1274.53 969.74 1270.93 969.74Z" fill="#371A45"/>
<path d="M2581.18 698.381C2578.54 1067.5 2277.18 1364.58 1908.06 1361.94C1538.96 1359.3 1241.86 1057.94 1244.5 688.821C1247.14 319.714 1548.5 22.6208 1917.62 25.2607C2286.74 27.9008 2583.82 329.274 2581.18 698.381Z" fill="white"/>
<path d="M1912.7 27.9541C1736.73 27.9541 1571 95.8871 1445.53 219.567C1318.92 344.394 1248.48 511.047 1247.21 688.847C1245.94 866.647 1313.98 1034.3 1438.81 1160.91C1563.62 1287.54 1730.29 1357.97 1908.09 1359.23C2085.72 1360.47 2253.53 1292.47 2380.16 1167.65C2506.77 1042.82 2577.21 876.167 2578.48 698.367C2579.74 520.567 2511.7 352.914 2386.89 226.3C2262.06 99.6738 2095.4 29.2338 1917.6 27.9672C1915.97 27.9672 1914.33 27.9541 1912.7 27.9541ZM1912.92 1364.67C1911.28 1364.67 1909.69 1364.66 1908.05 1364.65C1538.02 1362.01 1239.16 1058.82 1241.8 688.807C1244.44 320.434 1545 22.5405 1912.77 22.5405C1914.41 22.5405 1916 22.5405 1917.64 22.5671C2096.89 23.8339 2264.9 94.8472 2390.74 222.5C2516.57 350.14 2585.17 519.154 2583.89 698.407C2581.25 1066.77 2280.69 1364.67 1912.92 1364.67Z" fill="#371A45"/>
<path d="M1912.16 1336.71C1910.85 1336.71 1909.54 1336.71 1908.25 1336.7C1770.58 1335.71 1639.84 1291.82 1531.26 1211.46C1631.12 1259.41 1761.88 1298.31 1901.44 1298.3C1905.64 1298.3 1909.86 1298.27 1914.09 1298.19C2066.49 1295.61 2199.28 1255.97 2298.93 1208.07C2187.93 1291.7 2053.58 1336.71 1912.16 1336.71Z" fill="#B9AFBE"/>
<path d="M1912.72 50.5004C1742.69 50.5004 1582.57 116.127 1461.36 235.621C1339.02 356.207 1270.97 517.234 1269.74 689.007C1268.52 860.78 1334.26 1022.75 1454.85 1145.09C1575.45 1267.42 1736.46 1335.47 1908.25 1336.7C2080.24 1337.71 2242 1272.19 2364.33 1151.59C2486.66 1030.99 2554.72 869.98 2555.94 698.207C2557.17 526.42 2491.42 364.447 2370.84 242.114C2250.24 119.781 2089.22 51.7406 1917.45 50.5139C1915.86 50.5005 1914.29 50.5004 1912.72 50.5004ZM1912.98 1387.21C1911.28 1387.21 1909.6 1387.21 1907.89 1387.19C1722.62 1385.86 1548.97 1312.47 1418.9 1180.54C1288.84 1048.59 1217.93 873.914 1219.26 688.647C1220.58 503.38 1293.98 329.727 1425.92 199.661C1557.85 69.5941 1732.66 -1.37939 1917.8 0.0206299C2103.06 1.3407 2276.73 74.7405 2406.78 206.674C2536.85 338.607 2607.76 513.301 2606.42 698.567C2605.1 883.834 2531.72 1057.49 2399.77 1187.55C2269.05 1316.42 2096.34 1387.21 1912.98 1387.21Z" fill="#371A45"/>
<path d="M2578.93 715.541C2579.97 846.314 2538.48 968.074 2466.68 1069.11C2412.84 1144.86 2190.12 1278.46 1913.82 1283.14C1657.65 1287.47 1423.46 1152.74 1368.42 1077.85C1295.02 977.967 1251.6 856.888 1250.56 726.101C1247.81 380.008 1544.01 234.167 1910.85 231.261C2277.68 228.341 2576.17 369.447 2578.93 715.541Z" fill="#371A45"/>
<path d="M1920.84 246.274C1917.48 246.274 1914.2 246.287 1910.97 246.314C1715.8 247.861 1262.21 297.714 1265.62 725.981C1266.61 849.354 1306.34 967.941 1380.56 1068.93C1432.46 1139.55 1655.64 1268.17 1901.69 1268.18C1905.66 1268.18 1909.6 1268.14 1913.58 1268.07C2191.4 1263.37 2406.16 1128.27 2454.4 1060.39C2527 958.234 2564.85 839.034 2563.86 715.661C2560.52 294.474 2121.02 246.274 1920.84 246.274ZM1901.44 1298.3C1641.96 1298.31 1412.92 1163.82 1356.29 1086.77C1278.3 980.647 1236.53 855.968 1235.5 726.221C1234.16 557.274 1300.85 426.474 1433.73 337.474C1549.85 259.687 1714.8 217.754 1910.73 216.194C2106.73 214.594 2272.25 253.941 2389.6 329.874C2523.88 416.754 2592.64 546.461 2593.98 715.421C2595.02 845.168 2555.24 970.487 2478.94 1077.83C2426.08 1152.23 2206.1 1293.25 1914.09 1298.19C1909.86 1298.27 1905.64 1298.3 1901.44 1298.3Z" fill="#371A45"/>
<path d="M2353.29 787.714C2349.72 787.714 2346.12 787.407 2342.53 786.781C2295.89 778.714 2267.1 719.994 2278.24 655.621C2288.52 596.221 2329.2 552.767 2372.08 552.767C2375.66 552.767 2379.26 553.074 2382.85 553.687C2420.54 560.207 2446.57 599.807 2449.3 648.74C2444.5 677.714 2438.04 706.181 2430.02 734.034C2411.81 766.741 2383.08 787.714 2353.29 787.714Z" fill="#C3BAC7"/>
<path d="M2255.38 958.994C2251.25 958.994 2247.09 958.367 2243.01 957.061C2218.5 949.221 2206.05 919.714 2215.2 891.154C2222.81 867.354 2243.04 851.727 2263.74 851.727C2267.88 851.727 2272.04 852.354 2276.12 853.661C2300.62 861.501 2313.08 891.021 2303.93 919.568C2296.32 943.368 2276.09 958.994 2255.38 958.994Z" fill="#C3BAC7"/>
<path d="M1901.69 1268.18C1824.73 1268.18 1750.01 1255.59 1682.06 1236.13C2001.48 1211.82 2253.02 1057.63 2316.96 967.647C2367.22 896.941 2405.77 818.234 2430.02 734.034C2438.02 719.647 2444 702.994 2447.14 684.847C2449.28 672.501 2449.94 660.354 2449.3 648.741C2456.3 606.461 2459.77 563.087 2459.41 518.914C2459.16 483.594 2456.41 449.954 2451.44 417.941C2518.22 486.794 2562.81 582.621 2563.86 715.661C2564.85 839.034 2527 958.234 2454.4 1060.39C2406.16 1128.27 2191.4 1263.37 1913.58 1268.07C1909.6 1268.14 1905.66 1268.18 1901.69 1268.18Z" fill="#2A1A3B"/>
<path d="M1901.53 1283.26C1808.34 1283.26 1718.46 1265.15 1639.41 1238.58C1653.76 1238.02 1667.98 1237.21 1682.06 1236.13C1750.01 1255.59 1824.73 1268.18 1901.69 1268.18C1905.66 1268.18 1909.6 1268.14 1913.58 1268.07C2191.4 1263.37 2406.16 1128.27 2454.4 1060.39C2527 958.234 2564.85 839.034 2563.86 715.661C2562.81 582.621 2518.22 486.794 2451.44 417.941C2450.16 409.754 2448.74 401.674 2447.17 393.688C2528.98 470.528 2577.8 576.514 2578.92 715.514C2579.96 846.327 2538.45 968.074 2466.69 1069.11C2412.84 1144.86 2190.1 1278.45 1913.81 1283.15C1909.72 1283.23 1905.61 1283.26 1901.53 1283.26Z" fill="#2A1A3B"/>
<path d="M2430.02 734.034C2438.04 706.181 2444.5 677.714 2449.3 648.741C2449.94 660.354 2449.28 672.501 2447.14 684.847C2444 702.994 2438.02 719.648 2430.02 734.034Z" fill="#858290"/>
<path d="M1298.25 430.594H1298.32H1298.25ZM1318.17 446.087L1278.54 414.821L1297.16 429.714L1277.33 416.474C1394.68 240.794 1623.94 138.741 1906.36 136.487C2187.01 134.367 2417.36 229.261 2539.41 397.141C2546.46 406.421 2546.4 419.687 2538.52 428.887C2529.44 439.474 2513.54 440.727 2502.96 431.661C2501.46 430.367 2500.02 428.834 2498.86 427.234C2386.6 272.461 2170.73 184.754 1906.77 186.981C1641.34 189.087 1427.22 282.954 1319.32 444.514C1318.96 445.061 1318.58 445.581 1318.17 446.087Z" fill="#371A45"/>
<path d="M1401.36 930.807C1401.36 930.807 1291.45 590.234 1474.37 452.714C1610.81 350.154 1792.74 323.207 1873.9 323.207C1901.56 323.207 1917.5 326.341 1915.97 330.674C1915.97 330.674 1623.46 403.954 1510.64 636.554C1423.64 815.914 1401.36 930.807 1401.36 930.807Z" fill="#C3BAC7"/>
<path d="M2334.57 1673.14L2352.65 1812.7L2366.74 1921.25C2370.56 1950.74 2351.01 1978.17 2321.81 1984.1C2303.04 1987.94 2279.7 1992.42 2252.86 1997.06C2157.33 2013.54 2016.78 2031.97 1875.49 2029.81C1845.13 2029.33 1820.6 2004.89 1819.8 1974.5L1812.5 1686.34C1811.69 1653.9 1838.18 1627.38 1870.64 1628.21C1968.77 1630.73 2164.34 1633.97 2273.3 1623.94C2303.62 1621.13 2330.68 1642.91 2334.57 1673.14Z" fill="white"/>
<path d="M1866.29 1628.27L1751.73 1640.5C1726.62 1643.17 1707.81 1664.75 1708.58 1689.99L1717.3 1975.86C1718.06 2000.79 1737.68 2021.03 1762.56 2022.59L1868.41 2029.22L1866.29 1628.27Z" fill="white"/>
<path d="M1803.24 2002.81L1763.96 2000.35C1750.48 1999.51 1740 1988.69 1739.58 1975.18L1738.32 1933.51V1933.5C1748.89 1942.05 1759.53 1950.27 1770.14 1958.18C1770.16 1958.18 1770.17 1958.19 1770.18 1958.21C1779.36 1965.03 1788.5 1971.59 1797.65 1977.95C1798.18 1986.71 1800.12 1995.07 1803.24 2002.81Z" fill="#CDC6D0"/>
<path d="M1869.17 1650.47C1859.98 1650.47 1851.4 1654.02 1844.88 1660.54C1838.13 1667.29 1834.54 1676.25 1834.8 1685.78L1842.08 1973.95C1842.56 1992.5 1857.37 2007.26 1875.82 2007.54C2052.96 2010.19 2228.53 1980.35 2317.38 1962.27C2334.98 1958.69 2346.96 1941.91 2344.64 1924.09L2312.48 1675.99C2310.08 1657.54 2293.84 1644.43 2275.34 1646.11C2166.54 1656.13 1974.73 1653.15 1870.08 1650.49C1869.77 1650.47 1869.46 1650.47 1869.17 1650.47ZM1898.76 2052.29C1890.89 2052.29 1883.01 2052.23 1875.13 2052.11C1832.69 2051.46 1798.6 2017.62 1797.53 1975.07L1790.24 1686.9C1789.68 1665.05 1797.89 1644.49 1813.36 1629.02C1828.81 1613.57 1849.36 1605.43 1871.21 1605.93C1974.89 1608.57 2164.73 1611.54 2271.26 1601.73C2313.64 1597.83 2351.18 1627.94 2356.68 1670.26L2388.84 1918.37C2394.14 1959.25 2366.66 1997.71 2326.28 2005.94C2239.6 2023.59 2071.93 2052.29 1898.76 2052.29Z" fill="#371A45"/>
<path d="M1868.42 2051.51C1867.96 2051.51 1867.49 2051.5 1867.01 2051.47L1761.17 2044.83C1724.58 2042.55 1696.14 2013.19 1695.04 1976.54L1686.3 1690.67C1685.18 1653.99 1712.89 1622.22 1749.37 1618.34L1863.93 1606.11C1876.21 1604.75 1887.14 1613.67 1888.45 1625.91C1889.76 1638.14 1880.89 1649.13 1868.65 1650.43L1754.1 1662.65C1740.65 1664.09 1730.45 1675.79 1730.86 1689.31L1739.58 1975.18C1740 1988.69 1750.48 1999.51 1763.96 2000.35L1869.8 2006.98C1882.09 2007.75 1891.42 2018.33 1890.65 2030.62C1889.9 2042.43 1880.1 2051.51 1868.42 2051.51Z" fill="#371A45"/>
<path d="M2110.02 2041.73C2098.32 2041.73 2088.49 2032.58 2087.8 2020.74L2079.28 1874.73L2005.34 1824.86C1999.65 1821.02 1996.05 1814.77 1995.57 1807.91L1983.48 1632.06C1982.64 1619.79 1991.9 1609.15 2004.18 1608.3C2016.44 1607.46 2027.1 1616.73 2027.94 1629.01L2039.29 1793.99L2113.34 1843.95C2119.1 1847.83 2122.73 1854.18 2123.13 1861.13L2132.29 2018.14C2133.01 2030.43 2123.62 2040.97 2111.34 2041.69C2110.9 2041.71 2110.46 2041.73 2110.02 2041.73Z" fill="#371A45"/>
<path d="M2317.92 1806.42C2318.84 1815.26 2313.82 1887.94 2313.82 1887.94C2313.82 1887.94 2291.21 1890.29 2263.45 1893.18C2228.76 1896.78 2196.9 1863.79 2192.29 1819.49C2187.69 1775.18 2212.06 1736.34 2246.76 1732.73C2270.17 1730.3 2297.14 1727.49 2297.14 1727.49C2297.14 1727.49 2316.41 1792.02 2317.92 1806.42Z" fill="#22A7F0"/>
<path d="M2317.9 1806.42C2318.84 1815.26 2313.85 1887.94 2313.85 1887.94C2313.85 1887.94 2313.28 1888.01 2312.18 1888.1C2313.49 1867.13 2314.8 1842.22 2314.28 1837.29C2312.81 1822.87 2293.53 1758.37 2293.53 1758.37C2293.53 1758.37 2266.54 1761.17 2243.16 1763.61C2218.92 1766.1 2199.68 1785.87 2191.84 1812.66C2190.21 1771.25 2213.86 1736.14 2246.77 1732.74C2270.17 1730.31 2297.16 1727.5 2297.16 1727.5C2297.16 1727.5 2316.42 1792.02 2317.9 1806.42Z" fill="white"/>
<path d="M2283.41 1747.95L2248.72 1751.57C2224.88 1754.05 2207.66 1784.25 2211.12 1817.53C2214.58 1850.81 2237.69 1876.74 2261.49 1874.35L2295.98 1870.75C2298.6 1830.42 2299.28 1811.91 2299.06 1808.25C2298.5 1803.31 2294.12 1784.95 2283.41 1747.95ZM2258.33 1912.38C2216.14 1912.38 2178.85 1873.19 2173.46 1821.45C2167.78 1766.82 2199.78 1718.58 2244.8 1713.9L2279.97 1710.25C2297.97 1708.35 2314.61 1719.61 2319.64 1736.94C2335.37 1791.26 2336.41 1801.19 2336.74 1804.46C2337.02 1807.09 2337.65 1813.23 2333.74 1873.73C2332.57 1891.9 2318.54 1906.47 2300.4 1908.37L2265.41 1912.01C2263.04 1912.26 2260.68 1912.38 2258.33 1912.38Z" fill="#371A45"/>
<path d="M2368.29 1801.18C2372.9 1845.49 2348.52 1884.33 2313.82 1887.94C2279.13 1891.54 2247.28 1858.55 2242.68 1814.25C2238.06 1769.94 2262.45 1731.1 2297.14 1727.49C2331.82 1723.89 2363.68 1756.87 2368.29 1801.18Z" fill="#22A7F0"/>
<path d="M2368.28 1801.18C2368.82 1806.54 2368.98 1811.82 2368.68 1816.97C2359.1 1780.82 2330.9 1755.81 2300.44 1758.95C2269.92 1762.17 2247.4 1792.54 2245.56 1829.95C2244.22 1824.9 2243.21 1819.63 2242.66 1814.22C2238.05 1769.93 2262.46 1731.09 2297.16 1727.5C2331.82 1723.87 2363.66 1756.89 2368.28 1801.18Z" fill="white"/>
<path d="M2302.29 1746.15C2301.22 1746.15 2300.16 1746.21 2299.1 1746.33C2288.24 1747.45 2278.33 1754.33 2271.21 1765.67C2263.16 1778.5 2259.7 1795.05 2261.5 1812.29C2263.3 1829.53 2270.08 1845.02 2280.58 1855.91C2289.9 1865.55 2301.02 1870.26 2311.86 1869.11C2322.73 1867.98 2332.64 1861.1 2339.76 1849.75C2347.81 1836.94 2351.25 1820.38 2349.46 1803.14C2347.66 1785.9 2340.89 1770.41 2330.37 1759.53C2321.97 1750.82 2312.12 1746.15 2302.29 1746.15ZM2308.5 1907.15C2288.38 1907.15 2269.04 1898.46 2253.34 1882.21C2236.98 1865.26 2226.5 1841.82 2223.84 1816.21C2221.17 1790.59 2226.61 1765.5 2239.13 1745.54C2252.58 1724.11 2272.49 1711.02 2295.18 1708.66C2317.88 1706.29 2340.05 1715.02 2357.61 1733.22C2373.98 1750.17 2384.46 1773.61 2387.12 1799.23V1799.22C2389.78 1824.83 2384.36 1849.94 2371.82 1869.89C2358.38 1891.31 2338.48 1904.41 2315.78 1906.77C2313.34 1907.02 2310.92 1907.15 2308.5 1907.15Z" fill="#371A45"/>
<path d="M1244.46 1728.98C1244.46 1728.98 1395.17 1797.18 1753.61 1784.87C1753.61 1784.87 1819.28 1847.81 1753.61 1899.79C1687.93 1951.78 1318.36 1981.7 1219.62 1875.17C1157.12 1807.71 1244.46 1728.98 1244.46 1728.98Z" fill="white"/>
<path d="M1490.72 1924.27C1386.24 1924.27 1279.74 1907.26 1235.97 1860.02C1224.2 1847.31 1218.78 1833.81 1219.42 1818.75C1219.68 1812.93 1220.78 1807.17 1222.49 1801.58C1272.57 1851.73 1384.4 1870.37 1493.45 1870.37C1550.9 1870.37 1607.6 1865.19 1654.09 1856.73C1668.81 1871.91 1683.84 1886.34 1699.06 1900.05C1650.48 1914.18 1571.18 1924.27 1490.72 1924.27Z" fill="#CDC6D0"/>
<path d="M1250.18 1755.14C1238.72 1768.18 1220.53 1792.81 1219.42 1818.75C1218.78 1833.81 1224.2 1847.31 1235.97 1860.02C1326.4 1957.61 1684.34 1926.19 1739.77 1882.31C1753.12 1871.75 1759.89 1860.73 1760.46 1848.62C1761.21 1832.94 1751.37 1816.82 1743.97 1807.47C1449.53 1816.46 1296.18 1771.7 1250.18 1755.14ZM1493.4 1969.23C1409.69 1969.23 1266.48 1958.5 1203.28 1890.31C1183.22 1868.67 1173.68 1843.87 1174.9 1816.61C1177.45 1760.01 1227.41 1714.34 1229.54 1712.42L1240.37 1702.66L1253.61 1708.66C1255.89 1709.66 1406.45 1774.53 1752.84 1762.59L1762.24 1762.27L1769.02 1768.78C1772.92 1772.53 1807.08 1806.58 1804.98 1850.73C1804.16 1868.17 1796.97 1893.87 1767.44 1917.26C1723.4 1952.13 1597.49 1968.63 1499.14 1969.21C1497.26 1969.22 1495.34 1969.23 1493.4 1969.23Z" fill="#371A45"/>
<path d="M2306.85 2351.1C2272.77 2351.1 2240.6 2344.25 2214.62 2327.97C2187.81 2311.18 2169.94 2291.89 2155.78 2272.17C2147.89 2253.97 2138.33 2236.37 2126.72 2219.85C2116.62 2205.61 2105.12 2192.06 2092.34 2179.94C2090.25 2177.99 2088.14 2176.09 2086.01 2174.21C2104.09 2168.69 2122.13 2163.43 2140.16 2158.43C2169.62 2187.78 2184.18 2219.82 2225.72 2253.29C2234.2 2260.11 2243.8 2267.02 2254.89 2273.97C2280.85 2290.23 2309.42 2297.07 2338.29 2297.07C2376.48 2297.07 2415.2 2285.1 2449.12 2267.11C2481.54 2249.9 2509.61 2227.19 2528.61 2204.21C2548.68 2179.94 2563.49 2158.27 2568.32 2135.47C2580.21 2181.34 2564.8 2221.95 2534.8 2258.23C2507.12 2291.67 2448.1 2324.51 2384.62 2340.7C2362.74 2341.9 2340.93 2345.26 2319.44 2350.79C2315.21 2350.99 2311.01 2351.1 2306.85 2351.1Z" fill="#CDC6D0"/>
<path d="M2086.01 2174.21C2077.64 2166.83 2068.92 2159.97 2059.93 2153.58C2078.34 2147.85 2096.61 2142.42 2114.68 2137.29C2115.69 2137.82 2116.49 2138.29 2117.05 2138.7C2125.88 2145.13 2133.41 2151.71 2140.16 2158.43C2122.13 2163.43 2104.09 2168.69 2086.01 2174.21Z" fill="#371A45"/>
<path d="M2319.44 2350.79C2340.93 2345.26 2362.74 2341.9 2384.62 2340.7C2363.06 2346.19 2340.97 2349.77 2319.44 2350.79Z" fill="#371A45"/>
<path d="M2155.78 2272.17C2128.85 2234.66 2115.34 2195.62 2079.18 2169.31C2075.97 2166.98 2066.25 2162.74 2051.42 2156.25C2054.26 2155.35 2057.09 2154.46 2059.93 2153.58C2068.92 2159.97 2077.64 2166.83 2086.01 2174.21C2088.14 2176.09 2090.25 2177.99 2092.34 2179.94C2105.12 2192.06 2116.62 2205.61 2126.72 2219.85C2138.33 2236.37 2147.89 2253.97 2155.78 2272.17Z" fill="#371A45"/>
<path d="M1782.8 1433.27C1977.97 1676.79 2299.98 1826.09 2492.37 1999.66C2597.81 2094.79 2581.21 2140.57 2528.62 2204.19C2474.7 2269.41 2348.05 2332.34 2254.89 2273.97C2177.08 2225.21 2172.24 2178.87 2117.09 2138.71C2095.33 2122.86 1745.4 2030.01 1551.13 1727.23L1782.8 1433.27Z" fill="white"/>
<path d="M2114.68 2137.29C2112.7 2136.27 2109.89 2135.03 2106.32 2133.57C2109.89 2135.03 2112.7 2136.27 2114.69 2137.29C2114.68 2137.3 2114.69 2137.29 2114.68 2137.29Z" fill="#371A45"/>
<path d="M2568.32 2135.47C2568.32 2135.46 2568.32 2135.46 2568.32 2135.45C2570.65 2124.41 2570.62 2113.1 2567.72 2101.11C2567.73 2101.1 2567.73 2101.1 2567.74 2101.09C2570.65 2113.1 2570.65 2124.42 2568.32 2135.47Z" fill="#CDC6D0"/>
<path d="M1962.08 2073.1C1948.66 2066.67 1934.7 2059.7 1920.32 2052.14C1934.72 2059.7 1948.66 2066.67 1962.08 2073.1Z" fill="#A79BAD"/>
<path d="M1797.65 1977.95C1788.5 1971.59 1779.36 1965.03 1770.18 1958.21C1779.34 1965.02 1788.52 1971.61 1797.65 1977.95Z" fill="#A79BAD"/>
<path d="M1920.32 2052.14C1910.33 2046.9 1900.13 2041.37 1889.78 2035.55C1900.13 2041.37 1910.33 2046.9 1920.32 2052.14ZM1838.52 2005.02C1825.01 1996.5 1811.34 1987.47 1797.65 1977.95C1811.36 1987.49 1825 1996.49 1838.52 2005.02Z" fill="#371A45"/>
<path d="M1889.78 2035.55C1873.05 2026.15 1855.9 2015.99 1838.52 2005.02C1855.9 2015.99 1873.05 2026.15 1889.78 2035.55Z" fill="#371A45"/>
<path d="M1551.13 1727.21L1555.1 1722.15L1551.14 1727.22" fill="#CDC6D0"/>
<path d="M2449.12 2267.11C2481.56 2249.9 2509.61 2227.18 2528.62 2204.19C2548.68 2179.93 2563.5 2158.26 2568.32 2135.45C2568.32 2135.46 2568.32 2135.46 2568.32 2135.47C2563.49 2158.27 2548.68 2179.94 2528.61 2204.21C2509.61 2227.19 2481.54 2249.9 2449.12 2267.11ZM2225.72 2253.29C2184.18 2219.82 2169.62 2187.78 2140.16 2158.43C2140.17 2158.43 2140.17 2158.43 2140.18 2158.43C2169.64 2187.77 2184.2 2219.79 2225.72 2253.29Z" fill="#A79BAD"/>
<path d="M2140.16 2158.43C2133.41 2151.71 2125.88 2145.13 2117.05 2138.7C2116.49 2138.29 2115.69 2137.82 2114.68 2137.29C2114.69 2137.29 2114.68 2137.3 2114.69 2137.29C2115.7 2137.82 2116.52 2138.29 2117.09 2138.71C2125.9 2145.13 2133.44 2151.71 2140.18 2158.43C2140.17 2158.43 2140.17 2158.43 2140.16 2158.43Z" fill="#371A45"/>
<path d="M2338.3 2297.07C2309.42 2297.07 2280.86 2290.22 2254.89 2273.95C2243.81 2267.01 2234.2 2260.11 2225.72 2253.29C2184.2 2219.79 2169.64 2187.77 2140.18 2158.43C2133.44 2151.71 2125.9 2145.13 2117.09 2138.71C2116.52 2138.29 2115.7 2137.82 2114.69 2137.29C2112.7 2136.27 2109.89 2135.03 2106.32 2133.57C2083.58 2124.25 2029.89 2105.62 1962.08 2073.1C1948.66 2066.67 1934.72 2059.7 1920.32 2052.14C1910.33 2046.9 1900.13 2041.37 1889.78 2035.55C1873.05 2026.15 1855.9 2015.99 1838.52 2005.02C1825 1996.49 1811.36 1987.49 1797.65 1977.95C1788.52 1971.61 1779.34 1965.02 1770.18 1958.21C1770.17 1958.19 1770.16 1958.18 1770.14 1958.18C1691.77 1899.86 1613.44 1824.33 1551.13 1727.21L1555.12 1722.17C1771.77 1949.93 1997.61 1963.57 2147.61 2079.01C2201.66 2120.61 2206.36 2134.41 2284.18 2183.13C2310.14 2199.41 2338.72 2206.25 2367.58 2206.25C2442.29 2206.25 2519.02 2160.41 2557.89 2113.39C2561.36 2109.23 2564.64 2105.14 2567.72 2101.11C2570.62 2113.1 2570.65 2124.41 2568.32 2135.45C2563.5 2158.26 2548.68 2179.93 2528.62 2204.19C2509.61 2227.18 2481.56 2249.9 2449.12 2267.11C2415.2 2285.1 2376.49 2297.07 2338.3 2297.07Z" fill="#CDC6D0"/>
<path d="M1789.36 1428.01C1830.8 1457.26 1864.98 1490.5 1901.56 1522.35C1937.45 1554.61 1974.34 1586.06 2011.58 1617.35C2049.48 1647.95 2088.72 1676.98 2128.93 1705.01C2168.9 1733.29 2209.7 1760.78 2250.42 1788.5C2291.18 1816.34 2332.18 1843.9 2372.52 1873.06C2382.68 1880.18 2392.73 1887.55 2402.69 1895.07C2412.66 1902.57 2422.74 1909.9 2432.64 1917.53C2452.24 1933.15 2472.1 1948.37 2490.98 1965.17C2510.16 1981.26 2529.1 1998.81 2546.86 2018.31C2551.2 2023.42 2555.58 2028.39 2559.82 2033.63C2563.88 2039.23 2568.06 2044.59 2571.92 2050.45L2577.44 2059.63L2580.18 2064.25C2581.02 2065.86 2581.78 2067.61 2582.58 2069.29L2587.22 2079.47C2588.58 2083.03 2589.65 2086.87 2590.82 2090.58C2595.09 2105.53 2596.77 2122.85 2593.25 2138.75C2590.05 2154.57 2583.8 2168.86 2576.53 2180.97C2569.22 2193.03 2561.26 2204.02 2553.12 2214.01C2549.26 2219.02 2544.64 2224.19 2539.96 2229.35C2535.44 2234.67 2530.33 2239.09 2525.45 2243.86C2505.49 2262.26 2483.37 2277.47 2459.66 2289.93C2435.94 2302.33 2410.54 2311.91 2383.69 2317.39C2356.9 2322.83 2328.42 2324.02 2300.34 2318.42L2289.88 2315.99C2286.38 2315.23 2282.9 2314.37 2279.56 2312.98C2272.86 2310.35 2265.9 2308.3 2259.49 2305.03C2253.17 2301.66 2246.62 2298.29 2240.57 2294.75C2235.05 2291.02 2229.42 2287.57 2224.02 2283.59C2213.18 2275.78 2202.64 2267.3 2192.82 2257.98C2183.06 2248.66 2173.84 2238.71 2165.58 2228.58C2148.94 2208.27 2135.68 2188.83 2120.09 2174.17C2118.22 2172.19 2116.12 2170.54 2114.13 2168.74C2112.14 2166.94 2110.13 2165.18 2107.96 2163.58L2104.77 2161.11L2103.18 2159.87L2102.4 2159.25C2102.04 2158.95 2102.38 2159.31 2102.34 2159.3C2102.48 2159.43 2102.62 2159.54 2102.8 2159.58L2101.48 2158.98C2100.41 2158.53 2099.61 2158.1 2098.18 2157.54C2087.82 2153.27 2075.92 2148.85 2064.44 2144.39C2041.24 2135.42 2017.98 2125.99 1995.02 2115.93C1903.17 2075.7 1814.9 2025.63 1735.34 1963.25C1715.34 1947.82 1696.18 1931.29 1677.33 1914.41C1658.81 1897.17 1639.73 1880.42 1622.18 1862.03C1613.25 1852.98 1604.81 1843.46 1596.98 1833.43C1592.94 1828.53 1588.97 1823.57 1585.41 1818.27C1581.72 1813.09 1578.08 1807.87 1574.6 1802.54C1567.56 1791.95 1561.78 1780.42 1556.3 1768.86C1551.24 1757.01 1546.86 1744.77 1544.05 1731.78C1543 1726.93 1546.06 1722.15 1550.92 1721.1C1553.38 1720.57 1555.84 1721.1 1557.78 1722.41L1558.21 1722.69C1569.24 1730.09 1578.26 1738.54 1587.4 1746.82C1596.72 1754.95 1604.82 1763.83 1613.3 1772.39C1617.49 1776.7 1621.53 1781.11 1625.5 1785.57C1629.46 1790.05 1633.7 1794.29 1637.68 1798.74C1641.76 1803.1 1645.74 1807.53 1649.61 1812.07C1653.65 1816.46 1657.69 1820.86 1661.64 1825.34C1677.36 1843.31 1693.84 1860.75 1711.4 1877.07C1729.2 1893.14 1747.42 1908.78 1766.44 1923.47C1842.1 1982.81 1926.65 2030.87 2015.26 2069.67C2037.44 2079.39 2059.88 2088.49 2082.64 2097.3C2094.13 2101.77 2105.34 2105.9 2117.77 2111.01C2119.21 2111.57 2121.18 2112.49 2122.93 2113.27C2123.9 2113.74 2124.53 2113.98 2125.8 2114.63C2127.3 2115.45 2128.8 2116.31 2130.25 2117.22C2130.88 2117.62 2131.94 2118.27 2132.17 2118.47L2133.21 2119.27L2135.26 2120.87L2139.38 2124.07C2144.88 2128.29 2150.05 2133.03 2155.08 2137.77C2175.36 2157.13 2189.89 2178.82 2204.56 2196.5C2219.13 2214.37 2235 2229.39 2253.41 2242.54C2257.93 2245.89 2262.84 2248.86 2267.52 2252.05L2281.09 2259.39C2285.61 2261.78 2290.62 2263.05 2295.33 2265.02C2297.68 2266.09 2300.18 2266.66 2302.73 2267.17L2310.26 2268.91C2330.56 2272.97 2352.25 2272.27 2373.66 2267.91C2416.48 2259.05 2458.48 2236.7 2491.18 2206.78C2495.08 2202.91 2499.38 2199.3 2502.8 2195.17C2506.4 2191.19 2510.04 2187.23 2513.69 2182.46C2521.13 2173.37 2527.57 2164.29 2533.05 2155.3C2538.49 2146.31 2541.89 2137.57 2543.66 2129.27C2545.6 2121.01 2544.58 2113.02 2542.26 2104.41C2537.29 2087.19 2524.52 2068.78 2509.22 2051.95C2493.78 2035.03 2476.57 2018.94 2457.98 2003.38C2440.05 1987.38 2420.74 1972.62 2401.82 1957.53C2392.21 1950.11 2382.34 1942.94 2372.62 1935.63C2362.92 1928.3 2353.09 1921.1 2343.08 1914.07C2303.53 1885.47 2262.7 1858.03 2222.08 1830.27C2181.32 1802.53 2140.37 1774.94 2099.86 1746.29C2059.17 1717.99 2019.42 1688.02 1979.33 1658.35C1939.85 1627.81 1900.38 1596.71 1865.44 1560.38C1829.5 1525.37 1798.02 1484.85 1776.22 1438.54C1774.18 1434.22 1776.05 1429.06 1780.37 1427.03C1783.28 1425.66 1786.57 1426.05 1789.02 1427.78L1789.36 1428.01Z" fill="#371A45"/>
<path d="M1797.96 2000.45C1796.21 2000.45 1794.42 2000.23 1792.65 1999.81C1780.69 1996.89 1773.37 1984.82 1776.29 1972.87C1779.32 1960.43 1852.56 1669.87 2054.93 1669.87C2056.04 1669.87 2057.12 1669.89 2058.22 1669.9C2070.53 1670.09 2080.36 1680.22 2080.16 1692.53C2079.97 1704.83 2069.82 1714.95 2057.53 1714.46C2056.72 1714.45 2055.88 1714.45 2055.06 1714.45C1887.13 1714.45 1820.25 1980.73 1819.58 1983.43C1817.1 1993.62 1807.98 2000.45 1797.96 2000.45Z" fill="#371A45"/>
<path d="M2623.21 1539.86C2619.5 1539.86 2615.77 1538.94 2612.32 1537.01C2499.94 1473.89 2491.74 1170.14 2491.17 1135.71C2490.97 1123.41 2500.78 1113.26 2513.08 1113.06C2513.21 1113.06 2513.33 1113.06 2513.46 1113.06C2525.6 1113.06 2535.53 1122.79 2535.73 1134.97C2537.18 1221.42 2557.68 1455.21 2634.14 1498.14C2644.86 1504.17 2648.69 1517.75 2642.65 1528.49C2638.57 1535.77 2631 1539.86 2623.21 1539.86Z" fill="#371A45"/>
<path d="M2807.7 969.847C2807.93 971.234 2808.04 973.82 2808.18 975.967L2808.61 982.794C2809 987.394 2809.16 992.047 2809.62 996.687C2810.24 1006.03 2811.41 1015.37 2812.74 1024.77C2814.04 1034.22 2816.01 1043.58 2817.85 1053.38C2819.32 1063.45 2821.85 1073.26 2823.08 1085.25C2812.36 1080.31 2803.4 1072.78 2796.1 1064.03C2792.3 1059.7 2789.33 1054.9 2786.3 1050.03C2783.69 1045.05 2780.89 1040.02 2778.8 1034.74C2774.25 1024.29 2771.04 1013.29 2769 1002.07C2768.14 996.447 2767.29 990.781 2767.12 985.021C2767 982.141 2766.89 979.26 2767.04 976.327C2767.1 973.287 2767.32 970.687 2767.81 966.9C2769.25 956.02 2779.24 948.354 2790.12 949.794C2799.04 950.967 2805.78 957.874 2807.14 966.327L2807.7 969.847Z" fill="#371A45"/>
</svg>
