<svg width="2371" height="3612" viewBox="0 0 2371 3612" fill="none" xmlns="http://www.w3.org/2000/svg">
<path d="M950.853 1535.79C941.64 1692 889.787 1854.52 718.493 1877.15C377.373 1922.11 405.587 1491.36 405.587 1491.36C405.587 1491.36 323.493 1473 287.8 1409.51C273.307 1383.67 263.68 1359.08 257.387 1336.87C239.987 1275.63 247.76 1232.56 247.76 1232.56H927.147C927.147 1232.56 959.933 1381.05 950.853 1535.79Z" fill="white"/>
<path d="M269.855 1256.33C269.588 1283.87 274.468 1337.39 308.508 1397.87C338.442 1451.09 410.122 1468.03 410.842 1468.2C422.215 1470.8 430.068 1481.29 429.308 1492.93C429.175 1495 417.122 1703.52 524.002 1803.44C570.882 1847.28 635.255 1864.15 715.375 1853.57C778.255 1845.28 825.988 1816.75 861.282 1766.36C965.242 1617.99 921.548 1331.87 907.628 1256.33H269.855ZM670.255 1904.19C598.415 1904.19 538.415 1882.04 491.415 1838.03C387.535 1740.76 380.508 1566.85 381.255 1508.89C351.962 1498.79 296.588 1473.61 267.082 1421.17C209.015 1317.95 223.722 1231.95 224.375 1228.33C226.428 1217.04 236.268 1208.81 247.748 1208.81H927.162C938.308 1208.81 947.962 1216.56 950.362 1227.45C953.748 1242.8 1031.9 1605.65 900.202 1793.63C857.428 1854.68 797.335 1890.69 721.588 1900.69C703.855 1903.03 686.748 1904.19 670.255 1904.19Z" fill="#371A45"/>
<path d="M1886.48 1483.59C1887.56 1477.89 1960.37 1291.53 1949.44 1188.47C1939.91 1098.6 1797.84 883.92 1605.32 820.534C1412.11 756.934 1337 1204.31 1337 1204.31L1886.48 1483.59Z" fill="white"/>
<path d="M1903.29 1434.81C1893.91 1463.03 1886.84 1481.85 1886.48 1483.57L1337 1204.29C1337 1204.29 1350.89 1121.84 1381.96 1032.75C1423.29 914.307 1495.11 784.227 1605.35 820.52C1797.87 883.894 1939.88 1098.61 1949.44 1188.49C1956.99 1259.88 1924.37 1371.2 1903.29 1434.81Z" fill="white"/>
<path d="M1890.92 1395.21C1882.25 1385.43 1872.01 1372.8 1862.44 1361.01C1855.64 1352.64 1848.36 1343.68 1840.56 1334.27C1841.83 1333.83 1843.05 1333.35 1844.25 1332.8C1849.72 1330.39 1854.67 1326.97 1858.96 1322.43C1874.47 1346.07 1886.12 1368.07 1893.4 1387.05C1892.6 1389.73 1891.76 1392.47 1890.92 1395.21ZM1649.77 1155.87C1607.65 1127.79 1559.64 1102.4 1504.77 1082.76C1515.27 1073.67 1525.15 1063.4 1534.32 1052.12C1578.55 1070.77 1620.24 1094.51 1658.57 1121.09C1658.2 1122.27 1657.84 1123.43 1657.49 1124.61C1654.37 1135 1651.81 1145.59 1649.77 1155.87Z" fill="#B9AFBE"/>
<path d="M1363.55 1191.16L1872.96 1450.07C1923.59 1303.57 1929.79 1228.43 1925.81 1190.97C1917.76 1115.04 1785.52 904.88 1597.89 843.107C1571.33 834.36 1546.87 837.094 1523.09 851.44C1435.44 904.347 1381.2 1100.55 1363.55 1191.16ZM1909.81 1488.01L1909.75 1488.39C1909.77 1488.24 1909.8 1488.12 1909.81 1488.01ZM1903.92 1519.11L1310.68 1217.59L1313.58 1200.39C1315.7 1187.75 1367.02 890.174 1498.51 810.787C1534.36 789.12 1572.8 784.827 1612.75 797.974C1814.67 864.44 1962.91 1090.12 1973.07 1185.95C1979.8 1249.48 1959.35 1348.97 1912.24 1481.68C1911 1485.2 1910.08 1487.76 1909.59 1489.23L1903.92 1519.11Z" fill="#371A45"/>
<path d="M1643.79 1206.04C1645.08 1151.76 1671.89 1035.41 1730.79 1041.32C1789.69 1047.24 1908.65 1131.68 1874.24 1290.72C1847.56 1414.08 1642.49 1260.31 1643.79 1206.04Z" fill="white"/>
<path d="M1858.96 1322.43C1865.95 1315.01 1871.24 1304.63 1874.24 1290.72C1874.27 1290.64 1874.28 1290.55 1874.29 1290.47C1874.28 1290.55 1874.27 1290.63 1874.24 1290.71C1871.24 1304.63 1865.95 1315.03 1858.96 1322.43Z" fill="#B9AFBE"/>
<path d="M1844.25 1332.8C1849.72 1330.39 1854.67 1326.96 1858.96 1322.43C1854.67 1326.97 1849.72 1330.39 1844.25 1332.8ZM1649.79 1155.87H1649.77C1651.81 1145.59 1654.37 1135 1657.49 1124.61C1654.39 1135 1651.81 1145.59 1649.79 1155.87Z" fill="#8C7B94"/>
<path d="M1840.56 1334.27C1839.63 1333.13 1838.69 1332.01 1837.75 1330.87C1839.04 1302.03 1837.2 1274.75 1832.43 1250.88C1847.93 1259.37 1863.21 1266.56 1877.63 1271.88C1876.75 1277.92 1875.64 1284.13 1874.29 1290.47C1874.28 1290.55 1874.27 1290.64 1874.24 1290.72C1871.24 1304.63 1865.95 1315.01 1858.96 1322.43C1854.67 1326.96 1849.72 1330.39 1844.25 1332.8C1843.05 1333.33 1841.81 1333.83 1840.56 1334.27ZM1660.31 1163.03C1656.84 1160.63 1653.33 1158.24 1649.79 1155.87C1651.81 1145.59 1654.39 1135 1657.49 1124.61C1659.87 1116.69 1662.56 1108.88 1665.59 1101.41C1671.11 1114.85 1682.96 1131.12 1698.91 1148.29C1684.37 1151.36 1671.15 1156.88 1660.31 1163.03Z" fill="#B9AFBE"/>
<path d="M1667.55 1206.53C1668.52 1227.88 1753.01 1308.17 1815 1313.47C1836.17 1315.27 1846.31 1307.48 1851.01 1285.69C1867.33 1210.29 1844.68 1158.63 1822.81 1128.56C1791.67 1085.72 1749.29 1067.05 1728.41 1064.96C1724.84 1064.61 1719.17 1064.88 1711.69 1071.49C1684.79 1095.25 1668.51 1166.39 1667.55 1206.53ZM1820.43 1361.23C1816.08 1361.23 1811.6 1360.95 1806.99 1360.4C1730.59 1351.31 1618.77 1258.64 1620.04 1205.47C1621.13 1159.48 1638.45 1072.77 1680.24 1035.87C1695.87 1022.07 1714.16 1015.76 1733.16 1017.68C1769.56 1021.33 1823.27 1048.39 1861.25 1100.6C1888.83 1138.52 1917.49 1203.16 1897.47 1295.73C1888.35 1337.91 1860.59 1361.23 1820.43 1361.23Z" fill="#371A45"/>
<path d="M1764.95 1072.08C1761.76 1086.93 1759 1102.31 1756.68 1117.47C1754.37 1132.68 1752.49 1147.91 1751.36 1162.99C1750.23 1178.01 1749.76 1193.05 1750.91 1207C1751.48 1213.91 1752.49 1220.61 1754.12 1226.07C1755.56 1231.53 1758.45 1235.36 1758.76 1234.84C1768.04 1244.12 1768.03 1259.17 1758.75 1268.44C1749.47 1277.72 1734.43 1277.72 1725.15 1268.43C1720.03 1262.64 1716.41 1256.33 1714.55 1250.87C1712.33 1245.2 1711.29 1240.05 1710.49 1235.09C1709 1225.2 1708.97 1216.21 1709.32 1207.49C1710.16 1190.12 1712.84 1173.92 1716.08 1157.97C1719.33 1142.04 1723.29 1126.49 1727.67 1111.12C1732.07 1095.72 1736.79 1080.68 1742.13 1065.43C1744.31 1059.23 1751.11 1055.96 1757.31 1058.13C1763.01 1060.15 1766.24 1066.07 1765 1071.85L1764.95 1072.08Z" fill="#371A45"/>
<path d="M2343.79 1478.59C2339.33 1496.64 2330.48 1511.85 2318.96 1523.37C2267.11 1575.11 2179.55 1530.27 2161.73 1520.28C2159.65 1519.16 2158.52 1518.44 2158.52 1518.44C2158.52 1518.44 2154.96 1539.41 2145.69 1571.36C2134.17 1610.87 2113.97 1667.29 2081.07 1721.88C1944.51 1948.19 1693.32 1751.45 1693.32 1751.45L955.135 1674.77L791.668 1657.79C791.668 1657.79 653.215 1603.92 647.868 1263.56C644.482 1048.43 1104.99 1051.04 1321.43 1068.15C1744.52 1101.65 1873.29 1480.67 1913.63 1430.71C1944.81 1392.04 1952.47 1258.23 1993.99 1215.09C2031.59 1176.01 2138.87 1190.68 2242.99 1277.93C2334.57 1354.8 2356.32 1427.92 2343.79 1478.59Z" fill="white"/>
<path d="M2255.08 1524.17C2214.47 1524.17 2171.67 1498.67 2170.85 1498.19L2159.68 1491.35C2154.83 1439.16 2145.68 1392.63 2161.2 1391.27C2161.33 1391.25 2161.48 1391.25 2161.63 1391.25C2171.2 1391.25 2181.09 1418.05 2198.37 1444.87C2215.65 1471.67 2240.32 1498.48 2279.45 1498.48C2289.59 1498.48 2300.68 1496.68 2312.88 1492.61C2309.92 1497.75 2306.35 1502.43 2302.2 1506.56C2289.13 1519.59 2272.31 1524.17 2255.08 1524.17Z" fill="#B9AFBE"/>
<path d="M1922.15 1806.08C1856.12 1732.97 1781.31 1670.4 1700.17 1618.99C1717.6 1605.15 1733.65 1589.44 1748.19 1572.04C1798.4 1622.49 1851.43 1672.17 1915.71 1712.79C1935.56 1725.33 1954.56 1730.67 1972.51 1730.67C2020.72 1730.67 2061.41 1692.23 2090.91 1651.71C2082.37 1670.69 2072.37 1690.31 2060.72 1709.61C2028.49 1763 1986.73 1794.77 1936.63 1804.04C1931.81 1804.93 1926.99 1805.6 1922.15 1806.08ZM1515.87 1525.51C1495.85 1517.64 1475.59 1510.37 1455.16 1503.72C1468.53 1468.12 1477.8 1431.84 1484.17 1397.29C1484.17 1397.28 1484.19 1397.25 1484.19 1397.24C1486.76 1383.25 1488.87 1369.55 1490.57 1356.29C1530.63 1375.99 1566.32 1400.8 1599.81 1428.6C1576.27 1470.96 1542.71 1503.75 1515.87 1525.51Z" fill="#B9AFBE"/>
<path d="M798.295 1634.59L1702.6 1728.56L1707.97 1732.79C1709.13 1733.68 1826.92 1824.32 1936.63 1804.04C1986.73 1794.77 2028.49 1763 2060.72 1709.61C2117.13 1616.11 2134.89 1515.47 2135.08 1514.47L2141.01 1479.93L2170.85 1498.19C2172.01 1498.88 2258.32 1550.31 2302.2 1506.56C2316.77 1492.03 2324.23 1470.81 2323.2 1446.8C2321.16 1399.59 2287.24 1346.09 2227.71 1296.17C2132.12 1216.03 2037.12 1204.53 2011.12 1231.55C1992.92 1250.47 1980.77 1299.07 1970.07 1341.95C1959.08 1385.93 1949.6 1423.93 1932.11 1445.61C1925.16 1454.23 1915.57 1458.97 1905.13 1458.99H1905.08C1880.77 1458.99 1862.32 1436.24 1825.55 1390.97C1746.99 1294.21 1600.75 1114.11 1319.59 1091.85C1088.79 1073.6 806.988 1087.11 708.215 1179.83C683.068 1203.43 671.095 1230.69 671.615 1263.17C676.215 1555.01 781.241 1625.13 798.295 1634.59ZM1903.32 1854.52C1801.36 1854.52 1708.15 1791.77 1684.35 1774.44L786.028 1681.09L783.055 1679.93C776.788 1677.49 629.655 1616.23 624.108 1263.92C623.375 1217.95 640.735 1178 675.695 1145.17C810.428 1018.71 1173.49 1032.63 1323.33 1044.49C1624.81 1068.35 1779.39 1258.73 1862.44 1361.01C1876.11 1377.85 1891.16 1396.4 1901.01 1405.96C1909.51 1388.33 1917.11 1357.89 1923.97 1330.43C1936.71 1279.4 1949.88 1226.65 1976.88 1198.6C2029.05 1144.36 2152.65 1171.24 2258.24 1259.76C2347.8 1334.85 2368.81 1401.8 2370.67 1444.75C2372.28 1482.25 2359.88 1516.15 2335.76 1540.21C2286.19 1589.61 2214.79 1570.17 2175.17 1553.32C2165.32 1592.88 2143.41 1664.53 2101.39 1734.16C2061.8 1799.77 2009.19 1839.01 1945.03 1850.8C1931.07 1853.37 1917.12 1854.52 1903.32 1854.52Z" fill="#371A45"/>
<path d="M2173.01 1390.29C2174.84 1401.24 2176.32 1411.84 2177.63 1422.67C2178.92 1433.45 2179.99 1444.29 2180.84 1455.21C2182.51 1477.03 2183.21 1499.11 2182 1521.89V1521.97C2181.31 1535.13 2170.07 1545.24 2156.91 1544.55C2143.75 1543.84 2133.64 1532.61 2134.33 1519.45C2134.41 1517.99 2134.65 1516.43 2134.99 1515.04C2139.69 1495.75 2142.93 1475.35 2145.2 1454.71C2146.33 1444.37 2147.24 1433.97 2147.93 1423.52C2148.63 1413.13 2149.12 1402.51 2149.33 1392.28V1392C2149.48 1385.43 2154.92 1380.2 2161.51 1380.33C2167.33 1380.45 2172.09 1384.75 2173.01 1390.29Z" fill="#371A45"/>
<path d="M1893.11 1397.67C1900.9 1407.25 1907.78 1416.44 1914.78 1426.04C1921.68 1435.57 1928.39 1445.24 1934.84 1455.11C1947.68 1474.91 1959.76 1495.36 1969.18 1517.71C1971.74 1523.77 1968.9 1530.75 1962.84 1533.31C1957.42 1535.59 1951.27 1533.57 1948.2 1528.79L1948.03 1528.52C1936.29 1510.31 1921.9 1493.31 1906.75 1477.03C1899.14 1468.91 1891.28 1460.96 1883.28 1453.2C1875.34 1445.51 1866.99 1437.68 1858.99 1430.73C1849.03 1422.12 1847.95 1407.05 1856.56 1397.09C1865.19 1387.13 1880.26 1386.05 1890.22 1394.68C1891.24 1395.57 1892.27 1396.65 1893.11 1397.67Z" fill="#371A45"/>
<path d="M1791.44 1446.75C1761.58 1532.4 1700.27 1614.49 1594.72 1649.29L1483.29 1577.19C1483.29 1577.19 1581.71 1523.13 1628.58 1424.59C1634.4 1412.29 1639.51 1400.41 1643.84 1388.96C1689.64 1268.56 1659.52 1192.11 1659.52 1192.11C1659.52 1192.11 1726.94 1138.12 1783.79 1197.33C1817.52 1232.51 1827.86 1342.27 1791.44 1446.75Z" fill="white"/>
<path d="M1656.49 1592.72C1626.67 1575.73 1596.15 1560.23 1564.95 1546.17C1594.75 1519.15 1627.67 1481.83 1650.05 1434.81C1653.97 1426.57 1657.56 1418.49 1660.84 1410.57C1675.73 1427.03 1693.69 1440.72 1714.52 1445.92C1728.47 1449.41 1741.87 1450.89 1754.59 1450.89C1758 1450.89 1761.36 1450.79 1764.68 1450.59C1746.51 1497.68 1714.04 1553.36 1656.49 1592.72Z" fill="#B9AFBE"/>
<path d="M1594.73 1673.04C1584.76 1673.04 1575.47 1666.71 1572.18 1656.72C1568.07 1644.25 1574.84 1630.83 1587.31 1626.71C1716.79 1584.03 1763.03 1469.48 1779.07 1405C1802.04 1312.64 1786.59 1234.59 1766.61 1213.76C1737.57 1183.49 1704.88 1193.32 1687.11 1202.6C1695.08 1238.61 1703.51 1322.59 1650.05 1434.81C1600.41 1539.05 1499 1595.64 1494.71 1598C1483.22 1604.32 1468.78 1600.12 1462.44 1588.61C1456.14 1577.12 1460.32 1562.68 1471.81 1556.36C1473.33 1555.51 1564.4 1504.16 1607.15 1414.39C1668.29 1286.01 1637.65 1201.47 1637.35 1200.63L1631.25 1184.48L1644.67 1173.53C1673.85 1150.17 1744.08 1121.64 1800.89 1180.87C1839.04 1220.63 1849.26 1319.71 1825.18 1416.47C1793.86 1542.36 1712.59 1635.45 1602.19 1671.84C1599.71 1672.65 1597.2 1673.04 1594.73 1673.04Z" fill="#371A45"/>
<path d="M1627.52 3454.83C1117.81 3738.04 475.08 3554.47 191.867 3044.76C142.76 2956.4 107.693 2864.08 85.9466 2770.31C76.4533 2729.51 69.48 2688.41 65.0133 2647.32C20.1333 2237.6 218.973 1821.92 601.88 1609.15C781.72 1509.25 978.067 1467.41 1169.4 1477.51C1520.37 1496.01 1854.23 1689.28 2037.55 2019.16C2095.25 2122.99 2133.56 2232.33 2153.71 2343.07C2232.4 2775.83 2033.36 3229.32 1627.52 3454.83Z" fill="#FFA726"/>
<path d="M1121.72 3561.92C1026.68 3561.92 931.027 3548.64 837.12 3521.83C572.36 3446.2 352.88 3272 219.133 3031.31C168.027 2939.33 132.533 2842.81 111.773 2744.87C308.787 2963.39 578.48 3095.39 862.187 3124.15L857.36 3119.07C849.2 3086.29 850.04 3051.67 861.587 3018.48C887.013 2945.44 938.08 2889.48 1027.31 2889.48C1056.09 2889.48 1088.84 2895.29 1125.99 2908.24C1212.85 2938.49 1269.76 3013.45 1274.04 3092.31C1367.12 3067.99 1458.65 3031.67 1546.65 2982.76C1551.28 2980.17 1555.87 2977.59 1560.44 2974.95C1545.01 2913.76 1561.88 2840.44 1610.93 2781.73C1656.93 2726.72 1720.56 2697.28 1780.19 2697.28C1811.15 2697.28 1841.04 2705.21 1866.83 2721.64C1985.09 2583.55 2068.19 2420.8 2111.97 2247.85C2164.59 2431.11 2165.12 2625.83 2111.47 2813.71C2035.84 3078.47 1861.64 3297.95 1620.96 3431.68C1465.63 3518 1294.65 3561.93 1121.72 3561.92Z" fill="#B97631"/>
<path d="M89.5347 2534.11C88.9081 2170.97 280.255 1818.01 619.508 1629.49C672.548 1600.03 727.081 1575.75 782.521 1556.49C794.761 1556.4 806.961 1556 819.161 1555.33C840.908 1554.08 862.588 1551.95 884.028 1548.8C884.201 1553.84 884.441 1558.71 884.801 1563.47C891.868 1664.97 937.668 1704.17 979.241 1730.55C983.295 1733.12 988.615 1735.84 995.028 1738.61C981.521 1744.57 967.028 1749.59 951.735 1753.43C929.761 1758.95 908.081 1761.56 887.561 1761.56C858.175 1761.57 831.148 1756.2 808.988 1746.32C808.975 1745.67 808.948 1745.03 808.895 1744.37C809.441 1742.88 809.615 1741.23 809.321 1739.55C808.668 1735.79 807.335 1732.19 805.748 1728.72C804.001 1725.36 801.935 1722.17 799.601 1719.25C794.895 1713.47 789.175 1708.85 783.228 1704.93C774.295 1699.36 764.641 1695.65 754.815 1693.32C753.975 1690.97 753.228 1688.56 752.615 1686.11C751.908 1683.25 751.335 1680.37 750.975 1677.48C740.988 1681.55 731.028 1685.77 721.121 1690.16C702.215 1690.85 683.748 1695.45 666.775 1702.65C642.775 1712.87 621.295 1728.52 604.628 1748.53C603.641 1749.75 602.668 1750.97 601.708 1752.21C310.881 1926.93 131.068 2219.41 89.5347 2534.11ZM2030.85 2047.4C1877.99 1833.53 1657.12 1689.89 1414.97 1629.85C1418.63 1624.12 1422.11 1618.31 1425.44 1612.47C1436.11 1593.84 1445.23 1574.69 1453 1555.41C1686.48 1634.96 1892.37 1797.81 2021.32 2029.88C2024.56 2035.69 2027.73 2041.55 2030.85 2047.4Z" fill="#FFCA7D"/>
<path d="M1118.49 1499.89C949.202 1499.89 777.695 1541.6 619.508 1629.49C122.655 1905.6 -56.9583 2534.44 219.135 3031.31C352.882 3272 572.362 3446.2 837.122 3521.83C1101.88 3597.43 1380.25 3565.43 1620.96 3431.68C1861.64 3297.95 2035.84 3078.47 2111.47 2813.71C2187.08 2548.93 2155.08 2270.56 2021.32 2029.88C1833.14 1691.19 1480.97 1499.89 1118.49 1499.89ZM1121.81 3611.69C1022.15 3611.69 921.935 3597.77 823.468 3569.64C545.922 3490.37 315.868 3307.77 175.668 3055.47C-113.745 2534.63 74.5217 1875.44 595.362 1586.01C1116.18 1296.61 1775.37 1484.87 2064.8 2005.71C2205 2258.01 2238.56 2549.81 2159.29 2827.36C2080.03 3104.91 1897.42 3334.96 1645.11 3475.16C1482.32 3565.61 1303.04 3611.68 1121.81 3611.69Z" fill="#371A45"/>
<path d="M1270.76 3024.96C1275.93 3035.41 1280.43 3046.36 1283.65 3057.77C1286.8 3069.2 1288.95 3081 1289.85 3092.99C1290.8 3104.97 1290.33 3117.09 1288.84 3129.12C1287.25 3140.88 1285.15 3152.36 1282.03 3163.87C1275.85 3186.79 1266.29 3209.48 1252.15 3230.01C1237.93 3250.43 1218.83 3268.17 1196.81 3280.83C1174.8 3293.52 1150.28 3300.89 1126.04 3304.19C1101.71 3307.71 1077.55 3307.28 1053.96 3305.07C1042.13 3303.67 1030.72 3302 1018.92 3299.63C1006.92 3297.31 995.121 3293.93 983.561 3289.89C971.988 3285.89 960.695 3280.97 949.828 3275.24C938.935 3269.55 928.388 3263.12 918.561 3255.65C898.828 3240.89 881.095 3223.25 866.748 3202.96C852.321 3182.79 841.015 3160.05 834.695 3135.75C821.321 3087.35 827.641 3033.61 852.508 2990.55C876.761 2946.95 917.748 2915.47 962.335 2899.28C1007.16 2883.16 1056.05 2881.53 1100.29 2893.71C1104.25 2894.8 1106.59 2898.89 1105.49 2902.85C1104.51 2906.41 1101.08 2908.65 1097.52 2908.27C1054.65 2903.69 1011.47 2910.15 974.188 2927.96C936.881 2945.41 905.908 2974.51 888.721 3009.73C871.655 3044.95 868.188 3086.04 879.881 3122.84C891.175 3159.8 915.788 3192.8 947.841 3215.76C963.921 3227.12 981.348 3236.87 1000.12 3243.45C1009.47 3246.81 1019.03 3249.65 1028.8 3251.63C1038.73 3253.72 1049.28 3255.36 1059.47 3256.65C1079.95 3259.15 1100.47 3260.19 1120.19 3257.92C1139.95 3255.88 1158.76 3250.61 1175.85 3242.25C1209.93 3225.28 1234.93 3192.43 1248.64 3153.47C1252.08 3143.79 1255.19 3133.65 1257.57 3123.59C1259.95 3113.77 1261.32 3103.68 1261.8 3093.48C1262.89 3073.08 1260 3052.2 1253.75 3031.97L1253.69 3031.77C1252.19 3026.92 1254.91 3021.75 1259.77 3020.25C1264.16 3018.89 1268.79 3020.97 1270.76 3024.96Z" fill="#371A45"/>
<path d="M1297.37 2490.43C1268.55 2490.43 1240.27 2482.72 1215.53 2468.35C1216.67 2468.72 1217.79 2469.08 1218.93 2469.43C1218.95 2469.43 1218.96 2469.43 1218.97 2469.44C1219.01 2469.45 1219.05 2469.45 1219.08 2469.47C1232.64 2473.57 1246.88 2475.73 1261.41 2475.73C1273.28 2475.73 1285.33 2474.29 1297.35 2471.28C1336.89 2461.33 1368.64 2436.27 1387.95 2403.79C1407.15 2371.52 1414.09 2331.95 1404.21 2292.67C1390.45 2237.87 1347.63 2198.04 1296.32 2185.51C1285.08 2182.76 1273.43 2181.32 1261.59 2181.32C1249.72 2181.32 1237.67 2182.76 1225.63 2185.79C1223.8 2186.25 1222 2186.75 1220.21 2187.27C1217.49 2188.05 1214.8 2188.93 1212.16 2189.87C1216.49 2187.2 1220.93 2184.76 1225.56 2182.47C1248.63 2171.12 1273.09 2165.73 1297.17 2165.73C1357.07 2165.73 1414.64 2199 1442.88 2256.36C1482.49 2336.84 1449.39 2434.11 1368.95 2473.69C1345.89 2485.05 1321.44 2490.43 1297.37 2490.43Z" fill="#FFCA7D"/>
<path d="M544.215 2763.15C462.521 2763.15 385.548 2717.69 347.068 2643.2C341.628 2631.21 337.175 2618.56 333.855 2605.33C303.975 2486.41 376.161 2365.79 495.081 2335.91C513.228 2331.35 531.441 2329.16 549.348 2329.16C631.681 2329.16 707.881 2375.28 746.001 2448.4C748.975 2454.88 751.655 2461.56 754.028 2468.43C794.148 2584.31 732.748 2710.75 616.868 2750.87C592.815 2759.19 568.321 2763.15 544.215 2763.15Z" fill="#B97631"/>
<path d="M601.068 2823.45C488.575 2823.47 383.441 2753.01 344.575 2640.77C343.601 2637.95 342.695 2635.16 341.828 2632.35C343.481 2636.04 345.228 2639.65 347.068 2643.2C383.081 2722.6 462.668 2773.31 549.015 2773.31C566.921 2773.31 585.121 2771.12 603.281 2766.56C722.201 2736.68 794.388 2616.05 764.508 2497.13C760.161 2479.84 753.895 2463.55 746.001 2448.4C709.335 2368.29 629.361 2318.97 544.241 2318.97C520.148 2318.97 495.641 2322.93 471.588 2331.25C440.001 2342.2 412.481 2359.57 389.908 2381.39C420.761 2343.07 462.375 2312.71 512.295 2295.43C541.695 2285.24 571.641 2280.41 601.095 2280.41C713.561 2280.41 818.721 2350.87 857.601 2463.15C906.641 2604.79 831.562 2759.4 689.908 2808.44C660.508 2818.61 630.535 2823.45 601.068 2823.45Z" fill="#FFCA7D"/>
<path d="M549.015 2773.31C462.668 2773.31 383.082 2722.6 347.068 2643.2C385.548 2717.69 462.522 2763.15 544.215 2763.15C568.322 2763.15 592.815 2759.19 616.868 2750.87C732.748 2710.75 794.148 2584.31 754.028 2468.43C751.655 2461.56 748.975 2454.88 746.002 2448.4C753.895 2463.55 760.162 2479.84 764.508 2497.13C794.388 2616.05 722.202 2736.68 603.282 2766.56C585.122 2771.12 566.922 2773.31 549.015 2773.31Z" fill="#D5AD83"/>
<path d="M380.307 2378.81C415.267 2339.09 465.547 2312.05 519.32 2303.8C573.227 2294.92 630.334 2305.69 678.707 2332.77C702.854 2346.44 724.6 2364.35 743.054 2385.24L749.854 2393.19L753.24 2397.19L756.267 2401.45C760.254 2407.19 764.36 2412.85 768.187 2418.69L778.454 2437C781.827 2443.12 784.294 2449.71 787.12 2456.11C797.32 2482.12 804.027 2509.6 805.534 2537.65C806.867 2565.65 804.027 2593.93 796.227 2620.88C788.707 2647.91 776.28 2673.47 760.227 2696.33C744.227 2719.25 724.574 2739.63 702 2756.09C679.347 2772.48 653.92 2784.72 627.467 2792.95C620.773 2794.73 614.24 2797.13 607.413 2798.35L586.96 2801.92C573.174 2803.15 559.387 2804.47 545.573 2803.56C518.067 2802.41 490.667 2797.25 465.227 2787.09C439.867 2776.85 416.24 2762.76 395.68 2745.21C354.067 2710.45 326.64 2660.95 316.88 2609.6C316.107 2605.57 318.76 2601.68 322.787 2600.92C326.454 2600.23 330.014 2602.36 331.187 2605.79L331.254 2605.99C347.254 2652.43 375.814 2693.72 414.894 2720.91C434.134 2734.67 455.254 2745.52 477.52 2752.67C499.854 2759.56 523.067 2762.95 546.133 2762.63C557.707 2762.84 569.147 2761.03 580.52 2759.49L597.347 2755.67C602.973 2754.52 608.307 2752.25 613.8 2750.64C635.414 2743.09 655.894 2732.43 673.92 2718.48C709.414 2690.23 737.147 2651.44 748.627 2607.43C754.413 2585.56 757.253 2562.95 756.28 2540.31C755.267 2517.67 749.894 2495.29 741.84 2474.15C726.294 2431.32 694.76 2395.41 656.36 2370.47C636.894 2358.21 615.28 2349.41 592.84 2343.85C570.427 2338.27 546.867 2335.79 523.507 2338.16C476.48 2341.16 430.467 2360.53 393.187 2391.95C389.307 2395.24 383.48 2394.76 380.187 2390.87C377.2 2387.33 377.347 2382.19 380.307 2378.81Z" fill="#371A45"/>
<path d="M1814.57 2694.01C1825.64 2695.2 1836.76 2697.25 1847.61 2700.59C1858.44 2704 1869.01 2708.53 1879.07 2714.2C1899.21 2725.51 1916.8 2741.65 1930.48 2760.79C1944.03 2780.03 1953.48 2802.15 1958.61 2825.12C1963.72 2848.13 1964.27 2871.95 1961.11 2895.04C1958.13 2918.2 1951.45 2940.73 1941.96 2961.91C1932.15 2982.95 1919.76 3002.67 1905.25 3020.72C1890.11 3038.21 1873.24 3054.13 1854.48 3067.84C1835.44 3081.11 1814.93 3092.49 1792.91 3100.48C1770.85 3108.37 1747.55 3113.01 1723.88 3114.17C1700.27 3115.23 1676 3112.85 1653.12 3104.88C1630.24 3097.2 1608.72 3084.87 1590.73 3068.68C1572.67 3052.61 1558.23 3032.48 1548.81 3010.51C1529.81 2966.35 1530.31 2917.16 1543.72 2874.16C1550.73 2852.64 1560.44 2832.29 1572.68 2813.77C1585.23 2795.43 1600.16 2779.11 1616.48 2764.73C1619.56 2762.01 1624.25 2762.32 1626.96 2765.39C1629.4 2768.16 1629.4 2772.24 1627.13 2775L1626.96 2775.21C1613.91 2791.16 1602.57 2808.08 1593.28 2825.91C1584.56 2844.01 1577.65 2862.76 1573.71 2882C1565.53 2920.36 1569.56 2960.33 1585.89 2993.19C1602.75 3025.8 1632.53 3050.04 1667.17 3060.08C1701.96 3070.2 1740.73 3067.08 1775.88 3054.04C1793.36 3047.12 1810.23 3038.43 1825.88 3027.65C1841.32 3016.56 1855.37 3003.52 1868.04 2989.25C1880.32 2974.68 1891.15 2958.92 1899.8 2941.97C1908.13 2924.89 1914.07 2906.79 1917.81 2888.31C1918.48 2883.67 1919.61 2879.01 1919.99 2874.35L1921.05 2860.28L1920.76 2846.23C1920.72 2841.52 1919.67 2836.97 1919.32 2832.29C1916.8 2813.81 1910.89 2795.84 1901.48 2779.68C1883.36 2746.61 1850 2722.61 1811.35 2712.12L1811.17 2712.08C1806.25 2710.75 1803.36 2705.68 1804.69 2700.76C1805.89 2696.32 1810.15 2693.53 1814.57 2694.01Z" fill="#371A45"/>
<path d="M1261.39 2475.72C1246.87 2475.72 1232.63 2473.56 1219.08 2469.47C1219.05 2469.45 1219.01 2469.45 1218.97 2469.44C1218.96 2469.43 1218.95 2469.43 1218.93 2469.43C1217.79 2469.08 1216.65 2468.72 1215.52 2468.35H1215.53C1169.23 2453.08 1131.52 2415.16 1118.76 2364.39C1100.11 2290.15 1141.45 2214.92 1212.16 2189.87C1212.13 2189.88 1212.12 2189.89 1212.09 2189.91C1214.77 2188.96 1217.47 2188.07 1220.21 2187.27C1222 2186.75 1223.8 2186.25 1225.63 2185.8C1237.67 2182.77 1249.73 2181.32 1261.6 2181.32C1273.44 2181.32 1285.08 2182.76 1296.32 2185.51C1347.61 2198.07 1390.44 2237.89 1404.2 2292.65C1414.07 2331.95 1407.15 2371.52 1387.95 2403.79C1368.63 2436.25 1336.89 2461.32 1297.35 2471.25C1285.32 2474.28 1273.25 2475.72 1261.39 2475.72Z" fill="#B97631"/>
<path d="M1219.08 2469.47C1219.05 2469.45 1219.01 2469.45 1218.97 2469.44C1219.01 2469.45 1219.05 2469.45 1219.08 2469.47ZM1218.93 2469.43C1217.79 2469.08 1216.67 2468.72 1215.53 2468.35H1215.52C1216.65 2468.72 1217.79 2469.08 1218.93 2469.43ZM1387.95 2403.79C1407.15 2371.52 1414.07 2331.95 1404.2 2292.65C1390.44 2237.89 1347.61 2198.07 1296.32 2185.51C1347.63 2198.04 1390.45 2237.87 1404.21 2292.67C1414.09 2331.95 1407.15 2371.52 1387.95 2403.79ZM1212.09 2189.91C1212.12 2189.89 1212.13 2189.88 1212.16 2189.87C1214.8 2188.93 1217.49 2188.05 1220.21 2187.27C1217.47 2188.07 1214.77 2188.96 1212.09 2189.91Z" fill="#B98D69"/>
<path d="M1136.23 2420.03C1114.72 2394.23 1103.09 2359.44 1103.8 2324.43C1103.96 2306.84 1107.63 2289.23 1113.77 2272.51C1120.12 2255.84 1129.28 2240.15 1140.8 2226.27C1164 2198.75 1196.95 2178.61 1233.03 2171.8C1250.97 2168.49 1269.45 2167.47 1287.68 2170.12C1305.84 2172.84 1323.63 2178.32 1339.93 2186.73C1372.8 2203.27 1399.07 2231.55 1414.39 2264.57C1421.97 2281.19 1426.44 2299.08 1428.11 2317.03C1430.04 2334.99 1428.27 2353.19 1423.88 2370.53C1419.44 2387.84 1412.55 2404.52 1402.63 2419.17C1392.68 2433.77 1380.61 2446.75 1366.77 2457.2C1339.21 2478.41 1304.45 2488.6 1271.48 2487C1267.37 2486.8 1264.21 2483.31 1264.41 2479.2C1264.57 2475.68 1267.16 2472.85 1270.47 2472.24L1270.73 2472.19C1300.08 2466.71 1327.01 2453.85 1346.64 2433.64C1356.52 2423.75 1364.93 2412.6 1371.23 2400.44C1377.36 2388.2 1381.71 2375.27 1383.84 2362.03C1385.13 2355.45 1385.23 2348.72 1385.52 2342.09L1385.03 2332.12C1384.96 2328.8 1384.19 2325.53 1383.84 2322.24C1381.71 2309.2 1377.81 2296.55 1371.91 2284.88C1359.73 2261.85 1340.77 2242.28 1317.44 2230.91C1305.83 2225.24 1293.47 2221.19 1280.68 2219.23C1267.89 2217.33 1254.73 2217.65 1241.95 2219.75C1216.16 2223.59 1192.35 2236.96 1173.44 2255.51C1164.11 2264.99 1156.48 2276.15 1150.49 2288.19C1144.44 2300.2 1139.97 2313.29 1138.31 2326.99C1133.76 2354.37 1138.71 2383.47 1151.61 2409.93L1151.67 2410.04C1153.91 2414.64 1152 2420.17 1147.4 2422.43C1143.49 2424.32 1138.89 2423.23 1136.23 2420.03Z" fill="#371A45"/>
<path d="M1873.68 2255.96C1869.35 2255.96 1864.91 2255.48 1860.4 2254.53C1868.07 2253.65 1875.35 2251.2 1882 2247.21C1885.25 2247.69 1888.48 2247.93 1891.68 2247.93C1896.11 2247.93 1900.48 2247.47 1904.75 2246.51C1895.55 2252.76 1884.97 2255.96 1873.68 2255.96ZM1790.35 2038.85C1792.2 2037.16 1794.13 2035.63 1796.12 2034.23C1795.35 2035.29 1794.61 2036.37 1793.89 2037.49C1792.69 2037.91 1791.51 2038.36 1790.35 2038.85Z" fill="#FFC268"/>
<path d="M1873.79 2261.49C1862.96 2261.49 1851.55 2258.8 1840.05 2253.31L1819.33 2243.41L1822.39 2244.05C1832.79 2249.36 1843.45 2252.17 1853.75 2252.17C1862.09 2252.17 1870.2 2250.32 1877.71 2246.45C1879.15 2246.75 1880.57 2247 1882 2247.21C1875.35 2251.2 1868.07 2253.65 1860.4 2254.53C1864.91 2255.48 1869.35 2255.96 1873.68 2255.96C1884.97 2255.96 1895.55 2252.76 1904.75 2246.51C1909.75 2245.39 1914.61 2243.6 1919.25 2241.09C1906.97 2254.57 1891.12 2261.49 1873.79 2261.49ZM1763.69 2065.97L1774.55 2049.15C1776.16 2046.65 1777.88 2044.29 1779.81 2041.96C1787.48 2032.69 1796.64 2026.16 1806.95 2022.48C1802.92 2025.89 1799.29 2029.84 1796.12 2034.23C1794.13 2035.63 1792.2 2037.16 1790.35 2038.85C1791.51 2038.36 1792.69 2037.91 1793.89 2037.49C1793.69 2037.81 1793.48 2038.13 1793.28 2038.45C1796.91 2037.69 1800.61 2037.32 1804.37 2037.32C1805.57 2037.32 1806.79 2037.36 1808 2037.44C1799.08 2038.07 1790.51 2040.88 1782.71 2046.09C1775.64 2050.83 1769.76 2057.17 1765.08 2064.73L1763.69 2065.97Z" fill="#C37C2F"/>
<path d="M1853.73 2249.43C1849.84 2249.43 1845.85 2249 1841.8 2248.15L1822.39 2244.05C1802.17 2233.76 1782.92 2214.05 1769.31 2187.24C1747.2 2143.75 1746.57 2094.69 1765.08 2064.73L1778.67 2052.69C1780.52 2051.05 1782.33 2049.64 1784.23 2048.37C1792.49 2042.84 1801.88 2040.04 1811.89 2040.04C1816.77 2040.04 1821.8 2040.69 1826.92 2042.04C1828.44 2042.44 1829.95 2042.89 1831.45 2043.4C1853.21 2052.99 1874.23 2073.53 1888.8 2102.24C1916.45 2156.71 1910.49 2219.88 1875.41 2243.36C1874.41 2244.01 1873.47 2244.61 1872.48 2245.16C1872.81 2245.25 1873.13 2245.35 1873.47 2245.43C1867.31 2248.08 1860.67 2249.43 1853.73 2249.43Z" fill="#B97631"/>
<path d="M1853.75 2252.17C1843.45 2252.17 1832.79 2249.36 1822.39 2244.05L1841.8 2248.15C1845.85 2249 1849.84 2249.43 1853.73 2249.43C1860.67 2249.43 1867.31 2248.08 1873.47 2245.43C1874.88 2245.81 1876.29 2246.15 1877.71 2246.45C1870.2 2250.32 1862.09 2252.17 1853.75 2252.17ZM1765.08 2064.73C1769.76 2057.17 1775.64 2050.83 1782.71 2046.09C1790.51 2040.88 1799.08 2038.07 1808 2037.44C1815.73 2037.92 1823.65 2039.96 1831.45 2043.4C1829.95 2042.89 1828.44 2042.44 1826.92 2042.04C1821.8 2040.69 1816.77 2040.04 1811.89 2040.04C1801.88 2040.04 1792.49 2042.84 1784.23 2048.37C1782.33 2049.64 1780.52 2051.05 1778.67 2052.69L1765.08 2064.73Z" fill="#925A37"/>
<path d="M1919.25 2241.09C1920.01 2240.27 1920.76 2239.4 1921.51 2238.52C1953.63 2199.76 1948.37 2124.15 1909.8 2069.96C1887.51 2038.65 1858.43 2020.11 1830.01 2019.05C1829.21 2019.03 1828.41 2019.01 1827.61 2019.01C1820.32 2019.01 1813.41 2020.19 1806.95 2022.48C1808.72 2020.99 1810.56 2019.6 1812.48 2018.31C1822.43 2011.67 1833.49 2008.52 1845 2008.52C1878.72 2008.52 1916.09 2035.59 1939.09 2080.89C1969.93 2141.59 1963.21 2211.97 1924.16 2238.15C1922.56 2239.23 1920.92 2240.2 1919.25 2241.09Z" fill="#FFCA7D"/>
<path d="M1891.68 2247.93C1888.48 2247.93 1885.25 2247.69 1882 2247.21C1882.84 2246.72 1883.65 2246.2 1884.45 2245.67C1920.6 2221.48 1927.01 2156.57 1898.77 2100.97C1881.96 2067.88 1855.61 2043.87 1828.31 2036.73C1822.71 2035.27 1817.21 2034.55 1811.87 2034.55C1805.63 2034.55 1799.61 2035.53 1793.89 2037.49C1794.61 2036.37 1795.35 2035.29 1796.12 2034.23C1805.29 2027.81 1815.87 2024.51 1827.57 2024.51C1828.32 2024.51 1829.07 2024.52 1829.81 2024.55C1856.52 2025.52 1884.04 2043.24 1905.33 2073.15C1942.56 2125.44 1947.92 2198.05 1917.28 2235.01C1913.49 2239.59 1909.29 2243.43 1904.75 2246.51C1900.48 2247.47 1896.11 2247.93 1891.68 2247.93Z" fill="#FFDAA4"/>
<path d="M1882 2247.21C1880.57 2247 1879.15 2246.75 1877.71 2246.45C1879.48 2245.53 1881.23 2244.51 1882.93 2243.37C1918.01 2219.89 1924.01 2156.69 1896.33 2102.23C1875.71 2061.6 1842.17 2037.29 1811.89 2037.29C1810.6 2037.29 1809.29 2037.35 1808 2037.44C1806.79 2037.36 1805.57 2037.32 1804.37 2037.32C1800.61 2037.32 1796.91 2037.69 1793.28 2038.45C1793.48 2038.13 1793.69 2037.81 1793.89 2037.49C1799.61 2035.53 1805.63 2034.55 1811.87 2034.55C1817.21 2034.55 1822.71 2035.27 1828.31 2036.73C1855.61 2043.87 1881.96 2067.88 1898.77 2100.97C1927.01 2156.57 1920.6 2221.48 1884.45 2245.67C1883.65 2246.2 1882.84 2246.72 1882 2247.21ZM1904.75 2246.51C1909.29 2243.43 1913.49 2239.59 1917.28 2235.01C1947.92 2198.05 1942.56 2125.44 1905.33 2073.15C1884.04 2043.24 1856.52 2025.52 1829.81 2024.55C1829.07 2024.52 1828.32 2024.51 1827.57 2024.51C1815.87 2024.51 1805.29 2027.81 1796.12 2034.23C1799.29 2029.84 1802.92 2025.89 1806.95 2022.48C1813.41 2020.19 1820.32 2019.01 1827.61 2019.01C1828.41 2019.01 1829.21 2019.03 1830.01 2019.05C1858.43 2020.11 1887.51 2038.65 1909.8 2069.96C1948.37 2124.15 1953.63 2199.76 1921.51 2238.52C1920.76 2239.4 1920.01 2240.27 1919.25 2241.09C1914.61 2243.6 1909.75 2245.39 1904.75 2246.51Z" fill="#DBB082"/>
<path d="M1873.47 2245.43C1873.14 2245.35 1872.81 2245.25 1872.48 2245.16C1873.47 2244.61 1874.41 2244.01 1875.41 2243.36C1910.49 2219.88 1916.46 2156.71 1888.8 2102.24C1874.23 2073.53 1853.22 2052.99 1831.46 2043.4C1855.64 2051.51 1878.71 2073.6 1893.88 2103.45C1920.91 2156.67 1915.31 2218.41 1881.41 2241.11C1878.87 2242.81 1876.22 2244.25 1873.47 2245.43Z" fill="#D5AD83"/>
<path d="M1877.71 2246.45C1876.29 2246.15 1874.88 2245.81 1873.47 2245.43C1876.21 2244.25 1878.87 2242.81 1881.41 2241.11C1915.31 2218.41 1920.91 2156.67 1893.88 2103.45C1878.71 2073.6 1855.64 2051.51 1831.45 2043.4C1823.65 2039.96 1815.73 2037.92 1808 2037.44C1809.29 2037.35 1810.6 2037.29 1811.89 2037.29C1842.17 2037.29 1875.71 2061.6 1896.33 2102.23C1924.01 2156.69 1918.01 2219.89 1882.93 2243.37C1881.23 2244.51 1879.48 2245.53 1877.71 2246.45Z" fill="#BE9C87"/>
<path d="M1786.33 2226.76C1769.35 2212.64 1756.55 2193.68 1747.76 2172.99C1738.99 2152.23 1734.32 2129.03 1736.28 2104.81C1737.23 2092.72 1739.88 2080.33 1745.4 2068.24C1750.84 2056.23 1759.32 2044.39 1771.29 2035.43C1783.27 2026.53 1798.39 2021.24 1813.2 2020.88C1828.04 2020.43 1841.99 2024.08 1853.83 2029.83C1877.65 2041.41 1894.92 2059.53 1907.52 2079.37C1920.27 2099.28 1928 2121.39 1931.67 2144.11C1934.97 2166.91 1933.56 2190.76 1925.08 2212.97C1920.67 2223.93 1914.52 2234.63 1905.61 2243.11C1896.92 2251.64 1885.57 2257.83 1873.87 2259.52C1869.76 2260.11 1865.96 2257.27 1865.36 2253.16C1864.91 2250.01 1866.48 2247.04 1869.09 2245.56L1869.43 2245.37C1884.92 2236.65 1892.79 2221.08 1895.36 2204.17C1896.69 2195.73 1897.01 2187.03 1896.25 2178.33C1895.41 2169.63 1893.71 2160.96 1891.33 2152.51C1886.41 2135.59 1878.6 2119.45 1868.52 2105.73C1858.52 2092.05 1845.81 2080.67 1832.87 2074.75C1819.72 2068.79 1808.59 2069.15 1799.75 2075.04C1790.63 2080.73 1782.88 2094.41 1779.87 2110.53C1776.59 2126.61 1777.16 2144.67 1780.75 2162.48C1783.97 2180.53 1790.91 2198 1800.28 2214.76L1800.44 2215.04C1802.95 2219.53 1801.35 2225.21 1796.85 2227.72C1793.39 2229.65 1789.21 2229.13 1786.33 2226.76Z" fill="#371A45"/>
<path d="M1208.57 1929.97C1204.49 1929.97 1200.44 1929.77 1196.4 1929.39C1196.64 1929.39 1196.88 1929.39 1197.12 1929.39C1220.4 1929.39 1244.53 1921.81 1264.25 1907.16C1275.36 1899.05 1285.07 1888.87 1293.12 1877.36C1301.17 1865.8 1306.88 1852.59 1310.6 1838.8C1314.17 1824.96 1315.64 1810.43 1314.21 1796.05C1312.97 1781.68 1309.48 1767.32 1303.45 1753.97C1301.63 1750 1299.61 1746.12 1297.41 1742.33C1302.28 1740.07 1307.07 1737.63 1311.75 1735.01C1314.95 1739.73 1317.87 1744.75 1320.45 1750C1350.91 1811.88 1325.45 1886.67 1263.61 1917.12C1245.88 1925.84 1227.08 1929.97 1208.57 1929.97ZM1185.09 1927.75C1171.23 1925.09 1157.87 1920.11 1145.64 1913C1146.47 1913.28 1147.31 1913.53 1148.13 1913.79C1158.63 1916.99 1169.67 1918.68 1180.93 1918.68C1181.44 1918.68 1181.96 1918.68 1182.47 1918.68C1182.16 1919.4 1181.96 1920.19 1181.89 1921.01C1181.68 1923.76 1182.97 1926.28 1185.09 1927.75Z" fill="#FFCA7D"/>
<path d="M1180.89 1918.67C1169.65 1918.67 1158.63 1916.99 1148.13 1913.79C1147.29 1913.53 1146.47 1913.27 1145.64 1913C1125.93 1906.51 1108.25 1894.67 1094.72 1878.76C1098.61 1876.37 1100.24 1871.43 1098.36 1867.12L1098.28 1866.92C1089.35 1846.49 1086.32 1824.77 1090.27 1804.61C1091.71 1794.53 1095.24 1784.97 1099.89 1776.29C1101.81 1772.63 1103.95 1769.11 1106.29 1765.73C1123.99 1767.79 1142.56 1768.99 1161.44 1768.99C1182.4 1768.99 1203.75 1767.51 1224.73 1764.05C1233.4 1762.63 1242.01 1760.88 1250.51 1758.76C1254.48 1763.57 1257.99 1768.79 1260.97 1774.28C1269.39 1791.03 1273.4 1810.89 1270.31 1830.25C1265.59 1869.43 1232.68 1905.27 1188 1914.25L1187.87 1914.27C1185.45 1914.76 1183.44 1916.41 1182.48 1918.67C1181.95 1918.67 1181.43 1918.67 1180.89 1918.67Z" fill="#B97631"/>
<path d="M1148.13 1913.79C1147.31 1913.53 1146.47 1913.28 1145.64 1913C1146.47 1913.27 1147.29 1913.53 1148.13 1913.79Z" fill="#B98D69"/>
<path d="M1082.89 1877.01C1065.36 1857.25 1055.64 1829.85 1055.75 1802.04C1055.79 1774.11 1065.97 1745.71 1084.36 1723.44C1102.81 1701.35 1129.12 1685.01 1158.07 1679.45C1172.47 1676.76 1187.29 1675.89 1201.93 1678.03C1216.51 1680.2 1230.81 1684.57 1243.89 1691.37C1270.27 1704.68 1291.31 1727.43 1303.45 1753.97C1309.48 1767.32 1312.97 1781.68 1314.21 1796.05C1315.64 1810.43 1314.17 1824.96 1310.6 1838.8C1306.88 1852.59 1301.17 1865.8 1293.12 1877.36C1285.07 1888.87 1275.36 1899.05 1264.25 1907.16C1242.15 1923.59 1214.52 1931.11 1188.76 1929.05C1184.64 1928.72 1181.57 1925.12 1181.89 1921.01C1182.17 1917.61 1184.68 1914.92 1187.87 1914.27L1188 1914.25C1232.68 1905.27 1265.59 1869.43 1270.31 1830.25C1273.4 1810.89 1269.39 1791.03 1260.97 1774.28C1251.97 1757.73 1238.24 1743.69 1221.41 1735.53C1213.01 1731.51 1204.15 1728.55 1194.93 1727.13C1185.73 1725.76 1176.23 1725.93 1166.99 1727.4C1148.37 1730.03 1131.04 1739.45 1117.11 1752.77C1110.29 1759.63 1104.47 1767.56 1099.89 1776.29C1095.24 1784.97 1091.71 1794.53 1090.27 1804.61C1086.32 1824.77 1089.35 1846.49 1098.28 1866.92L1098.36 1867.12C1100.41 1871.83 1098.28 1877.31 1093.57 1879.36C1089.79 1881.01 1085.49 1879.93 1082.89 1877.01Z" fill="#371A45"/>
<path d="M589.908 1822.59C584.868 1793.03 622.348 1742.57 680.508 1720.56C738.681 1698.55 789.881 1714.67 800.548 1742.87L589.908 1822.59Z" fill="#FFA726"/>
<path d="M581.493 1824.03C578.92 1816.87 578.627 1809.33 579.427 1802.37C580.12 1795.31 582.12 1788.73 584.427 1782.4C589.267 1769.81 596.4 1758.63 604.627 1748.53C621.293 1728.52 642.773 1712.87 666.773 1702.65C690.653 1692.52 717.493 1687.55 744.36 1691.33C757.72 1693.27 771.12 1697.4 783.227 1704.93C789.173 1708.85 794.893 1713.47 799.6 1719.25C801.933 1722.17 804 1725.36 805.747 1728.72C807.333 1732.19 808.667 1735.79 809.32 1739.55C810.213 1744.71 806.76 1749.61 801.6 1750.51C798.187 1751.11 794.893 1749.8 792.787 1747.36L791.787 1746.19C786.187 1739.67 778.413 1735.63 769.56 1733.19C760.733 1730.73 751.147 1729.76 741.453 1729.95C722.027 1730.4 702.293 1735.13 683.507 1742.73C664.8 1750.4 647.067 1761.12 631.507 1774.39C623.76 1781 616.587 1788.31 610.56 1796.19C604.507 1804.04 599.813 1812.6 598.333 1821.15L598.08 1822.59C597.267 1827.27 592.813 1830.4 588.12 1829.59C584.973 1829.04 582.52 1826.84 581.493 1824.03Z" fill="#371A45"/>
<path d="M637.267 1859.01C610.974 1859.01 590.934 1851.08 583.774 1835.39C581.947 1831.39 581.054 1827.09 581.014 1822.59C581.16 1823.07 581.32 1823.55 581.494 1824.03C582.52 1826.84 584.974 1829.04 588.12 1829.59C588.627 1829.68 589.12 1829.72 589.614 1829.72C593.72 1829.72 597.347 1826.77 598.08 1822.59L598.334 1821.15C598.44 1820.52 598.56 1819.89 598.707 1819.25L791.787 1746.19L792.787 1747.36C794.547 1749.4 797.16 1750.65 799.96 1750.65C800.507 1750.65 801.054 1750.61 801.6 1750.51C804.467 1750.01 806.8 1748.28 808.16 1745.95C808.44 1746.08 808.72 1746.2 808.987 1746.32C809.534 1775.77 773.294 1814.6 719.814 1839C690.494 1852.39 661.267 1859.01 637.267 1859.01Z" fill="#B97631"/>
<path d="M808.987 1746.32C808.72 1746.2 808.44 1746.08 808.16 1745.95C808.453 1745.45 808.707 1744.92 808.893 1744.37C808.947 1745.03 808.974 1745.67 808.987 1746.32Z" fill="#B98D69"/>
<path d="M598.707 1819.25C600.507 1811.35 604.947 1803.45 610.56 1796.19C616.587 1788.31 623.76 1781 631.507 1774.39C647.067 1761.12 664.8 1750.4 683.507 1742.73C702.294 1735.13 722.027 1730.4 741.454 1729.95C742.267 1729.93 743.067 1729.93 743.867 1729.93C752.734 1729.93 761.467 1730.93 769.56 1733.19C778.414 1735.61 786.187 1739.65 791.787 1746.19L598.707 1819.25Z" fill="#B97631"/>
<path d="M589.613 1829.72C589.12 1829.72 588.627 1829.68 588.12 1829.59C584.973 1829.04 582.52 1826.84 581.493 1824.03C581.32 1823.55 581.16 1823.07 581.013 1822.59C580.747 1793.17 616.92 1754.56 670.187 1730.25C699.52 1716.87 728.733 1710.24 752.747 1710.24C779.027 1710.24 799.08 1718.17 806.24 1733.87C807.747 1737.17 808.626 1740.69 808.893 1744.37C808.706 1744.92 808.453 1745.45 808.16 1745.95C806.8 1748.28 804.467 1750.01 801.6 1750.51C801.053 1750.61 800.506 1750.65 799.96 1750.65C797.16 1750.65 794.547 1749.4 792.787 1747.36L791.787 1746.19C786.187 1739.65 778.413 1735.61 769.56 1733.19C761.466 1730.93 752.733 1729.93 743.867 1729.93C743.067 1729.93 742.267 1729.93 741.453 1729.95C722.027 1730.4 702.293 1735.13 683.507 1742.73C664.8 1750.4 647.067 1761.12 631.507 1774.39C623.76 1781 616.587 1788.31 610.56 1796.19C604.947 1803.45 600.507 1811.35 598.707 1819.25C598.56 1819.89 598.44 1820.52 598.333 1821.15L598.08 1822.59C597.347 1826.77 593.72 1829.72 589.613 1829.72Z" fill="#371A45"/>
<path d="M350.375 2047.93C352.282 2045.32 354.188 2042.72 356.135 2040.13C354.202 2042.73 352.282 2045.33 350.375 2047.93ZM356.135 2040.13C358.722 2036.67 361.348 2033.21 364.042 2029.77C361.375 2033.21 358.735 2036.67 356.135 2040.13Z" fill="#BE8534"/>
<path d="M1063.79 1758.97C1035.6 1753.24 1011.64 1745.79 995.027 1738.61C1025.33 1725.21 1050.63 1707.03 1068.51 1686.56C1080.63 1691.13 1095.03 1695.55 1111.01 1699.27C1101.03 1706.09 1092.01 1714.27 1084.36 1723.44C1075.55 1734.12 1068.61 1746.2 1063.79 1758.97ZM1311.75 1735.01C1302.07 1720.71 1289.76 1708.95 1275.81 1700.04C1308.29 1691.21 1338.95 1675.63 1364.04 1650.55C1372.65 1641.93 1380.72 1632.93 1388.27 1623.59C1397.2 1625.56 1406.11 1627.65 1414.97 1629.85C1407.25 1642.03 1398.8 1653.93 1389.56 1665.39C1376.97 1681.07 1362.89 1696.04 1347.21 1709.93C1336.25 1719.68 1324.35 1727.99 1311.75 1735.01Z" fill="#B97631"/>
<path d="M669.894 1548.25C667.161 1547.84 664.427 1547.4 661.707 1546.95C629.801 1541.72 597.974 1534.36 566.494 1524.68C529.907 1513.57 493.841 1499.37 458.387 1482.03C446.681 1476.21 435.161 1470.27 423.934 1463.97C400.894 1451.15 378.787 1437.19 357.587 1422.21C336.121 1407.07 315.654 1390.88 296.241 1373.76C291.334 1363.03 287.321 1352.63 284.027 1342.65C295.347 1351.68 306.934 1360.39 318.774 1368.73C340.881 1384.32 363.934 1398.81 387.241 1411.79C397.947 1417.77 409.561 1423.87 422.867 1430.47C458.867 1448.09 496.414 1462.91 534.387 1474.49C566.241 1484.28 599.321 1492.01 632.707 1497.49C640.854 1498.84 649.054 1500.05 657.281 1501.12C662.441 1517.67 668.001 1532.75 673.787 1546.47C672.494 1547.07 671.187 1547.65 669.894 1548.25Z" fill="#B9AFBE"/>
<path d="M296.24 1373.76C282.774 1361.89 269.814 1349.59 257.387 1336.87C255.307 1329.56 253.587 1322.52 252.174 1315.77C262.534 1325.03 273.161 1333.99 284.027 1342.65C287.321 1352.63 291.334 1363.03 296.24 1373.76Z" fill="#371A45"/>
<path d="M717.548 1527.73C714.655 1520.91 711.815 1513.68 709.068 1506.01C723.402 1506.87 737.775 1507.31 752.162 1507.35C759.202 1507.35 766.295 1507.24 773.375 1507.05C754.668 1513.4 736.028 1520.29 717.548 1527.73Z" fill="#B9AFBE"/>
<path d="M673.788 1546.47C668.001 1532.75 662.441 1517.67 657.281 1501.12C674.415 1503.35 691.708 1504.97 709.068 1506.01C711.815 1513.68 714.655 1520.91 717.548 1527.73C702.868 1533.64 688.308 1539.87 673.788 1546.47Z" fill="#371A45"/>
<path d="M995.028 1738.61C988.615 1735.84 983.295 1733.12 979.242 1730.55C937.668 1704.17 891.868 1664.97 884.801 1563.47C884.441 1558.71 884.201 1553.84 884.028 1548.8C862.588 1551.95 840.908 1554.08 819.161 1555.33C806.961 1556 794.761 1556.4 782.521 1556.49C838.935 1536.91 896.282 1522.52 953.975 1513.15C955.202 1527.45 957.135 1540.45 959.668 1552.32C959.668 1552.36 959.681 1552.4 959.695 1552.44C959.695 1552.49 959.708 1552.55 959.721 1552.6C959.748 1552.69 959.761 1552.79 959.788 1552.88C961.628 1561.43 963.775 1569.37 966.188 1576.79C966.201 1576.8 966.201 1576.83 966.201 1576.84C966.215 1576.87 966.228 1576.91 966.242 1576.93C982.562 1626.91 1010.87 1652.29 1037.25 1671.15C1041.04 1673.85 1046.09 1676.73 1052.21 1679.67C1057.01 1681.96 1062.48 1684.28 1068.51 1686.56C1050.63 1707.03 1025.33 1725.21 995.028 1738.61ZM1414.97 1629.85C1406.11 1627.65 1397.2 1625.56 1388.27 1623.59C1406.89 1600.57 1422.41 1575.55 1435.32 1549.56C1441.21 1551.45 1447.13 1553.41 1453 1555.41C1445.23 1574.69 1436.11 1593.84 1425.44 1612.47C1422.11 1618.31 1418.63 1624.12 1414.97 1629.85Z" fill="#B98D69"/>
<path d="M777.228 1556.52C741.521 1556.4 705.668 1553.73 669.895 1548.25C671.188 1547.65 672.495 1547.07 673.788 1546.47C688.308 1539.87 702.868 1533.64 717.548 1527.73C736.028 1520.29 754.668 1513.4 773.375 1507.05C780.721 1506.85 788.068 1506.55 795.375 1506.16C849.108 1503.13 901.721 1494.41 952.481 1480.48C952.588 1492.07 953.095 1502.95 953.975 1513.15C896.281 1522.52 838.935 1536.91 782.521 1556.49C780.761 1556.51 779.001 1556.52 777.228 1556.52ZM1453 1555.41C1447.13 1553.41 1441.21 1551.45 1435.32 1549.56C1441.61 1536.87 1447.29 1523.95 1452.4 1510.92C1454.32 1511.56 1456.24 1512.2 1458.16 1512.85H1458.23C1461.2 1513.87 1464.11 1514.88 1467.08 1515.95C1462.96 1529.08 1458.29 1542.28 1453 1555.41Z" fill="#371A45"/>
<path d="M1297.41 1742.33C1288.61 1727.23 1276.83 1713.77 1262.83 1703.19C1267.19 1702.25 1271.51 1701.2 1275.81 1700.04C1289.76 1708.95 1302.07 1720.71 1311.75 1735.01C1307.07 1737.63 1302.28 1740.07 1297.41 1742.33Z" fill="#B98D69"/>
<path d="M1161.44 1768.99C1142.56 1768.99 1123.99 1767.79 1106.29 1765.73C1109.53 1761.09 1113.16 1756.76 1117.11 1752.77C1131.04 1739.45 1148.38 1730.03 1166.99 1727.4C1171.95 1726.6 1176.99 1726.2 1182.01 1726.2C1186.35 1726.2 1190.68 1726.51 1194.94 1727.13C1204.15 1728.55 1213.01 1731.51 1221.41 1735.53C1232.65 1740.99 1242.52 1749.05 1250.51 1758.76C1242.02 1760.88 1233.4 1762.63 1224.74 1764.05C1203.75 1767.51 1182.4 1768.99 1161.44 1768.99Z" fill="#8C5638"/>
<path d="M1106.29 1765.73C1091.4 1764.01 1077.12 1761.68 1063.79 1758.97C1068.61 1746.2 1075.55 1734.12 1084.36 1723.44C1092.01 1714.27 1101.03 1706.09 1111.01 1699.27C1137.25 1705.37 1167.72 1709.61 1199.19 1709.61C1212.21 1709.61 1225.41 1708.88 1238.55 1707.27C1246.68 1706.27 1254.8 1704.92 1262.83 1703.19C1276.83 1713.77 1288.61 1727.23 1297.41 1742.33C1282.45 1749.31 1266.69 1754.71 1250.51 1758.76C1242.52 1749.05 1232.65 1740.99 1221.41 1735.53C1213.01 1731.51 1204.15 1728.55 1194.93 1727.13C1190.68 1726.51 1186.35 1726.2 1182.01 1726.2C1176.99 1726.2 1171.95 1726.6 1166.99 1727.4C1148.37 1730.03 1131.04 1739.45 1117.11 1752.77C1113.16 1756.76 1109.53 1761.09 1106.29 1765.73Z" fill="#371A45"/>
<path d="M95.8947 1068.55C148.361 1178.59 228.521 1275.97 332.468 1349.32C353.668 1364.27 375.775 1378.21 398.855 1391.05C410.055 1397.33 421.588 1403.32 433.308 1409.13C468.708 1426.45 504.815 1440.64 541.375 1451.77C572.855 1461.45 604.695 1468.83 636.575 1474.05C675.068 1480.4 713.721 1483.49 752.135 1483.59C766.148 1483.57 780.121 1483.19 794.041 1482.44C1048.89 1468.11 1288.72 1320.29 1408.87 1074.71C1585.93 712.96 1436.17 276.214 1074.49 99.1471C1004.81 65.0939 932.308 43.0137 859.441 32.4404C850.935 31.1204 842.361 30.0405 833.775 29.1472C810.828 26.6005 787.895 25.1605 765.028 24.8138C712.135 24.0405 659.575 29.0936 608.361 39.6003C557.148 50.0403 507.135 65.9867 459.401 87.0533C444.215 93.7467 429.255 100.933 414.521 108.693C392.428 120.32 370.908 133.014 350.001 146.96C245.735 216.094 157.895 313.054 98.9347 433.574C-2.93196 641.654 3.38807 874.52 95.8947 1068.55Z" fill="white"/>
<path d="M754.548 27.12C705.774 27.12 656.828 32.0935 608.828 41.9335C557.894 52.3202 507.948 68.2269 460.361 89.2402C445.068 95.9736 430.015 103.227 415.628 110.787C393.188 122.613 371.548 135.44 351.321 148.933C244.335 219.88 157.801 318.653 101.068 434.613C2.94786 635.067 1.84117 865.747 98.0412 1067.52C151.361 1179.37 232.908 1276.15 333.828 1347.37C355.188 1362.43 377.441 1376.43 400.001 1388.97C410.335 1394.76 421.575 1400.65 434.361 1407C469.121 1424.01 505.361 1438.32 542.068 1449.51C572.788 1458.95 604.708 1466.41 636.961 1471.71C674.695 1477.92 713.441 1481.12 752.148 1481.21C766.028 1481.2 780.081 1480.81 793.908 1480.07C1056.49 1465.29 1291.31 1309.57 1406.73 1073.65C1582.93 713.707 1433.41 277.507 1073.45 101.28C1005.15 67.8937 933.028 45.5333 859.108 34.7866C851.041 33.5466 842.441 32.4399 833.534 31.5199C810.774 28.9866 787.708 27.5333 764.988 27.1866C761.508 27.1466 758.028 27.12 754.548 27.12ZM752.148 1485.96C713.174 1485.87 674.174 1482.65 636.188 1476.4C603.734 1471.08 571.601 1463.56 540.681 1454.05C503.734 1442.79 467.255 1428.39 432.268 1411.27C419.375 1404.87 408.081 1398.95 397.681 1393.12C374.988 1380.49 352.588 1366.41 331.095 1351.27C229.495 1279.56 147.428 1182.16 93.7612 1069.57C-3.07878 866.48 -1.97213 634.28 96.8012 432.52C153.895 315.813 241.001 216.374 348.681 144.974C369.041 131.4 390.814 118.48 413.414 106.587C427.908 98.9733 443.054 91.667 458.441 84.8804C506.334 63.7471 556.614 47.7336 607.881 37.2804C659.628 26.667 712.521 21.7336 765.055 22.4403C787.935 22.7869 811.148 24.2533 834.041 26.7866C843.015 27.72 851.694 28.8401 859.814 30.0934C934.201 40.8934 1006.79 63.4137 1075.53 97.0137C1437.85 274.387 1588.35 713.44 1411 1075.75C1294.83 1313.2 1058.48 1469.95 794.175 1484.81C780.255 1485.56 766.108 1485.95 752.148 1485.96Z" fill="#371A45"/>
<path d="M834.588 1455.11C876.428 1444.71 917.042 1430.79 955.882 1413.48C955.375 1417.99 954.922 1422.65 954.522 1427.48C954.442 1428.51 954.362 1429.53 954.282 1430.56C915.482 1442.09 875.442 1450.37 834.588 1455.11ZM648.282 1440.61C624.748 1440.61 601.082 1439.52 577.362 1437.28C567.575 1434.75 557.882 1432 548.295 1429.05C512.682 1418.2 477.508 1404.31 443.868 1387.84C431.388 1381.65 420.455 1375.92 410.402 1370.29C406.842 1368.31 403.295 1366.29 399.762 1364.25C480.882 1393.45 565.282 1408.35 649.015 1408.35C739.068 1408.35 828.375 1391.09 911.922 1355.84C937.268 1345.15 961.522 1333.05 984.615 1319.61C976.415 1332.73 969.388 1348.6 964.042 1368.68C868.348 1415.83 759.855 1440.63 648.282 1440.61ZM1211.08 1084.01C1218.68 1069.57 1225.72 1054.77 1232.2 1039.61C1238.82 1049.28 1246 1058.36 1253.72 1066.8C1239.44 1070.84 1225.04 1076.56 1211.08 1084.01Z" fill="#B9AFBE"/>
<path d="M754.548 40.8669C706.708 40.8669 658.668 45.7469 611.601 55.4003C561.601 65.6002 512.601 81.2137 465.908 101.814C450.908 108.427 436.135 115.547 422.028 122.96C400.001 134.56 378.788 147.147 358.948 160.374C253.961 229.987 169.081 326.894 113.428 440.654C17.148 637.32 16.0681 863.64 110.455 1061.61C162.761 1171.33 242.748 1266.27 341.761 1336.15C362.708 1350.92 384.561 1364.65 406.681 1376.96C416.841 1382.64 427.881 1388.44 440.481 1394.68C474.508 1411.35 510.068 1425.37 546.068 1436.35C576.241 1445.63 607.548 1452.95 639.188 1458.15C676.201 1464.24 714.215 1467.37 752.175 1467.47C765.775 1467.45 779.588 1467.07 793.175 1466.33C1050.77 1451.84 1281.15 1299.07 1394.37 1067.61C1567.24 714.467 1420.56 286.52 1067.4 113.627C1000.39 80.8801 929.641 58.9336 857.135 48.4003C849.161 47.1603 840.801 46.0934 832.108 45.1868C809.681 42.7067 787.068 41.2805 764.775 40.9471C761.361 40.8938 757.961 40.8669 754.548 40.8669ZM752.148 1499.72C712.415 1499.61 672.668 1496.35 633.961 1489.97C600.895 1484.55 568.148 1476.88 536.628 1467.2C499.028 1455.73 461.868 1441.07 426.215 1423.61C413.068 1417.09 401.561 1411.05 390.975 1405.12C367.881 1392.28 345.055 1377.93 323.175 1362.49C219.641 1289.44 136.028 1190.2 81.3347 1075.49C-17.3053 868.587 -16.1853 632.027 84.4547 426.48C142.628 307.573 231.361 206.267 341.081 133.52C361.815 119.694 384.001 106.533 407.001 94.4268C421.788 86.6534 437.215 79.2137 452.895 72.307C501.681 50.7737 552.908 34.4536 605.135 23.8003C657.828 13.0002 711.721 7.90686 765.255 8.69348C788.575 9.04016 812.228 10.5333 835.548 13.12C844.668 14.0667 853.575 15.2135 861.908 16.4935C937.588 27.4935 1011.55 50.4268 1081.59 84.6533C1450.71 265.373 1604.03 712.68 1423.35 1081.79C1305 1323.71 1064.21 1483.39 794.948 1498.53C780.761 1499.31 766.361 1499.71 752.148 1499.72Z" fill="#371A45"/>
<path d="M754.548 48.4934C707.228 48.4934 659.695 53.3337 613.135 62.8804C563.668 72.9603 515.188 88.4135 469.001 108.8C454.135 115.347 439.535 122.374 425.575 129.72C403.788 141.187 382.801 153.64 363.188 166.72C259.308 235.6 175.335 331.467 120.281 444.013C25.028 638.573 23.9614 862.48 117.348 1058.32C169.095 1166.87 248.228 1260.79 346.161 1329.91C366.881 1344.52 388.508 1358.11 410.401 1370.29C420.455 1375.92 431.388 1381.65 443.868 1387.84C477.508 1404.31 512.681 1418.2 548.295 1429.05C578.148 1438.23 609.121 1445.48 640.428 1450.61C677.041 1456.64 714.641 1459.73 752.201 1459.83C765.628 1459.81 779.308 1459.44 792.761 1458.72C1047.59 1444.37 1275.51 1293.23 1387.52 1064.25C1558.53 714.893 1413.43 291.52 1064.05 120.48C997.748 88.0801 927.761 66.3604 856.028 55.947C848.121 54.7203 839.895 53.6666 831.321 52.7866C809.095 50.3199 786.721 48.907 764.655 48.5736C761.295 48.5203 757.921 48.4934 754.548 48.4934ZM752.161 1507.35C711.988 1507.25 671.828 1503.93 632.708 1497.49C599.321 1492.01 566.241 1484.28 534.388 1474.49C496.415 1462.91 458.868 1448.09 422.868 1430.47C409.561 1423.87 397.948 1417.77 387.241 1411.79C363.935 1398.81 340.881 1384.32 318.775 1368.73C214.188 1294.92 129.695 1194.65 74.4548 1078.77C-25.2119 869.76 -24.0652 630.787 77.6014 423.12C136.361 303 226.015 200.653 336.868 127.16C357.788 113.2 380.201 99.9069 403.455 87.6669C418.388 79.8135 433.988 72.2933 449.828 65.3199C499.095 43.5732 550.841 27.08 603.615 16.3199C656.841 5.41333 711.201 0.266846 765.361 1.06677C788.935 1.41345 812.828 2.92017 836.401 5.53345C845.588 6.49353 854.615 7.64001 863.081 8.96008C939.468 20.0533 1014.19 43.2268 1084.92 77.8002C1457.85 260.36 1612.73 712.253 1430.2 1085.15C1310.64 1329.53 1067.39 1490.85 795.375 1506.16C781.028 1506.93 766.508 1507.33 752.161 1507.35Z" fill="#371A45"/>
<path d="M197.282 1225.52C608.575 1545.63 1199.91 1362.97 1257.04 849.934C1295.91 500.907 984.188 193.36 646.562 177.494C400.842 165.947 155.895 262.16 33.7083 638.64C33.7083 638.64 5.36173 813.654 47.0284 933.28C88.6951 1052.92 149.415 1162.24 149.415 1162.24L197.282 1225.52Z" fill="#371A45"/>
<path d="M648.961 1360.85C497.801 1360.84 343.987 1308.73 214.334 1208.67L169.401 1149.29C167.681 1146.12 163.174 1137.8 156.801 1125.47C284.374 1210.79 425.814 1251.08 561.747 1251.07C860.574 1251.05 1132.55 1056.24 1170.37 716.613C1178.65 642.28 1171 569.84 1150.61 501.693C1185.36 556.947 1209.93 615.867 1223.67 676.453C1194.91 726.613 1177.99 789.2 1178.64 856.147C1179.08 902 1187.47 945.48 1202.75 983.893C1150.71 1132.96 1042.65 1249.12 893.454 1312.07C815.814 1344.83 732.801 1360.85 648.961 1360.85Z" fill="#2A1A3B"/>
<path d="M545.388 1433.59C738.308 1459.99 931.001 1411.27 1074.33 1299.81C1211.21 1193.39 1294.39 1040.05 1314.85 856.4C1333.57 688.36 1278.32 518.974 1159.25 379.44C1028.89 226.68 837.121 130.12 646.255 121.16C539.575 116.147 442.788 130.387 358.641 163.493C254.801 232.76 170.788 328.933 115.614 441.734C19.6545 637.72 18.5879 863.267 112.655 1060.56C164.788 1169.91 244.495 1264.52 343.174 1334.15C364.041 1348.88 385.815 1362.56 407.868 1374.83C418.001 1380.51 429.001 1386.27 441.561 1392.51C475.028 1408.88 509.975 1422.72 545.388 1433.59ZM648.214 1477.73C611.948 1477.73 575.374 1475.24 538.814 1470.16L535.961 1469.53C498.201 1458.03 460.908 1443.31 425.148 1425.8C411.948 1419.25 400.414 1413.2 389.774 1407.25C366.615 1394.36 343.721 1379.97 321.775 1364.49C217.908 1291.19 134.015 1191.61 79.1345 1076.53C-19.8255 868.96 -18.6921 631.627 82.2679 425.413C140.628 306.12 229.654 204.48 339.748 131.493L341.348 130.427L343.148 129.707C432.641 94.1202 535.201 78.7601 648.001 84.0668C848.921 93.5201 1050.6 194.92 1187.49 355.347C1313.29 502.76 1371.63 682.174 1351.76 860.52C1330.15 1054.36 1242.09 1216.4 1097.12 1329.12C972.828 1425.77 813.588 1477.73 648.214 1477.73Z" fill="#371A45"/>
<path d="M214.334 1208.67C415.894 1364.24 675.814 1403.89 893.454 1312.07C1085.64 1230.97 1209.56 1061.57 1233.43 847.307C1249.85 699.814 1201.28 551.067 1096.67 428.48C981.961 294.067 813.281 209.12 645.454 201.227C355.254 187.56 157.294 336.6 56.8942 644.147C54.1875 662.307 32.4275 819.147 69.4542 925.467C107.414 1034.43 162.227 1136.16 169.401 1149.29L214.334 1208.67ZM649.014 1408.35C486.441 1408.35 321.334 1352.17 182.694 1244.27L180.214 1242.35L128.641 1173.77C126.121 1169.24 66.4542 1061.28 24.5875 941.093C-18.5591 817.2 9.05419 642.227 10.2542 634.84L11.1074 631.307C118.761 299.64 332.881 138.947 647.681 153.76C828.387 162.253 1009.75 253.427 1132.81 397.627C1246.04 530.307 1298.55 691.88 1280.65 852.574C1254.83 1084.44 1120.43 1267.88 911.921 1355.84C828.374 1391.09 739.067 1408.35 649.014 1408.35Z" fill="#371A45"/>
<path d="M1202.41 855.893C1202.41 856.933 1202.41 858.04 1202.48 859.08C1205.08 1001.37 1290.64 1111.49 1394.59 1105.65C1499.31 1099.8 1583.04 978.36 1581.68 834.507C1580.57 723.534 1529.08 631.547 1457.44 598.134C1436.32 588.187 1413.37 583.373 1389.51 584.747C1284.79 590.654 1200.99 712.093 1202.41 855.893Z" fill="white"/>
<path d="M1386.67 1082.13C1381.73 1082.13 1376.84 1081.83 1371.99 1081.2C1360.03 1068.93 1340.52 1061.64 1317.33 1059.79C1310.93 1055.4 1304.71 1050.39 1298.69 1044.76C1260.15 1008.68 1234.68 951.12 1227.92 886.827C1234.81 891.147 1242.39 893.654 1250.72 893.654C1269.04 893.654 1284.23 887.92 1296.49 879.947C1296.8 889.894 1297.65 899.734 1299.03 909.387C1300.13 922.214 1302.27 934.921 1305.52 947.32C1320.92 1006.27 1359.96 1048.57 1405.55 1062.17C1417.04 1066.36 1428.92 1068.75 1440.89 1069.35C1425.81 1076.65 1409.81 1081.01 1393.21 1081.96C1391.03 1082.08 1388.84 1082.13 1386.67 1082.13Z" fill="#B9AFBE"/>
<path d="M1397.37 608.307C1395.2 608.307 1393.03 608.374 1390.83 608.494C1298.76 613.694 1224.88 724.574 1226.15 855.694C1226.89 932.254 1254.01 1002.93 1298.69 1044.76C1326.72 1070.99 1359.25 1083.85 1393.21 1081.96C1485.29 1076.76 1559.17 965.867 1557.89 834.76C1557.15 758.2 1530.04 687.52 1485.36 645.694C1459.13 621.16 1428.84 608.307 1397.37 608.307ZM1386.48 1129.67C1342.84 1129.67 1301.45 1112.41 1266.23 1079.44C1211.44 1028.17 1179.52 946.787 1178.64 856.147C1177.12 700.027 1271.12 567.654 1388.16 561.054C1435.23 558.36 1480.08 575.667 1517.83 611C1572.61 662.28 1604.53 743.68 1605.41 834.307C1606.93 990.414 1512.93 1122.8 1395.88 1129.4C1392.75 1129.57 1389.6 1129.67 1386.48 1129.67Z" fill="#371A45"/>
<path d="M1595.79 935.373C1562.16 1040.61 1471.21 1093.69 1392.64 1053.92C1314.08 1014.16 1277.65 896.613 1311.28 791.373C1344.92 686.133 1435.87 633.053 1514.43 672.813C1593 712.573 1629.43 830.133 1595.79 935.373Z" fill="white"/>
<path d="M1460.27 661.987C1444.69 661.987 1429 665.227 1413.53 671.693C1368.47 690.573 1332.04 734.453 1313.61 792.12C1280.4 896.093 1316.33 1012.56 1393.75 1051.73C1425.64 1067.88 1460.16 1069.03 1493.53 1055.05C1538.61 1036.17 1575.04 992.28 1593.47 934.627C1626.69 830.64 1590.73 714.187 1513.32 675C1496.2 666.333 1478.32 661.987 1460.27 661.987ZM1446.92 1069.49C1427.96 1069.49 1409.15 1065.03 1391.55 1056.11C1312.08 1015.89 1275.03 896.787 1308.96 790.627C1327.81 731.6 1365.24 686.6 1411.64 667.173C1445.89 652.827 1482.79 654.067 1515.53 670.627C1595 710.853 1632.05 829.947 1598.12 936.107C1579.27 995.147 1541.83 1040.13 1495.44 1059.57C1479.61 1066.2 1463.21 1069.49 1446.92 1069.49Z" fill="#371A45"/>
<path d="M1405.55 1062.17C1359.96 1048.57 1320.92 1006.27 1305.52 947.32C1302.27 934.92 1300.13 922.214 1299.03 909.387C1308.33 974.267 1341.53 1030.8 1391.55 1056.11C1396.13 1058.44 1400.8 1060.45 1405.55 1062.17Z" fill="#8C7B94"/>
<path d="M1446.81 1064.75C1428.76 1064.75 1410.88 1060.41 1393.75 1051.73C1326.77 1017.84 1290.84 926.067 1303.89 834.614C1304.2 833.134 1304.52 831.667 1304.87 830.2C1325.97 889.88 1370.79 924.321 1420.75 924.321C1441.6 924.321 1463.33 918.321 1484.63 905.654C1531.37 877.894 1565.15 824.36 1578.8 764.947C1580.72 770.267 1582.4 775.867 1583.92 781.614C1609.15 878.227 1573.2 1004.29 1496.31 1050.04C1486 1056.17 1475.47 1060.55 1464.92 1063.29C1458.88 1064.27 1452.84 1064.75 1446.81 1064.75Z" fill="#B9AFBE"/>
<path d="M1437.28 1066.87C1426.49 1066.87 1415.85 1065.25 1405.55 1062.17C1400.8 1060.45 1396.13 1058.44 1391.55 1056.11C1341.53 1030.8 1308.33 974.267 1299.03 909.387C1296.89 884.467 1298.68 859.093 1303.89 834.613C1290.84 926.067 1326.77 1017.84 1393.75 1051.73C1410.88 1060.41 1428.76 1064.75 1446.81 1064.75C1452.84 1064.75 1458.88 1064.27 1464.92 1063.29C1455.69 1065.71 1446.44 1066.87 1437.28 1066.87Z" fill="#371A45"/>
<path d="M1459.08 672.174C1457.53 672.174 1455.96 672.227 1454.35 672.334C1388.88 676.534 1334.07 767.08 1334.67 870.04C1335.04 934.294 1356.2 992.16 1391.27 1024.84C1404.44 1037.12 1425.88 1051.47 1453.77 1049.61C1519.24 1045.4 1574.05 954.867 1573.45 851.907V851.893C1573.08 787.653 1551.92 729.787 1516.87 697.107C1504.44 685.52 1484.59 672.174 1459.08 672.174ZM1448.88 1097.29C1416.39 1097.29 1385.41 1084.36 1358.85 1059.6C1314.4 1018.16 1287.6 947.4 1287.15 870.32C1286.39 738.68 1358.49 630.88 1451.31 624.907C1486.6 622.654 1520.55 635.574 1549.27 662.347C1593.72 703.787 1620.52 774.547 1620.96 851.627C1621.73 983.267 1549.63 1091.07 1456.81 1097.04C1454.16 1097.2 1451.52 1097.29 1448.88 1097.29Z" fill="#371A45"/>
<path d="M215.334 1020.85C124.827 896.667 90.2669 767.56 134.094 598.52C155.947 514.267 196.187 439.667 249.387 377.92C261.92 363.373 278.654 353.094 297.094 347.72C312.44 343.253 328.054 339.52 343.854 336.533C359.52 333.573 391.4 329.88 391.4 329.88L409.347 328.6C409.347 328.6 421.454 325.467 427.52 325.467C430.2 325.467 431.694 326.08 430.454 327.84C283.134 535.734 252.08 655.787 232.813 754.707C198.373 931.56 215.334 1020.85 215.334 1020.85Z" fill="#C3BAC7"/>
<path d="M963.588 816.934C961.415 816.934 959.241 816.854 957.055 816.68C903.388 812.547 863.775 758.48 868.601 695.934C873.228 635.947 917.055 589.934 967.988 589.934C970.161 589.934 972.335 590.014 974.521 590.187C1028.2 594.32 1067.8 648.387 1062.97 710.934C1058.35 770.92 1014.52 816.934 963.588 816.934Z" fill="#C3BAC7"/>
<path d="M967.601 989.533C965.747 989.533 963.867 989.386 961.974 989.08C940.041 985.506 925.627 961.893 929.787 936.32C933.601 912.947 951.614 896.04 971.441 896.04C973.294 896.04 975.174 896.186 977.067 896.493C999.001 900.066 1013.41 923.693 1009.24 949.267C1005.44 972.627 987.427 989.533 967.601 989.533Z" fill="#C3BAC7"/>
<path d="M1196.91 1363.08C1419.97 1303.32 1403.56 1124.25 1376.52 1086.59C1338.83 1034.08 1181.45 1054.4 1124.24 1173.68C1068.21 1290.52 969.014 1248.83 954.521 1427.48C941.534 1587.69 992.188 1638.96 1037.25 1671.15C1078.05 1700.29 1264.69 1749.87 1364.04 1650.55C1523.17 1491.45 1495.61 1197.32 1495.61 1197.32L1196.91 1363.08Z" fill="white"/>
<path d="M1342.25 1282.43C1348.91 1274.2 1352.47 1268.48 1353.11 1267.43C1353.13 1267.39 1353.17 1267.33 1353.2 1267.29C1353.12 1267.75 1352.43 1271.43 1351.19 1277.47L1342.25 1282.43Z" fill="#B9AFBE"/>
<path d="M1269.63 1456.15C1223.23 1456.15 1213.38 1363.47 1213.38 1363.47C1282.19 1346.95 1323.95 1305.11 1342.25 1282.43L1351.19 1277.47C1343.15 1316.56 1311.88 1454.51 1271.03 1456.12C1270.55 1456.15 1270.08 1456.15 1269.63 1456.15ZM1353.11 1267.43C1353.18 1267.32 1353.21 1267.25 1353.21 1267.25C1353.21 1267.25 1353.21 1267.27 1353.2 1267.29C1353.17 1267.33 1353.14 1267.39 1353.11 1267.43Z" fill="#B9AFBE"/>
<path d="M1111.01 1699.27C1095.03 1695.55 1080.63 1691.13 1068.51 1686.56C1080.63 1691.13 1095.04 1695.55 1111.01 1699.27Z" fill="#8C5638"/>
<path d="M1068.51 1686.56C1062.48 1684.28 1057.01 1681.96 1052.21 1679.67C1057.01 1681.96 1062.48 1684.28 1068.51 1686.56Z" fill="#8C655C"/>
<path d="M1199.19 1709.61C1167.72 1709.61 1137.25 1705.37 1111.01 1699.27C1137.27 1705.37 1167.75 1709.6 1199.2 1709.6C1212.23 1709.6 1225.41 1708.88 1238.55 1707.27C1225.41 1708.88 1212.21 1709.61 1199.19 1709.61Z" fill="#371A45"/>
<path d="M966.241 1576.93C966.228 1576.91 966.215 1576.87 966.201 1576.84C966.215 1576.87 966.228 1576.89 966.241 1576.93ZM966.188 1576.79C963.775 1569.37 961.628 1561.43 959.788 1552.88C961.628 1561.43 963.775 1569.37 966.188 1576.79ZM959.788 1552.88C959.761 1552.79 959.748 1552.69 959.721 1552.6C959.748 1552.69 959.761 1552.79 959.788 1552.88ZM959.695 1552.44C959.681 1552.4 959.668 1552.36 959.668 1552.32C959.668 1552.36 959.681 1552.4 959.695 1552.44Z" fill="#8C655C"/>
<path d="M1490.57 1356.29C1501.99 1267.75 1495.77 1198.95 1495.63 1197.35L1495.64 1197.33C1495.64 1197.33 1502.13 1266.71 1490.57 1356.29Z" fill="#B9AFBE"/>
<path d="M1484.19 1397.24C1486.76 1383.24 1488.87 1369.55 1490.57 1356.29C1488.87 1369.55 1486.76 1383.25 1484.19 1397.24Z" fill="#8C7B94"/>
<path d="M1199.2 1709.6C1167.75 1709.6 1137.27 1705.37 1111.01 1699.27C1095.04 1695.55 1080.63 1691.13 1068.51 1686.56C1062.48 1684.28 1057.01 1681.96 1052.21 1679.67C1046.11 1676.75 1041.07 1673.87 1037.28 1671.15C1010.87 1652.29 982.561 1626.91 966.241 1576.93C966.228 1576.89 966.215 1576.87 966.201 1576.84C966.201 1576.81 966.201 1576.8 966.188 1576.79C963.775 1569.37 961.628 1561.43 959.788 1552.88C959.761 1552.79 959.748 1552.69 959.721 1552.6C959.708 1552.55 959.694 1552.49 959.694 1552.44C959.681 1552.4 959.668 1552.36 959.668 1552.32C952.801 1520.17 950.308 1479.6 954.535 1427.51C954.895 1422.75 955.361 1418.17 955.894 1413.72C967.001 1496.05 1003.65 1530.61 1037.28 1554.61C1059.83 1570.73 1126.92 1593.07 1199.19 1593.07C1257.69 1593.07 1319.59 1578.44 1364.03 1534C1458.47 1439.56 1487.21 1297.55 1494.93 1197.75L1495.63 1197.35C1495.77 1198.95 1501.99 1267.75 1490.57 1356.29C1488.87 1369.55 1486.76 1383.24 1484.19 1397.24C1484.17 1397.25 1484.17 1397.27 1484.17 1397.29C1484.17 1397.31 1484.17 1397.28 1484.17 1397.29C1468.28 1483.37 1434.41 1580.17 1364.03 1650.55C1329.49 1685.07 1284.39 1701.61 1238.55 1707.27C1225.41 1708.88 1212.23 1709.6 1199.2 1709.6Z" fill="#B9AFBE"/>
<path d="M1194.85 1355.44C1233.04 1332.24 1269.27 1313.12 1299.28 1287.41C1314.09 1274.52 1327.23 1260.27 1337.95 1244.48C1348.51 1228.63 1357.01 1211.35 1362.03 1192.85C1367.21 1174.45 1369.01 1154.87 1367.19 1136.08C1366.29 1126.75 1364.37 1117.52 1361.61 1109.68C1360.24 1106 1358.51 1102.19 1357.29 1100.59C1355.59 1098.6 1353.89 1096.37 1351.05 1094.53C1345.87 1090.61 1338.25 1087.49 1329.84 1085.65C1321.43 1083.76 1312.23 1082.99 1302.85 1083.13C1284.05 1083.36 1264.69 1087.6 1246.4 1094.16C1209.76 1107.67 1177.36 1132.41 1156.49 1164.73C1154.03 1168.85 1151.33 1172.85 1149.2 1177.17L1145.87 1183.59L1141.57 1191.52C1138.61 1196.84 1135.87 1202.27 1132.68 1207.48L1122.13 1222.65C1107.25 1242.41 1088.47 1259.09 1070.11 1272.65C1051.73 1286.36 1034.56 1297.84 1021.59 1311.29C1008.45 1324.59 999.213 1340.31 992.333 1358.23C989.493 1367.55 986.107 1376.57 984.493 1386.67C983.533 1391.6 982.347 1396.45 981.52 1401.47L979.707 1416.81C979.187 1421.96 978.32 1426.96 978.04 1432.24L977.107 1448.04C976.227 1458.61 976.547 1469.03 976.293 1479.51C976.72 1521.03 982.373 1562.48 1000.09 1596.12C1008.73 1613.05 1020.92 1627.21 1035.56 1639.87C1039.43 1642.92 1043.12 1646.07 1047.29 1649.03C1049.33 1650.55 1051.51 1652.17 1052.8 1652.93C1054.17 1653.92 1056.31 1654.99 1058.09 1656.03C1066.08 1660.19 1075.44 1663.95 1084.96 1667.19C1123.45 1680.07 1165.47 1686.48 1206.15 1685.72C1246.84 1684.95 1287.03 1675.95 1319.56 1655.64C1327.61 1650.49 1335.33 1644.87 1342.24 1638.36L1347.47 1633.49L1352.69 1627.92C1356.11 1624.12 1359.85 1620.67 1363.01 1616.61C1376.53 1601.31 1388.17 1584.25 1398.87 1566.61C1409.56 1548.95 1418.75 1530.23 1426.68 1510.91C1434.64 1491.6 1441.57 1471.76 1447.25 1451.45C1452.92 1431.15 1457.63 1410.51 1461.35 1389.61C1465.12 1368.73 1466.89 1347.49 1468.4 1326.29C1472.04 1283.83 1473.72 1241.77 1487.73 1198.07L1487.8 1197.85C1489.24 1193.37 1494.04 1190.91 1498.52 1192.33C1500.76 1193.05 1502.51 1194.64 1503.51 1196.59C1509.11 1207.57 1512.35 1218.56 1515.15 1229.75C1517.81 1240.91 1519.48 1252.17 1520.37 1263.44C1521.96 1285.99 1521.52 1308.63 1518.88 1331.07C1516.25 1353.52 1512.16 1375.76 1508.16 1398.03C1504.09 1420.29 1499.12 1442.44 1492.99 1464.36C1486.84 1486.28 1479.32 1507.91 1470.57 1529.12C1461.84 1550.35 1451.67 1571.11 1439.67 1590.96C1427.67 1610.79 1414.47 1630.08 1398.97 1647.68C1395.35 1652.27 1391.07 1656.32 1387.13 1660.67L1381.11 1667.07L1374.32 1673.43C1365.23 1681.92 1355.17 1689.29 1344.76 1695.92C1323.75 1708.92 1300.88 1718.32 1277.57 1724.05C1254.28 1730.01 1230.63 1732.72 1207.19 1733.23C1160.24 1733.99 1114.29 1727.01 1069.63 1712.16C1058.41 1708.31 1047.32 1703.97 1035.85 1698.01C1032.89 1696.33 1030.11 1694.93 1026.97 1692.81C1023.61 1690.68 1021.41 1688.97 1019.04 1687.24C1014.28 1683.84 1009.59 1679.92 1004.88 1676.15C986.307 1660.31 969.427 1640.56 958.093 1618.36C946.48 1596.28 939.387 1572.77 934.973 1549.48C930.373 1526.11 929.32 1502.91 928.773 1479.89C929.027 1468.47 928.733 1456.93 929.64 1445.64L930.653 1428.61C930.973 1422.96 931.907 1417.11 932.507 1411.36L934.573 1394.07C935.533 1388.27 936.893 1382.44 938.053 1376.63C939.973 1365.01 944.053 1353.36 947.76 1341.76C956.373 1318.73 969.8 1295.99 987.6 1278.08C1005.24 1260.01 1024.96 1247.19 1041.61 1234.64C1058.45 1222.15 1072.61 1209.29 1084.21 1194.03L1092.43 1182.21C1094.95 1178.08 1097.11 1173.68 1099.51 1169.44L1103.07 1162.93L1107.31 1154.75C1110.07 1149.25 1113.45 1144.09 1116.64 1138.84C1143.49 1097.33 1184.44 1066.33 1229.99 1049.56C1252.89 1041.35 1276.95 1036 1302.05 1035.63C1314.59 1035.44 1327.37 1036.41 1340.36 1039.32C1353.28 1042.25 1366.64 1047.05 1379.12 1056.2C1385.4 1060.52 1391.16 1066.53 1396.12 1073.19C1401.25 1080.57 1403.77 1086.97 1406.29 1093.51C1410.84 1106.35 1413.16 1118.79 1414.51 1131.23C1417.04 1156.07 1415.31 1180.85 1409.61 1204.92C1404.05 1229 1394.07 1252.12 1380.57 1272.91C1366.83 1293.52 1349.48 1311.47 1330.11 1325.96C1291.45 1355.31 1245.05 1370.72 1198.96 1370.73C1194.43 1370.73 1190.76 1367.07 1190.76 1362.53C1190.76 1359.57 1192.33 1356.97 1194.68 1355.53L1194.85 1355.44Z" fill="#371A45"/>
<path d="M1283.15 1340.07C1284.24 1349.44 1283.61 1359.36 1283.05 1368.95C1282.43 1378.59 1281 1388.19 1279.95 1397.81C1278.97 1407.4 1278.09 1416.93 1277.8 1426.45C1277.53 1436.01 1277.64 1445.23 1281.16 1454.23L1281.41 1454.87C1281.95 1456.23 1281.27 1457.76 1279.91 1458.29C1279.07 1458.63 1278.16 1458.49 1277.45 1458.03C1275.2 1456.48 1272.44 1454.85 1270.35 1452.77C1268.41 1450.71 1266.27 1448.45 1264.6 1446.09C1263 1443.76 1261.41 1441.29 1259.95 1438.77C1258.71 1436.28 1257.39 1433.76 1256.2 1431.17C1251.79 1420.88 1248.69 1410.25 1246.53 1399.67C1244.47 1389.09 1242.85 1378.45 1242.72 1367.88C1242.69 1357.24 1243.23 1346.96 1246.23 1336.2C1249.01 1326.2 1259.39 1320.35 1269.4 1323.13C1276.97 1325.24 1282.18 1331.71 1283.04 1339.07L1283.15 1340.07Z" fill="#371A45"/>
<path d="M408.76 1467.83C415.534 1469.69 423.08 1471.44 430.32 1473.04C437.64 1474.64 445 1476.13 452.347 1477.39C467.014 1479.89 481.867 1481.81 495.827 1481.63H496.454C503.04 1481.55 508.454 1486.81 508.534 1493.41C508.614 1498.95 504.88 1503.65 499.787 1505.07C483.254 1509.63 467.107 1511.56 450.987 1513C442.934 1513.69 434.907 1514.15 426.867 1514.48C418.747 1514.79 410.96 1515.01 402.44 1514.92H402.12C388.88 1514.77 378.267 1503.92 378.414 1490.68C378.547 1477.44 389.4 1466.81 402.654 1466.96C404.72 1466.99 406.84 1467.31 408.76 1467.83Z" fill="#371A45"/>
</svg>
