<svg width="3554" height="3549" viewBox="0 0 3554 3549" fill="none" xmlns="http://www.w3.org/2000/svg">
<path d="M2624.12 3318.91C3134.95 3009.69 3478.03 2436.87 3478.03 1781.2C3478.03 797.466 2705.85 -0.000244141 1753.33 -0.000244141C800.813 -0.000244141 28.6396 797.466 28.6396 1781.2C28.6396 2436.87 371.725 3009.69 882.546 3318.91C1145.84 3314 1441.24 3311.27 1753.33 3311.27C2065.43 3311.27 2360.83 3314 2624.12 3318.91Z" fill="#371A45"/>
<path d="M2809.87 2850.69C2772.24 2751.27 2718.6 2656.55 2650.33 2569V2457.99C2650.33 2402.48 2627.48 2349.65 2585.67 2307.8L2587.05 2296.07C2592.27 2251.96 2578.61 2209.08 2548.6 2175.31C2517.01 2139.77 2470.95 2119.4 2422.21 2119.4H2417.37C2421.47 2114.16 2425.48 2108.88 2429.43 2103.56C2434.43 2097.93 2438.55 2092.91 2442 2088.23C2493.55 2018.23 2532.43 1941.49 2557.75 1859.91C2607.29 1852.79 2652.47 1828.91 2686.52 1791.49C2725.39 1748.79 2745.29 1693.49 2742.57 1635.81L2735.08 1476.69C2732.36 1419 2707.35 1365.83 2664.64 1326.97C2626.75 1292.48 2578.23 1272.72 2527.23 1270.83C2487.77 1178.83 2432.39 1095.08 2362.41 1021.67C2207.21 858.853 1997.91 766.24 1773.04 760.853C1765.99 760.68 1758.83 760.586 1751.77 760.586C1535.16 760.586 1329.21 843.186 1171.88 993.173C1069.6 1090.67 993.453 1212 950.866 1345.01C900.16 1351.59 853.879 1375.64 819.079 1413.89C780.213 1456.6 760.306 1511.88 763.026 1569.57L770.52 1728.68C775.84 1841.77 866.813 1930.89 979.079 1934.59C1007.53 2000.71 1044.2 2062.63 1088.48 2119.4H1084.45C1035.72 2119.4 989.653 2139.77 958.066 2175.31C929.52 2207.44 915.773 2247.81 918.986 2289.64C903.133 2302.45 889.133 2316.92 877.24 2332.83C849.226 2370.07 834.4 2413.37 834.4 2457.99V2599.73C777.04 2678.65 731.173 2763.04 697.986 2850.69C645.986 2988.12 643.68 3096.01 691.12 3171.43H675.24C740.613 3225.57 809.866 3274.91 882.546 3318.91C1145.84 3314 1441.24 3311.27 1753.33 3311.27C2065.43 3311.27 2360.83 3314 2624.13 3318.91C2696.8 3274.91 2766.05 3225.57 2831.43 3171.43H2816.75C2864.19 3096.01 2861.88 2988.12 2809.87 2850.69Z" fill="white"/>
<path d="M2796.83 793.907C2797.57 889.8 2833.39 981.8 2897.65 1053C2901.12 1056.84 2901.59 1062.39 2898.84 1067.09L2842.11 1164.25C2826.84 1190.4 2831.13 1223.61 2852.53 1245.01C2865.13 1257.61 2881.88 1264.55 2899.69 1264.55C2911.48 1264.55 2923.09 1261.4 2933.29 1255.45L3079.33 1170.19C3080.93 1169.24 3082.72 1168.75 3084.49 1168.75C3085.28 1168.75 3086.05 1168.85 3086.79 1169.04C3118.71 1177.61 3151.75 1182.11 3185 1182.4L3188.27 1182.41C3250.91 1182.41 3310.28 1167.32 3363.05 1140.72C3270.03 891.52 3124.39 669.346 2940.09 488.787C2851.97 561.507 2795.88 671.693 2796.83 793.907Z" fill="white"/>
<path d="M2604.27 2457.99V3034.45C2604.27 3061.31 2597.35 3086.89 2584.85 3109.91C2550.71 3173.23 2475.04 3217.49 2387.71 3217.49H1097.03C1023.6 3217.49 958.427 3186.24 919.227 3138.64C894.827 3109.03 880.467 3073.12 880.467 3034.45V2457.99C880.467 2422.21 892.813 2388.76 914.093 2360.47C952.48 2309.15 1020.25 2274.95 1097.03 2274.95H2387.71C2398.12 2274.95 2408.31 2275.57 2418.36 2276.84C2523.11 2289.47 2604.27 2366.12 2604.27 2457.99Z" fill="white"/>
<path d="M1097.03 2294.33C1028.63 2294.33 966.04 2323.4 929.626 2372.08C910.146 2397.99 899.866 2427.68 899.866 2457.99V3034.45C899.866 3067.29 911.733 3099.05 934.2 3126.31C971.226 3171.27 1032.09 3198.11 1097.03 3198.11H2387.71C2465.19 3198.11 2535.88 3159.88 2567.79 3100.71C2579.13 3079.8 2584.88 3057.53 2584.88 3034.45V2457.99C2584.88 2377.31 2512.29 2307.69 2416.03 2296.09C2406.73 2294.92 2397.23 2294.33 2387.71 2294.33H1097.03ZM2387.71 3236.89H1097.03C1020.64 3236.89 948.573 3204.77 904.253 3150.97C876 3116.69 861.066 3076.4 861.066 3034.45V2457.99C861.066 2419.2 874.04 2381.45 898.586 2348.8C942.266 2290.43 1016.45 2255.55 1097.03 2255.55H2387.71C2398.83 2255.55 2409.96 2256.24 2420.76 2257.59C2536.4 2271.55 2623.67 2357.69 2623.67 2457.99V3034.45C2623.67 3064.07 2616.35 3092.57 2601.89 3119.17C2563.33 3190.67 2479.25 3236.89 2387.71 3236.89Z" fill="#371A45"/>
<path d="M1758.8 2114.69C2199.77 2187.61 2611.05 2455.49 2766.79 2867C2892.65 3199.57 2664.05 3217.49 2664.05 3217.49H1749.75H1758.12H843.813C843.813 3217.49 615.213 3199.57 741.079 2867C896.813 2455.49 1308.09 2187.61 1749.07 2114.69H1758.8Z" fill="white"/>
<path d="M2663.15 3198.11H2552.67C2581.84 3173.09 2600.35 3135.99 2600.35 3094.63V3069.28H2541.4C2545.49 3066.85 2549.47 3064.25 2553.17 3061.24C2559.41 3056.81 2565.07 3051.57 2570.37 3046.05C2580.12 3035.85 2587.95 3023.63 2592.17 3009.57L2609.64 3043.72C2629.07 3081.72 2664.85 3099.51 2700.39 3099.51C2732.87 3099.51 2765.13 3084.67 2784.57 3056.83C2782.69 3088.15 2774.96 3114.91 2761.35 3136.57C2727.92 3189.72 2670.08 3197.37 2663.15 3198.11ZM953.107 3198.11H844.734C837.494 3197.33 779.854 3189.6 746.52 3136.56C732.787 3114.72 725.027 3087.67 723.24 3056C742.614 3083.47 774.68 3098.07 806.974 3098.07C842.854 3098.07 878.987 3080.05 898.307 3041.61L914.36 3009.65C918.6 3023.67 926.4 3035.88 936.134 3046.05C941.44 3051.57 947.094 3056.81 953.334 3061.24C957.04 3064.25 961.027 3066.85 965.107 3069.28H905.427V3094.63C905.427 3135.99 923.934 3173.09 953.107 3198.11Z" fill="#B9AFBE"/>
<path d="M769.307 3018.36C769.307 3018.36 856.387 2755.79 1090.89 2755.04C1307.25 2754.35 1389.88 2862.27 1339.19 3010.48C1313.96 3084.23 1044.44 3153.95 918.307 3001.8L769.307 3018.36Z" fill="white"/>
<path d="M1036.55 3058.15C1021.17 3053.05 1006.44 3046.41 993.107 3037.59C990.387 3035.85 987.653 3034.16 984.84 3032.57C982.013 3031.01 979.48 3029.04 976.693 3027.43C974.027 3025.64 971.16 3024.11 968.413 3022.4C965.76 3020.57 963.067 3018.79 960.267 3017.09C954.48 3013.92 949.213 3010.08 942.947 3007.03C936.773 3003.87 930.867 3000.25 923.28 2997.68L922.56 2997.43C921.827 2997.19 921.053 2997.05 920.267 2997.05C919.72 2997.05 919.16 2997.11 918.613 2997.24C920.88 2980.11 935.733 2968.55 951.707 2968.55C957.907 2968.55 964.28 2970.29 970.16 2974.12C988.92 2986.36 1009.09 2995.73 1029.99 3002.65L1036.55 3058.15Z" fill="#B9AFBE"/>
<path d="M763.173 3016.32C763.64 2985.48 774.173 2957.79 787.84 2931.93C801.253 2905.87 818.786 2881.97 838.346 2859.93C858.106 2838.07 879.12 2817.03 903.093 2799.23C926.986 2781.41 953.333 2766.48 981.44 2755.73C1009.52 2744.88 1039.32 2738.48 1069.23 2736.45L1091.65 2735.64C1098.92 2735.77 1106.17 2735.76 1113.44 2735.99C1128 2736.57 1142.56 2737.43 1157.15 2739.17C1186.28 2742.53 1215.52 2748.37 1243.87 2758.87C1272.13 2769.17 1299.69 2784.55 1322.44 2806.63C1345.31 2828.49 1361.73 2857.97 1368.44 2888.92C1375.29 2919.91 1373.87 2951.57 1367.4 2981.04C1365.97 2988.49 1363.85 2995.69 1361.91 3002.96L1358.52 3013.65L1357.67 3016.33C1357.37 3017.24 1356.76 3018.6 1356.29 3019.71L1353.16 3026.63C1343.4 3043.4 1330.37 3053.99 1317.39 3062.97C1291.08 3080.56 1262.79 3090.92 1234.11 3098.75C1176.67 3113.45 1116.33 3116.24 1057.69 3103.95C1050.37 3102.37 1043.09 3100.69 1035.89 3098.49C1028.63 3096.63 1021.56 3093.99 1014.44 3091.53C1007.31 3089.11 1000.37 3086.03 993.28 3083.39C986.426 3080.12 979.28 3077.4 972.653 3073.59C965.986 3069.85 959.306 3066.09 953.333 3061.24C947.093 3056.81 941.44 3051.57 936.133 3046.05C925.546 3034.99 917.24 3021.52 913.333 3005.93C912.373 3002.11 914.68 2998.23 918.506 2997.27C919.893 2996.92 921.293 2997 922.56 2997.43L923.28 2997.68C930.866 3000.25 936.773 3003.87 942.946 3007.03C949.213 3010.08 954.48 3013.92 960.266 3017.09C963.066 3018.79 965.76 3020.57 968.413 3022.4C971.16 3024.11 974.026 3025.64 976.693 3027.43C979.48 3029.04 982.013 3031.01 984.84 3032.57C987.653 3034.16 990.386 3035.85 993.106 3037.59C1014.72 3051.89 1040.01 3060.45 1065.76 3066C1117.48 3076.93 1172.69 3074.48 1224.23 3061.23C1249.77 3054.35 1275.05 3044.73 1295.63 3030.87C1305.77 3024.07 1314.68 3015.77 1319.11 3008.04C1319.45 3007.11 1319.84 3006.2 1320.27 3005.32C1320.48 3004.8 1320.71 3004.6 1320.95 3003.83L1321.69 3001.47L1324.69 2992.03C1326.36 2985.68 1328.27 2979.36 1329.45 2972.97C1335.08 2947.52 1335.92 2921.55 1330.59 2897.47C1325.29 2873.36 1313.16 2851.51 1295.32 2834.36C1277.57 2817.12 1254.97 2804.19 1230.43 2795.25C1205.89 2786.15 1179.52 2780.79 1152.73 2777.72C1139.33 2776.09 1125.77 2775.31 1112.17 2774.76L1091.73 2774.44L1071.93 2775.16C1045.63 2776.93 1019.75 2782.51 995.253 2791.97C946.28 2810.84 902.6 2843.95 868.946 2885.81C860.6 2896.35 852.613 2907.16 845.106 2918.35C837.426 2929.41 830.013 2940.69 822.72 2952.11C808.293 2975.05 794.013 2998.2 775.453 3020.39L775.133 3020.77C772.733 3023.64 768.466 3024.01 765.6 3021.61C763.986 3020.27 763.16 3018.28 763.173 3016.32Z" fill="#371A45"/>
<path d="M2737.2 3018.36C2737.2 3018.36 2650.12 2755.79 2415.63 2755.04C2199.25 2754.35 2116.64 2862.27 2167.32 3010.48C2192.55 3084.23 2462.07 3153.95 2588.2 3001.8L2737.2 3018.36Z" fill="white"/>
<path d="M2737.2 3018.36C2737.2 3018.36 2650.12 2755.79 2415.63 2755.04C2199.25 2754.35 2116.64 2862.27 2167.32 3010.48C2192.55 3084.23 2462.07 3153.95 2588.2 3001.8L2737.2 3018.36Z" fill="white"/>
<path d="M2470.12 3058.09L2476.68 3002.6C2497.52 2995.69 2517.64 2986.32 2536.36 2974.12C2542.23 2970.29 2548.6 2968.55 2554.8 2968.55C2570.79 2968.55 2585.63 2980.11 2587.89 2997.24C2587.36 2997.11 2586.81 2997.04 2586.25 2997.04C2585.49 2997.04 2584.72 2997.17 2583.96 2997.43L2583.23 2997.68C2575.64 3000.25 2569.73 3003.87 2563.56 3007.03C2557.29 3010.08 2552.03 3013.92 2546.24 3017.09C2543.44 3018.79 2540.75 3020.57 2538.09 3022.4C2535.35 3024.11 2532.49 3025.64 2529.81 3027.43C2527.03 3029.04 2524.49 3031.01 2521.67 3032.57C2518.85 3034.16 2516.13 3035.85 2513.4 3037.59C2500.12 3046.37 2485.44 3053 2470.12 3058.09Z" fill="#B9AFBE"/>
<path d="M2731.07 3020.39C2712.49 2998.2 2698.21 2975.05 2683.8 2952.11C2676.49 2940.69 2669.08 2929.41 2661.41 2918.35C2653.89 2907.16 2645.91 2896.35 2637.56 2885.81C2603.91 2843.95 2560.23 2810.84 2511.25 2791.97C2486.77 2782.51 2460.88 2776.93 2434.59 2775.16L2414.79 2774.44L2394.33 2774.76C2380.73 2775.31 2367.17 2776.09 2353.79 2777.72C2327 2780.79 2300.61 2786.15 2276.08 2795.25C2251.53 2804.19 2228.93 2817.12 2211.2 2834.36C2193.35 2851.51 2181.21 2873.36 2175.92 2897.47C2170.59 2921.55 2171.43 2947.52 2177.05 2972.97C2178.25 2979.36 2180.15 2985.68 2181.83 2992.03L2184.81 3001.47L2185.56 3003.83C2185.81 3004.6 2186.03 3004.8 2186.24 3005.32C2186.67 3006.2 2187.05 3007.11 2187.4 3008.04C2191.84 3015.77 2200.73 3024.07 2210.89 3030.87C2231.47 3044.73 2256.73 3054.35 2282.29 3061.23C2333.81 3074.48 2389.04 3076.93 2440.75 3066C2466.49 3060.45 2491.79 3051.89 2513.4 3037.59C2516.13 3035.85 2518.85 3034.16 2521.67 3032.57C2524.49 3031.01 2527.03 3029.04 2529.81 3027.43C2532.49 3025.64 2535.35 3024.11 2538.09 3022.4C2540.75 3020.57 2543.44 3018.79 2546.24 3017.09C2552.03 3013.92 2557.29 3010.08 2563.56 3007.03C2569.73 3003.87 2575.64 3000.25 2583.23 2997.68L2583.96 2997.43C2587.69 2996.16 2591.75 2998.16 2593.01 3001.89C2593.48 3003.25 2593.51 3004.64 2593.19 3005.93C2589.27 3021.52 2580.96 3034.99 2570.37 3046.05C2565.07 3051.57 2559.41 3056.81 2553.17 3061.24C2547.2 3066.09 2540.52 3069.85 2533.85 3073.59C2527.23 3077.4 2520.08 3080.12 2513.24 3083.39C2506.13 3086.03 2499.2 3089.11 2492.08 3091.53C2484.95 3093.99 2477.88 3096.63 2470.61 3098.49C2463.41 3100.69 2456.13 3102.37 2448.81 3103.95C2390.17 3116.24 2329.84 3113.45 2272.4 3098.75C2243.72 3090.92 2215.44 3080.56 2189.12 3062.97C2176.13 3053.99 2163.11 3043.4 2153.36 3026.63L2150.21 3019.71C2149.76 3018.6 2149.13 3017.24 2148.84 3016.33L2147.99 3013.65L2144.6 3002.96C2142.67 2995.69 2140.53 2988.49 2139.11 2981.04C2132.64 2951.57 2131.21 2919.91 2138.08 2888.92C2144.77 2857.97 2161.2 2828.49 2184.07 2806.63C2206.81 2784.55 2234.37 2769.17 2262.65 2758.87C2290.99 2748.37 2320.24 2742.53 2349.36 2739.17C2363.95 2737.43 2378.52 2736.57 2393.07 2735.99C2400.33 2735.76 2407.59 2735.77 2414.85 2735.64L2437.28 2736.45C2467.19 2738.48 2497 2744.88 2525.07 2755.73C2553.17 2766.48 2579.52 2781.41 2603.41 2799.23C2627.39 2817.03 2648.4 2838.07 2668.16 2859.93C2687.72 2881.97 2705.25 2905.87 2718.67 2931.93C2732.33 2957.79 2742.88 2985.48 2743.33 3016.32C2743.39 3020.07 2740.41 3023.13 2736.67 3023.19C2734.56 3023.23 2732.67 3022.29 2731.4 3020.8L2731.07 3020.39Z" fill="#371A45"/>
<path d="M1758.12 3198.11H2663.15C2670.08 3197.37 2727.92 3189.72 2761.35 3136.57C2796.76 3080.24 2792.37 2989.4 2748.65 2873.87C2605.25 2494.96 2224.75 2211.4 1755.63 2133.83C1755.05 2133.73 1754.48 2133.61 1753.93 2133.48C1753.37 2133.61 1752.81 2133.73 1752.24 2133.83C1283.11 2211.4 902.613 2494.96 759.213 2873.87C715.493 2989.4 711.107 3080.24 746.52 3136.56C779.853 3189.6 837.493 3197.33 844.733 3198.11H1758.12ZM2664.81 3236.89L842.293 3236.83C838.933 3236.57 759.587 3229.57 714.053 3157.8C670.92 3089.83 673.907 2989.68 722.933 2860.15C871.2 2468.35 1263.19 2175.37 1745.91 2095.56C1748.67 2095.11 1751.39 2095.25 1753.93 2095.91C1756.48 2095.25 1759.2 2095.11 1761.96 2095.56C2244.68 2175.37 2636.67 2468.35 2784.93 2860.15C2833.96 2989.68 2836.93 3089.83 2793.81 3157.81C2748.28 3229.57 2668.93 3236.57 2665.57 3236.83L2664.81 3236.89Z" fill="#371A45"/>
<path d="M2534.63 1815.92C2525.68 1816.35 2518.08 1809.43 2517.67 1800.48L2495.69 1333.88C2495.27 1324.93 2502.17 1317.35 2511.12 1316.92C2604.99 1312.49 2684.65 1385 2689.07 1478.87L2696.57 1637.97C2700.99 1731.83 2628.48 1811.51 2534.63 1815.92Z" fill="white"/>
<path d="M2519.21 1320.21C2516.59 1320.21 2513.95 1320.28 2511.28 1320.4C2504.28 1320.73 2498.84 1326.71 2499.17 1333.72L2521.15 1800.32C2521.47 1807.33 2527.45 1812.72 2534.47 1812.44C2626.25 1808.12 2697.41 1729.92 2693.08 1638.13L2685.59 1479.03C2681.39 1389.89 2607.53 1320.21 2519.21 1320.21ZM2533.85 1819.43C2523.41 1819.43 2514.68 1811.19 2514.19 1800.65L2492.21 1334.04C2491.69 1323.2 2500.11 1313.95 2510.96 1313.44C2606.64 1308.92 2688.05 1383.07 2692.55 1478.69L2700.04 1637.81C2702.23 1684.13 2686.24 1728.53 2655.03 1762.83C2623.81 1797.13 2581.11 1817.23 2534.79 1819.4C2534.48 1819.41 2534.16 1819.43 2533.85 1819.43Z" fill="#371A45"/>
<path d="M2547.51 1795.27C2553.92 1766.59 2558.6 1737.48 2561.51 1708.05C2562.65 1699.24 2563.65 1690.4 2564.52 1681.49C2611.75 1671.77 2651.51 1642.6 2675.51 1603.01L2677.19 1638.88C2680.88 1717.25 2623.75 1784.67 2547.51 1795.27Z" fill="#B9AFBE"/>
<path d="M2515.21 1336.17L2536.88 1796.36C2618.37 1790.83 2681.05 1720.85 2677.19 1638.88L2669.69 1479.77C2665.84 1397.8 2596.73 1333.97 2515.21 1336.17ZM2533.84 1835.33C2514.97 1835.33 2499.19 1820.44 2498.29 1801.4L2476.31 1334.79C2475.39 1315.17 2490.6 1298.47 2510.2 1297.55C2614.53 1292.63 2703.53 1373.56 2708.45 1477.95L2715.95 1637.07C2720.85 1741.45 2639.93 1830.37 2535.53 1835.29C2534.97 1835.32 2534.4 1835.33 2533.84 1835.33Z" fill="#371A45"/>
<path d="M970.973 1389.45C979.92 1389.04 987.52 1395.95 987.933 1404.89L1009.91 1871.49C1010.33 1880.44 1003.43 1888.04 994.48 1888.45C900.613 1892.88 820.947 1820.37 816.533 1726.52L809.04 1567.4C804.613 1473.55 877.12 1393.88 970.973 1389.45Z" fill="white"/>
<path d="M971.134 1392.93C879.347 1397.25 808.187 1475.45 812.52 1567.24L820.014 1726.35C824.334 1818.13 902.48 1889.24 994.32 1884.97C1001.32 1884.64 1006.76 1878.67 1006.43 1871.65L984.454 1405.05C984.12 1398.04 978.014 1392.53 971.134 1392.93ZM986.387 1892.13C894.36 1892.13 817.414 1819.55 813.054 1726.68L805.56 1567.56C803.374 1521.24 819.36 1476.84 850.574 1442.55C881.787 1408.24 924.48 1388.16 970.814 1385.97C981.707 1385.45 990.907 1393.88 991.414 1404.72L1013.39 1871.33C1013.91 1882.19 1005.49 1891.43 994.64 1891.93C991.88 1892.07 989.12 1892.13 986.387 1892.13Z" fill="#371A45"/>
<path d="M982.227 1869.2C904.227 1867.04 839.627 1804.83 835.907 1725.6L834.28 1691.08C862.84 1725.25 904.52 1747.92 951.12 1751.67C958.6 1791.92 969.04 1831.19 982.227 1869.2Z" fill="#B9AFBE"/>
<path d="M968.72 1409.01C887.227 1414.55 824.546 1484.52 828.413 1566.49L835.907 1725.6C839.76 1807.57 908.773 1871.33 990.387 1869.2L968.72 1409.01ZM986.373 1908.04C885.92 1908.04 801.933 1828.8 797.146 1727.43L789.653 1568.32C784.747 1463.92 865.667 1375 970.067 1370.08C989.693 1369.23 1006.39 1384.36 1007.31 1403.97L1029.29 1870.59C1030.21 1890.2 1015 1906.91 995.4 1907.83C992.387 1907.97 989.36 1908.04 986.373 1908.04Z" fill="#371A45"/>
<path d="M2548.68 1621.73C2538.16 2061.23 2173.35 2408.99 1733.85 2398.47C1294.35 2387.95 946.587 2023.13 957.107 1583.64C967.627 1144.13 1332.44 796.387 1771.95 806.893C2211.44 817.413 2559.2 1182.23 2548.68 1621.73Z" fill="white"/>
<path d="M1752.4 810.146C1547.92 810.146 1354.6 887.44 1206.07 1029.04C1052.84 1175.09 965.667 1372.09 960.6 1583.72C950.147 2020.6 1297.07 2384.53 1733.93 2394.99C2170.71 2405.45 2534.73 2058.52 2545.2 1621.64L2548.68 1621.73L2545.2 1621.64C2550.27 1410.01 2472.61 1209.08 2326.55 1055.85C2180.48 902.627 1983.49 815.44 1771.85 810.387C1765.37 810.227 1758.87 810.146 1752.4 810.146ZM1753.17 2402.19C1746.69 2402.19 1740.28 2402.11 1733.76 2401.95C1293.05 2391.4 943.08 2024.27 953.627 1583.55C958.733 1370.07 1046.68 1171.33 1201.25 1023.99C1355.83 876.64 1558.52 798.373 1772.03 803.413C1985.52 808.52 2184.24 896.467 2331.59 1051.04C2478.93 1205.61 2557.28 1408.32 2552.16 1621.81C2541.77 2056.03 2185.17 2402.19 1753.17 2402.19Z" fill="#371A45"/>
<path d="M2548.68 1621.73H2548.75H2548.68ZM1752.41 826.067C1552.04 826.067 1362.59 901.8 1217.04 1040.55C1066.89 1183.68 981.467 1376.72 976.507 1584.11C966.254 2012.2 1306.21 2368.83 1734.32 2379.08C2162.31 2389.36 2519.04 2049.37 2529.29 1621.27C2539.53 1193.16 2199.59 836.533 1771.48 826.293C1765.12 826.133 1758.75 826.067 1752.41 826.067ZM1753.17 2418.09C1746.57 2418.09 1740.03 2418.01 1733.39 2417.85C1283.91 2407.11 926.96 2032.65 937.72 1583.17C948.48 1133.68 1322.67 776.8 1772.4 787.507C1990.15 792.72 2192.83 882.413 2343.11 1040.07C2493.39 1197.71 2573.28 1404.45 2568.07 1622.2C2557.47 2065.04 2193.77 2418.09 1753.17 2418.09Z" fill="#371A45"/>
<path d="M2545.65 1642.11C2544.28 1797.87 2492.44 1942.03 2404.91 2060.92C2339.28 2150.04 2071.4 2304.68 1742.29 2304.73C1437.13 2304.79 1160.95 2139.65 1096.91 2049.37C1011.49 1928.97 962.2 1783.91 963.587 1628.15C967.214 1215.96 1322.87 1048.2 1759.76 1052.07C2196.65 1055.92 2549.28 1229.92 2545.65 1642.11Z" fill="#371A45"/>
<path d="M2545.65 1642.11H2545.71H2545.65ZM1745.11 1071.39C1525.43 1071.39 1340.55 1115.89 1209.72 1200.39C1060.92 1296.48 984.627 1440.45 982.973 1628.32C981.68 1774.96 1026.55 1916.68 1112.73 2038.16C1173.93 2124.43 1444.05 2285.35 1742.16 2285.35H1742.29C2072.71 2285.28 2330.63 2129.08 2389.29 2049.41C2477.6 1929.48 2524.96 1788.57 2526.25 1641.93C2530.75 1133.19 1991.6 1073.51 1759.59 1071.45C1754.75 1071.41 1749.91 1071.39 1745.11 1071.39ZM1742.16 2324.13C1426.47 2324.13 1148.2 2155.2 1081.09 2060.6C990.16 1932.43 942.827 1782.83 944.187 1627.97C945.973 1426.24 1028.23 1271.41 1188.68 1167.79C1328.76 1077.33 1526.29 1030.48 1759.93 1032.67C1993.56 1034.73 2190.24 1084.93 2328.71 1177.85C2487.31 1284.28 2566.83 1440.55 2565.04 1642.28C2563.68 1797.12 2513.71 1945.87 2420.52 2072.41C2355.92 2160.16 2090.67 2324.07 1742.29 2324.13H1742.16Z" fill="#371A45"/>
<path d="M2276.79 1723.56C2272.11 1723.56 2267.4 1723.12 2262.71 1722.23C2207.33 1711.69 2174.23 1641.19 2188.77 1564.76C2202.09 1494.8 2250.71 1444.13 2301.32 1444.13C2306 1444.13 2310.71 1444.56 2315.39 1445.45C2360.15 1453.97 2390.35 1501.67 2392.61 1559.99C2386.32 1594.37 2378.07 1628.15 2367.96 1661.15C2345.88 1699.29 2311.81 1723.56 2276.79 1723.56Z" fill="#C3BAC7"/>
<path d="M2156.32 1925.57C2151.12 1925.57 2145.91 1924.75 2140.8 1923.01C2111.77 1913.19 2097.53 1877.79 2109 1843.97C2118.44 1816.09 2142.4 1797.99 2166.77 1797.99C2171.97 1797.99 2177.2 1798.81 2182.29 1800.53C2211.32 1810.37 2225.56 1845.76 2214.11 1879.59C2204.65 1907.45 2180.71 1925.57 2156.32 1925.57Z" fill="#C3BAC7"/>
<path d="M2268.76 2146.07H1904.97C2067.51 2080.92 2184.37 1997.27 2228.65 1937.11C2289.92 1853.91 2337.4 1760.95 2367.96 1661.15C2377.79 1644.19 2385.23 1624.47 2389.33 1602.93C2392.12 1588.27 2393.16 1573.83 2392.61 1559.99C2401.8 1509.77 2406.8 1458.19 2407.25 1405.57C2407.64 1364.45 2405.17 1325.2 2400.12 1287.76C2477.28 1370.73 2527.64 1484.93 2526.25 1641.93C2524.96 1788.57 2477.6 1929.48 2389.29 2049.41C2369.72 2076 2327.97 2111.09 2268.76 2146.07Z" fill="#2A1A3B"/>
<path d="M2305.77 2146.07H2268.76C2327.97 2111.09 2369.72 2076 2389.29 2049.41C2477.6 1929.48 2524.96 1788.57 2526.25 1641.93C2527.64 1484.93 2477.28 1370.73 2400.12 1287.76C2398.68 1277.09 2397.04 1266.59 2395.19 1256.21C2491.08 1349.35 2547.08 1476.53 2545.64 1642.08C2544.27 1797.88 2492.4 1942.03 2404.93 2060.92C2386.61 2085.8 2352.53 2115.77 2305.77 2146.07Z" fill="#2A1A3B"/>
<path d="M2367.96 1661.15C2378.07 1628.15 2386.32 1594.37 2392.61 1559.99C2393.16 1573.83 2392.12 1588.27 2389.33 1602.93C2385.23 1624.47 2377.79 1644.19 2367.96 1661.15Z" fill="#858290"/>
<path d="M2480.73 1299.43C2476.41 1299.43 2472.08 1297.97 2468.48 1295.01L2466.44 1293.33L2464.81 1291.08C2332.21 1101.65 2073.81 991.4 1755.88 988.586C1436.41 985.6 1176.08 1094.95 1042.32 1288.12L1041.33 1289.41C1034.53 1297.69 1022.25 1298.92 1013.99 1292.11C1005.96 1285.49 1004.57 1273.83 1010.73 1265.59C1152.01 1061.95 1423.95 946.8 1756.21 949.8C2086.64 952.72 2356.36 1068.85 2496.31 1268.44C2501.49 1275.44 2501.49 1285.32 2495.72 1292.33C2491.88 1297 2486.32 1299.43 2480.73 1299.43Z" fill="#371A45"/>
<path d="M1139.07 1874.93C1139.07 1874.93 1014.99 1467.17 1235.56 1307.07C1395.76 1190.79 1605.91 1160.77 1706.07 1160.77C1743.81 1160.77 1765.93 1165.03 1763.87 1170.55C1763.87 1170.55 1414.08 1251.97 1275.08 1526.71C1167.88 1738.56 1139.07 1874.93 1139.07 1874.93Z" fill="#C3BAC7"/>
<path d="M193.834 3368.17C258.812 3357.89 323.79 3355.43 388.771 3354.16C421.254 3353.47 453.747 3353.33 486.24 3353.51C518.734 3353.45 551.214 3353.93 583.707 3354.27C648.68 3354.88 713.667 3355.03 778.64 3354.93H973.587H1753.33H2533.08H2922.96L3020.43 3354.89L3069.16 3354.41L3117.89 3353.59C3182.88 3353.36 3247.85 3353.96 3312.84 3368.17C3316.49 3368.97 3318.81 3372.59 3318.01 3376.25C3317.43 3378.92 3315.33 3380.87 3312.84 3381.43C3247.85 3395.65 3182.88 3396.24 3117.89 3396.01L3069.16 3395.19L3020.43 3394.71L2922.96 3394.68H2533.08H1753.33H973.587H778.64C713.667 3394.57 648.68 3394.73 583.707 3395.33C551.214 3395.67 518.734 3396.15 486.24 3396.09C453.747 3396.27 421.254 3396.13 388.771 3395.44C323.79 3394.17 258.812 3391.71 193.834 3381.43C190.174 3380.85 187.678 3377.41 188.258 3373.75C188.722 3370.81 191.043 3368.63 193.834 3368.17Z" fill="#371A45"/>
<path d="M3009.4 3366.99H497.266C456.653 3366.99 423.72 3334.07 423.72 3293.44V3291.05C423.72 3250.43 456.653 3217.49 497.266 3217.49H3009.4C3050.01 3217.49 3082.95 3250.43 3082.95 3291.05V3293.44C3082.95 3334.07 3050.01 3366.99 3009.4 3366.99Z" fill="#F92323"/>
<path d="M497.267 3220.29C458.253 3220.29 426.52 3252.04 426.52 3291.04V3293.44C426.52 3332.45 458.253 3364.2 497.267 3364.2H3009.39C3048.41 3364.2 3080.15 3332.45 3080.15 3293.44V3291.04C3080.15 3252.04 3048.41 3220.29 3009.39 3220.29H497.267ZM3009.39 3369.8H497.267C455.173 3369.8 420.92 3335.55 420.92 3293.44V3291.04C420.92 3248.95 455.173 3214.69 497.267 3214.69H3009.39C3051.49 3214.69 3085.75 3248.95 3085.75 3291.04V3293.44C3085.75 3335.55 3051.49 3369.8 3009.39 3369.8Z" fill="#371A45"/>
<path d="M497.266 3236.89C467.413 3236.89 443.106 3261.19 443.106 3291.04V3293.44C443.106 3323.31 467.413 3347.6 497.266 3347.6H3009.39C3039.25 3347.6 3063.55 3323.31 3063.55 3293.44V3291.04C3063.55 3261.19 3039.25 3236.89 3009.39 3236.89H497.266ZM3009.39 3386.39H497.266C446.013 3386.39 404.322 3344.69 404.322 3293.44V3291.04C404.322 3239.8 446.013 3198.11 497.266 3198.11H3009.39C3060.64 3198.11 3102.35 3239.8 3102.35 3291.04V3293.44C3102.35 3344.69 3060.64 3386.39 3009.39 3386.39Z" fill="#371A45"/>
<path d="M475.08 3340.09C457.467 3331.81 445.16 3313.51 445.16 3292.24C445.16 3263.24 468.013 3239.64 496.093 3239.64H735.254H911.027H1962.47C1946.19 3245.37 1925.77 3251.77 1900.49 3258.52H913.333C902.187 3271.29 866.08 3280.67 823.133 3280.67C780.2 3280.67 744.093 3271.29 732.933 3258.52H517.547C489.453 3258.52 466.613 3282.12 466.613 3311.12C466.613 3321.83 469.733 3331.79 475.08 3340.09Z" fill="#FC9191"/>
<path d="M2464.07 3211.52H1041.69C977.147 3211.52 924.813 3159.19 924.813 3094.64V3088.67H2580.95V3094.64C2580.95 3159.19 2528.63 3211.52 2464.07 3211.52Z" fill="#C5D3E2"/>
<path d="M2464.07 3192.12H2422.6C2429.48 3185.76 2435.67 3178.72 2441.05 3171.09H2464.07C2501.6 3171.09 2535.05 3153.36 2556.44 3125.81C2543.41 3164.32 2506.92 3192.12 2464.07 3192.12ZM1084.07 3192.12H1041.69C998.84 3192.12 962.36 3164.32 949.333 3125.8C950.893 3127.81 952.506 3129.77 954.2 3131.68C965.48 3158.04 987.853 3178.24 1015.17 3185.96C1006.24 3178.87 998.56 3170.17 992.56 3160.28C1007.51 3167.23 1024.16 3171.09 1041.72 3171.09H1065.61C1071 3178.72 1077.19 3185.76 1084.07 3192.12Z" fill="#9392AB"/>
<path d="M945.147 3108.07C951.707 3155.48 992.507 3192.12 1041.69 3192.12H2464.07C2513.27 3192.12 2554.07 3155.48 2560.63 3108.07H945.147ZM2464.07 3230.91H1041.69C966.56 3230.91 905.427 3169.77 905.427 3094.63V3069.28H2600.35V3094.63C2600.35 3169.77 2539.21 3230.91 2464.07 3230.91Z" fill="#371A45"/>
<path d="M992.56 3160.28C977.866 3153.45 964.813 3143.67 954.2 3131.68C951.373 3125.08 949.24 3118.09 947.906 3110.81H1042.77L1042.95 3112.24C1043.56 3117.41 1044.47 3122.48 1045.68 3127.43H999.466C989.186 3127.43 982.146 3138.35 986.293 3148.07C988.106 3152.31 990.2 3156.39 992.56 3160.28Z" fill="#E8EDF3"/>
<path d="M1015.17 3185.96C987.854 3178.24 965.48 3158.04 954.2 3131.68C964.814 3143.67 977.867 3153.45 992.56 3160.28C998.56 3170.17 1006.24 3178.87 1015.17 3185.96Z" fill="#D4D3DD"/>
<path d="M2553.25 3127.43H2460.99C2462.2 3122.48 2463.11 3117.41 2463.72 3112.24L2463.89 3110.81H2557.87C2556.81 3116.56 2555.24 3122.11 2553.25 3127.43Z" fill="#E8EDF3"/>
<path d="M2325.36 3210.24H1181.31C1120.24 3210.24 1068.95 3167.05 1062.2 3109.97L965.36 2290.65C957.466 2223.87 1013.03 2165.47 1084.47 2165.47H2422.21C2493.64 2165.47 2549.2 2223.87 2541.31 2290.65L2444.47 3109.97C2437.72 3167.05 2386.41 3210.24 2325.36 3210.24Z" fill="#3AAAFF"/>
<path d="M1753.96 2838.09C1715.67 2838.09 1678.69 2817.21 1660.09 2781.71C1631.36 2726.87 1655.47 2660.12 1711.24 2635.72C1725.01 2629.71 1739.37 2626.85 1753.51 2626.85C1761.01 2626.85 1768.45 2627.65 1775.71 2629.21C1782.6 2630.69 1783.6 2640.12 1777.13 2642.93L1776.92 2643.03C1738.43 2659.87 1721.89 2706.03 1741.97 2743.81C1754.83 2767.97 1780.16 2782.15 1806.33 2782.15C1815.37 2782.15 1824.51 2780.45 1833.27 2776.91C1833.51 2776.81 1833.73 2776.72 1833.96 2776.61C1835.03 2776.17 1836.08 2775.97 1837.08 2775.97C1842.75 2775.97 1846.96 2782.33 1843.56 2787.85C1832.11 2806.53 1814.73 2821.84 1792.68 2830.65C1780.07 2835.69 1766.93 2838.09 1753.96 2838.09Z" fill="#B0DDFF"/>
<path d="M2321.88 2404.55C2307.53 2390.67 2293.55 2377.16 2279.52 2363.6C2279.48 2363.24 2279.52 2362.81 2279.52 2362.43C2293.4 2362 2307.32 2361.61 2321.39 2361.2C2323.36 2376.11 2323.23 2390.07 2321.88 2404.55ZM2317.99 2427.55C2313.44 2445.32 2306.44 2461.92 2295.09 2476.52C2286.33 2487.72 2275.91 2497.23 2264.75 2505.95C2234.47 2529.63 2200.93 2547.85 2166.31 2564.21C2164.61 2564.99 2163.52 2565.07 2162.11 2563.61C2159.04 2560.4 2155.68 2557.36 2152.47 2554.21C2152.25 2554.04 2152.15 2553.72 2151.79 2553.12C2152.6 2552.24 2153.49 2551.35 2154.37 2550.43C2172.67 2531.43 2191.08 2512.45 2209.39 2493.4C2214.68 2487.96 2213.76 2480.12 2207.55 2476.45C2203.2 2473.87 2198.11 2474.68 2194.15 2478.71C2183.13 2490.08 2172.15 2501.47 2161.16 2512.88C2152.96 2521.36 2144.83 2529.8 2136.32 2538.63C2132.36 2534.81 2128.57 2531.35 2125.08 2527.64C2124.48 2526.97 2124.69 2525.03 2125.23 2524C2133.77 2505.88 2142.21 2487.68 2151.27 2469.77C2160.2 2452 2170.87 2435.21 2183.03 2419.45C2194.4 2404.59 2207.12 2391.05 2223.55 2381.65C2234.08 2375.61 2245.17 2370.91 2256.91 2367.84C2257.96 2367.52 2259.69 2368.37 2260.61 2369.25C2275.09 2383.11 2289.44 2396.99 2303.83 2410.91C2308.13 2415.04 2312.41 2419.28 2316.83 2423.35C2318.13 2424.57 2318.45 2425.75 2317.99 2427.55ZM2254.81 2559.44C2252.77 2572.65 2246.76 2584.07 2238.85 2594.63C2228.99 2607.64 2216.8 2618.05 2203.41 2627.92C2199.84 2610.19 2196.31 2592.83 2192.84 2575.84C2213.55 2563.96 2233.8 2552.37 2254.15 2540.72C2255.88 2546.55 2255.81 2553.01 2254.81 2559.44ZM2111.91 2499.2C2095.57 2496.48 2078.65 2493.65 2061.27 2490.76C2075.65 2469.99 2091.37 2451.36 2114.76 2440.97C2124.87 2436.49 2137.09 2434.89 2144.72 2436.73C2133.88 2457.44 2123 2478.15 2111.91 2499.2ZM2344.11 2378.19C2343.72 2367.48 2343.51 2356.64 2339.83 2346.25C2338.73 2345.23 2337.71 2344.16 2336.61 2343.13C2333.4 2342.51 2330.21 2341.52 2326.93 2341.2C2303.76 2338.8 2280.79 2339.92 2258.11 2345.36C2228.53 2352.47 2202.43 2365.85 2181.65 2388.47C2174.12 2396.63 2167.48 2405.57 2160.63 2414.29C2158.79 2416.67 2157.27 2417.76 2154.05 2416.84C2146.49 2414.69 2138.65 2414.4 2130.84 2415.19C2109.92 2417.37 2092.4 2426.88 2076.75 2440.33C2059.79 2454.96 2047.07 2473.01 2035.55 2492.03C2030.64 2500.08 2034.17 2507.72 2043.53 2509.37C2049.43 2510.36 2055.33 2511.32 2061.24 2512.31C2075.37 2514.64 2089.47 2516.93 2103.56 2519.27C2103.6 2519.69 2103.67 2519.91 2103.64 2520.12C2103.56 2520.4 2103.49 2520.72 2103.35 2521C2098.83 2529.05 2101.2 2535.52 2108.05 2540.89C2108.79 2541.49 2109.47 2542.24 2110.13 2542.91C2113.84 2546.51 2117.63 2550.15 2121.55 2553.89C2117.59 2558.03 2113.63 2561.63 2110.28 2565.76C2108.57 2567.85 2107.24 2570.71 2106.88 2573.4C2106.25 2577.75 2109.04 2581.67 2113.07 2583.29C2117.35 2585.05 2121.37 2584.35 2124.63 2581.17C2128.76 2577.17 2132.64 2572.93 2136.81 2568.63C2142.15 2573.83 2147.2 2578.73 2152.25 2583.57C2158.04 2589.08 2161.55 2589.65 2168.75 2586.44C2170.05 2585.8 2171.36 2585.31 2172.92 2584.67C2173.27 2586.25 2173.59 2587.53 2173.84 2588.73C2177.72 2608.03 2181.55 2627.35 2185.53 2646.57C2187.4 2655.68 2195.32 2658.93 2203.03 2653.75C2209.99 2649.08 2216.91 2644.2 2223.65 2639.12C2239.2 2627.35 2252.91 2613.75 2262.95 2596.89C2275.49 2575.69 2280.83 2553.33 2273.08 2529.03C2272.77 2528.07 2273.33 2526.27 2274.11 2525.63C2280.93 2519.63 2288 2513.91 2294.81 2507.85C2310.23 2494.15 2321.77 2477.61 2329.91 2458.71C2340.96 2433.03 2345.13 2406.03 2344.11 2378.19Z" fill="#371A45"/>
<path d="M2284.11 2452.77C2270.08 2467.08 2247.25 2467.55 2233.01 2453.73C2218.71 2439.95 2218.36 2417.12 2232.2 2402.68C2245.81 2388.51 2268.67 2388.19 2283.01 2401.97C2297.21 2415.68 2297.75 2438.81 2284.11 2452.77ZM2316.83 2423.35C2312.41 2419.28 2308.13 2415.04 2303.83 2410.91C2289.44 2396.99 2275.09 2383.11 2260.61 2369.25C2259.69 2368.37 2257.96 2367.52 2256.91 2367.84C2245.17 2370.91 2234.08 2375.61 2223.55 2381.65C2207.12 2391.05 2194.4 2404.59 2183.03 2419.45C2170.87 2435.21 2160.2 2452 2151.27 2469.77C2142.21 2487.68 2133.77 2505.88 2125.23 2524C2124.69 2525.03 2124.48 2526.97 2125.08 2527.64C2128.57 2531.35 2132.36 2534.81 2136.32 2538.63C2144.83 2529.8 2152.96 2521.36 2161.16 2512.88C2172.15 2501.47 2183.13 2490.08 2194.15 2478.71C2198.11 2474.68 2203.2 2473.87 2207.55 2476.45C2213.76 2480.12 2214.68 2487.96 2209.39 2493.4C2191.08 2512.45 2172.67 2531.43 2154.37 2550.43C2153.49 2551.35 2152.6 2552.24 2151.79 2553.12C2152.15 2553.72 2152.25 2554.04 2152.47 2554.21C2155.68 2557.36 2159.04 2560.4 2162.11 2563.61C2163.52 2565.07 2164.61 2564.99 2166.31 2564.21C2200.93 2547.85 2234.47 2529.63 2264.75 2505.95C2275.91 2497.23 2286.33 2487.72 2295.09 2476.52C2306.44 2461.92 2313.44 2445.32 2317.99 2427.55C2318.45 2425.75 2318.13 2424.57 2316.83 2423.35Z" fill="white"/>
<path d="M2321.88 2404.53C2307.53 2390.68 2293.53 2377.16 2279.51 2363.6C2279.49 2363.23 2279.52 2362.83 2279.51 2362.43C2293.4 2362.03 2307.32 2361.63 2321.4 2361.2C2323.37 2376.09 2323.21 2390.05 2321.88 2404.53Z" fill="#DB2C2C"/>
<path d="M2144.73 2436.73C2133.87 2457.43 2122.99 2478.15 2111.92 2499.21C2095.56 2496.47 2078.64 2493.65 2061.27 2490.77C2075.67 2469.97 2091.37 2451.35 2114.77 2440.97C2124.87 2436.48 2137.08 2434.89 2144.73 2436.73Z" fill="#DB2C2C"/>
<path d="M2238.83 2594.64C2228.97 2607.64 2216.8 2618.08 2203.4 2627.92C2199.83 2610.19 2196.31 2592.84 2192.84 2575.84C2213.55 2563.97 2233.79 2552.39 2254.16 2540.71C2255.89 2546.55 2255.8 2553 2254.83 2559.45C2252.79 2572.67 2246.77 2584.08 2238.83 2594.64Z" fill="#DB2C2C"/>
<path d="M2271.47 2441.23C2264.36 2448.51 2252.35 2448.68 2244.89 2441.61C2237.19 2434.33 2237.12 2421.93 2244.72 2414.29C2251.81 2407.09 2264.08 2407.01 2271.32 2414.16C2278.88 2421.57 2278.92 2433.59 2271.47 2441.23ZM2283.01 2401.97C2268.67 2388.19 2245.81 2388.51 2232.21 2402.68C2218.36 2417.12 2218.71 2439.95 2233.01 2453.73C2247.25 2467.55 2270.08 2467.08 2284.11 2452.77C2297.75 2438.81 2297.21 2415.68 2283.01 2401.97Z" fill="#371A45"/>
<path d="M2271.45 2441.23C2264.35 2448.49 2252.33 2448.68 2244.88 2441.6C2237.2 2434.33 2237.12 2421.93 2244.71 2414.31C2251.83 2407.11 2264.07 2407.03 2271.31 2414.15C2278.87 2421.57 2278.93 2433.6 2271.45 2441.23Z" fill="#22A7F0"/>
<path d="M2295.77 3189.04H1181.31C1148.67 3189.04 1119.69 3173.81 1102.84 3150.33C1111.33 3156.11 1120.87 3160.64 1131.11 3163.67C1123.69 3152.55 1118.73 3139.81 1117.11 3126.05L1116.44 3120.41C1683.03 3097.75 2002.49 2858.63 2181.49 2626.83C2182.83 2633.41 2184.17 2640 2185.53 2646.57C2186.8 2652.73 2190.83 2656.21 2195.69 2656.21C2198.01 2656.23 2200.53 2655.43 2203.03 2653.75C2209.99 2649.08 2216.91 2644.2 2223.65 2639.12C2239.2 2627.35 2252.91 2613.75 2262.95 2596.89C2275.49 2575.69 2280.83 2553.33 2273.08 2529.03C2272.77 2528.07 2273.33 2526.27 2274.11 2525.63C2280.93 2519.63 2288 2513.91 2294.81 2507.85C2310.23 2494.15 2321.77 2477.61 2329.91 2458.71C2340.96 2433.03 2345.13 2406.03 2344.11 2378.19C2343.79 2369.65 2343.6 2361.03 2341.67 2352.6C2368.95 2288.53 2384.84 2236.69 2393.73 2206.37H2433.55C2446.23 2211.96 2457.52 2220.2 2466.53 2230.72C2481.75 2248.45 2488.67 2270.56 2486.01 2292.95L2389.16 3112.27C2384 3156.03 2343.84 3189.04 2295.77 3189.04ZM2203.41 2627.92C2203.41 2627.91 2203.41 2627.91 2203.41 2627.91C2205.61 2626.29 2207.79 2624.65 2209.92 2623C2207.79 2624.65 2205.61 2626.29 2203.41 2627.92ZM2225.25 2609.83C2230.13 2605.12 2234.69 2600.11 2238.83 2594.64C2240.11 2592.95 2241.32 2591.24 2242.49 2589.49C2241.33 2591.24 2240.12 2592.95 2238.85 2594.63C2234.71 2600.11 2230.15 2605.12 2225.25 2609.83ZM2235.12 2551.63V2551.61C2239.6 2549.05 2244.07 2546.49 2248.55 2543.92C2244.07 2546.49 2239.6 2549.05 2235.12 2551.63ZM2321.88 2404.55C2321.03 2403.72 2320.19 2402.91 2319.35 2402.09V2402.08C2320.19 2402.91 2321.03 2403.72 2321.88 2404.53C2322.16 2401.43 2322.4 2398.35 2322.57 2395.28V2395.27C2322.4 2398.35 2322.17 2401.44 2321.88 2404.55Z" fill="#3978BE"/>
<path d="M2195.69 2656.21C2190.83 2656.21 2186.8 2652.73 2185.53 2646.57C2184.17 2640 2182.83 2633.41 2181.49 2626.83C2187.35 2619.24 2193.04 2611.68 2198.59 2604.13C2200.19 2611.99 2201.79 2619.91 2203.4 2627.92C2203.4 2627.91 2203.4 2627.91 2203.41 2627.91C2203.41 2627.91 2203.41 2627.91 2203.41 2627.92C2205.61 2626.29 2207.79 2624.65 2209.92 2623C2215.29 2618.81 2220.44 2614.47 2225.25 2609.83C2230.15 2605.12 2234.71 2600.11 2238.85 2594.63C2240.12 2592.95 2241.33 2591.24 2242.49 2589.49C2248.6 2580.37 2253.11 2570.56 2254.83 2559.45C2255.8 2553 2255.89 2546.55 2254.16 2540.71C2252.29 2541.77 2250.41 2542.85 2248.55 2543.92C2244.07 2546.49 2239.6 2549.05 2235.12 2551.61C2244.92 2536.71 2254.16 2521.97 2262.88 2507.4C2263.51 2506.92 2264.12 2506.44 2264.75 2505.95C2275.91 2497.23 2286.33 2487.72 2295.09 2476.52C2306.44 2461.92 2313.44 2445.32 2317.99 2427.55C2318.12 2427.04 2318.19 2426.59 2318.19 2426.16C2318.2 2425.08 2317.76 2424.23 2316.83 2423.35C2315.03 2421.68 2313.24 2420 2311.47 2418.29C2314.17 2412.84 2316.79 2407.43 2319.35 2402.09C2320.19 2402.91 2321.03 2403.72 2321.88 2404.55C2322.17 2401.44 2322.4 2398.35 2322.57 2395.27C2329.48 2380.55 2335.83 2366.31 2341.67 2352.6C2343.6 2361.03 2343.79 2369.65 2344.11 2378.19C2345.13 2406.03 2340.96 2433.03 2329.91 2458.71C2321.77 2477.61 2310.23 2494.15 2294.81 2507.85C2288 2513.91 2280.93 2519.63 2274.11 2525.63C2273.33 2526.27 2272.77 2528.07 2273.08 2529.03C2280.83 2553.33 2275.49 2575.69 2262.95 2596.89C2252.91 2613.75 2239.2 2627.35 2223.65 2639.12C2216.91 2644.2 2209.99 2649.08 2203.03 2653.75C2200.53 2655.43 2198.01 2656.23 2195.69 2656.21Z" fill="#371A45"/>
<path d="M2262.88 2507.4C2281.32 2476.61 2297.43 2446.72 2311.47 2418.29C2313.24 2420 2315.03 2421.68 2316.83 2423.35C2317.76 2424.23 2318.2 2425.08 2318.19 2426.16C2318.19 2426.59 2318.12 2427.04 2317.99 2427.55C2313.44 2445.32 2306.44 2461.92 2295.09 2476.52C2286.33 2487.72 2275.91 2497.23 2264.75 2505.95C2264.12 2506.44 2263.51 2506.92 2262.88 2507.4Z" fill="#B9AFBE"/>
<path d="M2321.88 2404.53C2321.03 2403.72 2320.19 2402.91 2319.35 2402.08C2320.43 2399.8 2321.51 2397.53 2322.57 2395.28C2322.4 2398.35 2322.16 2401.43 2321.88 2404.53Z" fill="#A22635"/>
<path d="M2203.4 2627.92C2201.79 2619.91 2200.19 2611.99 2198.59 2604.13C2211.55 2586.51 2223.71 2568.99 2235.12 2551.63C2239.6 2549.05 2244.07 2546.49 2248.55 2543.92C2250.41 2542.85 2252.29 2541.77 2254.16 2540.71C2255.89 2546.55 2255.8 2553 2254.83 2559.45C2253.11 2570.56 2248.6 2580.37 2242.49 2589.49C2241.32 2591.24 2240.11 2592.95 2238.83 2594.64C2234.69 2600.11 2230.13 2605.12 2225.25 2609.83C2220.44 2614.47 2215.29 2618.81 2209.92 2623C2207.79 2624.65 2205.61 2626.29 2203.41 2627.91C2203.4 2627.91 2203.4 2627.91 2203.4 2627.92Z" fill="#A22635"/>
<path d="M1102.84 3150.33C1099.68 3148.19 1096.65 3145.87 1093.79 3143.39C1087.29 3132.68 1083 3120.61 1081.47 3107.68L984.613 2288.37C981.64 2263.11 989.586 2238.39 1007 2218.79C1026.16 2197.23 1054.4 2184.85 1084.47 2184.85H2422.21C2442.43 2184.85 2461.81 2190.45 2478.19 2200.68C2478.61 2201.16 2479.04 2201.65 2479.47 2202.13C2481.84 2204.92 2483.97 2207.83 2485.96 2210.8C2476.35 2207.96 2466.23 2206.37 2455.83 2206.37H2433.55C2422.03 2201.28 2409.36 2198.37 2396.2 2197.92L2396.25 2197.73C2395.48 2200.37 2394.64 2203.27 2393.73 2206.37H1118.08C1087.79 2206.37 1059.63 2218.96 1040.81 2240.91C1024.76 2259.64 1017.45 2283.01 1020.27 2306.72L1116.44 3120.41C1107.56 3120.76 1098.56 3121.07 1089.55 3121.32C1092.05 3131.88 1096.61 3141.67 1102.84 3150.33Z" fill="#B0DDFF"/>
<path d="M1131.11 3163.67C1120.87 3160.64 1111.33 3156.11 1102.84 3150.33C1096.61 3141.67 1092.05 3131.88 1089.55 3121.32C1098.56 3121.07 1107.56 3120.76 1116.44 3120.41L1117.11 3126.05C1118.73 3139.81 1123.69 3152.55 1131.11 3163.67ZM2433.55 2206.37H2393.73C2394.64 2203.27 2395.48 2200.37 2396.25 2197.73L2396.2 2197.92C2409.36 2198.37 2422.03 2201.28 2433.55 2206.37Z" fill="#B0C9E5"/>
<path d="M1084.47 2184.85C1054.4 2184.85 1026.16 2197.23 1007 2218.79C989.587 2238.39 981.64 2263.11 984.613 2288.37L1081.47 3107.68C1087.07 3155.09 1129.99 3190.84 1181.31 3190.84H2325.36C2376.68 3190.84 2419.6 3155.09 2425.2 3107.68L2522.05 2288.37C2525.03 2263.11 2517.09 2238.39 2499.67 2218.79C2480.49 2197.23 2452.27 2184.85 2422.21 2184.85H1084.47ZM2325.36 3229.63H1181.31C1110.33 3229.63 1050.85 3179.16 1042.95 3112.24L946.093 2292.93C941.787 2256.51 953.12 2221.01 978 2193.03C1004.52 2163.19 1043.33 2146.07 1084.47 2146.07H2422.21C2463.33 2146.07 2502.13 2163.19 2528.67 2193.03C2553.55 2221.01 2564.88 2256.51 2560.57 2292.93L2463.72 3112.24C2455.81 3179.16 2396.33 3229.63 2325.36 3229.63Z" fill="#371A45"/>
<path d="M3009.39 3347.6H497.267C488.613 3347.6 480.413 3345.56 473.146 3341.92C607.173 3345.75 729.68 3347.45 842.106 3347.45C1450.32 3347.44 1755.61 3297.23 1900.49 3258.52H3032.01C3039.52 3258.52 3046.61 3260.25 3053.04 3263.27C3043.91 3249.05 3028.29 3239.64 3010.57 3239.64H1962.47C1965.12 3238.71 1967.68 3237.79 1970.12 3236.89H3009.39C3039.25 3236.89 3063.55 3261.19 3063.55 3291.04V3293.44C3063.55 3323.31 3039.25 3347.6 3009.39 3347.6Z" fill="#B5202F"/>
<path d="M3010.57 3366.99H536.213L461.253 3341.57C465.186 3341.69 469.213 3341.81 473.146 3341.92C480.413 3345.56 488.613 3347.6 497.266 3347.6H3009.39C3039.25 3347.6 3063.55 3323.31 3063.55 3293.44V3291.04C3063.55 3261.19 3039.25 3236.89 3009.39 3236.89H1970.12C1975.85 3234.79 1981.01 3232.79 1985.61 3230.91H2464.07C2485.17 3230.91 2505.16 3226.09 2523.01 3217.49H3010.57C3050.55 3217.49 3082.95 3250.96 3082.95 3292.24C3082.95 3333.53 3050.55 3366.99 3010.57 3366.99Z" fill="#371A45"/>
<path d="M3053.04 3263.27C3046.61 3260.25 3039.52 3258.52 3032.01 3258.52H1900.49C1925.77 3251.77 1946.19 3245.37 1962.47 3239.64H3010.57C3028.29 3239.64 3043.91 3249.05 3053.04 3263.27Z" fill="#B76776"/>
<path d="M2464.07 3230.91H1985.61C1986.68 3230.48 1987.71 3230.05 1988.72 3229.63H2325.36C2346.16 3229.63 2365.96 3225.31 2383.77 3217.49H2523.01C2505.16 3226.09 2485.17 3230.91 2464.07 3230.91Z" fill="#371A45"/>
<path d="M2325.36 3229.63H1988.72C2001.48 3224.31 2009.65 3220.11 2014.28 3217.49H2383.77C2365.96 3225.31 2346.16 3229.63 2325.36 3229.63Z" fill="#371A45"/>
<path d="M1306.81 2693.75H1232.2C1205.43 2693.75 1183.72 2672.04 1183.72 2645.27V2398.93C1183.72 2372.16 1205.43 2350.45 1232.2 2350.45H1306.81C1333.59 2350.45 1355.29 2372.16 1355.29 2398.93V2645.27C1355.29 2672.04 1333.59 2693.75 1306.81 2693.75Z" fill="#57B7FF"/>
<path d="M1846.6 2763.57C1846.84 2763.48 1847.07 2763.39 1847.29 2763.28C1854.33 2760.35 1860.89 2768.01 1856.89 2774.52C1845.44 2793.2 1828.07 2808.51 1806.01 2817.32C1756.17 2837.23 1698.32 2815.92 1673.43 2768.37C1644.69 2713.53 1668.8 2646.79 1724.57 2622.39C1745.67 2613.17 1768.13 2611.37 1789.04 2615.88C1795.93 2617.37 1796.93 2626.79 1790.47 2629.6L1790.25 2629.69C1751.76 2646.53 1735.23 2692.69 1755.31 2730.48C1772.6 2762.99 1812.49 2777.41 1846.6 2763.57Z" fill="#371A45"/>
<path d="M2899.68 1217.88C2894.51 1217.88 2889.39 1215.87 2885.53 1212.01C2879.11 1205.59 2877.83 1195.64 2882.41 1187.79L2939.13 1090.63C2952.13 1068.35 2949.39 1040.67 2932.29 1021.73C2875.69 959.027 2844.15 877.987 2843.49 793.547C2842.03 605.507 2993.71 449.573 3181.61 445.96C3183.89 445.907 3186.15 445.893 3188.41 445.893C3281.57 445.893 3368.88 482.467 3434.24 548.867C3499.59 615.267 3534.76 703.173 3533.29 796.4C3530.32 983.507 3375.59 1135.73 3188.37 1135.73H3185.4C3156.11 1135.48 3127 1131.52 3098.89 1123.97C3094.21 1122.72 3089.36 1122.08 3084.49 1122.08C3074.47 1122.08 3064.55 1124.77 3055.8 1129.88L2909.76 1215.15C2906.61 1216.99 2903.15 1217.88 2899.68 1217.88Z" fill="#F92323"/>
<path d="M3188.41 425.893C3186.01 425.893 3183.64 425.907 3181.23 425.96C2982.43 429.787 2821.95 594.76 2823.49 793.707C2824.19 883.053 2857.56 968.787 2917.44 1035.13C2928.68 1047.57 2930.45 1065.83 2921.87 1080.53L2865.13 1177.71C2855.97 1193.4 2858.55 1213.31 2871.39 1226.16C2879.11 1233.87 2889.35 1237.88 2899.69 1237.88C2906.6 1237.88 2913.56 1236.09 2919.85 1232.41L3065.88 1147.16C3071.57 1143.84 3078 1142.08 3084.49 1142.08C3087.61 1142.08 3090.71 1142.49 3093.71 1143.29C3123.45 1151.28 3154.24 1155.45 3185.23 1155.72L3188.37 1155.73C3386.45 1155.73 3550.15 994.68 3553.28 796.72C3554.85 698.08 3517.63 605.08 3448.49 534.84C3379.33 464.587 3286.97 425.893 3188.41 425.893ZM3188.41 465.893C3369.6 465.893 3516.17 614.227 3513.29 796.08C3510.49 972.693 3364.67 1115.73 3188.37 1115.73C3187.44 1115.73 3186.51 1115.73 3185.57 1115.72C3157.4 1115.48 3130.09 1111.64 3104.08 1104.65C3097.63 1102.93 3091.05 1102.08 3084.49 1102.08C3070.99 1102.08 3057.59 1105.68 3045.72 1112.61L2899.68 1197.88L2956.41 1100.71C2973.67 1071.16 2970.07 1033.73 2947.13 1008.33C2895.69 951.333 2864.13 876.067 2863.49 793.387C2862.12 616.373 3005 469.36 3182 465.947C3184.15 465.907 3186.28 465.893 3188.41 465.893Z" fill="#371A45"/>
<path d="M2899.68 1197.88L2956.41 1100.71C2966.05 1084.2 2969.17 1065.24 2966.07 1047.28C2964.79 1039.85 2962.43 1032.6 2959.03 1025.76C2955.92 1019.53 2951.96 1013.67 2947.13 1008.33C2946.35 1007.45 2945.56 1006.57 2944.79 1005.69C2981.72 1037.19 3033.4 1057.77 3107.25 1057.77C3141.71 1057.77 3181 1053.29 3225.87 1043.36C3367.99 1010.56 3475.95 883.707 3478.35 732.013C3479.05 687.187 3470.64 644.427 3454.92 605.4C3455.4 605.973 3455.87 606.547 3456.35 607.12C3465 619.707 3472.77 632.947 3479.61 646.733C3479.75 646.987 3479.88 647.227 3480 647.48C3481.6 650.72 3483.13 654.013 3484.63 657.307C3485.05 658.267 3485.48 659.227 3485.89 660.173C3487.29 663.347 3488.65 666.533 3489.95 669.747C3490.28 670.573 3490.59 671.4 3490.91 672.227C3493.19 678.04 3495.29 683.933 3497.25 689.893C3497.75 691.427 3498.28 692.933 3498.75 694.467C3499.55 697.04 3500.28 699.627 3501.01 702.213C3501.64 704.427 3502.25 706.627 3502.83 708.853C3503.45 711.24 3504.05 713.627 3504.61 716.04C3505.25 718.76 3505.85 721.507 3506.43 724.253C3506.84 726.267 3507.29 728.267 3507.68 730.293C3508.55 734.933 3509.33 739.613 3510 744.32C3510.23 745.853 3510.39 747.4 3510.59 748.933C3511.04 752.467 3511.45 756.027 3511.8 759.613C3511.97 761.413 3512.12 763.227 3512.25 765.04C3512.53 768.573 3512.76 772.12 3512.92 775.693C3513 777.307 3513.08 778.933 3513.13 780.56C3513.29 785.707 3513.37 790.88 3513.29 796.08C3513.2 801.56 3512.97 806.987 3512.61 812.387C3512.49 814.227 3512.28 816.027 3512.12 817.853C3511.83 821.4 3511.55 824.96 3511.15 828.48C3510.89 830.653 3510.53 832.8 3510.24 834.947C3509.8 838.093 3509.4 841.24 3508.88 844.347C3508.51 846.627 3508.01 848.88 3507.59 851.147C3507.03 854.08 3506.51 857.04 3505.87 859.947C3505.35 862.293 3504.75 864.6 3504.17 866.92C3503.49 869.707 3502.85 872.507 3502.11 875.28C3501.45 877.64 3500.73 879.973 3500.04 882.32C3499.24 884.987 3498.48 887.667 3497.61 890.307C3496.85 892.68 3496 895.013 3495.17 897.347C3494.28 899.92 3493.4 902.493 3492.44 905.04C3491.55 907.387 3490.57 909.707 3489.63 912.04C3488.63 914.507 3487.64 916.987 3486.57 919.427C3485.56 921.76 3484.47 924.053 3483.4 926.36C3482.31 928.733 3481.21 931.12 3480.05 933.467C3478.92 935.773 3477.71 938.053 3476.52 940.333C3475.33 942.6 3474.15 944.88 3472.91 947.12C3471.64 949.4 3470.31 951.653 3468.99 953.907C3467.72 956.08 3466.45 958.253 3465.13 960.387C3463.73 962.64 3462.29 964.853 3460.85 967.08C3459.51 969.147 3458.16 971.2 3456.77 973.24C3455.25 975.453 3453.69 977.64 3452.12 979.813C3450.71 981.773 3449.28 983.733 3447.83 985.667C3446.19 987.84 3444.51 989.987 3442.81 992.12C3441.33 993.96 3439.85 995.813 3438.35 997.627C3436.57 999.76 3434.77 1001.85 3432.95 1003.93C3431.43 1005.69 3429.88 1007.43 3428.32 1009.15C3426.43 1011.21 3424.51 1013.25 3422.56 1015.28C3420.99 1016.92 3419.4 1018.56 3417.79 1020.16C3415.77 1022.17 3413.72 1024.16 3411.67 1026.12C3410.04 1027.65 3408.41 1029.17 3406.76 1030.68C3404.63 1032.63 3402.45 1034.55 3400.27 1036.44C3398.63 1037.87 3396.95 1039.28 3395.27 1040.67C3393 1042.55 3390.72 1044.4 3388.4 1046.21C3386.73 1047.53 3385.04 1048.83 3383.33 1050.12C3380.95 1051.92 3378.53 1053.69 3376.09 1055.43C3374.4 1056.64 3372.68 1057.83 3370.96 1059C3368.45 1060.72 3365.92 1062.41 3363.36 1064.07C3361.65 1065.17 3359.93 1066.24 3358.2 1067.31C3355.56 1068.93 3352.91 1070.55 3350.21 1072.11C3348.51 1073.09 3346.77 1074.05 3345.05 1075.01C3342.28 1076.55 3339.51 1078.07 3336.68 1079.53C3334.99 1080.41 3333.25 1081.25 3331.55 1082.11C3328.64 1083.55 3325.72 1084.96 3322.77 1086.32C3321.11 1087.09 3319.4 1087.81 3317.71 1088.56C3314.67 1089.89 3311.61 1091.21 3308.53 1092.45C3306.88 1093.11 3305.23 1093.72 3303.57 1094.36C3300.39 1095.59 3297.19 1096.79 3293.96 1097.91C3292.36 1098.47 3290.75 1098.96 3289.15 1099.49C3285.8 1100.6 3282.47 1101.68 3279.08 1102.68C3277.56 1103.12 3276 1103.52 3274.47 1103.95C3270.97 1104.92 3267.47 1105.88 3263.92 1106.73C3262.49 1107.08 3261.04 1107.36 3259.6 1107.69C3255.92 1108.52 3252.23 1109.35 3248.49 1110.05C3247.21 1110.31 3245.91 1110.49 3244.61 1110.72C3240.71 1111.41 3236.77 1112.08 3232.81 1112.64C3231.76 1112.79 3230.68 1112.88 3229.61 1113.01C3225.4 1113.56 3221.17 1114.07 3216.91 1114.44C3216.21 1114.51 3215.51 1114.53 3214.81 1114.59C3210.16 1114.97 3205.51 1115.29 3200.8 1115.47C3196.52 1115.64 3192.21 1115.73 3187.88 1115.73C3187.65 1115.73 3187.41 1115.73 3187.17 1115.73C3186.64 1115.73 3186.11 1115.73 3185.57 1115.72C3175.88 1115.64 3166.29 1115.13 3156.83 1114.21C3138.77 1112.47 3121.15 1109.24 3104.08 1104.65C3097.63 1102.93 3091.05 1102.08 3084.49 1102.08C3070.99 1102.08 3057.59 1105.68 3045.72 1112.61L2899.68 1197.88ZM2944.79 1005.69C2940.13 1000.43 2935.65 995.013 2931.35 989.453C2931.33 989.44 2931.33 989.427 2931.33 989.427C2935.64 994.987 2940.13 1000.43 2944.79 1005.69ZM2931.33 989.427C2928.93 986.32 2926.59 983.173 2924.31 979.987C2926.59 983.173 2928.92 986.307 2931.32 989.4C2931.32 989.4 2931.32 989.413 2931.33 989.427ZM2929.23 984.467C2919.59 968.867 2911.24 952.387 2904.31 935.173C2906.88 938.253 2909.51 941.28 2912.19 944.253C2912.37 944.467 2922.83 969.32 2929.23 984.467Z" fill="#CA2432"/>
<path d="M3187.17 1115.73C3186.64 1115.73 3186.11 1115.73 3185.57 1115.73C3175.88 1115.64 3166.29 1115.13 3156.83 1114.21C3166.29 1115.13 3175.88 1115.64 3185.57 1115.72C3186.11 1115.73 3186.64 1115.73 3187.17 1115.73ZM2966.07 1047.28C2964.79 1039.85 2962.43 1032.6 2959.03 1025.76C2962.43 1032.6 2964.79 1039.85 2966.07 1047.28ZM2944.79 1005.69C2941.08 1002.53 2937.53 999.28 2934.12 995.907C2934.07 995.84 2932.99 993.333 2931.35 989.453C2935.65 995.013 2940.13 1000.43 2944.79 1005.69Z" fill="#2F1D4E"/>
<path d="M3205.88 957.467C3196 957.467 3186.72 953.614 3179.73 946.64L3070.2 837.093C3031.39 798.28 3031.39 735.12 3070.21 696.293C3087.37 679.133 3110.12 669.907 3134.79 669.907C3137.04 669.907 3139.32 669.987 3141.6 670.133C3165.16 671.747 3187.73 681.373 3205.88 697.413C3226.43 679.267 3251.88 670.067 3276.63 670.067C3300.64 670.067 3324 678.733 3341.56 696.293C3380.37 735.107 3380.37 798.28 3341.56 837.093L3232.03 946.64C3225.04 953.614 3215.76 957.467 3205.88 957.467Z" fill="#FC9191"/>
<path d="M2937.32 996.92C2935.29 994.44 2933.28 991.933 2931.32 989.4C2930.69 987.933 2929.99 986.267 2929.23 984.467C2931.84 988.68 2934.53 992.84 2937.32 996.92ZM2924.31 979.987C2889.95 932.16 2868.25 874.64 2864.19 812.28C2864.19 812.28 2864.19 812.28 2864.19 812.267C2864.17 812.133 2864.16 812 2864.16 811.867C2864.16 811.84 2864.15 811.826 2864.15 811.813C2864.15 811.68 2864.13 811.56 2864.13 811.426C2864.12 811.4 2864.12 811.386 2864.12 811.346C2864.12 811.24 2864.11 811.12 2864.11 811C2864.09 810.96 2864.09 810.92 2864.09 810.867C2864.09 810.773 2864.08 810.666 2864.08 810.56C2864.07 810.506 2864.07 810.466 2864.07 810.413C2864.05 810.306 2864.05 810.2 2864.05 810.107C2864.04 810.053 2864.04 810 2864.04 809.947C2864.03 809.84 2864.03 809.76 2864.03 809.653C2864.01 809.587 2864.01 809.533 2864.01 809.467C2864 809.373 2864 809.293 2864 809.2C2863.99 809.133 2863.99 809.053 2863.99 808.973C2863.97 808.907 2863.97 808.826 2863.97 808.746C2863.96 808.666 2863.96 808.573 2863.96 808.493C2863.95 808.426 2863.95 808.36 2863.95 808.293C2863.95 808.186 2863.93 808.093 2863.93 808C2863.93 807.933 2863.92 807.88 2863.92 807.826C2863.92 807.693 2863.91 807.56 2863.91 807.426C2863.91 807.413 2863.89 807.386 2863.89 807.36C2863.88 807.053 2863.87 806.733 2863.85 806.413C2863.85 806.4 2863.85 806.373 2863.85 806.346C2863.84 806.227 2863.84 806.08 2863.83 805.947C2863.83 805.92 2863.83 805.88 2863.83 805.853C2863.81 805.72 2863.81 805.6 2863.81 805.467C2863.81 805.44 2863.8 805.413 2863.8 805.387C2863.8 805.253 2863.79 805.133 2863.79 805C2863.79 804.973 2863.79 804.933 2863.79 804.907C2863.77 804.787 2863.77 804.653 2863.77 804.533C2863.76 804.493 2863.76 804.453 2863.76 804.426C2863.76 804.293 2863.76 804.187 2863.75 804.053C2863.75 804.013 2863.75 803.986 2863.75 803.96C2863.73 803.826 2863.73 803.693 2863.73 803.573C2863.73 803.547 2863.73 803.52 2863.72 803.493C2863.72 803.346 2863.72 803.227 2863.71 803.08C2863.71 803.066 2863.71 803.04 2863.71 803.026C2863.71 802.893 2863.69 802.747 2863.69 802.6C2863.69 802.587 2863.69 802.56 2863.69 802.546C2863.68 802.386 2863.68 802.253 2863.68 802.093V802.08C2863.64 800.96 2863.6 799.84 2863.57 798.72C2863.57 798.707 2863.57 798.706 2863.57 798.693C2863.57 798.546 2863.57 798.387 2863.56 798.24C2863.56 798.227 2863.56 798.213 2863.56 798.2C2863.56 798.053 2863.56 797.92 2863.56 797.773C2863.56 797.747 2863.56 797.72 2863.56 797.693C2863.55 797.56 2863.55 797.426 2863.55 797.293C2863.55 797.266 2863.55 797.24 2863.55 797.213C2863.55 797.093 2863.55 796.96 2863.53 796.84C2863.53 796.8 2863.53 796.76 2863.53 796.72C2863.53 796.6 2863.53 796.48 2863.53 796.346C2863.53 796.32 2863.53 796.28 2863.53 796.253C2863.52 796.133 2863.52 796 2863.52 795.88C2863.52 795.84 2863.52 795.8 2863.52 795.773C2863.52 795.653 2863.52 795.52 2863.52 795.4C2863.52 795.36 2863.52 795.333 2863.52 795.293C2863.51 795.173 2863.51 795.04 2863.51 794.92C2863.51 794.88 2863.51 794.853 2863.51 794.826C2863.51 794.68 2863.51 794.56 2863.51 794.426C2863.51 794.4 2863.51 794.373 2863.51 794.346C2863.51 794.2 2863.49 794.053 2863.49 793.92C2863.49 793.907 2863.49 793.88 2863.49 793.867C2863.49 793.707 2863.49 793.56 2863.49 793.387C2863.48 792.533 2863.48 791.667 2863.48 790.8C2863.51 614.947 3005.87 469.346 3182 465.947C3184.15 465.906 3186.27 465.893 3188.4 465.893C3299.79 465.893 3398.05 521.973 3456.59 607.413C3456.51 607.32 3456.43 607.213 3456.35 607.12C3455.76 606.267 3455.17 605.413 3454.59 604.573C3454.69 604.853 3454.8 605.12 3454.92 605.4C3395.31 534.347 3305.88 489.187 3205.88 489.187C3203.75 489.187 3201.61 489.213 3199.47 489.253C3022.48 492.653 2879.59 639.68 2880.97 816.693C2881.29 858.56 2889.55 898.52 2904.31 935.173C2898.33 928.027 2892.68 920.613 2887.32 912.973V912.987C2888.53 915.987 2889.81 918.933 2891.12 921.88L2891.05 921.8C2900.15 942.4 2911.32 961.893 2924.31 979.987Z" fill="#FC9191"/>
<path d="M2864.19 812.28V812.267C2864.19 812.28 2864.19 812.28 2864.19 812.28ZM2864.16 811.867C2864.16 811.84 2864.15 811.826 2864.15 811.813C2864.15 811.826 2864.16 811.84 2864.16 811.867ZM2864.13 811.426C2864.12 811.4 2864.12 811.373 2864.12 811.346C2864.12 811.386 2864.12 811.4 2864.13 811.426ZM2864.11 811C2864.09 810.96 2864.09 810.92 2864.09 810.867C2864.09 810.92 2864.09 810.96 2864.11 811ZM2864.08 810.56C2864.07 810.506 2864.07 810.453 2864.07 810.413C2864.07 810.466 2864.07 810.506 2864.08 810.56ZM2864.05 810.107C2864.04 810.053 2864.04 810 2864.04 809.946C2864.04 810 2864.04 810.053 2864.05 810.107ZM2864.03 809.653C2864.01 809.6 2864.01 809.52 2864.01 809.467C2864.01 809.533 2864.01 809.587 2864.03 809.653ZM2864 809.2C2863.99 809.133 2863.99 809.053 2863.99 808.973C2863.99 809.053 2863.99 809.133 2864 809.2ZM2863.97 808.746C2863.96 808.666 2863.96 808.573 2863.96 808.493C2863.96 808.573 2863.96 808.666 2863.97 808.746ZM2863.95 808.293C2863.95 808.186 2863.93 808.093 2863.93 808C2863.93 808.093 2863.95 808.186 2863.95 808.293ZM2863.92 807.826C2863.92 807.693 2863.91 807.56 2863.91 807.426C2863.91 807.56 2863.92 807.693 2863.92 807.826ZM2863.89 807.36C2863.88 807.04 2863.87 806.733 2863.85 806.413C2863.87 806.733 2863.88 807.053 2863.89 807.36ZM2863.85 806.346C2863.84 806.226 2863.84 806.08 2863.83 805.946C2863.84 806.08 2863.84 806.226 2863.85 806.346ZM2863.83 805.853C2863.81 805.733 2863.81 805.6 2863.81 805.467C2863.81 805.6 2863.81 805.72 2863.83 805.853ZM2863.8 805.387C2863.8 805.253 2863.79 805.12 2863.79 805C2863.79 805.133 2863.8 805.253 2863.8 805.387ZM2863.79 804.907C2863.77 804.787 2863.77 804.653 2863.77 804.533C2863.77 804.653 2863.77 804.787 2863.79 804.907ZM2863.76 804.426C2863.76 804.293 2863.76 804.173 2863.75 804.053C2863.76 804.187 2863.76 804.293 2863.76 804.426ZM2863.75 803.96C2863.73 803.826 2863.73 803.693 2863.73 803.573C2863.73 803.693 2863.73 803.826 2863.75 803.96ZM2863.72 803.493C2863.72 803.36 2863.72 803.213 2863.71 803.08C2863.72 803.226 2863.72 803.346 2863.72 803.493ZM2863.71 803.026C2863.71 802.88 2863.69 802.747 2863.69 802.6C2863.69 802.747 2863.71 802.893 2863.71 803.026ZM2863.69 802.546C2863.68 802.386 2863.68 802.253 2863.68 802.093C2863.68 802.253 2863.68 802.386 2863.69 802.546ZM2863.68 802.08C2863.64 800.96 2863.6 799.84 2863.57 798.72C2863.6 799.84 2863.64 800.96 2863.68 802.08ZM2863.57 798.693C2863.57 798.546 2863.57 798.387 2863.56 798.24C2863.57 798.387 2863.57 798.546 2863.57 798.693ZM2863.56 798.2C2863.56 798.053 2863.56 797.92 2863.56 797.773C2863.56 797.92 2863.56 798.053 2863.56 798.2ZM2863.56 797.693C2863.55 797.56 2863.55 797.426 2863.55 797.293C2863.55 797.426 2863.55 797.56 2863.56 797.693ZM2863.55 797.213C2863.55 797.093 2863.55 796.96 2863.53 796.84C2863.55 796.96 2863.55 797.093 2863.55 797.213ZM2863.53 796.72C2863.53 796.6 2863.53 796.48 2863.53 796.346C2863.53 796.48 2863.53 796.6 2863.53 796.72ZM2863.53 796.253C2863.52 796.12 2863.52 796 2863.52 795.88C2863.52 796 2863.52 796.133 2863.53 796.253ZM2863.52 795.773C2863.52 795.653 2863.52 795.52 2863.52 795.4C2863.52 795.52 2863.52 795.653 2863.52 795.773ZM2863.52 795.293C2863.51 795.173 2863.51 795.053 2863.51 794.92C2863.51 795.04 2863.51 795.173 2863.52 795.293ZM2863.51 794.826C2863.51 794.693 2863.51 794.56 2863.51 794.426C2863.51 794.56 2863.51 794.68 2863.51 794.826ZM2863.51 794.346C2863.51 794.2 2863.49 794.053 2863.49 793.92C2863.49 794.053 2863.51 794.2 2863.51 794.346ZM2863.49 793.867C2863.49 793.707 2863.49 793.56 2863.49 793.4C2863.48 792.533 2863.48 791.667 2863.48 790.8C2863.48 791.667 2863.48 792.533 2863.49 793.387C2863.49 793.56 2863.49 793.707 2863.49 793.867Z" fill="#9B8DA2"/>
<path d="M2931.32 989.4C2928.92 986.307 2926.59 983.173 2924.31 979.987C2911.32 961.893 2900.15 942.4 2891.05 921.8L2891.12 921.88C2889.81 918.933 2888.53 915.987 2887.32 912.987V912.973C2892.68 920.613 2898.33 928.027 2904.31 935.173C2911.24 952.387 2919.59 968.867 2929.23 984.467C2929.99 986.267 2930.69 987.933 2931.32 989.4ZM3456.35 607.12C3455.87 606.547 3455.4 605.973 3454.92 605.4C3454.8 605.12 3454.69 604.853 3454.59 604.573C3455.17 605.413 3455.76 606.267 3456.35 607.12Z" fill="#E59299"/>
<path d="M3063.03 689.12C3096.23 655.92 3150.04 661.866 3183.24 695.066L3188.41 700.226L3193.57 695.066C3226.77 661.866 3280.59 655.92 3313.79 689.12C3346.99 722.306 3346.99 776.133 3313.79 809.333L3308.63 814.493L3204.25 918.866C3195.51 927.613 3181.32 927.613 3172.56 918.866L3068.2 814.493L3063.03 809.333C3029.83 776.133 3029.83 722.306 3063.03 689.12Z" fill="white"/>
<path d="M3063.03 689.12H3063.09H3063.03ZM3117.68 680.44C3100.81 680.44 3084.6 686.413 3072.45 698.547C3058.92 712.08 3051.47 730.08 3051.47 749.227C3051.47 768.36 3058.92 786.36 3072.45 799.907L3181.99 909.44C3185.53 912.973 3191.28 912.973 3194.83 909.44L3304.36 799.893C3332.31 771.96 3332.31 726.493 3304.36 698.547C3278.05 672.24 3232.59 674.907 3203 704.493L3197.84 709.653C3192.64 714.867 3184.19 714.867 3178.99 709.653L3173.81 704.493C3157.88 688.56 3137.35 680.44 3117.68 680.44ZM3188.41 938.747C3179.25 938.747 3170.11 935.267 3163.13 928.293L3053.6 818.76C3035.03 800.187 3024.8 775.493 3024.8 749.227C3024.8 722.96 3035.03 698.267 3053.6 679.693C3089.03 644.267 3148.37 645.52 3188.41 681.587C3228.44 645.52 3287.8 644.267 3323.21 679.693C3361.56 718.027 3361.56 780.413 3323.21 818.76L3213.68 928.293C3206.72 935.253 3197.56 938.747 3188.41 938.747Z" fill="#371A45"/>
<path d="M1743.33 3548.72C780.533 3548.72 0 3493.91 0 3426.36C0 3407.39 61.72 3389.35 171.923 3373.33H188.336C188.305 3373.47 188.279 3373.61 188.257 3373.75C187.677 3377.41 190.173 3380.85 193.833 3381.43C258.812 3391.71 323.789 3394.17 388.771 3395.44C412.879 3395.96 436.987 3396.16 461.093 3396.16C469.48 3396.16 477.853 3396.15 486.24 3396.09C487.893 3396.09 489.547 3396.09 491.213 3396.09C522.04 3396.09 552.88 3395.65 583.707 3395.33C636.867 3394.84 690.013 3394.65 743.187 3394.65C755 3394.65 766.827 3394.65 778.64 3394.68H973.587H1753.33H2533.08H2922.96L3020.43 3394.71L3069.16 3395.19L3117.89 3396.01C3123.44 3396.03 3128.99 3396.04 3134.52 3396.04C3193.96 3396.04 3253.4 3394.43 3312.84 3381.43C3315.33 3380.87 3317.43 3378.92 3318.01 3376.25C3318.19 3375.43 3318.21 3374.61 3318.09 3373.83C3426.2 3389.72 3486.67 3407.57 3486.67 3426.36C3486.67 3493.91 2706.13 3548.72 1743.33 3548.72Z" fill="#C3BAC7"/>
<path d="M461.094 3396.16C436.987 3396.16 412.879 3395.96 388.771 3395.44C323.79 3394.17 258.812 3391.71 193.834 3381.43C190.174 3380.85 187.678 3377.41 188.258 3373.75C188.279 3373.61 188.306 3373.47 188.336 3373.33H449.8C463.707 3381.63 479.947 3386.39 497.267 3386.39H3009.39C3026.72 3386.39 3042.96 3381.63 3056.85 3373.33H3314.75C3315.87 3373.49 3316.99 3373.65 3318.09 3373.83C3318.21 3374.61 3318.19 3375.43 3318.01 3376.25C3317.43 3378.92 3315.33 3380.87 3312.84 3381.43C3253.4 3394.43 3193.96 3396.04 3134.52 3396.04C3128.99 3396.04 3123.44 3396.03 3117.89 3396.01L3069.16 3395.19L3020.43 3394.71L2922.96 3394.68H2533.08H1753.33H973.587H778.64C766.827 3394.65 755 3394.65 743.187 3394.65C690.014 3394.65 636.867 3394.84 583.707 3395.33C552.88 3395.65 522.04 3396.09 491.214 3396.09C489.547 3396.09 487.894 3396.09 486.24 3396.09C477.854 3396.15 469.48 3396.16 461.094 3396.16Z" fill="#371A45"/>
<path d="M3009.39 3386.39H497.266C479.946 3386.39 463.706 3381.63 449.8 3373.33H3056.85C3042.96 3381.63 3026.72 3386.39 3009.39 3386.39Z" fill="#371A45"/>
<path d="M729.36 2096.24L682.453 2103.48C673.066 2104.93 665.693 2112.31 664.24 2121.71L657 2168.6L649.76 2121.71C648.306 2112.31 640.933 2104.93 631.533 2103.48L584.64 2096.24L631.533 2089C640.933 2087.55 648.306 2080.17 649.76 2070.77L657 2023.88L664.24 2070.77C665.693 2080.17 673.066 2087.55 682.453 2089L729.36 2096.24Z" fill="#FFF2BD"/>
<path d="M543.213 2405.44L499.2 2412.24C490.387 2413.6 483.467 2420.52 482.107 2429.33L475.32 2473.33L468.52 2429.33C467.16 2420.52 460.24 2413.6 451.427 2412.24L407.423 2405.44L451.427 2398.64C460.24 2397.28 467.16 2390.37 468.52 2381.55L475.32 2337.55L482.107 2381.55C483.467 2390.37 490.387 2397.28 499.2 2398.64L543.213 2405.44Z" fill="#FFF2BD"/>
<path d="M394.496 1868.85L361.681 1873.92C355.107 1874.95 349.947 1880.09 348.932 1886.68L343.865 1919.49L338.799 1886.68C337.783 1880.09 332.624 1874.95 326.049 1873.92L293.233 1868.85L326.049 1863.79C332.624 1862.77 337.783 1857.61 338.799 1851.04L343.865 1818.23L348.932 1851.04C349.947 1857.61 355.107 1862.77 361.681 1863.79L394.496 1868.85Z" fill="#FFF2BD"/>
<path d="M3166.12 1974.48L3214.29 1981.92C3223.95 1983.41 3231.53 1990.99 3233.01 2000.64L3240.45 2048.83L3247.89 2000.64C3249.39 1990.99 3256.96 1983.41 3266.61 1981.92L3314.8 1974.48L3266.61 1967.04C3256.96 1965.55 3249.39 1957.97 3247.89 1948.32L3240.45 1900.15L3233.01 1948.32C3231.53 1957.97 3223.95 1965.55 3214.29 1967.04L3166.12 1974.48Z" fill="#FFF2BD"/>
<path d="M2876.27 2284.49L2921.48 2291.48C2930.53 2292.88 2937.64 2299.99 2939.04 2309.04L2946.03 2354.24L2953 2309.04C2954.4 2299.99 2961.51 2292.88 2970.56 2291.48L3015.77 2284.49L2970.56 2277.52C2961.51 2276.12 2954.4 2269.01 2953 2259.95L2946.03 2214.75L2939.04 2259.95C2937.64 2269.01 2930.53 2276.12 2921.48 2277.52L2876.27 2284.49Z" fill="#FFF2BD"/>
<path d="M2979.64 1712.01L3013.36 1717.23C3020.11 1718.27 3025.41 1723.56 3026.45 1730.32L3031.65 1764.03L3036.87 1730.32C3037.91 1723.56 3043.2 1718.27 3049.96 1717.23L3083.67 1712.01L3049.96 1706.81C3043.2 1705.77 3037.91 1700.47 3036.87 1693.71L3031.65 1660L3026.45 1693.71C3025.41 1700.47 3020.11 1705.77 3013.36 1706.81L2979.64 1712.01Z" fill="#FFF2BD"/>
<path d="M908.307 792.693L871.56 798.36C864.2 799.493 858.427 805.266 857.294 812.626L851.614 849.373L845.947 812.626C844.8 805.266 839.027 799.493 831.667 798.36L794.934 792.693L831.667 787.013C839.027 785.88 844.8 780.106 845.947 772.746L851.614 736L857.294 772.746C858.427 780.106 864.2 785.88 871.56 787.013L908.307 792.693Z" fill="#FFF2BD"/>
<path d="M646.56 1088.35L608.44 1094.23C600.8 1095.41 594.8 1101.4 593.613 1109.04L587.734 1147.17L581.84 1109.04C580.667 1101.4 574.667 1095.41 567.027 1094.23L528.894 1088.35L567.027 1082.45C574.667 1081.28 580.667 1075.28 581.84 1067.64L587.734 1029.51L593.613 1067.64C594.8 1075.28 600.8 1081.28 608.44 1082.45L646.56 1088.35Z" fill="#FFF2BD"/>
<path d="M2368.89 566.026L2405.64 571.693C2413 572.826 2418.77 578.6 2419.91 585.96L2425.59 622.707L2431.25 585.96C2432.39 578.6 2438.17 572.826 2445.53 571.693L2482.27 566.026L2445.53 560.346C2438.17 559.213 2432.39 553.44 2431.25 546.08L2425.59 509.333L2419.91 546.08C2418.77 553.44 2413 559.213 2405.64 560.346L2368.89 566.026Z" fill="#FFF2BD"/>
</svg>
