<svg viewBox="0 0 181 181" fill="none" xmlns="http://www.w3.org/2000/svg">
<path d="M100.04 171.95C90.7494 171.169 81.3384 168.828 72.2508 164.991C70.5063 164.255 68.7746 163.463 67.0573 162.617C55.6456 156.994 45.9834 149.46 38.4736 140.864C39.2758 140.789 40.0457 140.429 40.6275 139.812C47.4145 146.456 55.4932 152.167 64.5271 156.619C74.4569 161.512 84.889 164.562 95.2095 165.68C95.6166 166.386 96.0488 167.077 96.5089 167.754C97.4878 169.196 98.5941 170.572 99.8885 171.81C99.9386 171.857 99.9887 171.903 100.04 171.95ZM114.934 171.837L115.371 171.4C115.532 171.231 115.674 171.041 115.826 170.861C116.14 170.51 116.381 170.099 116.646 169.707C117.113 168.885 117.523 168.017 117.748 167.1C117.941 166.367 118.069 165.619 118.115 164.875C118.596 164.784 119.075 164.689 119.553 164.589C137.232 160.883 150.813 151.038 157.796 136.866L156.77 136.36C156.77 136.359 156.77 136.359 156.77 136.359L157.796 136.866C158.639 135.156 159.373 133.408 159.999 131.628L160.287 131.399L160.559 131.179L160.809 130.939L161.308 130.458C161.62 130.122 161.917 129.774 162.209 129.425C162.476 129.056 162.752 128.709 163.006 128.32C163.249 127.915 163.509 127.524 163.697 127.08C163.918 126.656 164.063 126.193 164.217 125.735C164.285 125.504 164.328 125.262 164.382 125.026C164.443 124.79 164.469 124.548 164.492 124.306C164.561 123.822 164.543 123.335 164.533 122.851L164.454 122.132C164.428 121.893 164.365 121.663 164.32 121.428C164.006 120.022 163.402 118.753 162.67 117.601C163.048 108.512 160.979 99.0007 156.479 89.6505C155.096 86.7754 153.511 83.9747 151.74 81.2663C166.289 100.207 170.803 123.358 161.365 142.512C154.274 156.902 140.502 166.894 122.585 170.651C120.07 171.178 117.518 171.573 114.934 171.837Z" fill="#7489BC"/>
<path d="M160.769 124.231C160.145 127.657 159.14 131.018 157.735 134.271C157.432 134.973 157.111 135.669 156.77 136.359C149.818 150.467 136.323 159.712 120.048 163.309C114.169 164.608 107.926 165.172 101.501 164.96C89.6053 164.569 77.0745 161.523 65.0331 155.589C56.0943 151.185 48.2518 145.595 41.7116 139.244C36.614 134.295 32.3063 128.882 28.8859 123.21C18.7592 106.402 16.4236 87.3021 24.3922 71.1312C38.5002 42.4975 79.5732 33.885 116.127 51.8992C147.709 67.4618 165.586 97.8015 160.769 124.231Z" fill="#F92323"/>
<path d="M92.7518 163.067C83.5833 161.768 74.3605 158.912 65.5391 154.565C56.8529 150.285 49.2165 144.868 42.8223 138.713C44.6584 137.774 46.5045 136.534 48.2999 135.058C54.3392 140.501 61.3738 145.311 69.2657 149.2C71.1762 150.141 73.0997 151.01 75.0302 151.807C76.0385 152.223 77.0553 152.614 78.0792 152.98C71.124 152.482 66.694 151.457 66.694 151.457C71.0067 152.582 75.1118 153.419 79.0159 154.003C79.0524 154.043 79.0896 154.083 79.1268 154.121L80.0592 155.072C80.3611 155.399 80.7103 155.669 81.0345 155.97C81.6806 156.576 82.3855 157.103 83.0781 157.646C83.4187 157.926 83.7894 158.159 84.1486 158.411L85.2319 159.155C87.6305 160.688 90.16 161.965 92.7518 163.067ZM119.934 162.164C119.569 159.603 118.472 156.919 117.099 154.39C117.781 154.191 118.459 153.979 119.135 153.754C130.369 150.017 139.856 143.348 146.148 134.048C148.343 135.167 150.596 135.893 152.751 135.894C153.88 135.894 154.982 135.694 156.036 135.248C155.94 135.45 155.842 135.653 155.742 135.855C149.189 149.154 136.493 158.473 119.934 162.164ZM160.414 114.73C160.235 114.538 160.054 114.35 159.869 114.165C159.51 101.335 154.163 88.1112 144.856 76.6107C144.19 75.5038 143.491 74.4068 142.759 73.3206C147.503 78.6343 151.44 84.459 154.416 90.6435C158.29 98.6936 160.293 106.857 160.414 114.73ZM158.756 113.11C158.594 112.965 158.431 112.821 158.266 112.68C157.606 112.11 156.924 111.569 156.223 111.056C155.639 110.63 155.066 110.23 154.442 109.836C154.326 109.406 154.205 108.977 154.079 108.548C154.182 101.78 152.918 94.8818 150.428 88.1491C155.11 96.1676 157.981 104.683 158.756 113.11ZM24.5305 108.964L22.934 106.842C21.6396 102.336 20.9104 97.7891 20.7881 93.2882C21.1702 93.3312 21.5552 93.3526 21.9394 93.3526C22.8618 93.3526 23.7848 93.2288 24.6822 92.9813C24.9226 96.0331 25.5093 99.0707 26.4274 102.03C26.8653 103.441 27.3576 104.849 27.9029 106.248C27.8149 106.251 27.7269 106.256 27.6388 106.267C26.9326 106.352 26.3015 106.708 25.8628 107.267L24.5305 108.964Z" fill="#B5202F"/>
<path d="M77.0924 43.6157C71.9826 43.6157 66.9522 44.1201 62.0771 45.1419C45.1026 48.7011 32.0831 58.11 25.4183 71.6355C11.6105 99.6574 29.6087 136.859 65.539 154.564C82.99 163.162 102.006 165.927 119.083 162.347C136.059 158.788 149.077 149.379 155.742 135.853C162.408 122.327 161.937 106.271 154.416 90.6421C146.851 74.9192 133.073 61.5246 115.622 52.9251C103.152 46.7806 89.8815 43.6157 77.0924 43.6157ZM104.072 166.163C90.9305 166.163 77.3135 162.918 64.5272 156.618C46.6189 147.794 32.468 134.021 24.6813 117.84C16.8493 101.563 16.3814 84.7953 23.364 70.6237C30.3471 56.4528 43.9284 46.6074 61.607 42.9015C79.1825 39.2171 98.7251 42.0472 116.633 50.8714C134.542 59.6957 148.693 73.4673 156.479 89.6496C164.312 105.926 164.779 122.694 157.796 136.865L156.769 136.359L157.796 136.865C150.813 151.037 137.232 160.882 119.554 164.588C114.526 165.642 109.336 166.163 104.072 166.163Z" fill="#371A45"/>
<path d="M150.428 88.1487C142.819 75.1177 130.426 63.4033 114.483 55.5472C112.827 54.7307 111.156 53.9672 109.474 53.2574C104.323 51.0828 99.0679 49.4077 93.7956 48.2456C93.7463 47.6424 93.684 47.0406 93.6089 46.4439C99.5824 47.4872 105.559 49.1916 111.414 51.5386C111.073 51.3891 110.733 51.2331 110.39 51.0886C112.072 51.7984 113.743 52.5619 115.399 53.3783C127.409 59.296 137.402 67.4004 144.856 76.6104C147.11 80.362 148.977 84.2275 150.428 88.1487Z" fill="#FCA6A6"/>
<path d="M159.869 114.165C159.507 113.802 159.135 113.45 158.755 113.11C157.98 104.683 155.11 96.1675 150.428 88.149C148.977 84.2278 147.11 80.3623 144.856 76.6106C154.163 88.1111 159.51 101.335 159.869 114.165ZM111.414 51.5389C105.559 49.1919 99.5824 47.4874 93.6089 46.4442C93.5831 46.2366 93.5552 46.0313 93.5259 45.8245C99.1952 46.9908 104.853 48.7504 110.39 51.0888C110.733 51.2334 111.073 51.3894 111.414 51.5389Z" fill="#E1A5AB"/>
<path d="M78.1596 153.008C78.1332 152.999 78.1062 152.989 78.0791 152.979C78.0991 152.981 78.1197 152.982 78.1389 152.984C78.1461 152.992 78.1532 153 78.1596 153.008Z" fill="#FCA6A6"/>
<path d="M79.0158 154.003C75.1117 153.419 71.0065 152.581 66.6938 151.457C66.6938 151.457 71.1239 152.482 78.0791 152.98C78.1063 152.989 78.1335 152.999 78.16 153.008C78.19 153.043 78.2201 153.079 78.2501 153.114C78.5077 153.408 78.751 153.717 79.0158 154.003Z" fill="#E1A5AB"/>
<path d="M115.383 151.502C114.804 150.601 114.21 149.738 113.628 148.928C123.373 145.67 133.188 140.157 141.473 131.088C141.843 131.364 142.219 131.635 142.599 131.899C137.445 138.648 128.808 146.889 115.383 151.502Z" fill="#FCA6A6"/>
<path d="M115.688 154.784C115.221 153.8 114.714 152.841 114.177 151.902C114.583 151.772 114.985 151.639 115.383 151.502C115.979 152.43 116.56 153.398 117.098 154.389C116.63 154.527 116.159 154.659 115.688 154.784Z" fill="#B5202F"/>
<path d="M118.063 162.554C118.031 162.242 117.996 161.929 117.943 161.622C117.652 159.847 117.128 158.151 116.464 156.539C116.22 155.945 115.961 155.361 115.688 154.786C116.159 154.66 116.63 154.528 117.098 154.391C118.472 156.919 119.569 159.603 119.934 162.164C119.651 162.227 119.368 162.289 119.083 162.348C118.743 162.42 118.404 162.489 118.063 162.554Z" fill="#891E37"/>
<path d="M118.137 163.705C118.129 163.458 118.113 163.214 118.104 162.968C118.089 162.83 118.077 162.693 118.063 162.555C118.404 162.489 118.743 162.42 119.083 162.349C119.368 162.289 119.652 162.228 119.934 162.165C119.989 162.55 120.028 162.932 120.048 163.311C119.415 163.451 118.778 163.582 118.137 163.705Z" fill="#371A45"/>
<path d="M112.567 149.273C112.188 148.69 111.8 148.114 111.405 147.543C110.915 146.845 110.419 146.15 109.908 145.468C109.645 145.121 109.424 144.801 109.184 144.47C108.94 144.145 108.72 143.808 108.505 143.468C107.63 142.117 106.891 140.697 106.383 139.218C106.239 138.852 106.158 138.472 106.046 138.099C105.949 137.724 105.881 137.342 105.806 136.963C105.766 136.58 105.685 136.2 105.677 135.814L105.643 135.237L105.648 134.658C105.662 133.113 106.001 131.567 106.487 130.049C106.951 128.587 107.724 127.25 108.741 126.109C108.993 125.823 109.262 125.551 109.544 125.293L110.47 124.463L112.352 122.785L114.235 121.106L115.175 120.268L115.644 119.851C115.791 119.728 115.933 119.599 116.083 119.481C117.277 118.525 118.66 117.808 120.123 117.406C121.008 117.164 121.918 117.043 122.829 117.043C123.428 117.043 124.028 117.096 124.62 117.2C126.112 117.45 127.541 118.077 128.899 118.882C130.252 119.705 131.539 120.697 132.771 121.775C133.391 122.319 133.98 122.868 134.599 123.449C135.218 124.035 135.852 124.606 136.49 125.174C138.405 126.849 140.407 128.451 142.569 129.856C142.207 130.273 141.842 130.684 141.473 131.087C139.543 129.648 137.764 128.075 136.268 126.656C134.25 124.741 132.479 123.353 130.81 122.417C129.024 121.418 127.352 120.934 125.612 120.873C125.504 120.87 125.397 120.868 125.289 120.868C122.656 120.868 120.12 121.907 118.15 123.661L112.821 128.412C111.413 129.672 110.339 131.269 109.738 133.061C109.034 135.154 108.702 137.22 108.971 139.395C109.283 141.934 110.408 144.618 112.703 147.67C113.006 148.072 113.315 148.492 113.628 148.927C113.273 149.046 112.922 149.161 112.567 149.273ZM48.2997 135.057C47.529 134.363 46.7741 133.657 46.0364 132.943L47.7523 130.758C48.0922 130.324 48.3119 129.833 48.4149 129.326C50.0457 127.832 51.6299 126.145 53.1225 124.296C54.8542 122.149 56.3791 119.895 57.6699 117.598L72.2387 133.332C68.0884 130.975 64.3876 128.181 61.2005 125.086C60.3475 124.26 59.5318 123.409 58.7561 122.54C55.9719 127.391 52.261 131.799 48.2997 135.057ZM146.148 134.047C144.94 133.431 143.749 132.696 142.599 131.898C142.957 131.431 143.299 130.968 143.623 130.517C144.026 130.76 144.434 130.996 144.848 131.224C145.613 131.648 146.405 132.039 147.221 132.385C146.874 132.948 146.516 133.502 146.148 134.047Z" fill="#B5202F"/>
<path d="M42.8221 138.712C42.5738 138.473 42.3226 138.228 42.0779 137.986L46.0363 132.943C46.7741 133.657 47.529 134.363 48.2997 135.057C46.5043 136.533 44.6582 137.773 42.8221 138.712ZM152.751 135.892C150.596 135.892 148.343 135.165 146.148 134.046C146.516 133.502 146.874 132.948 147.221 132.385C148.032 132.728 148.868 133.029 149.73 133.273C150.159 133.4 150.607 133.49 151.048 133.586C151.5 133.656 151.945 133.747 152.408 133.773C152.767 133.811 153.13 133.83 153.495 133.83C154.06 133.83 154.629 133.786 155.195 133.705C155.537 133.661 155.876 133.592 156.21 133.504C156.096 133.813 155.979 134.123 155.858 134.429C156.001 134.116 156.14 133.802 156.275 133.487C156.487 133.43 156.697 133.364 156.906 133.294C156.632 133.95 156.342 134.601 156.035 135.246C154.981 135.693 153.88 135.892 152.751 135.892Z" fill="#891E37"/>
<path d="M41.7115 139.245C41.5934 139.13 41.4767 139.016 41.3601 138.901L42.0778 137.987C42.3225 138.229 42.5737 138.474 42.822 138.713C42.4513 138.903 42.0807 139.08 41.7115 139.245ZM156.035 135.248C156.342 134.602 156.631 133.952 156.906 133.295C157.246 133.18 157.582 133.048 157.911 132.908C158.003 132.86 158.096 132.813 158.19 132.766L157.735 134.272C157.185 134.679 156.618 135.001 156.035 135.248Z" fill="#371A45"/>
<path d="M155.858 134.43C155.979 134.124 156.096 133.814 156.21 133.505C156.232 133.5 156.253 133.494 156.275 133.488C156.14 133.804 156.001 134.117 155.858 134.43Z" fill="#A67487"/>
<path d="M114.177 151.902C113.665 151.008 113.126 150.133 112.567 149.273C112.922 149.161 113.273 149.046 113.628 148.928C114.211 149.738 114.804 150.601 115.383 151.502C114.985 151.639 114.583 151.772 114.177 151.902ZM142.6 131.899C142.22 131.635 141.843 131.363 141.473 131.087C141.842 130.684 142.207 130.274 142.57 129.856C142.917 130.081 143.268 130.302 143.624 130.517C143.299 130.968 142.957 131.431 142.6 131.899Z" fill="#B77584"/>
<path d="M149.534 32.6338C147.797 32.6338 145.977 32.3812 144.119 31.7665C139.638 30.2831 135.975 26.7003 134.323 22.1816C134.027 21.3737 133.782 20.5802 133.586 19.8002C135.31 24.0943 138.868 27.4803 143.187 28.91C145.042 29.5239 146.862 29.7751 148.597 29.7751C153.572 29.7751 157.856 27.71 160.316 26.2052C163.236 24.4199 165.15 21.4131 165.437 18.163C165.488 17.5791 165.486 17.0231 165.43 16.4958C166.236 17.7237 166.566 19.2321 166.41 20.9916C166.123 24.2517 164.203 27.2678 161.275 29.0588C158.811 30.5658 154.521 32.6338 149.539 32.6338C149.538 32.6338 149.536 32.6338 149.534 32.6338ZM132.454 15.9985C131.379 15.001 130.515 13.5699 129.88 11.733C129.425 10.4164 129.595 8.98958 130.346 7.81892C131.088 6.6633 132.296 5.92412 133.661 5.79246C133.695 5.78888 133.73 5.78603 133.765 5.78245C133.616 6.0472 133.478 6.31912 133.35 6.59818C132.056 9.40532 131.757 12.5566 132.454 15.9985Z" fill="#7489BC"/>
<path d="M134.486 18.9509C133.337 15.8082 132.422 11.3446 134.389 7.07698C136.261 3.01619 140.552 0.519596 144.957 1.2831C147.928 1.79758 151.068 3.7575 152.247 9.35817C152.247 9.35817 159.694 6.25551 159.073 11.8404C159.073 11.8404 164.808 12.2497 164.296 18.0622C164.034 21.0389 162.267 23.6693 159.719 25.2285C156.215 27.3716 150.12 29.9984 143.547 27.8224C139.342 26.4307 136.008 23.1105 134.486 18.9509Z" fill="#FFDF00"/>
<path d="M163.706 14.659C163.217 17.288 161.555 19.5785 159.248 20.9896C155.744 23.1327 149.649 25.7595 143.076 23.5842C138.872 22.1924 135.537 18.8715 134.015 14.712C133.732 13.9377 133.463 13.0819 133.248 12.1696C133.192 14.6876 133.794 17.059 134.486 18.9509C136.008 23.1105 139.342 26.4307 143.547 27.8224C150.119 29.9984 156.215 27.3716 159.719 25.2285C162.267 23.6693 164.034 21.0389 164.296 18.0622C164.423 16.6204 164.165 15.512 163.706 14.659Z" fill="#FFAA00"/>
<path d="M123.141 106.544L94.1413 133.394C88.1092 138.979 78.691 138.617 73.1053 132.584L47.3281 104.744C41.7425 98.7121 42.1052 89.2939 48.1374 83.7083L77.1361 56.8584C83.169 51.2727 92.5871 51.6348 98.1721 57.6677L123.95 85.5079C129.535 91.54 129.173 100.958 123.141 106.544Z" fill="white"/>
<path d="M123.141 106.544H123.144H123.141ZM87.2369 54.0397C83.7664 54.0397 80.4749 55.327 77.9139 57.6976L48.9152 84.5482C46.2218 87.042 44.6612 90.4351 44.5202 94.1031C44.3793 97.7703 45.6744 101.274 48.1682 103.966L73.9454 131.807C79.0924 137.366 87.8043 137.701 93.3635 132.554L122.363 105.704C127.922 100.556 128.257 91.8448 123.11 86.2856L97.332 58.4454C94.8383 55.752 91.4458 54.1914 87.7779 54.0497C87.5968 54.0426 87.4165 54.0397 87.2369 54.0397ZM84.0341 138.494C79.7207 138.494 75.4202 136.77 72.2653 133.363L46.488 105.522C43.5786 102.381 42.0673 98.2934 42.2319 94.0151C42.3965 89.736 44.2176 85.7776 47.3596 82.8688L76.3583 56.0182C79.501 53.1088 83.5854 51.5925 87.8659 51.7621C92.1449 51.9267 96.1034 53.7478 99.0121 56.8898L124.79 84.73C130.795 91.2158 130.404 101.378 123.919 107.384L94.9191 134.234C91.8401 137.085 87.9324 138.494 84.0341 138.494Z" fill="#371A45"/>
<path d="M8.41502 74.0928C7.44401 75.7658 6.60237 77.4795 5.87787 79.2341C5.14242 80.9822 4.51945 82.7646 4.01412 84.57C3.50787 86.3753 3.11531 88.2029 2.8507 90.0447C2.59274 91.8873 2.46916 93.7427 2.47811 95.596C2.46816 97.4507 2.62322 99.3047 2.90558 101.142C2.98308 101.6 3.02343 102.065 3.1307 102.519L3.40733 103.889C3.49477 104.348 3.63452 104.794 3.74285 105.25C3.8577 105.703 3.95717 106.162 4.10786 106.606C5.16238 110.208 6.67163 113.702 8.41502 117.159C5.85447 114.253 3.80618 110.867 2.34795 107.207C1.63547 105.373 1.05451 103.472 0.694652 101.522C0.479054 100.553 0.386174 99.5638 0.253581 98.5799C0.1841 97.5888 0.104601 96.5985 0.113474 95.6039C0.11376 93.6182 0.280129 91.6311 0.642201 89.6819C1.0105 87.7342 1.5496 85.8236 2.25557 83.9847C2.9629 82.1457 3.82257 80.3718 4.85011 78.7067C5.8861 77.0509 7.02583 75.4523 8.41502 74.0928Z" fill="#F9F9F9"/>
<path d="M49.1304 86.0533C47.5361 110.42 17.9002 115.181 24.0902 128.911C32.5066 147.578 60.0412 123.033 61.3443 102.526L49.1304 86.0533Z" fill="white"/>
<path d="M47.8633 126.701C47.7417 126.527 47.6014 126.362 47.4433 126.209C42.0609 120.994 37.6924 116.75 34.7185 113.849C34.735 113.849 34.7521 113.849 34.7686 113.849C37.0598 113.849 39.112 115.325 41.0805 116.801C43.049 118.277 44.9338 119.753 46.8873 119.753C49.9248 119.753 53.1291 116.186 57.079 103.506C57.1727 103.672 57.2657 103.838 57.3602 104.006C57.1935 104.1 57.1183 104.306 57.1928 104.487C57.7673 105.886 58.3949 107.257 59.0611 108.608C57.6335 113.4 54.9667 118.364 51.3402 122.858C50.2246 124.241 49.0583 125.527 47.8633 126.701Z" fill="#B9AFBE"/>
<path d="M33.3016 136.689C28.79 136.69 25.2008 134.156 23.047 129.379C19.7447 122.055 25.4241 117.128 32 111.422C39.1177 105.246 47.1849 98.2469 47.9878 85.9772C48.0293 85.3461 48.5709 84.8659 49.2049 84.9096C49.836 84.9504 50.314 85.4956 50.2725 86.1268C49.4081 99.3496 40.5875 107.002 33.5006 113.151C26.496 119.229 22.6534 122.936 25.1343 128.438C27.2416 133.112 30.6584 135.054 35.2873 134.212C40.3449 133.291 46.3463 129.047 51.3401 122.857C56.5587 116.39 59.7887 108.952 60.2016 102.452C60.2417 101.821 60.7841 101.337 61.4166 101.382C62.0477 101.423 62.5272 101.966 62.4871 102.597C62.0449 109.559 58.6317 117.467 53.1226 124.295C47.7931 130.899 41.2794 135.449 35.6973 136.465C34.8737 136.615 34.0744 136.689 33.3016 136.689Z" fill="#371A45"/>
<path d="M33.8534 125.93L32.9239 126.63C32.5396 126.919 31.9937 126.842 31.7046 126.458L15.9361 105.507C15.6468 105.123 15.724 104.577 16.1081 104.288L17.0379 103.588C17.4222 103.299 17.9681 103.376 18.2573 103.76L34.0259 124.711C34.3149 125.095 34.2377 125.641 33.8534 125.93Z" fill="#FFDF00"/>
<path d="M17.5607 101.529H17.5605C16.9586 101.529 16.3857 101.721 15.9044 102.084L14.9747 102.783C13.7613 103.697 13.517 105.427 14.43 106.641L30.1989 127.592C30.7163 128.279 31.5392 128.69 32.4007 128.69C33.0025 128.69 33.5749 128.499 34.0565 128.137L34.9867 127.437C35.5749 126.994 35.9556 126.349 36.0579 125.62C36.1609 124.891 35.9735 124.166 35.5313 123.578L19.7625 102.627C19.2448 101.94 18.4218 101.529 17.5607 101.529ZM17.5607 103.414C17.8251 103.414 18.086 103.533 18.2571 103.761L34.0257 124.712C34.3148 125.096 34.2375 125.641 33.8533 125.931L32.9238 126.631C32.767 126.749 32.5832 126.805 32.4007 126.805C32.1366 126.805 31.8755 126.686 31.7045 126.458L15.9359 105.508C15.6468 105.124 15.7238 104.578 16.108 104.289L17.0377 103.589C17.1946 103.471 17.3785 103.414 17.5607 103.414Z" fill="#371A45"/>
<path d="M22.6764 110.279C22.622 110.279 22.5662 110.276 22.5097 110.27L18.1073 104.421C17.9361 104.194 17.675 104.074 17.4108 104.074C17.2285 104.074 17.0447 104.131 16.8879 104.249L15.9581 104.949C15.886 105.003 15.8285 105.069 15.7785 105.138C15.7277 104.857 15.8148 104.56 16.0299 104.354C16.0301 104.354 16.0304 104.354 16.0306 104.353C16.0316 104.352 16.0326 104.352 16.0337 104.35C16.057 104.329 16.0819 104.307 16.1081 104.288L16.6386 103.889L17.0379 103.588C17.0806 103.556 17.1254 103.528 17.1715 103.505C17.2948 103.443 17.4283 103.413 17.5609 103.413C17.708 103.413 17.854 103.45 17.984 103.521C18.0878 103.579 18.1814 103.659 18.2573 103.76L23.105 110.201C22.9755 110.254 22.8317 110.279 22.6764 110.279Z" fill="#FFEF80"/>
<path d="M16.0298 104.355C16.03 104.355 16.0302 104.355 16.0304 104.354C16.0302 104.355 16.03 104.355 16.0298 104.355ZM16.0336 104.351C16.0569 104.33 16.0817 104.308 16.108 104.289L16.6384 103.89L16.108 104.289C16.0817 104.308 16.0569 104.33 16.0336 104.351ZM17.9839 103.522C17.8538 103.451 17.7078 103.414 17.5607 103.414C17.4282 103.414 17.2947 103.444 17.1714 103.506C17.2947 103.444 17.4281 103.414 17.5607 103.414C17.7078 103.414 17.8537 103.451 17.9839 103.522Z" fill="#9B8DA2"/>
<path d="M22.2978 118.63L22.2491 118.591L22.6269 118.16L22.9561 117.691L23.0048 117.729L29.6373 110.159C29.8076 110.425 42.289 122.527 46.7878 126.887C47.6937 127.765 47.7903 129.185 47.011 130.177L40.0916 138.992C39.3123 139.985 37.9098 140.229 36.8415 139.557C31.5392 136.222 16.8185 126.972 16.52 126.87L22.2978 118.63Z" fill="#B3E5FC"/>
<path d="M22.1389 127.642C24.5375 129.108 33.1449 134.517 36.5388 136.651C37.3288 137.148 38.3656 136.967 38.9417 136.234L44.0579 129.716C44.6339 128.982 44.5631 127.931 43.8926 127.282C41.0139 124.492 33.7152 117.416 31.721 115.434C31.4462 115.162 30.9961 115.189 30.7571 115.494L21.9679 126.691C21.7289 126.995 21.8083 127.44 22.1389 127.642Z" fill="#D329D3"/>
<path d="M45.547 129.507C45.4353 129.313 45.2951 129.132 45.1269 128.969C44.9094 128.758 44.674 128.53 44.4214 128.285C44.3584 127.915 44.181 127.561 43.8926 127.282C41.0139 124.492 33.7152 117.416 31.721 115.434C31.5943 115.308 31.4297 115.246 31.2666 115.246C31.1914 115.246 31.1163 115.259 31.0455 115.285C30.3321 114.587 29.7088 113.976 29.2144 113.488L30.2176 112.077C32.0093 113.85 36.2046 117.944 46.1323 127.563C46.4564 127.877 46.6131 128.302 46.5945 128.724C46.264 129.019 45.914 129.279 45.547 129.507Z" fill="#E0F4FD"/>
<path d="M44.4213 128.284C41.0589 125.026 34.7971 118.952 31.0454 115.284C31.1163 115.258 31.1914 115.244 31.2665 115.244C31.4297 115.244 31.5942 115.306 31.7209 115.432C33.7152 117.415 41.0139 124.491 43.8925 127.281C44.1809 127.56 44.3584 127.913 44.4213 128.284Z" fill="#EDA9ED"/>
<path d="M17.8731 126.581C19.5891 127.624 24.2628 130.532 37.3439 138.758C38.0051 139.175 38.8674 139.024 39.3504 138.41L46.2698 129.595C46.7528 128.98 46.6934 128.106 46.1324 127.563C35.0341 116.809 31.1 112.96 29.6789 111.541L23.714 118.349C23.6596 118.411 23.5981 118.465 23.5322 118.509L23.3991 118.7C23.3791 118.728 23.3583 118.755 23.3354 118.78L23.1816 118.957C23.1544 119.03 23.1165 119.102 23.0693 119.17L17.8731 126.581ZM38.1547 140.879C37.5321 140.879 36.9039 140.708 36.3407 140.354C24.2864 132.773 16.7467 128.063 16.1242 127.724C15.8881 127.615 15.706 127.412 15.6244 127.162C15.5324 126.88 15.5784 126.571 15.7486 126.328L21.3355 118.36C21.372 118.217 21.4414 118.083 21.5408 117.97L21.885 117.577L22.1848 117.149C22.2714 117.026 22.3852 116.926 22.5154 116.857L28.929 109.538C29.1243 109.314 29.4148 109.198 29.7089 109.219C29.9715 109.239 30.212 109.367 30.3744 109.571C30.8481 110.091 37.3704 116.449 47.4433 126.209C48.6998 127.426 48.8322 129.382 47.7524 130.758L40.833 139.573C40.1632 140.425 39.1672 140.879 38.1547 140.879Z" fill="#371A45"/>
<path d="M16.7924 127.012L29.8411 110.389C30.4279 109.642 30.2976 108.56 29.5499 107.974L29.0189 107.557C28.2719 106.97 27.19 107.101 26.6032 107.848L13.5549 124.472C12.9683 125.219 13.0986 126.3 13.846 126.887L14.377 127.304C15.1244 127.89 16.2058 127.76 16.7924 127.012Z" fill="white"/>
<path d="M27.9579 108.132C27.7267 108.132 27.4978 108.233 27.3446 108.429L14.2963 125.053C14.1679 125.216 14.1109 125.42 14.1358 125.626C14.1607 125.833 14.2643 126.016 14.4278 126.145L14.9589 126.562C15.1224 126.69 15.3268 126.747 15.5324 126.722C15.7388 126.698 15.923 126.594 16.0513 126.43L29.0999 109.807C29.228 109.644 29.2852 109.44 29.2602 109.233C29.2351 109.027 29.1321 108.842 28.9682 108.714L28.4373 108.297C28.2949 108.185 28.126 108.132 27.9579 108.132ZM15.4339 128.612C14.8412 128.612 14.269 128.416 13.7954 128.044L13.2643 127.627C12.1094 126.721 11.9075 125.044 12.8139 123.889L25.8627 107.265C26.3014 106.706 26.9325 106.351 27.6387 106.266C28.3443 106.181 29.0412 106.376 29.6008 106.815L30.1317 107.232C31.2866 108.138 31.4891 109.815 30.5825 110.97L17.5338 127.594C17.0946 128.153 16.4639 128.508 15.7578 128.593C15.6495 128.606 15.5414 128.612 15.4339 128.612Z" fill="#371A45"/>
<path d="M15.4374 126.727C15.2647 126.727 15.0972 126.67 14.9589 126.561L14.4279 126.145C14.2644 126.016 14.1607 125.832 14.1358 125.625C14.1109 125.419 14.1679 125.215 14.2963 125.052L16.6553 122.047C18.3242 121.243 21.9608 118.531 29.2023 109.636C29.1758 109.696 29.1415 109.753 29.0999 109.806L16.0513 126.43C15.9231 126.593 15.7388 126.697 15.5325 126.721C15.5007 126.726 15.469 126.727 15.4374 126.727Z" fill="#B9AFBE"/>
<path d="M15.232 127.704L13.1993 126.189C13.1993 126.189 12.5658 125.374 12.8751 124.98C13.1845 124.586 15.4135 122.355 15.4135 122.355C15.4135 122.355 15.4604 122.375 15.5691 122.375C15.7459 122.375 16.0861 122.323 16.6553 122.048L14.2963 125.054C14.1679 125.217 14.1109 125.421 14.1358 125.627C14.1607 125.834 14.2643 126.018 14.4278 126.146L14.9589 126.563C15.0972 126.672 15.2647 126.729 15.4374 126.729C15.469 126.729 15.5007 126.728 15.5324 126.723C15.7388 126.699 15.9231 126.595 16.0513 126.431L29.0999 109.808C29.1414 109.755 29.1758 109.698 29.2022 109.638C29.3625 109.44 29.5242 109.241 29.6881 109.038L29.8362 110.269L16.4934 127.267L15.232 127.704Z" fill="#371A45"/>
<path d="M38.1532 138.994C37.8756 138.994 37.5951 138.918 37.3439 138.759C36.9554 138.515 36.5754 138.277 36.2019 138.041C36.3665 137.635 36.4996 137.178 36.594 136.685C36.8803 136.851 37.1951 136.931 37.5078 136.931C38.0502 136.931 38.5847 136.688 38.9418 136.234L43.5149 130.408C44.2355 130.195 44.9174 129.898 45.5471 129.508C45.6695 129.719 45.7575 129.946 45.8118 130.179L39.3504 138.411C39.0513 138.791 38.6062 138.994 38.1532 138.994Z" fill="#889EBC"/>
<path d="M37.5076 136.931C37.1949 136.931 36.8801 136.851 36.5938 136.685C36.7105 136.079 36.7699 135.418 36.7613 134.725C36.792 133.359 36.5566 131.848 35.9656 130.379C37.3809 130.678 38.7935 130.856 40.1459 130.856C41.3272 130.856 42.4628 130.72 43.5147 130.408L38.9416 136.234C38.5845 136.688 38.05 136.931 37.5076 136.931Z" fill="#9D24A1"/>
<path d="M45.8116 130.18C45.7572 129.947 45.6692 129.72 45.5469 129.509C45.914 129.281 46.2639 129.02 46.5944 128.725C46.5801 129.032 46.4728 129.338 46.2696 129.597L45.8116 130.18Z" fill="#A5A8BD"/>
<path d="M39.2472 139.873L37.2301 139.717L35.8047 138.831C35.9521 138.596 36.0852 138.332 36.2018 138.041C36.5753 138.277 36.9553 138.515 37.3438 138.759C37.595 138.918 37.8755 138.994 38.1531 138.994C38.6061 138.994 39.0512 138.791 39.3503 138.411L45.8118 130.179L46.2697 129.596C46.4729 129.337 46.5803 129.031 46.5946 128.724C46.7892 128.55 46.9767 128.364 47.1577 128.164L47.1477 129.809L39.2472 139.873Z" fill="#371A45"/>
<path d="M20.1504 127.986C19.2835 127.448 18.6484 127.056 18.1814 126.771L28.8723 113.151C28.9782 113.256 29.092 113.369 29.2144 113.489L24.8888 119.575C23.9457 120.902 23.7318 122.504 24.1339 123.933L22.4566 126.069C21.4835 126.731 20.6928 127.445 20.1504 127.986Z" fill="#889EBC"/>
<path d="M22.4565 126.068L24.1338 123.931C24.2304 124.273 24.3621 124.605 24.5274 124.921C23.7746 125.243 23.0776 125.645 22.4565 126.068Z" fill="#9D24A1"/>
<path d="M29.2144 113.488C29.092 113.368 28.9782 113.255 28.8723 113.15L29.9349 111.796C30.0215 111.883 30.116 111.976 30.2176 112.077L29.2144 113.488Z" fill="#A5A8BD"/>
<path d="M19.4889 128.69L17.5974 127.515L18.1813 126.77C18.6483 127.056 19.2834 127.448 20.1503 127.986C19.8491 128.287 19.6247 128.534 19.4889 128.69ZM30.2175 112.078C30.1159 111.977 30.0214 111.884 29.9348 111.797L30.4314 111.164L30.6883 111.416L30.2175 112.078Z" fill="#371A45"/>
<path d="M17.5975 127.513L16.7925 127.012L29.8784 110.62L30.4315 111.163L29.9349 111.796L28.8723 113.15L18.1814 126.769L17.5975 127.513Z" fill="#371A45"/>
<path d="M21.4699 112.862L15.936 105.509C15.8555 105.402 15.8033 105.283 15.7783 105.16C15.8033 105.283 15.8555 105.402 15.9361 105.509L21.4699 112.862Z" fill="#7489BC"/>
<path d="M21.4699 112.862L15.9361 105.509C15.8555 105.402 15.8033 105.283 15.7783 105.16C15.7773 105.155 15.7763 105.149 15.7754 105.144L15.7785 105.14C15.7785 105.14 20.2249 110.033 22.5096 110.272L22.9955 110.918L21.4699 112.862Z" fill="#B99A18"/>
<path d="M20.8616 113.637C19.5557 111.587 15.4736 105.528 15.4736 105.528L15.7752 105.144C15.7762 105.149 15.7772 105.154 15.7782 105.159C15.8032 105.282 15.8553 105.401 15.9359 105.509L21.4698 112.861L20.8616 113.637Z" fill="#371A45"/>
<path d="M23.3259 110.497L23.1048 110.203C23.1048 110.203 23.1041 110.203 23.1048 110.203L23.3259 110.497Z" fill="#371A45"/>
<path d="M23.3261 110.497L23.105 110.203L23.3261 110.497Z" fill="#B99A18"/>
<path d="M23.3261 110.497L23.105 110.203C23.2467 110.143 23.3719 110.05 23.4756 109.917L23.6653 110.066L23.3261 110.497Z" fill="#371A45"/>
<path d="M22.9954 110.917L22.5095 110.27C22.5661 110.277 22.6219 110.28 22.6762 110.28C22.8315 110.28 22.9753 110.255 23.1049 110.201L23.326 110.495L22.9954 110.917Z" fill="#B9A56B"/>
<path d="M21.2666 114.31C21.2616 114.31 21.2587 114.307 21.258 114.3C21.2537 114.265 21.1063 114.022 20.8616 113.638L21.4698 112.862L22.9954 110.919L23.326 110.497L23.6651 110.066L24.2318 110.511C24.2318 110.511 21.4433 114.31 21.2666 114.31Z" fill="#371A45"/>
<path d="M19.3375 128.868C19.3375 128.868 25.6472 121.04 32.2117 125.656C38.2782 129.922 37.3594 138.231 34.7555 139.494C30.782 141.422 18.8205 140.556 19.3375 128.868Z" fill="white"/>
<path d="M30.5439 140.648C26.0974 140.647 20.4137 138.523 19.4651 131.933C19.4841 131.949 19.5032 131.965 19.5224 131.981C20.6391 138.255 26.1804 140.291 30.5367 140.291C32.2333 140.291 33.7503 139.982 34.7556 139.495C34.795 139.475 34.8343 139.455 34.8723 139.432C34.9631 139.49 35.0526 139.545 35.1435 139.603C35.0197 139.704 34.8902 139.787 34.7556 139.852C33.7517 140.34 32.2376 140.648 30.5439 140.648Z" fill="#7489BC"/>
<path d="M35.1435 139.602C35.0526 139.545 34.9632 139.489 34.8723 139.432C35.1492 139.272 35.4054 139.032 35.6337 138.725L35.8047 138.831C35.6072 139.146 35.3854 139.406 35.1435 139.602Z" fill="#371A45"/>
<path d="M36.2017 138.041C36.1617 138.016 36.1209 137.99 36.0801 137.965C36.2625 137.575 36.4142 137.13 36.5273 136.644C36.5309 136.646 36.5352 136.649 36.5387 136.651C36.5566 136.662 36.5752 136.674 36.5938 136.684C36.4994 137.178 36.3663 137.635 36.2017 138.041Z" fill="#6C7092"/>
<path d="M36.5939 136.684C36.5753 136.674 36.5567 136.662 36.5388 136.651C36.5352 136.649 36.5309 136.646 36.5273 136.644C36.6647 136.056 36.7463 135.409 36.7613 134.725C36.7699 135.418 36.7105 136.079 36.5939 136.684Z" fill="#792181"/>
<path d="M35.8046 138.829L35.6335 138.724C35.7974 138.502 35.947 138.248 36.0801 137.964C36.1208 137.989 36.1616 138.015 36.2017 138.04C36.0851 138.331 35.952 138.595 35.8046 138.829Z" fill="#371A45"/>
<path d="M30.5368 140.291C26.1804 140.291 20.6392 138.254 19.5225 131.98C21.7683 133.853 24.755 134.564 27.3268 134.564C29.0198 134.564 30.5325 134.256 31.5357 133.77C32.9918 133.063 33.9192 130.154 33.3947 126.981C35.7911 129.227 36.7306 132.191 36.7614 134.726C36.7464 135.41 36.6648 136.057 36.5274 136.644C36.4144 137.131 36.2627 137.575 36.0802 137.965C35.9471 138.249 35.7975 138.504 35.6337 138.725C35.4054 139.032 35.1492 139.272 34.8723 139.432C34.8344 139.454 34.795 139.475 34.7557 139.494C33.7503 139.981 32.2333 140.291 30.5368 140.291Z" fill="#B9AFBE"/>
<path d="M20.4688 129.304C20.3965 132.984 21.6667 135.708 24.2477 137.405C27.5793 139.596 32.2805 139.422 34.2562 138.463C34.8107 138.194 35.4469 136.996 35.59 135.225C35.8039 132.574 34.8558 128.914 31.5528 126.592C26.5217 123.053 21.6101 128.017 20.4688 129.304ZM30.5718 141.439C28.0487 141.439 25.2409 140.799 22.9897 139.318C20.6577 137.785 17.9329 134.718 18.1939 128.816C18.2047 128.572 18.2932 128.338 18.4464 128.148C20.8617 125.151 26.9833 120.579 32.8701 124.719C36.9624 127.596 38.1374 132.129 37.8726 135.409C37.6701 137.915 36.6919 139.827 35.2558 140.523C34.0487 141.109 32.3836 141.439 30.5718 141.439Z" fill="#371A45"/>
<path d="M136.051 3.88517C136.051 3.88517 134.723 3.71701 132.809 3.90234C130.529 4.12345 129.08 6.43398 129.829 8.59854C130.369 10.1628 131.238 11.8372 132.619 12.8704" fill="#FF5722"/>
<path d="M132.618 14.0163C132.379 14.0163 132.139 13.9418 131.933 13.7887C130.571 12.769 129.499 11.149 128.746 8.97372C128.271 7.59699 128.449 6.10647 129.234 4.88287C130.009 3.67429 131.273 2.90221 132.699 2.7641C134.717 2.56876 136.136 2.74263 136.195 2.7505C136.822 2.82922 137.267 3.40239 137.188 4.02921C137.108 4.65604 136.535 5.09897 135.91 5.0224C135.87 5.01739 134.647 4.87643 132.919 5.04315C132.196 5.11328 131.555 5.50541 131.161 6.12007C130.756 6.74904 130.665 7.51613 130.911 8.22525C131.511 9.95976 132.316 11.2148 133.304 11.9547C133.811 12.334 133.915 13.051 133.536 13.5576C133.311 13.8581 132.967 14.0163 132.618 14.0163Z" fill="#371A45"/>
<path d="M143.378 2.29118C140.064 2.29118 136.922 4.31764 135.429 7.55482C133.989 10.6797 134.034 14.3812 135.561 18.5565C136.973 22.4155 140.093 25.4731 143.907 26.7346C149.888 28.7139 155.482 26.4763 159.121 24.2509C161.425 22.842 162.933 20.4907 163.155 17.9612C163.28 16.5487 162.984 15.4124 162.275 14.5809C161.071 13.1669 159.012 12.983 158.992 12.9816C158.68 12.9594 158.393 12.8113 158.193 12.5723C157.994 12.3326 157.9 12.0228 157.935 11.7129C158.033 10.8321 157.893 10.2432 157.52 9.9634C156.605 9.27789 154.095 9.82673 152.687 10.4142C152.372 10.5451 152.016 10.5294 151.714 10.3705C151.412 10.2117 151.196 9.9269 151.126 9.59274C150.245 5.40529 148.104 2.98885 144.762 2.40996C144.3 2.32982 143.837 2.29118 143.378 2.29118ZM148.597 29.7736C146.862 29.7736 145.043 29.5225 143.187 28.9085C138.716 27.4287 135.061 23.8524 133.411 19.3429C131.667 14.5787 131.647 10.2904 133.35 6.5967C135.483 1.96919 140.338 -0.681957 145.153 0.153814C147.944 0.637531 151.484 2.38779 153.055 7.86324C154.621 7.39669 157.25 6.89938 158.893 8.13157C159.495 8.58237 160.156 9.40956 160.244 10.8865C161.285 11.1434 162.861 11.738 164.018 13.0954C165.14 14.4113 165.617 16.1158 165.437 18.1615C165.15 21.4116 163.236 24.4184 160.316 26.2037C157.856 27.7085 153.572 29.7736 148.597 29.7736Z" fill="#371A45"/>
<path d="M150.803 20.9268C152.215 16.6878 146.637 14.5533 146.637 14.5533C147.051 14.5182 147.435 14.501 147.79 14.501C154.77 14.501 150.803 20.9268 150.803 20.9268Z" fill="#FEF298"/>
<path d="M162.467 14.8889C161.313 14.0775 159.943 13.9559 159.925 13.9551C159.608 13.9294 159.312 13.7755 159.109 13.5301C158.98 13.3734 158.899 13.1866 158.863 12.9913C158.904 12.9984 158.943 13.0099 158.984 13.0135C159.004 13.0149 161.065 13.1967 162.262 14.6149C162.335 14.7022 162.403 14.7945 162.467 14.8889Z" fill="#FEF298"/>
<path d="M136.291 18.7905C135.851 18.2317 135.451 17.6406 135.094 17.0217C134.079 13.4739 134.2 10.2997 135.459 7.56915C136.946 4.3427 140.076 2.3234 143.377 2.3234C143.835 2.3234 144.296 2.36204 144.756 2.44147C146.497 2.74343 147.908 3.55131 148.987 4.84718C148.066 4.09442 146.97 3.60426 145.698 3.38387C145.238 3.30372 144.777 3.26507 144.32 3.26507C141.018 3.26507 137.888 5.28439 136.401 8.51084C135.045 11.4518 135.008 14.9072 136.291 18.7905Z" fill="#FEF298"/>
<path d="M139.223 23.9379C137.621 22.4796 136.355 20.632 135.591 18.5462C135.403 18.031 135.237 17.5229 135.094 17.0227C135.451 17.6417 135.851 18.2328 136.291 18.7916C136.367 19.022 136.448 19.2546 136.534 19.4878C137.14 21.1465 138.065 22.6556 139.223 23.9379Z" fill="#FEDC98"/>
<path d="M153.189 11.4781C153 11.4781 152.811 11.4323 152.64 11.3429C152.33 11.1797 152.108 10.8863 152.036 10.5429C152.034 10.5314 152.031 10.5207 152.028 10.5092C152.106 10.5235 152.184 10.5314 152.262 10.5314C152.411 10.5314 152.559 10.5042 152.7 10.4455C153.64 10.0534 155.073 9.67775 156.187 9.67775C156.733 9.67775 157.203 9.76792 157.499 9.99046C157.696 10.1379 157.823 10.3761 157.886 10.6981C157.66 10.6452 157.401 10.6223 157.122 10.6223C156.01 10.6223 154.581 10.9958 153.641 11.3872C153.496 11.448 153.342 11.4781 153.189 11.4781Z" fill="#FEF298"/>
<path d="M146.351 14.6309C146.661 14.4256 147.002 14.2746 147.355 14.1479C147.708 14.017 148.078 13.9304 148.461 13.876C149.223 13.7715 150.058 13.8245 150.854 14.1665C151.65 14.5 152.344 15.1504 152.764 15.9017C153.191 16.6531 153.401 17.4659 153.492 18.2502L153.494 18.2638C153.497 18.2931 153.499 18.3253 153.498 18.354C153.491 18.6366 153.463 18.8205 153.427 19.0409C153.391 19.2527 153.34 19.4595 153.283 19.6641C153.156 20.0713 152.991 20.4691 152.77 20.8405C152.33 21.5833 151.676 22.2137 150.921 22.6029C150.157 22.9793 149.345 23.1267 148.569 23.1296C148.181 23.121 147.8 23.0666 147.429 23.013C147.061 22.9192 146.7 22.8205 146.351 22.6981C146.72 22.6101 147.077 22.5471 147.427 22.4877C147.771 22.3833 148.113 22.3153 148.435 22.2087C149.079 21.9869 149.66 21.7071 150.135 21.3414C150.595 20.9572 150.951 20.5085 151.195 19.9869C151.263 19.8609 151.306 19.7185 151.364 19.5876C151.409 19.4488 151.453 19.3092 151.487 19.1676C151.522 19.0252 151.556 18.8828 151.576 18.7382C151.6 18.6051 151.61 18.4305 151.615 18.354L151.621 18.4577C151.556 17.8316 151.415 17.2434 151.19 16.7296C150.959 16.218 150.63 15.7944 150.164 15.4674C149.702 15.1347 149.1 14.9193 148.446 14.7926C147.789 14.6638 147.086 14.6209 146.351 14.6309Z" fill="#371A45"/>
<path d="M141.387 9.3583C141.387 10.2148 140.692 10.9096 139.835 10.9096C138.979 10.9096 138.284 10.2148 138.284 9.3583C138.284 8.50106 138.979 7.80698 139.835 7.80698C140.692 7.80698 141.387 8.50106 141.387 9.3583Z" fill="#371A45"/>
<path d="M18.1384 144.449C18.3026 145.147 18.5172 145.825 18.7633 146.491C18.8875 146.823 19.0057 147.156 19.1469 147.481C19.2771 147.81 19.4203 148.132 19.5725 148.451C20.1676 149.728 20.8374 150.961 21.5994 152.131C23.1193 154.474 24.9354 156.592 26.9583 158.473C28.9912 160.348 31.218 161.998 33.585 163.43C35.9593 164.852 38.4616 166.061 41.0326 167.12C46.201 169.183 51.6357 170.655 57.1884 171.663C62.739 172.707 68.3891 173.334 74.0949 173.945C68.3855 174.521 62.6081 174.486 56.8607 173.866C51.1162 173.249 45.4003 171.919 39.9649 169.742C37.2637 168.617 34.6283 167.301 32.1575 165.698C29.6945 164.086 27.399 162.197 25.3876 160.041C23.374 157.885 21.6989 155.424 20.393 152.807C19.7748 151.478 19.2308 150.12 18.8397 148.719C18.4521 147.321 18.1625 145.888 18.1384 144.449Z" fill="#F9F9F9"/>
<path d="M14.8853 161.146C15.2337 162.028 15.6739 162.861 16.1506 163.666C16.6339 164.468 17.1411 165.25 17.7154 165.983C17.9893 166.357 18.2883 166.713 18.5779 167.074C18.8877 167.419 19.1758 167.781 19.5033 168.109C19.822 168.444 20.1362 168.782 20.471 169.1C20.6371 169.261 20.7973 169.426 20.9669 169.583L21.4828 170.043C24.2499 172.481 27.427 174.412 30.8173 175.868C34.2033 177.344 37.7961 178.345 41.4476 179.112C45.1098 179.857 48.8472 180.289 52.6232 180.666C48.8458 181.022 45.0154 180.973 41.2229 180.468C39.3281 180.207 37.4355 179.869 35.58 179.361C34.6455 179.135 33.7332 178.824 32.8151 178.531C32.355 178.387 31.9114 178.194 31.4584 178.028C31.0076 177.856 30.5554 177.687 30.1175 177.482C28.3386 176.728 26.632 175.793 25.0163 174.724C23.4041 173.65 21.8857 172.425 20.5376 171.034C19.1815 169.652 17.9783 168.12 17.0004 166.46C16.5126 165.63 16.0792 164.769 15.7161 163.882C15.3562 162.995 15.0468 162.084 14.8853 161.146Z" fill="#F9F9F9"/>
<path d="M177.439 113.275C178.027 114.443 178.484 115.674 178.897 116.919C179.315 118.164 179.639 119.438 179.931 120.723C180.493 123.299 180.813 125.938 180.876 128.597C181.004 133.911 180.03 139.321 177.896 144.275C177.613 144.887 177.345 145.505 177.046 146.109L176.087 147.887C175.933 148.187 175.742 148.466 175.562 148.75L175.017 149.6C174.834 149.882 174.658 150.169 174.468 150.446L173.863 151.253L173.255 152.057C173.054 152.325 172.853 152.594 172.626 152.842L171.297 154.35C171.082 154.607 170.838 154.837 170.6 155.071L169.884 155.772C169.402 156.235 168.932 156.709 168.41 157.123C164.362 160.591 159.706 163.233 154.778 164.937C159.164 162.117 163.276 159.028 166.804 155.42C167.265 154.99 167.671 154.507 168.086 154.036L168.715 153.335C168.924 153.102 169.138 152.873 169.323 152.619L170.482 151.143C170.684 150.904 170.858 150.645 171.033 150.387L171.562 149.616C172.959 147.555 174.206 145.39 175.164 143.095C177.13 138.529 178.236 133.593 178.544 128.552C178.706 126.031 178.672 123.485 178.493 120.934C178.463 120.293 178.387 119.658 178.334 119.018L178.098 117.103C178.017 116.464 177.917 115.825 177.804 115.189C177.703 114.548 177.576 113.913 177.439 113.275Z" fill="#F9F9F9"/>
<path d="M148.081 36.8822C146.841 37.1963 145.56 37.3194 144.277 37.3817C142.993 37.4267 141.699 37.3738 140.414 37.1999C137.845 36.8743 135.283 36.0665 133.028 34.6568C131.91 33.9484 130.851 33.1155 129.97 32.1144C129.088 31.1184 128.324 30.0171 127.762 28.8229C126.628 26.4394 126.17 23.8183 126.265 21.2752C126.816 23.7639 127.594 26.1524 128.831 28.249C129.466 29.2873 130.207 30.2418 131.043 31.1012L131.689 31.7273L132.38 32.3033C132.854 32.669 133.334 33.0311 133.853 33.338C135.893 34.6203 138.217 35.4597 140.625 36.0085C141.832 36.274 143.06 36.4901 144.305 36.6225C145.55 36.7706 146.807 36.8543 148.081 36.8822Z" fill="#F9F9F9"/>
<path d="M172.012 23.7591C171.973 23.9337 172.027 24.1069 172.056 24.2843L172.153 24.8167C172.217 25.1745 172.255 25.538 172.291 25.9065C172.345 26.6428 172.316 27.397 172.185 28.1483C171.93 29.6467 171.192 31.1372 170.051 32.2285C169.485 32.7744 168.844 33.2302 168.165 33.5952C167.817 33.754 167.478 33.9393 167.117 34.0553C166.938 34.1182 166.762 34.1891 166.582 34.2442L166.037 34.3901C164.582 34.7544 163.096 34.813 161.651 34.5905C163.042 34.144 164.389 33.744 165.632 33.188C166.258 32.924 166.843 32.6034 167.405 32.2671C167.954 31.9114 168.468 31.5208 168.924 31.0757C169.843 30.1927 170.518 29.0857 170.962 27.8292C171.188 27.2024 171.359 26.5412 171.505 25.8571C171.583 25.5151 171.639 25.1666 171.709 24.8138L171.814 24.2786C171.865 24.1069 171.884 23.9022 172.012 23.7591Z" fill="#F9F9F9"/>
<path d="M175.446 31.7113C175.374 31.8502 175.382 32.0112 175.368 32.1679L175.337 32.6423C175.316 32.96 175.275 33.2777 175.23 33.5983C175.12 34.2344 174.956 34.8727 174.696 35.483C174.198 36.7102 173.298 37.8294 172.14 38.5528C171.564 38.9156 170.94 39.1896 170.299 39.3836C169.653 39.5539 168.999 39.6827 168.344 39.7005C167.036 39.7771 165.747 39.5911 164.531 39.1982C165.806 39.1245 167.049 39.0544 168.239 38.8247C168.835 38.7138 169.41 38.5521 169.968 38.3632C170.518 38.1571 171.046 37.9088 171.532 37.5997C172.511 36.9893 173.303 36.1192 173.909 35.0916C174.206 34.5757 174.47 34.0262 174.697 33.4516C174.817 33.1654 174.92 32.872 175.033 32.5757L175.202 32.1292C175.27 31.9876 175.317 31.8158 175.446 31.7113Z" fill="#F9F9F9"/>
<path d="M161.98 127.806C154.644 138.643 142.113 129.006 135.115 122.363C130.449 117.935 126.963 116.026 123.202 115.9C120.128 115.799 117.151 116.973 114.859 119.016L108.902 124.326C107.325 125.734 106.126 127.52 105.453 129.523C103.75 134.587 104.002 139.522 108.771 145.856C114.573 153.566 122.716 167.114 111.115 173.167C108.782 174.384 106.61 174.35 104.666 173.61C98.7873 171.384 94.9634 162.732 94.9634 162.732C66.0205 151.5 76.273 132.094 76.273 132.094C61.2549 114.803 47.3101 84.5785 47.3101 84.5785L81.2418 54.3154C81.2418 54.3154 85.8128 56.9315 92.29 61.1504H92.2929C100.722 66.6402 112.377 74.8383 121.39 83.508C122.827 84.884 124.195 86.2786 125.472 87.6718C125.472 87.6718 145.593 80.537 153.453 110.57C153.453 110.57 161.814 115.471 163.21 121.672C163.651 123.624 163.399 125.709 161.98 127.806Z" fill="white"/>
<path d="M107.562 172.978C107.496 172.978 107.429 172.976 107.363 172.974C107.356 172.974 107.35 172.974 107.343 172.974C107.121 172.974 106.899 172.962 106.677 172.937C110.93 171.265 116.397 167.414 114.1 158.899C110.503 145.558 102.202 153.215 97.883 139.15C93.6676 125.423 110.674 108.518 122.454 108.518C122.744 108.518 123.03 108.528 123.313 108.549C138.636 109.672 136.978 119.866 141.646 124.741C144.25 127.46 148.834 129.325 153.135 129.325C156.805 129.325 160.267 127.97 162.124 124.634C162.089 124.789 162.063 124.947 162.017 125.1C161.898 125.438 161.799 125.78 161.626 126.103C161.49 126.438 161.278 126.746 161.092 127.063C160.887 127.378 160.637 127.689 160.415 128.003C160.167 128.296 159.917 128.589 159.658 128.869L159.25 129.262L159.046 129.46L158.827 129.635L158.389 129.985C158.24 130.097 158.079 130.187 157.925 130.291C157.623 130.509 157.284 130.65 156.961 130.824C156.285 131.105 155.591 131.352 154.854 131.441C154.408 131.504 153.955 131.541 153.498 131.541C153.205 131.541 152.91 131.526 152.614 131.493C152.236 131.474 151.857 131.394 151.477 131.338C151.099 131.254 150.719 131.18 150.343 131.068C148.838 130.64 147.362 130.001 145.948 129.216C143.112 127.655 140.487 125.632 138.004 123.455C137.385 122.907 136.77 122.352 136.168 121.782C135.561 121.212 134.922 120.615 134.276 120.051C132.98 118.916 131.596 117.843 130.076 116.92C128.55 116.013 126.851 115.256 125.018 114.945C124.297 114.818 123.565 114.754 122.832 114.754C121.715 114.754 120.595 114.902 119.521 115.197C117.741 115.685 116.08 116.551 114.651 117.696C114.47 117.838 114.3 117.991 114.125 118.138L113.652 118.559L112.711 119.398L110.829 121.076L108.947 122.755L107.995 123.607C107.657 123.917 107.334 124.243 107.03 124.588C105.809 125.954 104.865 127.594 104.312 129.337C103.772 131.015 103.378 132.791 103.359 134.614L103.354 135.296L103.393 135.977C103.406 136.433 103.496 136.881 103.547 137.332C103.632 137.777 103.713 138.225 103.827 138.663C103.953 139.095 104.054 139.539 104.216 139.958C104.8 141.66 105.63 143.241 106.581 144.71C106.816 145.08 107.056 145.446 107.316 145.795C107.569 146.144 107.828 146.515 108.073 146.837C108.571 147.5 109.051 148.174 109.526 148.851C111.405 151.567 113.116 154.406 114.343 157.402C114.96 158.896 115.428 160.435 115.681 161.979C115.75 162.365 115.78 162.751 115.82 163.136C115.833 163.52 115.869 163.905 115.845 164.284C115.841 165.046 115.724 165.789 115.538 166.503C115.365 167.225 115.04 167.887 114.685 168.526C114.475 168.826 114.296 169.148 114.045 169.423C113.924 169.564 113.816 169.713 113.687 169.849L113.29 170.244L113.091 170.441L112.872 170.621L112.435 170.983C112.126 171.208 111.807 171.422 111.488 171.635C111.15 171.821 110.813 172.033 110.477 172.2C110.14 172.35 109.811 172.526 109.462 172.622C109.122 172.757 108.769 172.817 108.421 172.896C108.246 172.927 108.069 172.933 107.893 172.956C107.783 172.974 107.673 172.978 107.562 172.978Z" fill="#B9AFBE"/>
<path d="M81.4322 53.9852C85.6526 55.9737 89.6819 58.2936 93.6346 60.7422C97.5781 63.2052 101.428 65.8177 105.197 68.5511C108.945 71.3124 112.62 74.1797 116.163 77.2165C119.695 80.2684 123.114 83.4626 126.316 86.9001L125.088 86.5946C125.358 86.5044 125.561 86.4472 125.791 86.3871C126.014 86.327 126.237 86.2769 126.459 86.2275C126.903 86.1309 127.349 86.0551 127.795 85.9892C128.688 85.8633 129.586 85.8039 130.485 85.791C132.282 85.7889 134.089 85.9892 135.83 86.4658C139.316 87.4032 142.522 89.3216 145.027 91.8532C146.288 93.109 147.435 94.4758 148.408 95.9434C148.927 96.6596 149.354 97.426 149.809 98.1773C150.046 98.5487 150.227 98.9466 150.436 99.3315L151.04 100.496C152.554 103.646 153.676 106.943 154.562 110.281L154.033 109.583C154.82 110.059 155.514 110.539 156.223 111.055C156.924 111.569 157.606 112.109 158.266 112.68C159.588 113.817 160.828 115.073 161.91 116.5C162.973 117.933 163.903 119.559 164.32 121.429C164.365 121.663 164.428 121.893 164.454 122.132L164.533 122.851C164.544 123.335 164.561 123.822 164.492 124.306C164.469 124.549 164.443 124.79 164.383 125.027C164.328 125.263 164.285 125.504 164.217 125.736C164.063 126.194 163.918 126.657 163.697 127.08C163.51 127.524 163.249 127.915 163.006 128.32C162.753 128.709 162.476 129.056 162.209 129.425C161.917 129.774 161.62 130.122 161.308 130.458L160.809 130.939L160.559 131.179L160.287 131.399L159.739 131.835C159.551 131.975 159.347 132.095 159.151 132.225C158.766 132.496 158.33 132.689 157.911 132.908C157.041 133.278 156.131 133.587 155.195 133.706C154.265 133.839 153.322 133.872 152.408 133.774C151.945 133.748 151.5 133.658 151.048 133.587C150.607 133.492 150.159 133.401 149.73 133.274C148 132.784 146.374 132.069 144.849 131.225C141.789 129.539 139.06 127.424 136.49 125.175C135.852 124.607 135.218 124.036 134.599 123.45C133.98 122.869 133.391 122.32 132.771 121.776C131.539 120.698 130.252 119.706 128.899 118.883C127.541 118.078 126.112 117.451 124.62 117.201C123.128 116.938 121.589 117.007 120.123 117.407C118.66 117.809 117.277 118.526 116.083 119.482C115.933 119.6 115.791 119.729 115.644 119.852L115.175 120.269L114.235 121.107L112.352 122.786L110.47 124.464L109.544 125.294C109.262 125.552 108.993 125.824 108.741 126.11C107.724 127.251 106.951 128.588 106.487 130.05C106.001 131.568 105.662 133.114 105.648 134.659L105.643 135.238L105.677 135.815C105.685 136.201 105.766 136.581 105.806 136.964C105.881 137.343 105.949 137.725 106.046 138.1C106.158 138.473 106.239 138.853 106.383 139.219C106.891 140.698 107.63 142.118 108.505 143.469C108.72 143.808 108.94 144.145 109.184 144.471C109.424 144.802 109.645 145.122 109.908 145.469C110.419 146.15 110.915 146.846 111.406 147.544C113.348 150.354 115.137 153.306 116.464 156.538C117.129 158.15 117.652 159.847 117.943 161.622C118.02 162.063 118.058 162.517 118.104 162.968C118.122 163.423 118.16 163.877 118.134 164.339C118.126 165.259 117.987 166.191 117.748 167.101C117.523 168.017 117.113 168.885 116.646 169.707C116.381 170.099 116.14 170.51 115.826 170.862C115.675 171.041 115.532 171.231 115.371 171.4L114.876 171.896L114.626 172.14L114.36 172.362L113.825 172.803C113.456 173.074 113.076 173.33 112.696 173.581C112.299 173.803 111.922 174.039 111.507 174.246C111.077 174.441 110.659 174.655 110.196 174.791C109.75 174.962 109.274 175.054 108.802 175.155C108.563 175.196 108.319 175.211 108.077 175.239C107.836 175.272 107.593 175.269 107.35 175.264C106.861 175.278 106.379 175.205 105.899 175.139L105.194 174.98C104.959 174.927 104.739 174.837 104.51 174.766C102.701 174.138 101.192 173.029 99.8886 171.81C98.5942 170.572 97.4879 169.196 96.509 167.754C96.0182 167.033 95.5588 166.293 95.128 165.539C94.6958 164.775 94.2987 164.032 93.9158 163.195L94.5484 163.8C91.3305 162.538 88.1814 161.041 85.2318 159.154L84.1485 158.411C83.7893 158.159 83.4186 157.926 83.078 157.645C82.3853 157.103 81.6805 156.576 81.0344 155.97C80.7102 155.669 80.361 155.398 80.0591 155.071L79.1267 154.121C78.819 153.802 78.5428 153.449 78.2501 153.114C78.107 152.944 77.9596 152.777 77.8194 152.603L77.4222 152.064C75.2605 149.22 73.8316 145.745 73.4681 142.147C73.2885 140.349 73.3629 138.536 73.6477 136.762C73.8029 135.877 74.0012 135 74.2616 134.138C74.3933 133.708 74.5357 133.28 74.6981 132.856C74.7783 132.644 74.8627 132.433 74.9543 132.221C75.0473 132.003 75.1339 131.811 75.2605 131.56L75.4087 132.845C73.5539 130.7 71.7872 128.491 70.0935 126.233C68.3869 123.983 66.7733 121.67 65.2213 119.32C63.685 116.959 62.2331 114.547 60.8735 112.085C59.524 109.617 58.2646 107.1 57.1927 104.487C57.1126 104.291 57.2063 104.066 57.4031 103.986C57.5691 103.918 57.7558 103.975 57.8582 104.112C59.5369 106.373 61.0968 108.692 62.6474 111.01L67.2656 117.969C68.7998 120.288 70.374 122.576 71.994 124.828C73.6276 127.069 75.3256 129.26 77.1374 131.344C77.4501 131.704 77.4981 132.204 77.2977 132.606L77.2856 132.629C77.2212 132.758 77.131 132.952 77.058 133.125C76.98 133.304 76.9078 133.487 76.8376 133.672C76.6959 134.042 76.57 134.42 76.4527 134.802C76.2222 135.567 76.0455 136.35 75.906 137.139C75.6534 138.719 75.5875 140.328 75.7457 141.914C76.0705 145.086 77.312 148.133 79.2605 150.699L79.6176 151.186C79.7442 151.343 79.8787 151.494 80.009 151.648C80.2759 151.952 80.5228 152.272 80.8054 152.563L81.6583 153.433C81.9324 153.733 82.2594 153.982 82.5571 154.26C83.1503 154.819 83.8093 155.309 84.454 155.815C84.7689 156.076 85.1202 156.295 85.4558 156.531L86.4733 157.23C89.254 159.008 92.2693 160.447 95.377 161.665C95.6661 161.778 95.8836 161.995 96.0038 162.256L96.0103 162.27C96.3273 162.963 96.7194 163.705 97.1165 164.404C97.5187 165.108 97.948 165.798 98.4031 166.467C99.3097 167.805 100.327 169.061 101.464 170.148C102.606 171.219 103.881 172.13 105.262 172.603C105.947 172.854 106.656 172.977 107.363 172.975C107.54 172.98 107.717 172.984 107.893 172.956C108.069 172.934 108.246 172.927 108.421 172.897C108.769 172.817 109.122 172.758 109.462 172.623C109.811 172.526 110.14 172.35 110.477 172.2C110.813 172.034 111.15 171.821 111.488 171.636C111.807 171.423 112.126 171.208 112.434 170.983L112.872 170.622L113.091 170.442L113.29 170.244L113.687 169.849C113.816 169.714 113.924 169.564 114.044 169.423C114.296 169.149 114.475 168.827 114.685 168.526C115.04 167.887 115.365 167.225 115.538 166.503C115.724 165.789 115.841 165.046 115.845 164.284C115.869 163.906 115.833 163.52 115.82 163.136C115.78 162.751 115.75 162.366 115.681 161.979C115.428 160.435 114.96 158.896 114.343 157.403C113.116 154.406 111.405 151.567 109.526 148.852C109.051 148.175 108.57 147.501 108.072 146.837C107.828 146.515 107.569 146.145 107.316 145.796C107.056 145.446 106.816 145.081 106.581 144.711C105.63 143.241 104.8 141.66 104.216 139.958C104.054 139.539 103.953 139.096 103.827 138.663C103.713 138.226 103.632 137.778 103.547 137.333C103.496 136.881 103.406 136.433 103.393 135.977L103.354 135.296L103.359 134.614C103.378 132.792 103.772 131.015 104.311 129.338C104.865 127.595 105.809 125.955 107.03 124.588C107.334 124.244 107.657 123.917 107.995 123.608L108.947 122.755L110.829 121.077L112.711 119.399L113.652 118.559L114.125 118.139C114.3 117.991 114.47 117.838 114.651 117.696C116.08 116.551 117.741 115.686 119.521 115.197C121.3 114.71 123.199 114.624 125.018 114.946C126.851 115.256 128.55 116.013 130.076 116.92C131.596 117.844 132.98 118.916 134.276 120.051C134.922 120.615 135.561 121.213 136.168 121.782C136.77 122.352 137.385 122.907 138.004 123.456C140.487 125.633 143.112 127.655 145.948 129.217C147.362 130.001 148.838 130.641 150.343 131.068C150.719 131.18 151.099 131.254 151.477 131.338C151.857 131.394 152.236 131.474 152.614 131.494C153.372 131.576 154.123 131.545 154.854 131.441C155.59 131.352 156.285 131.105 156.961 130.825C157.284 130.65 157.623 130.509 157.925 130.291C158.079 130.188 158.24 130.097 158.389 129.985L158.827 129.635L159.046 129.46L159.25 129.263L159.658 128.869C159.917 128.589 160.166 128.297 160.415 128.003C160.637 127.689 160.887 127.379 161.092 127.064C161.278 126.746 161.49 126.438 161.626 126.103C161.799 125.781 161.898 125.438 162.017 125.1C162.068 124.93 162.094 124.755 162.136 124.582C162.184 124.411 162.199 124.234 162.216 124.058C162.299 123.356 162.257 122.638 162.086 121.928C161.773 120.503 161.014 119.131 160.08 117.875C159.129 116.621 157.998 115.468 156.772 114.415C156.159 113.887 155.523 113.382 154.868 112.901C154.22 112.427 153.527 111.953 152.875 111.559L152.865 111.553C152.599 111.392 152.421 111.138 152.347 110.861C151.491 107.635 150.411 104.473 148.979 101.496L148.41 100.4C148.214 100.039 148.044 99.6607 147.822 99.3151C147.397 98.6145 146.997 97.8947 146.517 97.2349C145.614 95.8704 144.562 94.6232 143.42 93.484C141.147 91.1878 138.315 89.5098 135.239 88.6783C133.702 88.2561 132.101 88.0801 130.504 88.0808C129.705 88.0923 128.906 88.1452 128.117 88.2561C127.722 88.3148 127.33 88.3814 126.945 88.4651C126.752 88.508 126.56 88.5517 126.374 88.6017C126.193 88.6475 125.987 88.7091 125.854 88.7527L125.835 88.7585C125.393 88.9037 124.925 88.7663 124.627 88.4465C121.516 85.1012 118.132 81.995 114.633 79.0183C112.853 77.5635 111.086 76.0952 109.25 74.7042C107.452 73.2695 105.587 71.9156 103.743 70.5375C100.027 67.8126 96.2471 65.1729 92.4482 62.5519C88.6508 59.9308 84.8361 57.3197 81.053 54.6471L81.048 54.6435C80.8755 54.5219 80.834 54.2829 80.9564 54.1104C81.0651 53.9559 81.2669 53.9072 81.4322 53.9852Z" fill="#371A45"/>
<path d="M82.8491 114.465C80.8026 118.282 75.8101 121.993 72.2266 124.308C70.0771 125.696 67.2077 125.035 65.8761 122.85C64.6617 120.855 65.1505 118.264 67.0131 116.857C70.1766 114.466 74.8005 110.732 77.159 107.684L82.8491 114.465Z" fill="white"/>
<path d="M69.7714 123.891C69.5167 123.891 69.2598 123.863 69.0043 123.804C68.1006 123.597 67.3364 123.047 66.8541 122.254C66.7582 122.097 66.6759 121.935 66.6079 121.77C66.7603 121.785 66.9135 121.793 67.0673 121.793C67.9102 121.793 68.7646 121.558 69.5281 121.065C71.9181 119.522 74.9363 117.357 77.2883 114.953L79.2461 117.306C77.3728 119.238 74.7724 121.301 71.6054 123.347C71.0487 123.706 70.4168 123.891 69.7714 123.891Z" fill="#B9AFBE"/>
<path d="M82.849 114.467H82.8526H82.849ZM77.9117 108.581C75.478 111.638 71.0366 115.253 67.7028 117.772C66.3053 118.829 65.9404 120.756 66.8541 122.255C67.3364 123.048 68.1006 123.599 69.0044 123.805C69.906 124.012 70.8291 123.85 71.6054 123.348C76.7181 120.046 80.3531 116.699 81.8401 113.926C82.2465 113.169 81.6125 112.01 81.3213 111.547C80.2358 109.823 78.5456 108.725 77.9117 108.581ZM69.7765 126.183C69.35 126.183 68.92 126.135 68.4935 126.038C66.9822 125.692 65.7057 124.771 64.8985 123.447C63.3701 120.939 63.9826 117.713 66.3225 115.945C70.9779 112.427 74.5042 109.245 76.2537 106.985C76.6186 106.513 77.7249 105.582 80.1056 107.126C82.4934 108.674 85.337 112.251 83.8579 115.008C81.7213 118.994 76.6909 122.789 72.8476 125.272C71.916 125.873 70.857 126.183 69.7765 126.183Z" fill="#371A45"/>
<path d="M106.451 94.8283C110.576 93.5102 115.134 89.2763 118.062 86.1736C119.818 84.3125 119.69 81.3701 117.783 79.6642C116.044 78.1064 113.406 78.1157 111.683 79.6914C108.757 82.3676 104.245 86.2344 100.818 87.9997L106.451 94.8283Z" fill="white"/>
<path d="M101.562 88.9044C101.587 89.5542 102.36 91.4161 103.858 92.7971C104.26 93.1677 105.283 93.9999 106.102 93.7402C109.1 92.7821 113.052 89.8168 117.229 85.3903C117.863 84.7184 118.191 83.8397 118.152 82.916C118.113 81.9893 117.711 81.1385 117.02 80.5188C115.711 79.3482 113.749 79.356 112.457 80.5389C109.373 83.3582 105.009 87.069 101.562 88.9044ZM105.762 96.0829C103.147 96.0829 100.694 93.1212 99.7311 90.7978C98.6464 88.176 99.7634 87.2572 100.294 86.9839C102.834 85.6759 106.605 82.7864 110.911 78.8487C113.075 76.8695 116.359 76.8537 118.547 78.8137C119.702 79.8476 120.375 81.2702 120.44 82.8194C120.505 84.365 119.956 85.8368 118.895 86.9617C115.755 90.2891 111.106 94.5452 106.799 95.9212C106.453 96.0321 106.106 96.0829 105.762 96.0829Z" fill="#371A45"/>
<path d="M100.111 84.7848L109.184 95.69C110.867 97.7135 110.589 100.748 108.565 102.431L88.4818 119.139C86.4618 120.82 83.4271 120.542 81.7441 118.519L72.6716 107.614C70.9879 105.59 71.2684 102.559 73.2891 100.878L93.3727 84.1695C94.5641 83.1784 96.1047 82.8671 97.5143 83.1899C98.4982 83.416 99.4191 83.9527 100.111 84.7848Z" fill="white"/>
<path d="M96.4225 84.2106C95.5732 84.2106 94.761 84.5018 94.1056 85.047L74.0213 101.756C73.2785 102.374 72.8199 103.25 72.7311 104.221C72.6417 105.193 72.9336 106.137 73.5519 106.881L82.6251 117.787C83.9089 119.33 86.208 119.541 87.7507 118.258L107.834 101.549C108.578 100.93 109.036 100.054 109.125 99.0827C109.214 98.111 108.923 97.1672 108.304 96.4237L99.2304 85.5172C98.6121 84.7737 97.7363 84.3157 96.7646 84.2263C96.6501 84.2156 96.5356 84.2106 96.4225 84.2106ZM85.428 121.387C83.7264 121.387 82.0362 120.66 80.8656 119.252L71.7916 108.346C70.7819 107.132 70.3054 105.593 70.4506 104.012C70.5959 102.432 71.3437 101.005 72.5572 99.9958L92.6415 83.2868C93.8544 82.2771 95.3921 81.8006 96.9742 81.9465C98.5549 82.0911 99.981 82.8395 100.991 84.0524L110.065 94.959C111.074 96.1725 111.55 97.711 111.405 99.2917C111.26 100.872 110.512 102.299 109.299 103.309L89.2147 120.018C88.1092 120.938 86.7647 121.387 85.428 121.387Z" fill="#371A45"/>
<path d="M101.215 93.0936C102.672 94.8453 102.433 97.4463 100.682 98.9039C98.9299 100.361 96.3288 100.123 94.8712 98.3708C93.4144 96.6192 93.6527 94.0181 95.4043 92.5605C97.156 91.1036 99.7571 91.3419 101.215 93.0936Z" fill="#22A7F0"/>
<path d="M99.251 82.6283C98.7058 82.3349 98.1133 82.1282 97.4915 82.0165C98.0288 80.765 98.7043 79.5822 99.4714 78.5389C100.342 77.3525 100.721 75.9207 100.602 74.5139C101.426 75.1014 102.279 75.6452 103.128 76.1955C101.819 77.5393 100.811 79.0978 100.018 80.7464C99.7304 81.3582 99.4728 81.9865 99.251 82.6283Z" fill="#B9AFBE"/>
<path d="M85.4257 119.097C84.3817 119.097 83.3442 118.651 82.625 117.787L79.7256 114.302C86.1241 113.393 95.085 108.604 97.5387 100.692C97.5551 100.693 97.5716 100.694 97.5873 100.696C97.7426 100.71 97.8979 100.717 98.0517 100.717C99.2124 100.717 100.327 100.316 101.231 99.5639C102.254 98.7124 102.885 97.5131 103.006 96.1879C103.009 96.1557 103.012 96.1235 103.014 96.0913C103.287 96.2451 103.566 96.3861 103.847 96.5142C104.398 96.7847 104.973 96.9571 105.542 97.1475C106.118 97.2863 106.694 97.4501 107.274 97.526C107.849 97.6305 108.423 97.6934 108.999 97.7321C109.124 98.1636 109.167 98.6201 109.125 99.0823C109.036 100.054 108.578 100.929 107.834 101.548L87.7506 118.257C87.0715 118.822 86.2465 119.097 85.4257 119.097ZM96.5405 90.9772C95.9344 88.8813 96.0732 86.5064 96.7108 84.2216C96.7287 84.2231 96.7466 84.2245 96.7644 84.2259C97.4535 84.2889 98.0939 84.5379 98.6292 84.9422C98.4653 85.7973 98.3709 86.671 98.3601 87.559C98.3516 88.6366 98.4775 89.7364 98.7916 90.8048C98.6943 90.7897 98.597 90.7783 98.4982 90.769C98.343 90.7547 98.1884 90.7475 98.0338 90.7475C97.5222 90.7475 97.0199 90.8255 96.5405 90.9772Z" fill="#B9AFBE"/>
<path d="M85.4294 120.239C84.0548 120.239 82.6881 119.653 81.7443 118.519L78.3518 114.44C78.7926 114.415 79.2527 114.369 79.7257 114.302L82.6251 117.788C83.3442 118.651 84.3818 119.098 85.4258 119.098C86.2466 119.098 87.0716 118.823 87.7507 118.258L107.834 101.549C108.578 100.93 109.036 100.055 109.125 99.0831C109.167 98.6209 109.124 98.1644 108.999 97.7329C109.394 97.7586 109.789 97.7729 110.186 97.7808C110.528 99.4566 109.967 101.267 108.566 102.432L88.4812 119.138C87.5932 119.878 86.5084 120.239 85.4294 120.239ZM98.6293 84.943C98.094 84.5387 97.4536 84.2897 96.7645 84.2267C96.7467 84.2253 96.7288 84.2239 96.7109 84.2224C96.9205 83.4725 97.1831 82.7333 97.4915 82.0164C98.1134 82.128 98.7058 82.3348 99.2511 82.6282C98.9906 83.3816 98.7803 84.1537 98.6293 84.943Z" fill="#371A45"/>
<path d="M98.0496 98.9986C97.9487 98.9986 97.8464 98.9936 97.7448 98.9843C96.8754 98.9048 96.0897 98.4912 95.5316 97.8208C95.4378 97.7077 95.3527 97.5904 95.2754 97.4687C95.558 97.5281 95.8457 97.5589 96.1341 97.5589C96.8761 97.5589 97.6224 97.3585 98.2872 96.9506C98.4117 95.5403 98.0875 94.1271 97.3648 92.9006C97.3019 92.794 97.241 92.6866 97.1838 92.5772C97.4593 92.5027 97.7462 92.4641 98.0374 92.4641C98.1383 92.4641 98.2399 92.4684 98.3416 92.4777C98.8346 92.5228 99.3011 92.6759 99.714 92.9221C100.028 93.4458 100.397 93.9389 100.818 94.3832C100.926 94.4984 101.037 94.6108 101.151 94.7188C101.287 95.136 101.338 95.5796 101.296 96.0297C101.217 96.8984 100.803 97.6841 100.133 98.2422C99.5401 98.7345 98.8102 98.9986 98.0496 98.9986Z" fill="#2976B4"/>
<path d="M98.0375 92.4655C97.2762 92.4655 96.5456 92.7281 95.9538 93.2211C95.2826 93.7793 94.8697 94.565 94.7896 95.4344C94.7102 96.303 94.9735 97.151 95.5316 97.8222C96.0898 98.4926 96.8754 98.9062 97.7448 98.9857C98.6128 99.0658 99.4615 98.8018 100.133 98.2436C100.803 97.6855 101.217 96.8998 101.296 96.0311C101.376 95.1617 101.112 94.3138 100.554 93.6433C99.996 92.9721 99.2103 92.5592 98.3416 92.4791C98.24 92.4698 98.1384 92.4655 98.0375 92.4655ZM98.0518 100.717C97.898 100.717 97.7427 100.71 97.5874 100.696C96.2622 100.574 95.0629 99.9438 94.2114 98.9206C93.3599 97.8973 92.9578 96.6029 93.0794 95.2769C93.2011 93.951 93.8315 92.7524 94.8554 91.9009C95.8787 91.0494 97.1731 90.6473 98.4983 90.7689C99.8243 90.8906 101.023 91.521 101.874 92.5449C102.726 93.5682 103.128 94.8619 103.006 96.1878C102.885 97.513 102.254 98.7123 101.231 99.5638C100.327 100.316 99.2125 100.717 98.0518 100.717Z" fill="#371A45"/>
<path d="M96.6521 113.199C96.406 113.199 96.1619 113.093 95.9916 112.889L89.7964 105.442L83.6912 105.74C83.4207 105.753 83.1624 105.639 82.99 105.431L76.7818 97.9701C76.4784 97.6052 76.5285 97.0642 76.8927 96.7608C77.2576 96.4574 77.7993 96.5068 78.102 96.871L84.0361 104.004L90.1405 103.706C90.4132 103.693 90.67 103.807 90.8425 104.014L97.3119 111.791C97.6152 112.156 97.5652 112.697 97.2009 113C97.0407 113.134 96.846 113.199 96.6521 113.199Z" fill="#371A45"/>
<path d="M109.406 96.6214C95.0264 95.8056 98.8446 80.9478 104.987 76.0448L104.821 75.9303L96.4918 70.2001L96.3802 70.1143L82.8647 59.6356C82.8647 59.6356 110.689 59.6356 120.349 69.8073C129.665 79.6162 124.029 97.4486 109.406 96.6214Z" fill="white"/>
<path d="M105.825 75.2559C105.771 75.1987 105.71 75.1458 105.644 75.0992L105.639 75.0964C104.231 74.1111 102.88 73.0434 101.423 72.1297C100.693 71.6739 99.9588 71.2259 99.1781 70.8431C98.952 70.7315 98.7238 70.6227 98.4912 70.5204C100.054 70.8309 101.707 71.1844 102.886 71.5028C103.8 71.7497 104.683 71.837 105.476 71.837C107.378 71.837 108.766 71.3325 108.851 71.3025C108.04 73.1715 106.903 74.4252 105.825 75.2559Z" fill="#B9AFBE"/>
<path d="M110.709 95.4967C109.695 95.4874 108.652 95.4523 107.653 95.267C107.144 95.2033 106.666 95.0602 106.178 94.9464C105.71 94.7869 105.232 94.6473 104.799 94.4312C103.917 94.0298 103.122 93.4938 102.488 92.8169C102.297 92.6173 102.122 92.4055 101.962 92.1829C103.419 92.9829 105.305 93.5053 107.692 93.6398C108.021 93.6584 108.345 93.667 108.665 93.667C118.37 93.667 123.825 85.2513 123.129 76.9094C123.275 77.4281 123.396 77.9548 123.504 78.4829C123.669 79.4911 123.765 80.5108 123.752 81.5333C123.715 83.5755 123.306 85.617 122.5 87.4846C121.702 89.3515 120.515 91.0495 119.003 92.3697C118.247 93.0266 117.427 93.6148 116.528 94.0591C116.309 94.1786 116.087 94.2946 115.851 94.384L115.159 94.6752C114.678 94.8191 114.211 95.0101 113.715 95.1039C112.741 95.3658 111.723 95.4423 110.709 95.4967Z" fill="#B9AFBE"/>
<path d="M82.8633 59.2526C83.9746 58.9764 85.0809 58.8598 86.1907 58.7832C87.2991 58.7152 88.4075 58.7153 89.5123 58.7675C91.7241 58.8505 93.9287 59.0838 96.1183 59.4201C100.494 60.0999 104.869 60.9184 109.136 62.2823C111.267 62.9664 113.371 63.7821 115.39 64.834C117.403 65.8859 119.345 67.1731 121.005 68.8483C121.225 69.0458 121.403 69.279 121.601 69.4944C121.79 69.7177 121.996 69.9259 122.17 70.162C122.522 70.63 122.89 71.0872 123.192 71.5896C123.843 72.5641 124.359 73.6232 124.796 74.7073C125.236 75.7942 125.528 76.9312 125.757 78.0768C125.949 79.2296 126.057 80.3959 126.041 81.5644C126 83.8979 125.534 86.2299 124.605 88.3866C123.683 90.5404 122.303 92.5275 120.514 94.0896C119.621 94.8667 118.644 95.5629 117.579 96.0924C117.318 96.2341 117.054 96.3701 116.777 96.4781L115.955 96.8216C115.39 96.9969 114.834 97.2151 114.253 97.3289C113.106 97.6323 111.928 97.7282 110.758 97.7861C109.585 97.7783 108.432 97.7353 107.274 97.525C106.694 97.4491 106.118 97.2853 105.542 97.1464C104.973 96.9561 104.398 96.7836 103.847 96.5132C102.74 96.0101 101.682 95.306 100.818 94.3837C99.9501 93.4663 99.2997 92.3436 98.9062 91.1651C98.5076 89.9851 98.3509 88.7572 98.3602 87.558C98.3895 85.153 99.0278 82.8517 100.018 80.7444C101.028 78.6457 102.387 76.6929 104.27 75.1423L104.335 76.9892C102.912 76.026 101.431 75.1466 100.057 74.1133C99.3705 73.5946 98.6886 73.0693 98.0525 72.4776C97.7341 72.1835 97.4214 71.8794 97.1258 71.5509C96.826 71.2289 96.5384 70.889 96.2758 70.5134C96.1463 70.3288 96.1913 70.0747 96.3759 69.9459C96.4761 69.8758 96.5978 69.8572 96.708 69.8844C97.153 69.9946 97.5731 70.142 97.9809 70.3073C98.3938 70.4654 98.7895 70.6486 99.1781 70.8404C99.9587 71.2232 100.693 71.6711 101.423 72.127C102.88 73.0407 104.231 74.1083 105.639 75.0937L105.644 75.0965C106.165 75.4615 106.293 76.1799 105.928 76.7015C105.865 76.7924 105.786 76.874 105.705 76.9398C104.182 78.162 102.968 79.8886 102.087 81.7254C101.215 83.573 100.671 85.5959 100.65 87.5758C100.623 89.5508 101.202 91.4706 102.488 92.8166C103.122 93.4935 103.917 94.0295 104.799 94.4309C105.232 94.647 105.71 94.7865 106.178 94.9461C106.666 95.0599 107.144 95.203 107.652 95.2667C108.652 95.452 109.695 95.487 110.709 95.4963C111.723 95.442 112.741 95.3654 113.715 95.1035C114.211 95.0098 114.678 94.8187 115.159 94.6749L115.851 94.3837C116.087 94.2942 116.309 94.1783 116.528 94.0588C117.427 93.6144 118.247 93.0262 119.003 92.3694C120.515 91.0492 121.702 89.3511 122.5 87.4843C123.306 85.6166 123.715 83.5752 123.752 81.533C123.765 80.5104 123.669 79.4908 123.503 78.4825C123.3 77.4836 123.049 76.4904 122.666 75.5445C122.283 74.6021 121.838 73.6797 121.269 72.8339C121.008 72.3953 120.686 72.0003 120.381 71.5917C120.232 71.3856 120.049 71.2053 119.885 71.0107C119.712 70.8239 119.559 70.6171 119.368 70.449C117.942 69.01 116.197 67.8379 114.334 66.8662C112.467 65.8923 110.474 65.1159 108.436 64.4626C104.353 63.166 100.095 62.3073 95.7963 61.8079L89.337 61.0952C87.1803 60.8633 85.025 60.5757 82.8633 60.0161L82.8598 60.0147C82.6494 59.9603 82.5235 59.7456 82.5778 59.5353C82.615 59.3914 82.7281 59.287 82.8633 59.2526Z" fill="#371A45"/>
<path d="M104.362 75.0831C104.43 74.9965 104.56 74.8785 104.665 74.7733L105.006 74.4513C105.234 74.2344 105.465 74.0205 105.698 73.8073C106.156 73.3729 106.626 72.9443 107.058 72.4713C107.498 72.0026 107.892 71.4917 108.256 70.9393C108.646 70.3926 108.921 69.783 109.243 69.1304L109.25 69.1175C109.291 69.0338 109.392 68.9994 109.476 69.0402C109.527 69.066 109.56 69.1146 109.568 69.1669C109.677 69.8989 109.687 70.681 109.528 71.4323C109.379 72.1851 109.131 72.9336 108.772 73.6212C108.421 74.3124 108 74.9772 107.476 75.5475C107.214 75.8316 106.938 76.1042 106.631 76.3432C106.482 76.4677 106.322 76.5793 106.158 76.6895C105.987 76.8011 105.834 76.892 105.612 77.0022C105.048 77.282 104.365 77.0516 104.085 76.4885C103.884 76.082 103.947 75.6133 104.208 75.2792L104.362 75.0831Z" fill="#371A45"/>
<path d="M89.9931 35.4109C89.6325 35.7279 89.0837 35.6921 88.7667 35.3315L72.2466 16.5352C71.9296 16.1753 71.9646 15.6264 72.3253 15.3094C76.1063 11.9864 81.8651 12.357 85.1882 16.1381L90.8217 22.548C94.1448 26.3283 93.7741 32.0878 89.9931 35.4109Z" fill="white"/>
<path d="M78.3295 13.2493C76.1657 13.2493 74.1013 14.0249 72.4612 15.4668C72.3281 15.5834 72.2487 15.7451 72.2373 15.9219C72.2258 16.0986 72.2838 16.2689 72.4011 16.4027L88.9212 35.1983C89.0386 35.3321 89.2003 35.4115 89.377 35.423C89.5523 35.4351 89.7241 35.3765 89.8572 35.2591C91.6446 33.6885 92.7129 31.5153 92.8661 29.1404C93.0192 26.7654 92.2385 24.4735 90.6672 22.6868L85.0336 16.2768C83.4629 14.4893 81.2898 13.421 78.9148 13.2679C78.7195 13.255 78.5242 13.2493 78.3295 13.2493ZM89.4214 35.8359C89.3978 35.8359 89.3742 35.8351 89.3505 35.833C89.0643 35.8144 88.8017 35.6856 88.6121 35.4702L72.092 16.6739C71.9024 16.4586 71.8079 16.1816 71.8265 15.8954C71.8451 15.6092 71.9739 15.3473 72.1893 15.1577C74.0598 13.514 76.4583 12.6969 78.942 12.8571C81.4257 13.0174 83.6991 14.1351 85.3427 16.0049L90.9763 22.4148C92.6199 24.2846 93.4371 26.6824 93.2768 29.1669C93.1165 31.6513 91.9988 33.9246 90.1291 35.5682C89.9309 35.7421 89.6818 35.8359 89.4214 35.8359Z" fill="#371A45"/>
<path d="M89.8686 33.9328C89.2081 32.5904 88.469 31.286 87.654 30.0223C87.3842 29.5772 87.1066 29.1357 86.821 28.6985C88.381 26.7758 89.0514 24.3407 88.7938 21.9751L89.9616 23.3046C91.367 24.9032 92.0661 26.954 91.9287 29.0785C91.8114 30.906 91.0872 32.5997 89.8686 33.9328Z" fill="#B9AFBE"/>
<path d="M73.2921 15.9917L89.4415 34.3658C90.9177 32.9776 91.7978 31.1107 91.9288 29.0785C92.0662 26.9541 91.3671 24.9033 89.9617 23.3047L84.3281 16.8948C82.9235 15.2962 80.9793 14.3402 78.8548 14.2035C76.8241 14.0733 74.8584 14.7059 73.2921 15.9917ZM89.4229 36.7729C89.3785 36.7729 89.3342 36.7715 89.2898 36.7687C88.7531 36.7343 88.2623 36.4925 87.9073 36.0889L71.3865 17.2926C71.0316 16.8883 70.8549 16.3695 70.8892 15.8336C70.9236 15.2962 71.1654 14.8053 71.5697 14.4504C73.6277 12.6415 76.2674 11.7399 79.0022 11.918C81.7371 12.0948 84.2394 13.3256 86.0483 15.3835L91.6819 21.7935C93.4908 23.8514 94.3903 26.4904 94.2143 29.2252C94.0382 31.9601 92.8075 34.4624 90.7488 36.2713C90.3782 36.5976 89.9116 36.7729 89.4229 36.7729Z" fill="#371A45"/>
<path d="M10.283 69.8426C10.6433 69.5256 11.1923 69.5614 11.509 69.9213L28.0294 88.7176C28.3464 89.0782 28.3113 89.6271 27.9507 89.9441C24.1697 93.2671 18.4108 92.8957 15.0877 89.1147L9.4541 82.7055C6.13098 78.9245 6.50206 73.1657 10.283 69.8426Z" fill="white"/>
<path d="M10.2829 69.8414H10.2864H10.2829ZM10.8555 69.8307C10.6944 69.8307 10.5406 69.8887 10.4185 69.996C6.72898 73.2389 6.36555 78.8789 9.60832 82.5684L15.242 88.9783C18.4852 92.6677 24.1252 93.0312 27.8146 89.7883C27.9477 89.671 28.0271 89.5093 28.0386 89.3325C28.05 89.1558 27.9921 88.9855 27.8747 88.8524L11.3544 70.0561C11.2374 69.923 11.0758 69.8436 10.899 69.8321C10.8845 69.8314 10.87 69.8307 10.8555 69.8307ZM21.9392 92.4123C19.3494 92.413 16.7728 91.3432 14.9331 89.2502L9.29948 82.8403C5.90688 78.9798 6.2872 73.0793 10.1471 69.6869C10.3627 69.498 10.6389 69.4057 10.9254 69.4214C11.2119 69.44 11.4739 69.5688 11.6635 69.7849L28.1838 88.5805C28.3735 88.7966 28.4679 89.0728 28.4493 89.359C28.4307 89.6452 28.3019 89.9078 28.0865 90.0974C26.3198 91.6502 24.1245 92.4123 21.9392 92.4123Z" fill="#371A45"/>
<path d="M21.9385 91.0644C19.7245 91.0644 17.5205 90.1492 15.9474 88.3596L14.8149 87.0716C15.3613 87.1717 15.916 87.2225 16.4712 87.2225C18.2073 87.2225 19.9499 86.7295 21.4705 85.7292C23.1005 87.1417 24.8179 88.4175 26.606 89.5545C25.2107 90.5663 23.5721 91.0644 21.9385 91.0644Z" fill="#B9AFBE"/>
<path d="M10.2829 69.8412H10.2864H10.2829ZM10.8344 70.8867C7.72602 73.8133 7.47407 78.717 10.314 81.9485L15.9474 88.3577C18.7875 91.5885 23.6823 91.9684 26.9839 89.2615L10.8344 70.8867ZM21.9392 93.3516C19.0889 93.3516 16.253 92.1738 14.2277 89.8697L8.59413 83.4597C4.85964 79.2107 5.27817 72.7156 9.52715 68.9811H9.52679H9.52694H9.52715C9.93122 68.6262 10.4503 68.4516 10.9859 68.4845C11.5227 68.5189 12.0139 68.76 12.3691 69.1643L28.8894 87.9606C29.2444 88.3642 29.4211 88.8822 29.3867 89.4196C29.3517 89.9563 29.1105 90.4471 28.7063 90.8021C26.7614 92.5115 24.3456 93.3516 21.9392 93.3516Z" fill="#371A45"/>
<path d="M84.0884 26.8139C98.3431 45.5623 94.6995 72.3163 75.9518 86.5702C57.2035 100.825 30.4495 97.1819 16.1953 78.4336C1.94098 59.6852 5.58409 32.9313 24.3322 18.6773C43.0805 4.42271 69.8345 8.06633 84.0884 26.8139Z" fill="white"/>
<path d="M50.0923 10.2016C41.1385 10.2016 32.1175 13.0166 24.4567 18.8412C5.82895 33.0035 2.19628 59.681 16.359 78.3091C30.5218 96.9372 57.1992 100.569 75.8266 86.4063C84.8505 79.5463 90.663 69.5822 92.1921 58.35C93.722 47.1179 90.7853 35.9624 83.9246 26.9385C75.5869 15.9711 62.9094 10.2016 50.0923 10.2016ZM50.1925 95.4567C37.2495 95.4567 24.4517 89.6328 16.0317 78.5581C1.7316 59.7497 5.39941 32.8132 24.2077 18.5135C43.0169 4.21307 69.9526 7.88101 84.2523 26.6895C91.1796 35.8007 94.1442 47.0643 92.6 58.4058C91.0558 69.746 85.1875 79.8068 76.0763 86.7341C68.3419 92.6145 59.2307 95.4567 50.1925 95.4567Z" fill="#371A45"/>
<path d="M50.191 94.1066C50.0321 94.1066 49.8747 94.1059 49.7166 94.1037C57.1426 92.7256 66.2052 89.3961 73.8852 83.2587C82.034 76.7479 87.39 68.9612 90.4941 62.3322C88.2758 71.6252 82.965 79.799 75.2584 85.6587C67.7672 91.3546 58.9458 94.1066 50.191 94.1066Z" fill="#B9AFBE"/>
<path d="M50.0929 11.1409C41.338 11.1409 32.5166 13.8937 25.0247 19.5895C6.80963 33.4384 3.25724 59.5255 17.1066 77.7414C30.956 95.9567 57.0431 99.5094 75.2583 85.6598C84.0826 78.9507 89.7663 69.207 91.2618 58.2239C92.7573 47.2401 89.8858 36.3321 83.1774 27.5071C75.0229 16.7831 62.6266 11.1409 50.0929 11.1409ZM50.193 96.396C36.9667 96.396 23.8884 90.444 15.2838 79.1268C0.670355 59.9062 4.41866 32.3801 23.6394 17.7662C42.86 3.1524 70.3861 6.90122 84.9999 26.1218C92.0789 35.4327 95.1086 46.9431 93.5301 58.5323C91.9523 70.1222 85.9552 80.4033 76.6444 87.4823C68.741 93.4916 59.4302 96.396 50.193 96.396Z" fill="#371A45"/>
<path d="M84.643 27.7681C89.7935 34.3341 92.4433 42.1014 92.7545 50.0041C92.9878 55.9289 86.9449 71.3585 73.1711 82.3644C60.3992 92.569 43.3174 94.891 37.6187 93.2538C30.0173 91.0692 23.1043 86.6456 17.9542 80.0797C4.32495 62.7045 13.6028 43.7923 32.0194 29.3459C50.4357 14.9002 71.0137 10.3929 84.643 27.7681Z" fill="#371A45"/>
<path d="M62.7904 17.6262C50.6681 17.6262 38.8199 25.4659 32.7255 30.2465C23.2143 37.7076 16.7577 45.9144 14.0551 53.978C11.0515 62.9396 12.6664 71.4834 18.8548 79.3731C23.6894 85.5362 30.2876 89.9555 37.9347 92.153C43.363 93.7129 60.0047 91.4189 72.4561 81.4697C86.2557 70.443 91.8184 55.3268 91.6102 50.0489C91.2975 42.0983 88.5769 34.6379 83.7419 28.4741C77.4521 20.4555 70.0712 17.6262 62.7904 17.6262ZM42.0234 94.8771C40.09 94.8771 38.4779 94.6918 37.3022 94.3534C29.1892 92.0228 22.1868 87.3309 17.0534 80.7857C10.3594 72.2526 8.62021 62.9883 11.8839 53.251C14.7294 44.7609 21.4476 36.1828 31.3123 28.4447C41.1769 20.7074 51.1082 16.2244 60.0312 15.4831C70.2672 14.6338 78.8496 18.5278 85.5437 27.0616C90.6771 33.6061 93.5665 41.5237 93.8985 49.9587C94.1289 55.8105 88.4946 71.585 73.8851 83.2586C63.2412 91.7637 49.9432 94.8771 42.0234 94.8771Z" fill="#371A45"/>
<path d="M73.5189 41.0565C71.1948 41.0558 68.6216 39.3084 67.1189 36.4633C65.1726 32.7775 65.7594 28.6466 68.4299 27.2362C69.0388 26.9142 69.7035 26.7618 70.3898 26.7618C72.1364 26.7618 74.0234 27.7493 75.4917 29.4473C76.3783 31.0981 77.1618 32.7868 77.8423 34.507C78.2401 37.1531 77.3965 39.5696 75.4788 40.5821C74.8699 40.9041 74.2051 41.0565 73.5189 41.0565Z" fill="#C3BAC7"/>
<path d="M76.2058 53.2165C74.9185 53.2165 73.6441 52.2784 73.1146 50.8165C72.4642 49.0176 73.1876 47.1063 74.7311 46.5482C75.0202 46.443 75.3171 46.3936 75.6141 46.3936C76.9014 46.3936 78.1758 47.3317 78.7053 48.7929C79.3564 50.5918 78.633 52.5031 77.0888 53.0619C76.7997 53.1664 76.5028 53.2165 76.2058 53.2165Z" fill="#C3BAC7"/>
<path d="M60.0171 88.675C74.9307 75.0486 81.5124 57.6928 81.2377 50.7154C81.0201 45.1849 79.8996 39.7058 77.8424 34.5073C77.6856 33.4683 77.3386 32.3943 76.7898 31.356C76.4162 30.6483 75.9769 30.0093 75.4917 29.4476C74.1973 27.039 72.6818 24.7134 70.9415 22.4952C69.6256 20.8151 68.256 19.2988 66.8414 17.9342C72.7698 18.8545 78.618 21.9428 83.7421 28.4751C88.5772 34.6389 91.2977 42.0994 91.6104 50.0499C91.8186 55.3279 86.2559 70.444 72.4564 81.4708C68.5623 84.582 64.2596 86.9448 60.0171 88.675Z" fill="#2A1A3B"/>
<path d="M57.572 90.809C58.4114 90.1092 59.225 89.3972 60.0171 88.6738C64.2596 86.9436 68.5623 84.5808 72.4563 81.4695C86.2559 70.4428 91.8186 55.3266 91.6104 50.0487C91.2977 42.0981 88.5771 34.6377 83.7421 28.4739C78.618 21.9416 72.7698 18.8532 66.8414 17.933C66.3798 17.4879 65.9133 17.0586 65.4432 16.6457C72.5701 17.3377 79.1668 20.7895 84.6416 27.7669C89.7936 34.3343 92.4419 42.1024 92.7553 50.0029C92.9878 55.9284 86.9435 71.3587 73.1712 82.3654C68.309 86.253 62.8214 88.9944 57.572 90.809Z" fill="#2A1A3B"/>
<path d="M77.8423 34.5057C77.1618 32.7855 76.3783 31.0968 75.4917 29.446C75.9768 30.0077 76.4162 30.6467 76.7897 31.3544C77.3386 32.3927 77.6856 33.4667 77.8423 34.5057Z" fill="#858290"/>
<path d="M69.8165 14.7818H69.8201H69.8165ZM8.82246 63.2931L8.84429 63.2945L8.82246 63.2931ZM8.84522 64.4394C8.82754 64.4394 8.81008 64.4387 8.79226 64.438C8.19062 64.4108 7.71843 63.9235 7.6999 63.331C6.80523 50.0495 14.3434 36.1176 28.3865 25.1016C42.3298 14.1643 57.5225 9.99903 70.0806 13.6663C70.5886 13.7829 70.9679 14.2387 70.9679 14.7818C70.9679 15.4144 70.4555 15.9267 69.8237 15.9267C69.7886 15.9267 69.7464 15.9246 69.7121 15.9217C69.6377 15.9153 69.5647 15.901 69.4924 15.8802C57.6413 12.3926 43.1742 16.4119 29.7997 26.9027C16.3508 37.4528 9.12943 50.6857 9.98667 63.2086C9.9886 63.2351 9.98946 63.2609 9.98946 63.2866C9.98946 63.3045 9.98875 63.3289 9.98803 63.346C9.96013 63.96 9.45351 64.4394 8.84522 64.4394Z" fill="#371A45"/>
<path d="M33.5506 84.5425C33.5506 84.5425 14.724 71.6231 18.6036 57.5466C22.2949 44.1535 34.526 34.0892 36.0122 34.0892C36.088 34.0892 36.136 34.1157 36.1531 34.1686C36.1531 34.1686 24.2341 49.2719 27.6008 65.4199C30.1975 77.8713 33.5506 84.5425 33.5506 84.5425Z" fill="#C3BAC7"/>
<path d="M146.129 121.653C147.02 120.896 147.857 120.084 148.615 119.234C149.378 118.39 150.051 117.49 150.615 116.561C151.173 115.627 151.59 114.652 151.874 113.674C152.165 112.691 152.27 111.701 152.313 110.67L152.315 110.622C152.342 109.988 152.877 109.496 153.511 109.523C154.061 109.545 154.505 109.953 154.595 110.474C154.821 111.785 154.675 113.172 154.241 114.426C153.819 115.69 153.099 116.803 152.286 117.773C151.461 118.738 150.521 119.565 149.513 120.261C148.497 120.951 147.434 121.538 146.283 121.941C146.197 121.972 146.103 121.926 146.072 121.84C146.049 121.774 146.071 121.702 146.121 121.659L146.129 121.653Z" fill="#371A45"/>
<path d="M106.425 155.558C106.004 156.702 105.4 157.756 104.695 158.76C103.983 159.758 103.142 160.685 102.164 161.494C101.182 162.293 100.057 162.995 98.7858 163.397C97.5257 163.811 96.1368 163.936 94.8302 163.69C94.207 163.572 93.797 162.97 93.915 162.347C94.0174 161.806 94.4832 161.426 95.0127 161.413L95.0621 161.411C96.0925 161.384 97.0842 161.295 98.071 161.018C99.0535 160.75 100.035 160.349 100.978 159.805C101.916 159.256 102.826 158.597 103.682 157.847C104.543 157.104 105.368 156.278 106.14 155.398L106.146 155.391C106.206 155.323 106.311 155.316 106.379 155.376C106.432 155.423 106.448 155.496 106.425 155.558Z" fill="#371A45"/>
<path d="M123.33 75.0383C123.112 75.0383 122.893 74.9553 122.726 74.7893C116.542 68.6498 108.266 74.1854 107.918 74.4237C107.526 74.6898 106.992 74.5911 106.724 74.2004C106.457 73.809 106.556 73.2759 106.947 73.0076C107.044 72.941 116.738 66.4251 123.936 73.57C124.272 73.9042 124.274 74.448 123.94 74.7843C123.772 74.9539 123.551 75.0383 123.33 75.0383Z" fill="#371A45"/>
<path d="M53.3488 122.994C53.0346 122.994 52.732 122.821 52.581 122.522C49.2393 115.887 37.7854 108.21 37.6702 108.134C37.2759 107.871 37.1686 107.337 37.4319 106.943C37.6945 106.548 38.2269 106.44 38.6219 106.704C39.1085 107.027 50.5688 114.709 54.1151 121.749C54.3284 122.173 54.1574 122.689 53.7345 122.902C53.6099 122.964 53.4783 122.994 53.3488 122.994Z" fill="#371A45"/>
<path d="M129.873 118.995C129.47 118.995 129.111 118.71 129.031 118.3C128.936 117.81 126.746 106.184 131.788 97.7008C137.068 88.8193 145.551 92.9194 145.636 92.9616C146.061 93.1727 146.232 93.6887 146.02 94.113C145.809 94.5373 145.293 94.7098 144.869 94.498C144.582 94.3556 137.717 91.0862 133.265 98.5788C128.562 106.491 130.695 117.858 130.717 117.973C130.807 118.438 130.503 118.888 130.038 118.979C129.983 118.99 129.928 118.995 129.873 118.995Z" fill="#371A45"/>
</svg>
