<svg viewBox="0 0 4059 3953" fill="none" xmlns="http://www.w3.org/2000/svg">
<path d="M2765.63 3952.12C2051.34 3952.12 1472.3 3867.06 1472.3 3762.12C1472.3 3699.78 1676.7 3644.44 1992.46 3609.8L1992.31 3616.75L1992.18 3622.92L1992.47 3629.75C1992.56 3638.84 1994.04 3648 1995.58 3657.12L1999.15 3670.68C2000.43 3675.16 2002.38 3679.48 2004.02 3683.88C2018.72 3718.87 2047.34 3745.76 2077.76 3762.51C2093.02 3771.16 2108.83 3778.28 2124.88 3783.8C2132.87 3786.88 2141 3789 2149.06 3791.58C2157.18 3793.59 2165.27 3796.03 2173.43 3797.67C2232.5 3810.78 2291.91 3814.36 2350.84 3814.36C2356.98 3814.36 2363.11 3814.32 2369.23 3814.24C2401.74 3813.75 2434.14 3812.08 2466.42 3809.54C2482.55 3808.24 2498.66 3806.74 2514.75 3805.06C2531.68 3802.87 2549 3800.32 2565.91 3794.59C2582.79 3789.1 2599.62 3781.75 2614.82 3770.74C2629.98 3759.83 2643.47 3745.55 2652.96 3728.7C2662.54 3711.9 2667.94 3692.83 2669.12 3673.96C2670.32 3655.04 2667.62 3636.36 2662.19 3618.91C2657.08 3602.46 2649.59 3587.08 2640.3 3573C2681.55 3572.42 2723.34 3572.12 2765.63 3572.12C2862.02 3572.12 2956 3573.67 3046.38 3576.62C3046.22 3581.87 3046.18 3587.15 3046.26 3592.47C3046.48 3610.75 3048.23 3629.52 3053.18 3648.55C3055.76 3658.07 3059.26 3667.64 3064.18 3676.94C3068.92 3686.15 3076.02 3695.47 3082.75 3702.15C3096.42 3716.51 3112.11 3727.79 3128.31 3737.18C3144.64 3746.28 3161.52 3753.51 3178.59 3759.7C3195.72 3765.54 3213.02 3770.48 3230.43 3774.34C3281.55 3785.5 3333.16 3790.08 3384.68 3790.08C3403.4 3790.08 3422.14 3789.48 3440.8 3788.36C3475.86 3786.23 3510.79 3781.74 3545.5 3774.91C3580.16 3767.72 3614.71 3758.35 3648.31 3742.56C3665.26 3734.44 3680.99 3724.52 3696.07 3712.04C3710.88 3699.56 3724.75 3683.54 3732.88 3663.27C3735.2 3658.39 3736.31 3652.94 3737.75 3647.66C3738.5 3644.19 3739 3640.63 3739.38 3637.07C3938.39 3670.48 4058.96 3714.23 4058.96 3762.12C4058.96 3867.06 3479.92 3952.12 2765.63 3952.12Z" fill="#7967BE"/>
<path d="M3636.1 2187.32C3526.23 2274.47 3400.1 2261.62 3307.94 2231.75C3230.66 2206.74 3177.27 2169.78 3177.27 2169.78V1583.8C3177.27 1583.8 3223.88 1823 3404.31 1804.98C3428.63 1802.52 3455.4 1795.43 3484.79 1782.42C3526.6 1763.96 3573.75 1733.62 3626.87 1687.86L3686.6 1732.87C3686.6 1732.87 3830.34 2033.24 3636.1 2187.32Z" fill="white"/>
<path d="M3310.48 2082.78C3308.56 2066.82 3306.55 2050.84 3304.43 2034.88C3306.36 2035.54 3308.31 2036.18 3310.28 2036.82C3344.47 2047.9 3383.32 2056.63 3424.27 2058.79C3416.28 2060.52 3408.31 2062.26 3400.35 2063.99C3370.32 2070.55 3340.42 2076.94 3310.48 2082.78ZM3694.94 2074.92C3692.36 2071.9 3689.62 2069.02 3686.7 2066.19C3692.02 2063.26 3697.1 2059.95 3701.75 2056.27C3699.74 2062.54 3697.47 2068.78 3694.94 2074.92Z" fill="#B9AFBE"/>
<path d="M3440.74 2275.48C3403.76 2275.48 3365.16 2270.08 3325.34 2259.22C3233.42 2234.15 3167.9 2189.24 3165.15 2187.35L3155.95 2180.99V1583.82L3198.23 1579.74C3198.54 1581.31 3230.95 1739.99 3337.75 1776.87C3410.3 1801.91 3502.9 1766.55 3612.94 1671.71C3621.86 1664.02 3635.34 1665.02 3643.02 1673.95C3650.71 1682.87 3649.71 1696.34 3640.79 1704.03C3518.32 1809.58 3411.62 1847.63 3323.66 1817.14C3264.16 1796.54 3224.4 1748.38 3198.63 1701.46V2158.12C3244.9 2186.47 3456.44 2302.59 3622.86 2170.59C3801.32 2029.03 3668.74 1744.91 3667.38 1742.06C3662.31 1731.43 3666.8 1718.7 3677.44 1713.63C3688.07 1708.55 3700.79 1713.04 3705.87 1723.66C3712.04 1736.55 3854.56 2041.26 3649.36 2204.02C3589.58 2251.44 3518.78 2275.48 3440.74 2275.48Z" fill="#371A45"/>
<path d="M3427.87 151.43C3428.38 154.483 3428.78 157.55 3429.15 160.683L3545.26 1242.11C3585.04 1612.71 3662.15 2139.86 3723.68 2507.47L3723.74 2507.78L3607.75 2527.19C3546.18 2159.36 3447.39 1635.64 3364.27 1272.08L3121.95 212.096C3101.94 124.55 3159.75 38.2961 3248.28 23.4829C3333.71 9.18945 3413.75 67.1096 3427.87 151.43Z" fill="#FFAC40"/>
<path d="M3467.82 720.684C3458.06 706.417 3448.04 692.497 3437.83 678.964L3384.04 178.044C3383.67 174.897 3383.3 171.804 3382.76 168.764C3372.22 105.564 3324.59 57.1906 3265.4 42.9373C3268.32 42.7506 3271.24 42.657 3274.14 42.657C3338.68 42.657 3395.83 89.2969 3406.83 154.95V154.964C3407.28 157.657 3407.63 160.364 3407.94 162.964L3467.82 720.684Z" fill="#FFE6C5"/>
<path d="M3315.92 544.416C3278.95 510.669 3240.03 480.736 3199.3 454.736L3142.75 207.349C3134.39 170.803 3141.28 133.536 3162.12 102.403C3182.98 71.2697 3214.83 50.7095 3251.8 44.5228C3255.24 43.9495 3258.67 43.5097 3262.08 43.203C3233.36 78.9897 3220.51 127.15 3231.62 175.696L3315.92 544.416Z" fill="#B97942"/>
<path d="M3674.55 2448.42C3679.86 2443.96 3684.99 2439.24 3689.95 2434.27C3690.58 2438.1 3691.2 2441.9 3691.82 2445.7L3674.55 2448.42Z" fill="#B99F98"/>
<path d="M3274.14 42.657C3266.76 42.657 3259.3 43.2703 3251.8 44.5237C3214.83 50.7102 3182.98 71.2705 3162.12 102.404C3141.28 133.537 3134.39 170.803 3142.75 207.35L3385.07 1267.34C3469.6 1637.12 3565.75 2149.51 3625.26 2502.63L3699.18 2490.26C3640.44 2136.99 3564.52 1621.38 3524.04 1244.39L3407.94 162.964C3407.63 160.364 3407.28 157.657 3406.83 154.964V154.95C3395.83 89.2969 3338.68 42.657 3274.14 42.657ZM3590.23 2551.75L3586.7 2530.71C3527.63 2177.78 3429.51 1653.2 3343.47 1276.84L3101.15 216.857C3090.16 168.737 3099.22 119.657 3126.68 78.657C3154.14 37.657 3196.07 10.5901 3244.76 2.44336C3341.27 -13.6633 3432.78 51.5635 3448.91 147.91C3449.48 151.31 3449.94 154.737 3450.34 158.23L3566.47 1239.83C3607.66 1623.47 3685.67 2151.16 3744.72 2503.95L3748.24 2524.99L3727.26 2528.82L3590.23 2551.75Z" fill="#371A45"/>
<path d="M2488.99 1825.63L2483.28 1945.1L2480.4 2005.95L2430.43 3055.34C2430.43 3055.34 2359.07 3047.87 2264.19 3030.16C2245.63 3026.7 2226.16 3022.86 2206.16 3018.59C2057.1 2986.91 1878.06 2932.35 1817.9 2846.54C1727.98 2718.22 1778.64 2150.54 1898.32 1937.42C1953.15 1839.71 2174.38 1820.88 2329.95 1820.24C2347.34 1820.14 2363.92 1820.3 2379.34 1820.62C2444.35 1821.84 2488.99 1825.63 2488.99 1825.63Z" fill="white"/>
<path d="M2160.26 2986.51C2027.31 2954.82 1885.39 2905.67 1835.38 2834.31C1797.15 2779.76 1783.56 2619.36 1800.75 2425.66C1805.72 2369.51 1812.86 2314.6 1821.75 2262.54C1818.08 2320.08 1817.12 2375.64 1819.15 2426.14C1810.36 2435.8 1804.75 2448.14 1803.35 2461.27C1792.23 2566.06 1790.43 2702.7 1845.08 2758.51C1878.12 2792.24 1926.18 2810.1 1973.26 2810.1C2005.06 2810.1 2036.4 2801.96 2062.39 2785.08C2077.6 2775.2 2089.74 2761.23 2099.35 2744.5C2100.42 2749.22 2101.52 2753.92 2102.67 2758.62C2110.26 2790.35 2119.31 2821.5 2128.47 2852.22C2137.6 2883.08 2146.87 2912.98 2153.28 2943.08C2156.28 2957.59 2158.76 2972.1 2160.26 2986.51ZM2039.55 2432.99C2057.63 2265.31 2111.26 2071.83 2257.06 1951.83C2248.3 1968.87 2239.8 1986.06 2231.58 2003.39C2203.6 2061.55 2178.59 2121.23 2156.32 2182.06C2134.2 2242.91 2115.1 2305.14 2101.23 2368.86L2100.71 2371.32L2097.12 2368.08L2083.08 2378.36C2081.47 2379.55 2055.7 2398.8 2039.55 2432.99Z" fill="#B9AFBE"/>
<path d="M2341.88 1841.32C2178.64 1841.32 1965.36 1861.51 1916.9 1947.83C1862.87 2044.06 1818.36 2227.14 1800.75 2425.66C1783.56 2619.36 1797.15 2779.76 1835.38 2834.31C1925.32 2962.67 2312.48 3019.11 2410.23 3031.46L2466.68 1845.34C2432.91 1843.04 2389.54 1841.32 2341.88 1841.32ZM2450.68 3078.91L2428.23 3076.56C2407.3 3074.38 1914.12 3021.03 1800.43 2858.79C1705.98 2724.02 1754.87 2149.23 1879.7 1926.94C1919.48 1856.1 2035.6 1814.15 2224.86 1802.24C2361.68 1793.63 2489.51 1804.28 2490.79 1804.39L2511.27 1806.14L2450.68 3078.91Z" fill="#371A45"/>
<path d="M3650.71 3717.35C3524.47 3787.38 3187.72 3795.48 3092.52 3681.35C3045.54 3624.98 3078.39 3497.08 3082.87 3455.27C3097.22 3320.76 3131.62 3117.35 2957.32 3102.52C2903.62 3101.94 2786.5 3113.19 2786.5 3113.19C2734.5 3333.99 2593.54 3452.23 2503.78 3504.44C2658.34 3524.07 2719.46 3761.78 2513.7 3783.75C2270.18 3809.72 2013.06 3789.51 2013.48 3622.95C2013.91 3463.96 2063.56 3351.91 2106.92 3251.38C2176.1 3091.22 2208.52 3048.71 2159.94 2883.11C2143.78 2828.07 2125.16 2770.9 2113.11 2705.19H2113.06C2102.12 2645.78 2096.47 2579.43 2102.66 2501.3C2114.55 2351.06 2170.28 2157.46 2316.52 1886.84C2318.12 1883.91 2319.67 1880.98 2321.27 1878.04C2355.24 1815.54 2394.12 1748.92 2438.28 1677.83L3177.27 1765.62L3281.59 1777.99C3283.08 1816.23 3285.06 1858.04 3287.4 1902.1C3288.31 1919.06 3289.27 1936.39 3290.28 1953.94C3295.3 2043 3301.54 2138.79 3307.94 2231.75C3326.18 2495.22 3346.07 2735.8 3346.07 2735.8C3346.07 2735.8 3760.84 3039.22 3519.35 3455.27C3644.68 3481.94 3815.4 3625.99 3650.71 3717.35Z" fill="white"/>
<path d="M2350.52 3771.7C2293.74 3771.7 2236.94 3768.11 2182.83 3756.04C2175.3 3754.56 2168.07 3752.34 2160.67 3750.51C2153.51 3748.2 2146.12 3746.31 2139.18 3743.6C2124.98 3738.75 2111.52 3732.6 2098.99 3725.48C2073.64 3711.5 2053.62 3691.54 2043.34 3667.32C2042.24 3664.2 2040.78 3661.24 2039.9 3658.04L2037.34 3648.4C2036.32 3641.74 2035.12 3635.11 2035.11 3628.18L2034.84 3623.02L2034.98 3617.2L2035.23 3605.55C2035.3 3597.78 2035.67 3590.02 2036.22 3582.27C2038 3551.27 2041.8 3520.43 2047.71 3489.96C2059.43 3428.92 2079.98 3369.86 2104.48 3311.54C2116.68 3282.34 2129.51 3252.96 2142.28 3223.82C2155.08 3194.56 2168.44 3165.36 2180.16 3134.42C2191.83 3103.6 2201.28 3070.08 2203.7 3035.42C2206.4 3000.74 2201.74 2966.67 2195.02 2934.24C2188.1 2901.75 2178.36 2870.48 2169.36 2840.04C2160.23 2809.47 2151.44 2779.16 2144.16 2748.67C2136.78 2718.32 2131.11 2687.72 2127.28 2656.95C2128.23 2650.98 2129.04 2644.94 2129.74 2638.88C2185.3 2664.22 2300.23 2703.15 2481.79 2703.15C2512.8 2703.15 2545.75 2702.02 2580.68 2699.48C2581.44 2708.95 2583.22 2718.14 2585.88 2726.88C2585.88 2726.9 2585.9 2726.91 2585.9 2726.91C2585.91 2726.95 2585.92 2727 2585.94 2727.04C2588.19 2734.43 2591.11 2741.56 2594.66 2748.39C2607.94 2774.04 2629.54 2794.55 2655.67 2806.55C2672.32 2814.23 2690.47 2818.24 2709.11 2818.24C2709.12 2818.24 2709.15 2818.24 2709.16 2818.24C2709.18 2818.24 2709.19 2818.24 2709.2 2818.24C2711.78 2818.24 2714.36 2818.16 2716.95 2818.02L3216.08 2788.31C3262.32 2785.56 3301.5 2758.64 3322.03 2720.59L3323.4 2737.66L3324.23 2747.92L3332.18 2753.79C3318.71 2801 3276.5 2836.98 3224.9 2840.02L2674.28 2872.82C2671.91 2872.96 2669.54 2873.03 2667.19 2873.03C2605.06 2873.03 2552.44 2824.15 2548.68 2761.24L2547.46 2740.18C2501.07 2744.22 2457.78 2745.99 2417.52 2745.99C2343 2745.99 2278.88 2739.92 2224.79 2730.95C2234.87 2760.82 2244.47 2788.82 2252.31 2815.38C2300.9 2980.98 2320.88 3055.34 2263.78 3185.38C2219.75 3285.62 2106.28 3396.23 2105.86 3555.22C2105.54 3684.15 2259.55 3725.39 2442.11 3725.39C2495.38 3725.39 2551.07 3721.88 2606.07 3716.02C2607.66 3715.84 2609.24 3715.66 2610.83 3715.46C2605.16 3723.26 2598.08 3730.18 2589.94 3736.07C2579.19 3743.91 2566.35 3749.58 2552.91 3753.95C2539.48 3758.58 2524.96 3760.7 2510.24 3762.63C2494.52 3764.27 2478.78 3765.75 2463.04 3767C2431.55 3769.48 2400.04 3771.11 2368.59 3771.59C2362.56 3771.66 2356.55 3771.7 2350.52 3771.7ZM2531.79 2477.46L2531.24 2468.28C2530.2 2450.82 2533.03 2433.98 2538.99 2418.6L2538.96 2418.79C2540.1 2419.99 2541.28 2421.2 2542.48 2422.39C2541.98 2424.16 2542.12 2426.12 2543.04 2427.87C2549.1 2439.35 2557.3 2449.43 2566.32 2458.56L2567.2 2473.26C2556.64 2474.71 2544.78 2476.16 2531.79 2477.46Z" fill="#B9AFBE"/>
<path d="M2158.03 2415.6C2151.15 2411.38 2144.4 2406.91 2137.82 2402.19L2138.03 2400.91L2142.94 2377.91C2147.99 2354.46 2153.83 2331.15 2160.36 2308C2157.27 2345.9 2156.68 2381.68 2158.03 2415.6Z" fill="#B9AFBE"/>
<path d="M3384.97 3747.43C3335.92 3747.43 3286.94 3743.04 3239.75 3732.7C3223.72 3729.16 3208.05 3724.64 3192.77 3719.46C3177.65 3713.96 3162.99 3707.66 3149.37 3700.08C3135.97 3692.31 3123.68 3683.28 3113.74 3672.82C3108.34 3667.39 3105.04 3662.91 3101.87 3656.94C3098.76 3651.1 3096.29 3644.51 3094.39 3637.51C3087.01 3609.02 3088.08 3575.82 3091.54 3543.2C3093.31 3526.78 3095.81 3510.27 3098.57 3493.5L3102.72 3467.8L3103.65 3460.96L3104.43 3454.24L3105.82 3441.55C3109.62 3407.62 3113.67 3373.16 3115.62 3338.11C3117.47 3303.08 3117.75 3267.35 3111.95 3231.02C3108.98 3212.9 3104.44 3194.6 3097.03 3176.79C3089.61 3159.04 3079.06 3141.76 3064.95 3127.28C3050.92 3112.75 3033.49 3101.47 3015.17 3094.16C2996.83 3086.78 2977.8 3083.03 2959.11 3081.27L2958.4 3081.2L2957.55 3081.19C2956.03 3081.18 2954.52 3081.18 2953.03 3081.18C2939.56 3081.18 2926.56 3081.71 2913.52 3082.31C2899.05 3083 2884.68 3083.9 2870.35 3084.9C2843.96 3086.72 2817.77 3088.88 2791.44 3091.3C2784.07 3044.74 2783.17 2995.72 2794.92 2945.83C2794.92 2945.83 2986.39 2956.12 3047.67 2994.26C3241.8 3115.16 3189.59 3237.03 3175.24 3371.54C3170.76 3413.35 3117.32 3577.03 3159.77 3636.87C3199.29 3692.59 3302.64 3714.23 3414.19 3714.23C3503.28 3714.23 3597.61 3700.43 3668.84 3679.19C3657.53 3688.83 3643.86 3697.22 3629.83 3704.1C3601.38 3717.51 3569.37 3726.44 3537.05 3733.08C3504.57 3739.47 3471.43 3743.76 3438.11 3745.78C3420.44 3746.86 3402.71 3747.43 3384.97 3747.43Z" fill="#B9AFBE"/>
<path d="M3300.38 2005.42C3308.96 2065.98 3315.79 2126.6 3322.08 2187.27C3325.4 2217.59 3328.07 2247.95 3331.15 2278.28L3339.27 2369.38L3354.44 2551.62L3368.74 2733.9L3359.5 2717.42C3367.27 2723.28 3373.7 2728.67 3380.5 2734.48C3387.19 2740.2 3393.71 2746.06 3400.14 2751.99C3413.04 2763.82 3425.27 2776.28 3437.35 2788.87C3461.24 2814.32 3483.5 2841.28 3503.88 2869.71C3544.46 2926.56 3577.66 2989.72 3596.78 3057.95C3606.31 3091.98 3612.92 3127 3615.11 3162.47C3617 3197.9 3615.64 3233.55 3610.14 3268.6C3598.83 3338.67 3572.62 3405.39 3537.79 3465.99L3523.78 3434.42C3560.24 3442.42 3593.82 3456.83 3625.07 3475.3C3656.15 3493.98 3685.38 3516.64 3708.92 3546.79C3720.54 3561.88 3730.76 3579.2 3736.15 3599.54L3738.04 3607.18L3739.16 3615.14C3740.1 3620.39 3739.78 3625.94 3739.87 3631.36C3739.48 3636.79 3738.9 3642.32 3737.75 3647.66C3736.31 3652.94 3735.2 3658.39 3732.88 3663.27C3724.75 3683.54 3710.88 3699.56 3696.07 3712.04C3680.99 3724.52 3665.26 3734.44 3648.31 3742.56C3614.71 3758.35 3580.16 3767.72 3545.5 3774.91C3510.79 3781.74 3475.86 3786.23 3440.8 3788.36C3370.76 3792.55 3300.14 3789.56 3230.43 3774.34C3213.02 3770.48 3195.72 3765.54 3178.59 3759.7C3161.52 3753.51 3144.64 3746.28 3128.31 3737.18C3112.11 3727.79 3096.42 3716.51 3082.75 3702.15C3076.02 3695.47 3068.92 3686.15 3064.18 3676.94C3059.26 3667.64 3055.76 3658.07 3053.18 3648.55C3048.23 3629.52 3046.48 3610.75 3046.26 3592.47C3045.98 3574.15 3047.23 3556.24 3049.12 3538.62C3051.02 3520.99 3053.67 3503.63 3056.47 3486.6L3060.51 3461.58L3061.31 3455.71L3062 3449.66L3063.42 3436.83C3067.24 3402.7 3071.16 3369.08 3073 3335.72C3074.82 3302.46 3074.88 3269.27 3069.84 3237.86C3064.86 3206.62 3054.11 3177.06 3034.31 3156.98C3014.9 3136.56 2986.32 3126.51 2955.5 3123.78L2957.07 3123.86C2943.63 3123.72 2929.55 3124.28 2915.55 3124.94C2901.52 3125.59 2887.42 3126.47 2873.3 3127.46C2845.08 3129.42 2816.7 3131.79 2788.58 3134.42L2807.3 3118.08C2797.07 3159.46 2783.74 3200.15 2766.5 3239.3C2749.24 3278.43 2727.56 3315.62 2702.7 3350.44C2677.75 3385.23 2649.2 3417.44 2617.7 3446.43C2586.27 3475.55 2551.55 3500.98 2514.54 3522.9L2508.42 3483.63C2542.8 3491.51 2575.84 3507.14 2602.74 3530.56C2629.66 3553.75 2651.31 3583.87 2662.19 3618.91C2667.62 3636.36 2670.32 3655.04 2669.12 3673.96C2667.94 3692.83 2662.54 3711.9 2652.96 3728.7C2643.47 3745.55 2629.98 3759.83 2614.82 3770.74C2599.62 3781.75 2582.79 3789.1 2565.91 3794.59C2549 3800.32 2531.68 3802.87 2514.75 3805.06C2498.66 3806.74 2482.55 3808.24 2466.42 3809.54C2434.14 3812.08 2401.74 3813.75 2369.23 3814.24C2304.27 3815 2238.64 3812.14 2173.43 3797.67C2165.27 3796.03 2157.18 3793.59 2149.06 3791.58C2141 3789 2132.87 3786.88 2124.88 3783.8C2108.83 3778.28 2093.02 3771.16 2077.76 3762.51C2047.34 3745.76 2018.72 3718.87 2004.02 3683.88C2002.38 3679.48 2000.43 3675.16 1999.15 3670.68L1995.58 3657.12C1994.04 3648 1992.56 3638.84 1992.47 3629.75L1992.18 3622.92L1992.31 3616.75L1992.58 3604.42C1992.66 3596.2 1993.04 3587.98 1993.63 3579.78C1995.52 3546.92 1999.56 3514.14 2005.83 3481.82C2018.24 3417.07 2040.07 3354.67 2065.08 3295.14C2077.55 3265.32 2090.34 3236.07 2103.23 3206.63C2116.07 3177.3 2129.32 3148.27 2140.23 3119.38C2151.16 3090.44 2159.06 3061.7 2161.12 3032.44C2163.47 3003.2 2159.51 2973.16 2153.28 2943.08C2146.87 2912.98 2137.6 2883.08 2128.47 2852.22C2119.31 2821.5 2110.26 2790.35 2102.67 2758.62C2087.23 2695.19 2078.75 2629.32 2078.78 2563.6C2078.94 2530.72 2081.18 2497.98 2084.75 2465.42L2088.08 2441.11C2089.1 2432.99 2090.4 2424.92 2091.9 2416.9L2096.15 2392.78L2101.23 2368.86C2115.1 2305.14 2134.2 2242.91 2156.32 2182.06C2178.59 2121.23 2203.6 2061.55 2231.58 2003.39C2259.26 1945.08 2289.98 1888.36 2323.34 1833.32C2356.44 1778.14 2392.71 1724.92 2432.24 1674.07C2434.67 1670.95 2439.16 1670.39 2442.28 1672.82C2444.98 1674.92 2445.76 1678.56 2444.35 1681.54L2444.32 1681.58C2389.1 1797.54 2326.88 1908.35 2272.72 2023.07C2245.5 2080.3 2219.27 2137.98 2197.04 2197.12C2174.72 2256.19 2156.18 2316.58 2142.94 2377.91L2138.03 2400.91L2133.96 2424.03C2132.52 2431.72 2131.28 2439.44 2130.32 2447.2L2127.12 2470.42C2123.74 2501.44 2121.59 2532.56 2121.44 2563.67C2121.46 2625.91 2129.35 2687.79 2144.16 2748.67C2151.44 2779.16 2160.23 2809.47 2169.36 2840.04C2178.36 2870.48 2188.1 2901.75 2195.02 2934.24C2201.74 2966.67 2206.4 3000.74 2203.7 3035.42C2201.28 3070.08 2191.83 3103.6 2180.16 3134.42C2168.44 3165.36 2155.08 3194.56 2142.28 3223.82C2129.51 3252.96 2116.68 3282.34 2104.48 3311.54C2079.98 3369.86 2059.43 3428.92 2047.71 3489.96C2041.8 3520.43 2038 3551.27 2036.22 3582.27C2035.67 3590.02 2035.3 3597.78 2035.23 3605.55L2034.98 3617.2L2034.84 3623.02L2035.11 3628.18C2035.12 3635.11 2036.32 3641.74 2037.34 3648.4L2039.9 3658.04C2040.78 3661.24 2042.24 3664.2 2043.34 3667.32C2053.62 3691.54 2073.64 3711.5 2098.99 3725.48C2111.52 3732.6 2124.98 3738.75 2139.18 3743.6C2146.12 3746.31 2153.51 3748.2 2160.67 3750.51C2168.07 3752.34 2175.3 3754.56 2182.83 3756.04C2242.67 3769.39 2305.82 3772.36 2368.59 3771.59C2400.04 3771.11 2431.55 3769.48 2463.04 3767C2478.78 3765.75 2494.52 3764.27 2510.24 3762.63C2524.96 3760.7 2539.48 3758.58 2552.91 3753.95C2566.35 3749.58 2579.19 3743.91 2589.94 3736.07C2600.7 3728.28 2609.59 3718.74 2615.82 3707.71C2628.56 3685.75 2629.74 3657.68 2621.46 3631.58C2613.38 3605.32 2596.38 3581.34 2574.95 3562.94C2553.54 3544.23 2527.06 3531.74 2499.2 3525.3L2447.14 3513.24L2493.07 3486.02C2527.2 3465.79 2559.6 3442.11 2588.86 3414.99C2618.2 3387.98 2644.79 3357.98 2668.03 3325.56C2691.2 3293.12 2711.42 3258.48 2727.52 3221.91C2743.63 3185.32 2756.12 3147.2 2765.76 3108.3L2769.46 3093.35L2784.48 3091.95C2813.16 3089.27 2841.64 3086.88 2870.35 3084.9C2884.68 3083.9 2899.06 3083 2913.52 3082.31C2928.02 3081.64 2942.46 3081.06 2957.55 3081.19L2958.4 3081.2L2959.11 3081.27C2977.8 3083.03 2996.83 3086.78 3015.18 3094.16C3033.5 3101.47 3050.92 3112.75 3064.95 3127.28C3079.06 3141.76 3089.62 3159.04 3097.03 3176.79C3104.44 3194.6 3108.98 3212.9 3111.95 3231.02C3117.75 3267.35 3117.47 3303.08 3115.62 3338.11C3113.67 3373.16 3109.62 3407.62 3105.82 3441.55L3104.43 3454.24L3103.66 3460.96L3102.72 3467.8L3098.58 3493.5C3095.82 3510.27 3093.31 3526.78 3091.54 3543.2C3088.08 3575.82 3087.02 3609.02 3094.39 3637.51C3096.3 3644.51 3098.76 3651.1 3101.87 3656.94C3105.04 3662.91 3108.34 3667.39 3113.74 3672.82C3123.68 3683.28 3135.98 3692.31 3149.38 3700.08C3162.99 3707.66 3177.66 3713.96 3192.78 3719.46C3208.06 3724.64 3223.72 3729.16 3239.75 3732.7C3303.99 3746.78 3371.56 3749.82 3438.11 3745.78C3471.43 3743.76 3504.58 3739.47 3537.06 3733.08C3569.38 3726.44 3601.38 3717.51 3629.83 3704.1C3657.56 3690.48 3683.99 3671 3693.24 3647.5C3703.16 3624.66 3693.88 3596.67 3675.08 3572.78C3656.44 3548.78 3630.8 3528.42 3603.3 3511.98C3575.67 3495.59 3545.4 3482.8 3514.9 3476.15L3486.34 3469.91L3500.88 3444.56C3533.58 3387.64 3557.63 3325.98 3567.99 3261.96C3573.02 3229.94 3574.23 3197.5 3572.54 3165.2C3570.55 3132.9 3564.48 3100.91 3555.75 3069.66C3547 3038.39 3534.87 3007.96 3519.95 2978.88C3505.12 2949.74 3487.83 2921.78 3468.55 2895.16C3449.31 2868.51 3427.98 2843.31 3405.19 2819.51C3393.67 2807.76 3382 2796.11 3369.78 2785.15C3363.68 2779.64 3357.52 2774.22 3351.26 2768.99C3345.12 2763.83 3338.46 2758.43 3332.64 2754.14L3324.23 2747.92L3323.4 2737.66L3308.72 2555.15L3302.28 2463.84L3296.47 2372.5L3291.48 2281.08C3290.24 2250.59 3288.76 2220.11 3287.92 2189.58C3285.96 2128.55 3284.99 2067.46 3286.19 2006.26C3286.26 2002.32 3289.52 1999.19 3293.46 1999.27C3297 1999.34 3299.9 2002 3300.38 2005.42Z" fill="#371A45"/>
<path d="M2728.46 1559.31C2730.76 1556.02 2733.16 1552.62 2735.72 1549.2L2727.23 1556.87L2728.46 1559.31Z" fill="white"/>
<path d="M2179.32 3533.91C2203.27 3519 2229.28 3508.35 2255.95 3499.42C2282.68 3490.79 2310.2 3484.03 2338.19 3479.92C2366.15 3476.06 2394.55 3473.11 2422.92 3474.28C2437.12 3474.2 2451.26 3475.82 2465.35 3477.26C2479.44 3478.84 2493.36 3481.78 2507.19 3484.75C2517.99 3487.07 2524.86 3497.7 2522.54 3508.5C2520.44 3518.2 2511.63 3524.74 2502.02 3524.26L2500.42 3524.18C2487.06 3523.51 2473.95 3521.64 2460.74 3520.58C2447.51 3519.78 2434.38 3518.06 2421.14 3517.63C2394.71 3515.76 2368.16 3515.34 2341.48 3515.84C2314.8 3516.5 2288.1 3518.9 2261.42 3522.6C2234.75 3526.32 2207.96 3531.51 2181.82 3539.06L2181.63 3539.11C2180.11 3539.55 2178.52 3538.67 2178.08 3537.14C2177.72 3535.88 2178.26 3534.58 2179.32 3533.91Z" fill="#371A45"/>
<path d="M3216.84 3537.84C3226.03 3527.24 3236.63 3518.76 3247.86 3510.99C3259.02 3503.16 3270.84 3496.34 3282.91 3490.02C3307.12 3477.51 3332.58 3467.58 3358.55 3459.72C3384.48 3451.52 3410.95 3445.55 3437.66 3441.19C3451.02 3439.35 3464.43 3437.71 3477.86 3436.55C3491.3 3435.74 3504.76 3435.2 3518.22 3435.31C3529.28 3435.39 3538.18 3444.43 3538.1 3455.5C3538.02 3465.42 3530.74 3473.6 3521.26 3475.12L3520.46 3475.24C3507.62 3477.32 3494.76 3478.75 3481.9 3479.91C3469.1 3481.56 3456.3 3482.96 3443.47 3484.19C3417.99 3487.59 3392.31 3490.06 3367.06 3494.76C3354.34 3496.84 3341.83 3499.55 3329.19 3502.18C3323 3503.79 3316.76 3505.35 3310.48 3506.83C3304.22 3508.36 3298.14 3510.34 3291.91 3512.07C3285.71 3513.84 3279.68 3516 3273.51 3517.96C3267.48 3520.18 3261.39 3522.38 3255.4 3524.78C3243.48 3529.6 3231.5 3535.12 3220.83 3541.94L3220.54 3542.12C3219.2 3542.96 3217.44 3542.58 3216.59 3541.24C3215.9 3540.15 3216.04 3538.76 3216.84 3537.84Z" fill="#371A45"/>
<path d="M1871.66 2427.87L2075.31 2462.5C2093.5 2465.59 2107.31 2480.52 2108.88 2498.9C2114.66 2566.19 2119.9 2722.28 2050.76 2767.19C1993.39 2804.46 1907.12 2791.36 1860.32 2743.58C1807.99 2690.14 1816.63 2538.32 1824.56 2463.52C1827.03 2440.26 1848.6 2423.95 1871.66 2427.87Z" fill="white"/>
<path d="M1973.28 2767.47C1937.38 2767.47 1900.36 2753.96 1875.56 2728.66C1860.43 2713.2 1849.92 2683.74 1844.4 2643.46C1847.16 2647.67 1850.08 2651.59 1853.16 2655.19C1884.27 2691.66 1914.78 2703.87 1941.64 2703.87C1995.91 2703.87 2035.39 2654.14 2035.39 2654.14C2035.39 2654.14 2046.08 2684.15 2056.6 2686.78C2058.24 2687.19 2059.83 2687.39 2061.35 2687.39C2069.22 2687.39 2075.66 2682.12 2080.94 2673.15C2072.32 2710.56 2058.2 2736.92 2039.15 2749.3C2020.24 2761.58 1997 2767.47 1973.28 2767.47Z" fill="#B9AFBE"/>
<path d="M1864.79 2448.62C1860.64 2448.62 1856.64 2449.95 1853.27 2452.51C1849 2455.74 1846.35 2460.46 1845.78 2465.78C1831.84 2597.1 1842.98 2695.36 1875.56 2728.66C1916.74 2770.7 1991.64 2780.15 2039.15 2749.3C2080.54 2722.42 2098.66 2629.48 2087.63 2500.72C2086.88 2492.07 2080.35 2484.99 2071.74 2483.52L1868.08 2448.9C1866.98 2448.71 1865.88 2448.62 1864.79 2448.62ZM1973.26 2810.1C1926.18 2810.1 1878.12 2792.24 1845.08 2758.51C1790.43 2702.7 1792.23 2566.06 1803.35 2461.27C1805.15 2444.35 1813.95 2428.76 1827.5 2418.5C1841.07 2408.23 1858.46 2403.98 1875.23 2406.83L2078.88 2441.47C2106.66 2446.19 2127.74 2469.06 2130.14 2497.07C2137.54 2583.4 2138.56 2735.6 2062.39 2785.08C2036.4 2801.96 2005.06 2810.1 1973.26 2810.1Z" fill="#371A45"/>
<path d="M1939.52 2768.92C1940.34 2768.71 1943.11 2767.5 1945.06 2766.51C1947.22 2765.4 1949.39 2764.26 1951.54 2762.9C1955.84 2760.31 1960.08 2757.31 1964.12 2754.03C1972.16 2747.42 1979.91 2740.04 1986.48 2731.48C2000.04 2714.75 2010.51 2694.94 2017.87 2673.72C2021.31 2663.04 2024.67 2652.23 2026.87 2641.03C2029.58 2630.03 2031.19 2618.3 2032.95 2606.9C2034.59 2595.43 2035.82 2583.9 2036.46 2572.39C2037.02 2561.08 2037.23 2548.94 2035.67 2538.72L2035.56 2538.02C2035.1 2534.95 2037.2 2532.08 2040.27 2531.62C2043.15 2531.18 2045.86 2533.04 2046.56 2535.8C2049.79 2548.7 2050.4 2560.28 2051.03 2572.5C2051.48 2584.55 2051.32 2596.58 2050.74 2608.55C2050.02 2620.58 2049.54 2632.35 2047.75 2644.5C2046.51 2656.64 2044.02 2668.67 2041.31 2680.72C2035.42 2704.71 2025.84 2728.32 2011.64 2749.71C2004.78 2760.54 1996.3 2770.47 1986.96 2779.71C1982.26 2784.31 1977.23 2788.64 1971.8 2792.67C1969.14 2794.71 1966.28 2796.63 1963.35 2798.5C1960.18 2800.42 1957.72 2801.96 1953.12 2804.06L1952.2 2804.47C1942.68 2808.78 1931.46 2804.54 1927.15 2795.02C1922.84 2785.48 1927.07 2774.27 1936.6 2769.96C1937.52 2769.55 1938.58 2769.18 1939.52 2768.92Z" fill="#371A45"/>
<path d="M2209.87 1950.67C2183.91 1951.52 2158.5 1950.62 2133.2 1949.48C2107.9 1948.42 2082.84 1946.3 2057.82 1945.02C2032.82 1943.63 2007.87 1942.24 1983.19 1941.83C1958.55 1941.23 1934 1941.23 1910.43 1942.67L1910.06 1942.68C1899.03 1943.36 1889.55 1934.96 1888.87 1923.92C1888.23 1913.48 1895.82 1904.42 1905.98 1902.91C1932.8 1899.03 1959.03 1899.51 1984.96 1900.88C2010.88 1902.47 2036.4 1905.79 2061.72 1909.91C2087.04 1914.14 2112.16 1918.98 2136.9 1925.68C2161.62 1932.38 2186.15 1939.98 2209.87 1950.67Z" fill="#371A45"/>
<path d="M2476.35 3271.19C2291.44 3271.19 2133.83 3221.12 2123.95 3217.91C2112.74 3214.28 2106.6 3202.26 2110.23 3191.04C2113.86 3179.84 2125.9 3173.68 2137.1 3177.32C2140.63 3178.47 2492.83 3290.14 2752.48 3178.03C2763.31 3173.38 2775.85 3178.35 2780.52 3189.16C2785.19 3199.98 2780.22 3212.54 2769.4 3217.2C2675.59 3257.71 2572.3 3271.19 2476.35 3271.19Z" fill="#371A45"/>
<path d="M3285.35 3233.26C3176.06 3233.26 3090.03 3219.76 3083.31 3218.68C3071.67 3216.8 3063.76 3205.86 3065.64 3194.23C3067.51 3182.6 3078.43 3174.68 3090.1 3176.56C3093.14 3177.04 3396.45 3224.51 3585.59 3139.59C3596.33 3134.78 3608.96 3139.56 3613.79 3150.32C3618.61 3161.07 3613.81 3173.68 3603.05 3178.51C3506.69 3221.78 3386.12 3233.26 3285.35 3233.26Z" fill="#371A45"/>
<path d="M3408.01 2532.35C3408.01 2584.59 3365.67 2626.94 3313.43 2626.94C3261.19 2626.94 3218.83 2584.59 3218.83 2532.35C3218.83 2480.11 3261.19 2437.76 3313.43 2437.76C3365.67 2437.76 3408.01 2480.11 3408.01 2532.35Z" fill="white"/>
<path d="M3334.27 2602.59L3332.12 2566.48C3338.47 2565.66 3344.83 2564.78 3351.18 2563.86C3361.32 2562.38 3371.48 2560.8 3381.62 2559.11C3373.42 2579.95 3355.92 2596.15 3334.27 2602.59Z" fill="#B9AFBE"/>
<path d="M3313.42 2459.1C3273.03 2459.1 3240.18 2491.96 3240.18 2532.35C3240.18 2572.75 3273.03 2605.6 3313.42 2605.6C3353.82 2605.6 3386.68 2572.75 3386.68 2532.35C3386.68 2491.96 3353.82 2459.1 3313.42 2459.1ZM3313.42 2648.28C3249.51 2648.28 3197.5 2596.27 3197.5 2532.35C3197.5 2468.43 3249.51 2416.43 3313.42 2416.43C3377.34 2416.43 3429.35 2468.43 3429.35 2532.35C3429.35 2596.27 3377.34 2648.28 3313.42 2648.28Z" fill="#371A45"/>
<path d="M2105.54 2655.7C2104.31 2645.78 2103.28 2635.6 2102.5 2625.19C2103.34 2635.6 2104.31 2645.78 2105.54 2655.7Z" fill="#371A45"/>
<path d="M2113.11 2705.19H2113.05C2112.68 2703.22 2112.31 2701.19 2111.99 2699.22C2112.36 2701.19 2112.74 2703.22 2113.11 2705.19Z" fill="#371A45"/>
<path d="M3214.82 2767L2715.66 2796.7C2656.58 2800.23 2605.31 2754.75 2601.78 2695.6L2586 2429.96C2582.91 2378.18 2617.42 2332.48 2665.75 2319.55C2672.59 2317.67 2679.72 2316.55 2687.1 2316.1L3186.19 2286.4C3245.34 2282.87 3296.6 2328.35 3300.06 2387.5L3312.62 2597.88L3315.92 2653.12C3319.46 2712.28 3273.9 2763.47 3214.82 2767Z" fill="white"/>
<path d="M2836.81 2766.06C2815.81 2766.06 2795.67 2758.42 2779.67 2744.2C2762.36 2728.83 2752.08 2707.75 2750.73 2684.84L2742.05 2539.03C2748.95 2540.67 2755.83 2542.26 2762.71 2543.83C2762.68 2546.56 2762.75 2549.31 2762.89 2552.08C2765.92 2608.5 2804.84 2652.71 2850.51 2652.71C2851.77 2652.71 2853.04 2652.67 2854.32 2652.6L2910.01 2649.6C2910.11 2649.6 2910.21 2649.6 2910.31 2649.59C2910.37 2649.59 2910.44 2649.59 2910.51 2649.58L2923.73 2648.87L2923.89 2647.52C2928.77 2646.3 2933.47 2644.55 2937.97 2642.35C2967.47 2648.22 3000.99 2651.3 3039.13 2651.56L3042.8 2753.94L2841.99 2765.91C2840.25 2766 2838.53 2766.06 2836.81 2766.06ZM3074.75 2752.04L3071.13 2651.16C3075.04 2651.04 3078.99 2650.9 3082.99 2650.72C3180.96 2646.47 3247.19 2629.92 3291.89 2608.83L3294.6 2654.4C3297.05 2695.66 3269.97 2731.98 3231.71 2742.68L3074.75 2752.04Z" fill="#B9AFBE"/>
<path d="M3192.66 2307.52C3190.94 2307.52 3189.22 2307.58 3187.48 2307.67L2688.35 2337.38C2665.46 2338.74 2644.38 2349.02 2629 2366.34C2613.64 2383.64 2605.94 2405.79 2607.3 2428.7L2623.1 2694.36C2624.47 2717.27 2634.75 2738.34 2652.06 2753.71C2669.38 2769.07 2691.51 2776.82 2714.42 2775.42L3213.55 2745.72C3261.07 2742.9 3297.43 2701.92 3294.6 2654.4L3278.8 2388.74C3277.44 2365.83 3267.15 2344.76 3249.84 2329.39C3233.84 2315.19 3213.71 2307.52 3192.66 2307.52ZM2709.2 2818.24C2641.55 2818.24 2584.58 2765.31 2580.51 2696.9L2564.7 2431.23C2562.66 2396.95 2574.16 2363.84 2597.1 2338C2620.03 2312.18 2651.54 2296.83 2685.82 2294.79L3184.95 2265.08C3219.19 2263.03 3252.34 2274.55 3278.16 2297.48C3304 2320.42 3319.35 2351.92 3321.39 2386.2L3337.2 2651.87C3341.42 2722.88 3287.08 2784.08 3216.08 2788.31L2716.95 2818.02C2714.36 2818.16 2711.78 2818.24 2709.2 2818.24Z" fill="#371A45"/>
<path d="M3234.74 2763.84C3228.35 2765.58 3221.74 2766.63 3214.82 2767L2715.66 2796.7C2672.36 2799.24 2633.28 2775.58 2614.11 2739.34C2607.12 2726.19 2602.76 2711.38 2601.86 2695.6L2594.79 2577.59L2592.46 2538.66L2586 2429.96C2582.47 2370.82 2628.02 2319.63 2687.1 2316.1L2794.95 2309.7C2745.8 2322.03 2710.55 2368.11 2713.63 2420.42L2722.12 2563.91L2729.42 2686.12C2732.95 2745.2 2784.2 2790.75 2843.28 2787.22L3234.74 2763.84Z" fill="white"/>
<path d="M2709.13 2775.58C2688.16 2775.58 2668.05 2767.91 2652.07 2753.71C2635.11 2738.66 2624.89 2718.14 2623.21 2695.79C2633.56 2694.74 2644.07 2693.58 2654.72 2692.28L2663.41 2691.23L2668.85 2684.39C2670.27 2682.62 2695.17 2650.83 2703.43 2608.1L2708.15 2687.36C2710.08 2720.31 2724.33 2750.71 2748.37 2773.39L2714.37 2775.42C2712.61 2775.52 2710.88 2775.58 2709.13 2775.58Z" fill="#B9AFBE"/>
<path d="M2718.83 2335.55L2688.36 2337.36C2640.83 2340.22 2604.45 2381.18 2607.31 2428.68L2623.12 2694.36C2624.47 2717.27 2634.75 2738.35 2652.07 2753.71C2669.37 2769.08 2691.53 2776.8 2714.37 2775.42L2748.37 2773.39C2724.33 2750.71 2710.08 2720.31 2708.15 2687.36L2692.33 2421.71C2690.44 2389.8 2700.44 2359.5 2718.83 2335.55ZM2709.11 2818.24C2677.67 2818.24 2647.6 2806.82 2623.73 2785.62C2597.89 2762.68 2582.55 2731.16 2580.52 2696.88L2564.72 2431.23C2560.45 2360.26 2614.79 2299.03 2685.83 2294.76L2793.65 2288.38L2800.12 2330.36C2759.88 2340.48 2732.47 2377.83 2734.93 2419.18L2750.73 2684.84C2752.08 2707.75 2762.36 2728.83 2779.67 2744.2C2796.99 2759.58 2819.13 2767.27 2841.99 2765.91L3233.49 2742.58L3240.19 2784.51C3232.27 2786.59 3224.12 2787.86 3215.97 2788.3L2716.92 2818C2714.31 2818.16 2711.69 2818.24 2709.11 2818.24Z" fill="#371A45"/>
<path d="M2918.47 2543.72C2919 2553.55 2909.44 2633.62 2909.44 2633.62C2909.44 2633.62 2884.31 2634.96 2853.46 2636.63C2814.91 2638.7 2781.51 2600.46 2778.87 2551.23C2776.22 2501.99 2805.32 2460.39 2843.88 2458.32C2869.9 2456.92 2899.87 2455.31 2899.87 2455.31C2899.87 2455.31 2917.6 2527.71 2918.47 2543.72Z" fill="#22A7F0"/>
<path d="M2846.68 2620.54C2819.71 2617.99 2797.03 2588.22 2794.87 2550.76C2803.03 2552.4 2811.19 2553.96 2819.38 2555.44C2822.02 2581.06 2832.07 2603.8 2846.68 2620.54Z" fill="#2976B4"/>
<path d="M2887.43 2472L2844.74 2474.3C2815.06 2475.9 2792.68 2510.02 2794.84 2550.36C2797.02 2590.71 2823 2622.26 2852.6 2620.64L2895.12 2618.36C2899.08 2584.31 2902.63 2550.11 2902.48 2544.54C2901.98 2535.4 2893.95 2499.36 2887.43 2472ZM2850.51 2652.71C2804.84 2652.71 2765.92 2608.5 2762.9 2552.08C2759.78 2494.12 2795.72 2444.88 2843.02 2442.35L2912.24 2438.63L2915.4 2451.51C2918.43 2463.84 2933.55 2526.2 2934.44 2542.86V2542.87C2935 2553.26 2927.62 2616.4 2925.34 2635.51L2923.74 2648.87L2854.32 2652.6C2853.04 2652.67 2851.78 2652.71 2850.51 2652.71Z" fill="#371A45"/>
<path d="M2974.46 2540.71C2977.1 2589.95 2947.99 2631.55 2909.44 2633.62C2870.9 2635.68 2837.5 2597.46 2834.86 2548.22C2832.2 2498.98 2861.31 2457.39 2899.87 2455.31C2938.42 2453.24 2971.8 2491.48 2974.46 2540.71Z" fill="#22A7F0"/>
<path d="M2906.47 2617.7C2881.2 2617.7 2858.91 2593.66 2852.51 2561C2856.16 2561.56 2859.82 2562.11 2863.47 2562.64C2875.56 2574.27 2890.51 2581.15 2906.46 2581.15C2907.44 2581.15 2908.43 2581.12 2909.42 2581.07C2919.63 2580.52 2929.18 2577.19 2937.66 2571.7C2943.42 2572.27 2949.18 2572.8 2954.94 2573.31C2947.59 2598.43 2929.99 2616.48 2908.59 2617.64C2907.88 2617.68 2907.18 2617.7 2906.47 2617.7Z" fill="#2976B4"/>
<path d="M2902.87 2471.23C2902.16 2471.23 2901.44 2471.26 2900.72 2471.3C2871.04 2472.88 2848.67 2507.02 2850.83 2547.36C2853 2587.71 2879.03 2619.2 2908.59 2617.64C2938.27 2616.04 2960.64 2581.92 2958.48 2541.56V2541.58C2956.36 2502.2 2931.64 2471.23 2902.87 2471.23ZM2906.5 2649.7C2860.82 2649.7 2821.91 2605.48 2818.87 2549.07C2815.76 2491.11 2851.71 2441.88 2899 2439.34C2946.31 2436.84 2987.32 2481.88 2990.43 2539.86C2993.55 2597.82 2957.6 2647.06 2910.31 2649.59C2909.03 2649.66 2907.76 2649.7 2906.5 2649.7Z" fill="#371A45"/>
<path d="M3059.52 2790.31C3050.95 2790.31 3043.86 2783.52 3043.55 2774.88L3036.63 2581.8L3118.75 2523.1L3105.76 2291.28C3105.27 2282.47 3112.02 2274.91 3120.84 2274.42C3129.74 2273.91 3137.22 2280.67 3137.71 2289.5L3151.68 2538.88L3069.23 2597.84L3075.52 2773.74C3075.84 2782.58 3068.94 2789.99 3060.11 2790.31C3059.91 2790.31 3059.72 2790.31 3059.52 2790.31Z" fill="#371A45"/>
<path d="M2095.68 2395.56C2095.68 2395.56 2045.14 2432.58 2048.16 2495.15C2051.66 2567.48 2102.19 2600.12 2102.19 2600.12C2102.19 2600.12 2274.12 2716.86 2652.16 2671.11C2652.16 2671.11 2741.16 2559.28 2624.92 2484.96C2624.92 2484.96 2281.88 2564.34 2095.68 2395.56Z" fill="white"/>
<path d="M2484.18 2660.3C2233.87 2660.3 2115.47 2583.35 2113.9 2582.3C2112.5 2581.36 2085.19 2562.67 2074.02 2522.67C2082.16 2530.91 2088.3 2534.88 2088.3 2534.88C2088.3 2534.88 2208.51 2616.5 2468.88 2616.5C2504.59 2616.5 2542.94 2614.96 2583.96 2611.47C2617.26 2608.64 2646.18 2588.88 2660.7 2560.48C2661.34 2562.83 2661.86 2565.19 2662.26 2567.59C2668.2 2602.68 2649.38 2636.9 2640.2 2651.04C2583.4 2657.55 2531.46 2660.3 2484.18 2660.3Z" fill="#B9AFBE"/>
<path d="M2096.24 2424.14C2084.24 2437.36 2067.9 2461.56 2069.47 2494.12C2072.36 2553.88 2112.2 2581.16 2113.9 2582.3C2115.78 2583.55 2282.71 2692.06 2640.2 2651.04C2649.38 2636.9 2668.2 2602.68 2662.26 2567.59C2658.42 2544.87 2644.39 2524.76 2620.52 2507.72C2564.19 2519.23 2275.06 2569.11 2096.24 2424.14ZM2481.79 2703.15C2219.52 2703.15 2096.28 2621.91 2090.2 2617.78C2088.18 2616.47 2030.83 2578.51 2026.86 2496.18C2023.31 2422.99 2080.64 2380.15 2083.08 2378.36L2097.12 2368.08L2110.02 2379.76C2285.92 2539.2 2616.78 2464.95 2620.11 2464.18L2628.84 2462.15L2636.4 2466.99C2675.3 2491.84 2698.16 2523.42 2704.39 2560.82C2715.12 2625.36 2670.75 2682.02 2668.86 2684.39L2663.42 2691.23L2654.72 2692.28C2591.5 2699.94 2533.88 2703.15 2481.79 2703.15Z" fill="#371A45"/>
<path d="M2797.7 2945.2C2804.28 2958.66 2808.35 2972.76 2811.63 2987.14C2814.7 3001.52 2816.78 3016.18 2817.56 3030.92C2818.23 3045.64 2818.54 3060.58 2816.48 3075.23C2814.71 3089.91 2811.44 3104.44 2805.88 3118.22C2801.72 3128.54 2789.98 3133.52 2779.66 3129.36C2771.42 3126.04 2766.58 3117.88 2767.08 3109.47L2767.18 3108.15C2767.59 3101.34 2768.86 3094.78 2769.96 3088.19C2770.92 3081.56 2772.46 3075.07 2773.62 3068.5C2776.23 3055.39 2779.06 3042.26 2781.56 3028.91C2786.36 3002.22 2790.03 2974.83 2792.12 2946.47L2792.14 2946.27C2792.26 2944.66 2793.67 2943.44 2795.28 2943.56C2796.35 2943.64 2797.24 2944.3 2797.7 2945.2Z" fill="#371A45"/>
<path d="M2506.98 2752.9C2504.15 2752.2 2502.71 2751.78 2502.71 2751.78C2505.06 2750.76 2507.35 2749.64 2509.59 2748.31C2508.74 2749.86 2507.83 2751.4 2506.98 2752.9Z" fill="#B9AFBE"/>
<path d="M2596.55 2032.15C2893.54 2177.94 3162.72 2136.1 3361.07 2094.26C3508.38 2063.19 3616.6 2032.11 3668.14 2077.9C3713.88 2118.52 3733.22 2204.1 3718.84 2334.14C3687.8 2615.07 2723.56 2614.11 2538.96 2418.79L2596.55 2032.15Z" fill="white"/>
<path d="M3111.96 2537.44C3026.35 2537.44 2940.67 2531.47 2856.36 2518.43C2829.54 2514.19 2802.84 2509.22 2776.5 2503.18C2750.12 2497.18 2724.31 2489.23 2699.08 2480.44C2673.91 2471.58 2648.88 2462.72 2624.9 2452.27C2612.75 2447.26 2600.98 2441.82 2588.96 2436.42C2577.16 2430.72 2565.56 2424.7 2553.38 2418.11L2553.06 2417.92C2552.28 2417.51 2551.44 2417.24 2550.58 2417.12C2555.88 2407.11 2566.34 2401.08 2577.19 2401.08C2582.28 2401.08 2587.44 2402.4 2592.22 2405.26C2683.6 2460.04 2847.98 2486.8 3023.42 2486.8C3309.04 2486.8 3624.06 2415.92 3701.62 2279.75C3701.51 2282.7 3701.36 2285.64 3701.22 2288.59L3699.87 2308.66L3697.94 2328.74C3697.68 2332.32 3697.07 2334.76 3696.64 2337.68C3696.23 2340.51 3695.79 2343.34 3694.88 2346.07C3694.04 2348.8 3693.55 2351.64 3692.48 2354.31L3689.36 2362.38C3684.58 2372.92 3678.19 2382.95 3670.63 2392.38C3662.7 2401.59 3653.91 2410.34 3644.07 2418.26C3624.43 2434.16 3601.64 2447.22 3577.88 2458.51C3554.06 2469.78 3528.98 2479.08 3503.36 2487.08C3452.11 2503.06 3398.8 2513.84 3345.07 2521.63C3291.3 2529.43 3236.91 2534 3182.43 2536.12C3158.96 2537 3135.47 2537.44 3111.96 2537.44Z" fill="#B9AFBE"/>
<path d="M2599.68 2025.78C2626.88 2032.54 2652.88 2040.84 2678.97 2048.59C2705.03 2056.34 2730.83 2064.28 2756.85 2071.4C2808.91 2085.48 2861.55 2097.18 2915.05 2104.46C3022.24 2118.92 3131.52 2112.34 3239.04 2095.46C3292.92 2087 3346.47 2075.75 3400.35 2063.99C3427.3 2058.14 3454.36 2052.18 3481.8 2046.8C3509.3 2041.51 3537.09 2036.56 3566.19 2034.36C3580.73 2033.32 3595.63 2032.94 3611.03 2034.32C3626.39 2035.76 3642.48 2039.03 3658.12 2046.14C3665.81 2050 3673.5 2054.36 3680.2 2060.23C3686.64 2065.88 3692.33 2071.51 3697.38 2077.9C3707.51 2090.46 3715.64 2104.2 3721.59 2118.36C3733.64 2146.71 3739.35 2176.02 3742.43 2204.88C3745.27 2233.8 3745.31 2262.51 3743.82 2290.9L3742.39 2312.14L3740.36 2333.27C3740.15 2336.56 3739.32 2340.91 3738.71 2344.8C3738.09 2348.8 3737.42 2352.78 3736.22 2356.64C3735.08 2360.51 3734.24 2364.5 3732.82 2368.24L3728.44 2379.48C3721.87 2394.11 3713.27 2407.47 3703.52 2419.55C3693.49 2431.28 3682.59 2441.99 3670.94 2451.4C3647.62 2470.24 3622.08 2484.72 3596.05 2497.11C3569.97 2509.44 3543.16 2519.35 3516.08 2527.8C3461.9 2544.68 3406.63 2555.8 3351.17 2563.86C3295.68 2571.9 3239.91 2576.58 3184.08 2578.76C3072.46 2582.91 2960.54 2577.71 2849.75 2560.58C2822.07 2556.23 2794.47 2551.02 2767 2544.82C2739.56 2538.54 2712 2532.18 2684.8 2523.68C2657.64 2515.12 2630.95 2504.14 2605.92 2489.14C2593.44 2481.66 2581.52 2472.87 2570.67 2462.82C2559.95 2452.58 2550.04 2441.16 2543.04 2427.87C2541.15 2424.27 2542.54 2419.8 2546.14 2417.91C2548.39 2416.72 2550.96 2416.82 2553.05 2417.92L2553.37 2418.11C2565.56 2424.7 2577.16 2430.72 2588.96 2436.42C2600.98 2441.82 2612.75 2447.26 2624.9 2452.27C2648.88 2462.72 2673.91 2471.58 2699.08 2480.44C2724.31 2489.23 2750.12 2497.18 2776.5 2503.18C2802.84 2509.22 2829.54 2514.19 2856.36 2518.43C2963.82 2535.06 3073.48 2540.19 3182.43 2536.12C3236.91 2534 3291.3 2529.43 3345.07 2521.63C3398.8 2513.84 3452.11 2503.06 3503.36 2487.08C3528.98 2479.08 3554.06 2469.78 3577.88 2458.51C3601.64 2447.22 3624.43 2434.16 3644.07 2418.26C3653.91 2410.34 3662.7 2401.59 3670.63 2392.38C3678.19 2382.95 3684.58 2372.92 3689.36 2362.38L3692.48 2354.31C3693.55 2351.64 3694.04 2348.8 3694.88 2346.07C3695.79 2343.34 3696.23 2340.51 3696.64 2337.68C3697.07 2334.76 3697.68 2332.32 3697.94 2328.74L3699.87 2308.66L3701.22 2288.59C3702.62 2261.88 3702.53 2235.22 3699.99 2209.19C3697.25 2183.27 3692.03 2157.8 3682.43 2135.3C3677.71 2123.99 3671.5 2113.83 3664.35 2104.91C3660.9 2100.42 3656.64 2096.39 3652.78 2092.91C3649.11 2089.6 3644.63 2087.19 3640.07 2084.8C3620.92 2076.03 3595.09 2074.95 3569.31 2076.91C3543.32 2078.87 3516.65 2083.52 3489.97 2088.67C3463.26 2093.91 3436.4 2099.82 3409.42 2105.68C3355.44 2117.47 3300.9 2128.94 3245.7 2137.6C3190.51 2146.31 3134.64 2152.34 3078.47 2154.32C3022.3 2156.24 2965.85 2154.36 2909.77 2148.23C2853.68 2142.32 2797.8 2131.62 2744.15 2113.86C2690.42 2096.67 2638.6 2072.74 2593.42 2038.54C2590.23 2036.12 2589.6 2031.58 2592.02 2028.39C2593.82 2026.02 2596.8 2025.06 2599.54 2025.72L2599.68 2025.78Z" fill="#371A45"/>
<path d="M3076.57 2579.8C3069.01 2579.8 3061.71 2575.79 3057.83 2568.7C2965.16 2399.12 3063.4 2136.18 3067.63 2125.07C3071.81 2114.06 3084.14 2108.52 3095.15 2112.71C3106.16 2116.9 3111.69 2129.22 3107.51 2140.23C3106.55 2142.78 3012.07 2395.98 3095.27 2548.23C3100.92 2558.58 3097.12 2571.54 3086.77 2577.19C3083.53 2578.96 3080.03 2579.8 3076.57 2579.8Z" fill="#371A45"/>
<path d="M1460.59 1869.55C1459.31 1883.52 1457.18 1897.36 1454.2 1911C1450.06 1930.18 1444.24 1948.94 1436.9 1967.08C1405.03 2045.8 1344.02 2112.87 1260.54 2150.62C1176.87 2188.46 1086 2189.91 1005.72 2161.68C988.095 2155.47 970.975 2147.83 954.562 2138.84C941.682 2131.8 929.255 2123.91 917.349 2115.24C1001.38 2094.11 1098.5 2060.02 1199 2014.56C1299.51 1969.11 1389.23 1918.7 1460.59 1869.55Z" fill="#FFB200"/>
<path d="M1199 2014.56C1299.51 1969.11 1389.23 1918.7 1460.59 1869.55C1459.31 1883.52 1457.18 1897.36 1454.2 1911C1399.28 1950.9 1311.54 2000.15 1209.36 2046.36C1111.5 2090.63 1020.27 2123.1 954.562 2138.84C941.682 2131.8 929.255 2123.91 917.349 2115.24C1001.38 2094.11 1098.5 2060.02 1199 2014.56Z" fill="#D66B09"/>
<path d="M1446.7 1737.26C1390.98 1782.32 1280.88 1845.4 1149.4 1904.88C1017.91 1964.34 897.829 2005.35 827.189 2017.44C819.837 2005.4 813.177 1992.8 807.219 1979.66C806.933 1979.03 806.666 1978.44 806.382 1977.79C803.793 1971.99 801.375 1966.16 799.149 1960.27C793.895 1946.52 789.594 1932.6 786.206 1918.64C786.073 1918.07 785.939 1917.51 785.807 1916.95C780.897 1896.16 778.003 1875.2 777.051 1854.35C775.206 1814.64 780.382 1775.28 791.859 1737.92C795.818 1725.06 800.519 1712.46 805.962 1700.16C812.243 1685.83 819.551 1671.94 827.775 1658.55C834.829 1647.1 842.575 1636.02 850.989 1625.42H851.015C854.309 1621.23 857.735 1617.12 861.255 1613.08C892.562 1577.18 931.922 1547.23 978.189 1526.31C984.602 1523.43 991.069 1520.74 997.562 1518.24C1084.68 1485.02 1177.94 1489.78 1258.03 1525.19C1258.52 1525.42 1259.04 1525.63 1259.54 1525.88C1267.06 1529.23 1274.46 1532.88 1281.71 1536.8C1308.03 1550.91 1332.6 1568.55 1354.66 1589.34C1368.42 1602.31 1381.2 1616.55 1392.82 1631.99C1394.07 1633.64 1395.31 1635.34 1396.56 1637.03C1397.6 1638.42 1398.59 1639.83 1399.58 1641.23C1407.83 1653.02 1415.44 1665.43 1422.28 1678.44C1424.86 1683.28 1427.28 1688.19 1429.63 1693.18C1430.26 1694.55 1430.9 1695.92 1431.51 1697.31C1437.47 1710.46 1442.51 1723.8 1446.7 1737.26Z" fill="#FFB200"/>
<path d="M1429.62 1693.19C1430.27 1694.55 1430.9 1695.92 1431.52 1697.3C1437.47 1710.46 1442.52 1723.8 1446.7 1737.24C1390.98 1782.32 1280.9 1845.4 1149.4 1904.87C1017.91 1964.34 897.829 2005.35 827.189 2017.43C819.842 2005.42 813.162 1992.8 807.213 1979.66C806.931 1979.03 806.658 1978.43 806.39 1977.8C873.375 1970.4 995.615 1930.74 1129.66 1870.11C1268.99 1807.1 1382.91 1738.7 1429.62 1693.19Z" fill="#D66B09"/>
<path d="M781.658 1862.32C779.913 1862.32 778.238 1862.28 776.637 1862.2L777.451 1846.5C824.759 1848.94 947.509 1810.02 1076.16 1751.83C1211.71 1690.52 1326.03 1620.43 1347.98 1585.18L1361.32 1593.48C1337.54 1631.7 1222.94 1702.7 1082.64 1766.15C954.082 1824.3 834.722 1862.32 781.658 1862.32Z" fill="#D66B09"/>
<path d="M793.009 1745.7L790.701 1730.15C843.522 1722.3 934.962 1690.92 1029.31 1648.24C1128.19 1603.52 1213.83 1554.12 1252.79 1519.34L1263.26 1531.06C1223.19 1566.84 1136.03 1617.24 1035.79 1662.58C940.202 1705.8 847.175 1737.66 793.009 1745.7Z" fill="#D66B09"/>
<path d="M786.322 1924.8C786.137 1924.8 785.955 1924.8 785.771 1924.8L785.847 1909.08C786.018 1909.08 786.194 1909.08 786.367 1909.08C840.722 1909.08 967.162 1868.4 1101.42 1807.68C1242.76 1743.76 1361.51 1671.67 1390.22 1632.39L1402.91 1641.67C1372.3 1683.58 1253.74 1756.04 1107.9 1822C971.789 1883.56 842.735 1924.8 786.322 1924.8Z" fill="#D66B09"/>
<path d="M1006 2165.6L1005.72 2161.7L1003.95 2158.16L1004.66 2157.82L1005.44 2157.76C1051.99 2154.4 1140.58 2125.78 1231.14 2084.82C1322.19 2043.63 1399.99 1997.44 1434.15 1964.27L1439.63 1969.91C1404.86 2003.67 1326.2 2050.44 1234.36 2091.98C1141.63 2133.92 1054.12 2162.14 1006 2165.6Z" fill="#D66B09"/>
<path d="M961.735 2122.08C1050.78 2171.43 1159.1 2176.59 1253.07 2134.1C1347.03 2091.59 1414.7 2006.84 1436.43 1907.4C1368.74 1950.94 1290.06 1993.28 1206.48 2031.08C1122.9 2068.9 1039.12 2100 961.735 2122.08ZM1119.56 2199.1C1044.27 2199.1 969.442 2175.63 906.655 2129.9L875.362 2107.1L912.922 2097.64C998.922 2076.02 1095.26 2041.58 1191.52 1998.03C1287.79 1954.5 1377.27 1904.91 1450.31 1854.6L1482.2 1832.64L1478.66 1871.2C1466.8 2000.35 1386.08 2113.75 1268.02 2167.15C1220.66 2188.56 1170 2199.1 1119.56 2199.1Z" fill="#371A45"/>
<path d="M1628.63 1661.43C1649.31 1707.16 1581.12 1786.54 1460.59 1869.55C1389.23 1918.7 1299.51 1969.11 1199 2014.56C1098.5 2060.02 1001.38 2094.11 917.349 2115.24C775.417 2150.94 670.791 2149.71 650.11 2103.98C631.327 2062.44 685.815 1993.19 786.213 1918.64C789.598 1932.63 793.897 1946.52 799.149 1960.27C771.393 1982.98 757.726 2000.98 762.474 2011.48C767.308 2022.18 790.631 2023.67 827.189 2017.43C897.829 2005.35 1017.91 1964.34 1149.4 1904.87C1280.9 1845.4 1390.98 1782.32 1446.7 1737.24C1475.51 1713.92 1489.79 1695.42 1484.95 1684.74C1480.22 1674.24 1457.66 1672.6 1422.3 1678.46C1415.44 1665.43 1407.84 1653.02 1399.58 1641.24C1521.86 1615.08 1609.84 1619.9 1628.63 1661.43Z" fill="#FFC943"/>
<path d="M778.462 2053.34C749.67 2053.34 732.126 2046.74 726.206 2033.64C716.892 2013.04 738.418 1981.79 790.183 1940.74L797.51 1949.96C753.174 1985.14 730.535 2014.6 736.948 2028.79C739.668 2034.79 750.944 2044.34 795.971 2040.8C830.962 2038.04 878.868 2027.7 934.495 2010.87C1003.02 1990.14 1080.5 1960.51 1158.59 1925.19C1236.66 1889.88 1310.07 1851.26 1370.9 1813.5C1420.27 1782.83 1459.68 1753.7 1484.86 1729.24C1517.26 1697.78 1517.54 1682.99 1514.82 1676.99C1508.4 1662.8 1471.32 1660.35 1415.64 1670.42L1413.54 1658.82C1478.56 1647.04 1516.24 1651.54 1525.56 1672.12C1532.66 1687.8 1521.72 1709.87 1493.07 1737.7C1467.3 1762.74 1427.2 1792.42 1377.12 1823.52C1315.87 1861.55 1241.98 1900.42 1163.44 1935.94C1084.9 1971.46 1006.91 2001.27 937.908 2022.16C881.482 2039.22 832.722 2049.72 796.896 2052.55C790.312 2053.07 784.164 2053.34 778.462 2053.34Z" fill="#FFEC90"/>
<path d="M759.361 2099.58C722.437 2099.58 692.243 2092.11 682.421 2070.39C672.349 2048.12 682.129 2005.06 785.918 1926.34L793.043 1935.74C719.106 1991.82 681.767 2040.32 693.163 2065.52C700.057 2080.76 724.733 2088.48 764.549 2087.79C805.087 2087.11 860.015 2077.54 923.389 2060.12C1001.44 2038.67 1089.23 2006.3 1177.26 1966.48C1265.28 1926.67 1347.56 1882.14 1415.22 1837.7C1470.15 1801.6 1513.6 1766.67 1540.9 1736.68C1567.7 1707.23 1578.22 1683.62 1571.32 1668.38C1559.92 1643.18 1498.84 1639.16 1407.9 1657.66L1405.55 1646.11C1533.2 1620.15 1572 1641.24 1582.07 1663.51C1606.83 1718.26 1478.15 1810.44 1421.68 1847.55C1353.54 1892.32 1270.7 1937.16 1182.12 1977.23C1093.54 2017.3 1005.15 2049.88 926.522 2071.5C887.215 2082.3 815.507 2099.58 759.361 2099.58Z" fill="#FFEC90"/>
<path d="M776.03 1949.24C680.698 2024.23 656.929 2075.04 666.635 2096.5C679.393 2124.7 760.489 2135.99 912.922 2097.64C998.922 2076.02 1095.26 2041.58 1191.52 1998.03C1287.79 1954.5 1377.27 1904.91 1450.31 1854.6C1579.78 1765.46 1624.86 1697.1 1612.1 1668.9C1602.39 1647.44 1548.55 1631.72 1429.27 1653.8C1430.23 1655.42 1431.18 1657.03 1432.11 1658.66C1461.15 1654.9 1491.64 1655.51 1501.48 1677.26C1512.92 1702.55 1484.31 1730.14 1458.11 1751.35C1398.71 1799.39 1286.1 1862.96 1156.87 1921.4C1027.63 1979.84 905.535 2022.43 830.242 2035.31C796.997 2040.99 757.381 2044.26 745.947 2018.95C736.111 1997.2 755.807 1973.92 777.805 1954.58C777.198 1952.8 776.609 1951.03 776.03 1949.24ZM749.073 2158.5C695.405 2158.5 649.571 2146.8 633.582 2111.44C605.018 2048.3 694.935 1963.82 775.398 1904.08L797.394 1887.75L803.842 1914.38C807.067 1927.7 811.19 1940.96 816.093 1953.8L820.762 1966.03L810.633 1974.31C793.327 1988.47 785.653 1997.5 782.27 2002.52C788.451 2003.34 800.831 2003.52 824.135 1999.55C895.469 1987.35 1017.23 1944.74 1141.92 1888.35C1266.6 1831.96 1379.02 1768.66 1435.28 1723.15C1453.6 1708.32 1461.63 1698.92 1465.12 1693.74C1459.04 1692.95 1447.12 1692.72 1425.26 1696.35L1412.34 1698.48L1406.24 1686.9C1399.84 1674.75 1392.62 1662.9 1384.72 1651.67L1368.99 1629.24L1395.78 1623.51C1493.78 1602.54 1616.59 1590.8 1645.15 1653.95C1678.31 1727.28 1550.2 1829.86 1470.88 1884.48C1396.1 1935.99 1304.67 1986.68 1206.48 2031.08C1108.28 2075.5 1009.83 2110.68 921.762 2132.83C873.402 2144.99 806.719 2158.48 749.073 2158.5Z" fill="#371A45"/>
<path d="M1407.43 1712.56C1406.66 1711.03 1405.86 1709.51 1405.06 1707.99C1398.2 1694.98 1390.59 1682.56 1382.35 1670.78C1381.35 1669.36 1380.34 1667.98 1379.32 1666.58C1379.24 1666.47 1379.18 1666.36 1379.1 1666.26C1382.58 1663.26 1385.79 1660.34 1388.72 1657.5C1392.15 1662.62 1395.46 1667.86 1398.59 1673.18C1398.63 1673.24 1398.67 1673.31 1398.71 1673.38C1398.72 1673.39 1398.72 1673.42 1398.74 1673.43C1401.35 1677.87 1403.87 1682.38 1406.26 1686.92C1409.31 1692.71 1412.26 1698.71 1414.99 1704.78C1415.16 1705.16 1415.34 1705.55 1415.51 1705.92C1412.94 1708.1 1410.24 1710.31 1407.43 1712.56ZM1369.59 1653.78C1359.7 1641.42 1349.03 1629.84 1337.7 1619.14C1341.79 1615.56 1345.48 1612.11 1348.74 1608.82C1359.75 1619.83 1370.06 1631.74 1379.56 1644.52C1376.59 1647.48 1373.26 1650.58 1369.59 1653.78ZM1326.07 1608.64C1300.31 1586.43 1271.52 1568.32 1240.79 1554.75C1239.18 1554.03 1237.55 1553.32 1235.92 1552.64C1241.15 1548.88 1246.04 1545.22 1250.55 1541.67C1282.03 1555.52 1311.43 1574.44 1337.44 1598.06C1334.16 1601.4 1330.36 1604.95 1326.07 1608.64ZM955.855 1558.22C965.442 1552.64 975.375 1547.5 985.669 1542.84C1028.78 1523.35 1074.27 1514 1119.24 1514C1158.46 1514 1197.26 1521.11 1233.71 1534.8C1228.95 1538.36 1223.84 1542.02 1218.4 1545.76C1181.3 1532.38 1141.87 1525.34 1101.91 1525.34C1054.71 1525.34 1006.75 1535.15 960.949 1555.87C959.242 1556.64 957.535 1557.43 955.855 1558.22Z" fill="#FFD269"/>
<path d="M1418.34 1736.16C1417.03 1733.04 1415.68 1729.94 1414.28 1726.84C1413.66 1725.47 1413.02 1724.11 1412.39 1722.75C1410.79 1719.31 1409.14 1715.91 1407.43 1712.56C1410.24 1710.31 1412.94 1708.1 1415.51 1705.92C1419.16 1714.1 1422.5 1722.43 1425.47 1730.84C1423.16 1732.59 1420.79 1734.36 1418.34 1736.16Z" fill="#E7A86E"/>
<path d="M1337.7 1619.14C1337.6 1619.06 1337.5 1618.96 1337.4 1618.87C1333.7 1615.38 1329.92 1611.96 1326.07 1608.64C1330.36 1604.95 1334.16 1601.4 1337.44 1598.06C1341.28 1601.54 1345.04 1605.12 1348.74 1608.82C1345.48 1612.11 1341.79 1615.56 1337.7 1619.14Z" fill="#E7A86E"/>
<path d="M1235.92 1552.64C1230.15 1550.19 1224.3 1547.9 1218.4 1545.76C1223.84 1542.02 1228.95 1538.36 1233.71 1534.8C1239.38 1536.92 1245 1539.22 1250.55 1541.67C1246.04 1545.22 1241.15 1548.88 1235.92 1552.64Z" fill="#E7A86E"/>
<path d="M1379.1 1666.26C1376.02 1662.02 1372.84 1657.86 1369.59 1653.78C1373.26 1650.58 1376.59 1647.48 1379.56 1644.52C1381.31 1646.87 1383.03 1649.26 1384.72 1651.67C1384.86 1651.84 1384.98 1652.02 1385.1 1652.19C1386.32 1653.95 1387.54 1655.71 1388.72 1657.5C1385.79 1660.34 1382.58 1663.26 1379.1 1666.26Z" fill="#E7A86E"/>
<path d="M1418.34 1736.16C1420.79 1734.36 1423.16 1732.59 1425.47 1730.84C1423.16 1732.59 1420.78 1734.36 1418.34 1736.16ZM1398.74 1673.43C1398.72 1673.42 1398.72 1673.39 1398.71 1673.38C1398.72 1673.39 1398.72 1673.42 1398.74 1673.43ZM1398.59 1673.18C1395.46 1667.86 1392.15 1662.62 1388.72 1657.5C1387.54 1655.71 1386.32 1653.95 1385.1 1652.19C1389.84 1658.99 1394.36 1666 1398.59 1673.18Z" fill="#897892"/>
<path d="M1119.24 1514C1074.27 1514 1028.78 1523.35 985.669 1542.84C843.775 1607.02 767.308 1763.27 803.842 1914.39C807.067 1927.7 811.19 1940.96 816.093 1953.8C818.442 1959.98 821.011 1966.15 823.738 1972.18C827.602 1980.71 831.842 1989.11 836.389 1997.26C908.909 1982.6 1024.11 1941.63 1141.92 1888.35C1259.72 1835.07 1366.58 1775.62 1425.47 1730.84C1422.36 1722.04 1418.86 1713.31 1414.99 1704.78C1412.26 1698.71 1409.31 1692.71 1406.26 1686.92C1399.84 1674.75 1392.62 1662.9 1384.72 1651.67C1322.54 1563.1 1222.28 1514 1119.24 1514ZM818.13 2037.38L811.717 2026.88C803.955 2014.2 796.879 2000.83 790.685 1987.12C787.654 1980.43 784.799 1973.56 782.195 1966.72C776.757 1952.48 772.173 1937.74 768.582 1922.92C727.957 1754.88 812.966 1581.14 970.722 1509.79C1128.47 1438.46 1315.07 1489.35 1414.42 1630.82C1423.19 1643.31 1431.24 1656.5 1438.35 1670C1441.74 1676.4 1445 1683.08 1448.04 1689.83C1454.24 1703.52 1459.62 1717.68 1464.02 1731.88L1467.66 1743.63L1458.1 1751.35C1398.71 1799.39 1286.1 1862.96 1156.87 1921.4C1027.63 1979.84 905.535 2022.43 830.242 2035.31L818.13 2037.38Z" fill="#371A45"/>
<path d="M749.058 2122.24C700.915 2122.24 673.595 2111.88 666.635 2096.5C661.919 2086.07 665.106 2068.72 680.556 2045.03C678.218 2055.52 679.465 2063.86 682.421 2070.39C692.243 2092.11 722.437 2099.58 759.361 2099.58C815.507 2099.58 887.215 2082.3 926.522 2071.5C1005.15 2049.88 1093.54 2017.3 1182.12 1977.23C1197.64 1970.2 1212.99 1963.04 1228.11 1955.75C1234.92 1952.76 1241.76 1949.71 1248.6 1946.62C1349.1 1901.15 1438.84 1850.72 1510.19 1801.59C1529.12 1788.56 1546.76 1775.62 1562.96 1762.88C1536.67 1789.72 1499.6 1820.66 1450.31 1854.6C1377.27 1904.91 1287.79 1954.5 1191.52 1998.03C1095.26 2041.58 998.922 2076.02 912.922 2097.64C843.669 2115.07 789.143 2122.24 749.058 2122.24ZM759.711 2087.83C722.735 2087.83 699.772 2080.14 693.163 2065.52C689.254 2056.88 691.078 2045.5 698.145 2032.02C698.591 2033.38 699.11 2034.71 699.702 2036.02C710.843 2060.64 746.327 2072.36 798.867 2072.36C843.895 2072.36 901.442 2063.76 966.935 2047.28C967.255 2047.2 967.562 2047.12 967.882 2047.04C952.749 2051.76 937.909 2056.14 923.389 2060.12C860.015 2077.54 805.087 2087.11 764.549 2087.79C762.909 2087.82 761.299 2087.83 759.711 2087.83Z" fill="#B98C44"/>
<path d="M759.361 2099.58C722.437 2099.58 692.243 2092.11 682.421 2070.39C679.465 2063.86 678.218 2055.52 680.557 2045.03C684.846 2038.46 690.082 2031.39 696.357 2023.86C696.691 2026.67 697.285 2029.39 698.145 2032.02C691.078 2045.5 689.254 2056.88 693.163 2065.52C699.773 2080.14 722.735 2087.83 759.711 2087.83C761.299 2087.83 762.909 2087.82 764.549 2087.79C805.087 2087.11 860.015 2077.54 923.389 2060.12C937.909 2056.14 952.749 2051.76 967.882 2047.04C1045.96 2027.35 1135.3 1996.48 1228.11 1955.75C1212.99 1963.04 1197.64 1970.2 1182.12 1977.23C1093.54 2017.3 1005.15 2049.88 926.522 2071.5C887.215 2082.3 815.507 2099.58 759.361 2099.58Z" fill="#B9A376"/>
<path d="M749.274 2140.32C696.724 2140.32 661.244 2128.6 650.103 2103.98C637.542 2076.23 657.715 2036.07 702.48 1990.24C697.296 2002.5 695.16 2013.78 696.356 2023.86C690.082 2031.39 684.846 2038.46 680.556 2045.03C665.106 2068.72 661.919 2086.07 666.635 2096.5C673.595 2111.88 700.915 2122.24 749.058 2122.24C789.143 2122.24 843.668 2115.07 912.922 2097.64C998.922 2076.02 1095.26 2041.58 1191.52 1998.03C1287.79 1954.5 1377.27 1904.91 1450.31 1854.6C1499.6 1820.66 1536.67 1789.72 1562.96 1762.88C1587.32 1743.72 1608.44 1725.03 1625.84 1707.2C1606.93 1751.99 1547.31 1809.84 1460.59 1869.55C1389.24 1918.7 1299.49 1969.11 1199 2014.56C1098.5 2060.02 1001.38 2094.1 917.348 2115.24C851.855 2131.71 794.296 2140.32 749.274 2140.32Z" fill="#371A45"/>
<path d="M663.669 1625.31C663.285 1626.16 662.989 1627.04 662.781 1627.98L663.669 1625.31Z" fill="#D66B09"/>
<path d="M825.098 1975.15C824.64 1974.16 824.187 1973.16 823.738 1972.18C821.011 1966.15 818.442 1959.98 816.092 1953.8C812.308 1943.9 808.991 1933.74 806.191 1923.5C838.762 1919.66 885.268 1907.55 939.308 1889.2C965.748 1903.76 995.882 1912.11 1027.58 1912.11C1028.54 1912.11 1029.5 1912.1 1030.46 1912.08C947.948 1944.52 875.348 1966.63 825.098 1975.15ZM802.398 1908.15C798.967 1892.63 796.723 1877.1 795.606 1861.6C817.944 1859.5 847.975 1852.84 883.175 1842.4C894.402 1856.14 907.522 1868.31 922.095 1878.5C873.122 1894.63 831.442 1905.08 802.398 1908.15ZM794.858 1845.91C794.038 1810.6 799.05 1775.82 809.271 1742.82C819.09 1740.82 829.828 1738.24 841.322 1735.14C843.015 1769.43 854.562 1801.64 873.122 1828.94C841.615 1838.08 814.772 1843.99 794.858 1845.91ZM815.182 1725.47C826.402 1695.38 842.028 1667.03 861.588 1641.42C859.642 1645.58 857.775 1649.78 856.002 1654.02C846.855 1675.82 842.148 1697.66 841.255 1718.88C832.055 1721.43 823.339 1723.63 815.182 1725.47Z" fill="#B97D18"/>
<path d="M836.388 1997.26C832.362 1990.06 828.588 1982.66 825.098 1975.15C875.348 1966.63 947.948 1944.52 1030.46 1912.08C1052.47 1911.72 1075.2 1907.35 1097.95 1898.22C1180.35 1865.15 1268.1 1824.78 1340.03 1786.84C1284.15 1819.72 1215.15 1855.23 1141.92 1888.35C1141.7 1888.46 1141.46 1888.56 1141.23 1888.66C1140.55 1888.96 1139.85 1889.28 1139.17 1889.59H1139.16C1099.83 1907.32 1060.84 1923.67 1023.66 1938.1C1023.63 1938.11 1023.62 1938.12 1023.59 1938.12C1023.4 1938.2 1023.22 1938.27 1023.03 1938.35C1022.98 1938.36 1022.92 1938.39 1022.87 1938.4C1022.26 1938.64 1021.65 1938.88 1021.04 1939.11C1021 1939.12 1020.98 1939.14 1020.95 1939.15C1020.76 1939.22 1020.58 1939.3 1020.4 1939.36C1019.95 1939.54 1019.51 1939.71 1019.07 1939.88C1019.02 1939.9 1018.99 1939.91 1018.95 1939.92C1018.52 1940.08 1018.1 1940.24 1017.68 1940.42C1017.67 1940.42 1017.67 1940.42 1017.66 1940.42C1017.44 1940.5 1017.22 1940.59 1017 1940.67C1016.98 1940.68 1016.96 1940.68 1016.94 1940.7C1016.74 1940.78 1016.55 1940.84 1016.35 1940.92C1016.31 1940.94 1016.24 1940.96 1016.19 1940.98C1016 1941.06 1015.82 1941.12 1015.63 1941.2C1015.62 1941.2 1015.62 1941.2 1015.6 1941.2C945.508 1968.1 882.375 1987.96 836.388 1997.26Z" fill="#9F4F1E"/>
<path d="M795.606 1861.6C795.229 1856.38 794.979 1851.12 794.858 1845.91C814.773 1843.99 841.615 1838.08 873.122 1828.94C876.282 1833.58 879.642 1838.07 883.175 1842.4C847.975 1852.84 817.945 1859.5 795.606 1861.6Z" fill="#9F4F1E"/>
<path d="M809.271 1742.82C811.082 1736.96 813.049 1731.2 815.182 1725.47C823.339 1723.63 832.055 1721.43 841.255 1718.88C841.029 1724.35 841.055 1729.76 841.322 1735.14C829.829 1738.24 819.09 1740.82 809.271 1742.82Z" fill="#9F4F1E"/>
<path d="M806.191 1923.5C805.362 1920.46 804.579 1917.42 803.842 1914.38L803.598 1913.36C803.185 1911.63 802.782 1909.88 802.398 1908.15C831.442 1905.08 873.122 1894.63 922.095 1878.5C927.629 1882.36 933.375 1885.94 939.309 1889.2C885.269 1907.55 838.762 1919.66 806.191 1923.5Z" fill="#9F4F1E"/>
<path d="M836.388 1997.26C882.375 1987.96 945.508 1968.1 1015.6 1941.2C945.522 1968.1 882.375 1987.96 836.388 1997.26ZM816.092 1953.8C811.19 1940.96 807.067 1927.7 803.842 1914.39C803.759 1914.04 803.679 1913.71 803.598 1913.36L803.842 1914.38C804.579 1917.42 805.362 1920.46 806.191 1923.5C808.991 1933.74 812.308 1943.9 816.092 1953.8ZM1015.63 1941.2C1015.82 1941.12 1016 1941.06 1016.19 1940.98C1016 1941.06 1015.82 1941.12 1015.63 1941.2ZM1016.35 1940.92C1016.55 1940.84 1016.74 1940.78 1016.94 1940.7C1016.74 1940.78 1016.55 1940.84 1016.35 1940.92ZM1017 1940.67C1017.22 1940.59 1017.44 1940.5 1017.66 1940.42C1017.44 1940.5 1017.22 1940.59 1017 1940.67ZM1017.68 1940.42C1018.1 1940.24 1018.52 1940.08 1018.95 1939.92C1018.52 1940.08 1018.1 1940.26 1017.68 1940.42ZM1019.07 1939.88C1019.51 1939.71 1019.95 1939.54 1020.4 1939.36C1019.95 1939.54 1019.51 1939.71 1019.07 1939.88ZM1020.95 1939.15C1020.98 1939.14 1021 1939.12 1021.04 1939.11C1021 1939.12 1020.98 1939.14 1020.95 1939.15ZM1022.87 1938.4C1022.92 1938.39 1022.98 1938.36 1023.03 1938.35C1022.98 1938.36 1022.92 1938.39 1022.87 1938.4ZM1023.59 1938.12C1023.62 1938.12 1023.63 1938.11 1023.66 1938.1C1023.63 1938.11 1023.62 1938.12 1023.59 1938.12ZM1139.16 1889.59H1139.18H1139.16ZM1141.23 1888.66C1141.46 1888.56 1141.7 1888.46 1141.92 1888.35C1141.7 1888.46 1141.46 1888.55 1141.23 1888.66Z" fill="#371A45"/>
<path d="M827.189 2017.44C752.779 1899.68 761.824 1735.23 851.002 1625.42H851.015C865.709 1606.63 887.322 1584.75 908.655 1568.24C906.735 1570.55 904.842 1572.87 903.002 1575.22H902.975C886.455 1595.58 872.642 1617.86 861.589 1641.42C842.029 1667.03 826.402 1695.38 815.182 1725.47C813.049 1731.2 811.082 1736.96 809.271 1742.82C799.05 1775.82 794.038 1810.6 794.858 1845.91C794.979 1851.12 795.229 1856.38 795.606 1861.6C796.723 1877.1 798.967 1892.63 802.398 1908.15C802.782 1909.88 803.184 1911.63 803.598 1913.36C803.679 1913.71 803.759 1914.04 803.842 1914.39C807.067 1927.7 811.19 1940.96 816.093 1953.8C818.442 1959.98 821.011 1966.15 823.738 1972.18C824.187 1973.16 824.64 1974.16 825.098 1975.15C828.588 1982.66 832.362 1990.06 836.389 1997.26C882.375 1987.96 945.522 1968.1 1015.6 1941.2C1015.62 1941.2 1015.62 1941.2 1015.63 1941.2C1015.82 1941.12 1016 1941.06 1016.19 1940.98C1016.24 1940.96 1016.31 1940.94 1016.35 1940.92C1016.55 1940.84 1016.74 1940.78 1016.94 1940.7C1016.96 1940.68 1016.98 1940.68 1017 1940.67C1017.22 1940.59 1017.44 1940.5 1017.66 1940.42C1017.67 1940.42 1017.67 1940.42 1017.68 1940.42C1018.1 1940.26 1018.52 1940.08 1018.95 1939.92C1018.99 1939.91 1019.02 1939.9 1019.07 1939.88C1019.51 1939.71 1019.95 1939.54 1020.4 1939.36C1020.58 1939.3 1020.76 1939.22 1020.95 1939.15C1020.98 1939.14 1021 1939.12 1021.04 1939.11C1021.66 1938.88 1022.26 1938.64 1022.87 1938.4C1022.92 1938.39 1022.98 1938.36 1023.03 1938.35C1023.22 1938.27 1023.4 1938.2 1023.59 1938.12C1023.62 1938.12 1023.63 1938.11 1023.66 1938.1C1060.84 1923.67 1099.83 1907.32 1139.16 1889.59H1139.18C1139.86 1889.28 1140.55 1888.96 1141.23 1888.66C1141.46 1888.55 1141.7 1888.46 1141.92 1888.35C1215.15 1855.23 1284.15 1819.72 1340.03 1786.84C1380.75 1765.36 1416.4 1744.67 1443.16 1726.51C1444.4 1730.08 1445.59 1733.66 1446.71 1737.26C1319.78 1841.74 957.122 1998.79 827.189 2017.44Z" fill="#371A45"/>
<path d="M3707.31 2542.16L3644.31 2552.08C3618.83 2556.1 3594.71 2538.54 3590.7 2513.07L3590.08 2509.2C3586.07 2483.72 3603.63 2459.59 3629.11 2455.58L3692.1 2445.66C3717.58 2441.64 3741.71 2459.2 3745.72 2484.68L3746.34 2488.55C3750.35 2514.02 3732.79 2538.15 3707.31 2542.16Z" fill="#FFAC40"/>
<path d="M3627.26 2551.62C3627.24 2551.62 3627.23 2551.62 3627.23 2551.62C3627.23 2551.62 3627.24 2551.62 3627.26 2551.62ZM3627.16 2551.59C3623.15 2550.72 3619.3 2549.34 3615.7 2547.48H3615.71C3619.31 2549.34 3623.15 2550.72 3627.16 2551.59Z" fill="#7967BE"/>
<path d="M3615.7 2547.48C3611.82 2545.5 3608.23 2542.98 3605.04 2540C3608.24 2542.98 3611.83 2545.5 3615.71 2547.48H3615.7Z" fill="#371A45"/>
<path d="M3726.24 2534.68C3729.3 2532.6 3732.08 2530.18 3734.55 2527.48C3732.08 2530.18 3729.3 2532.6 3726.24 2534.68ZM3745.35 2507.72V2507.71C3746.96 2501.63 3747.36 2495.14 3746.34 2488.55L3746.11 2487.18L3746.34 2488.55C3747.38 2495.15 3746.96 2501.64 3745.35 2507.72Z" fill="#7967BE"/>
<path d="M3734.55 2527.48C3739.65 2521.9 3743.39 2515.11 3745.35 2507.71V2507.72C3743.39 2515.12 3739.65 2521.9 3734.55 2527.48ZM3590.29 2510.58L3590.07 2509.19C3589.59 2506.14 3589.43 2503.11 3589.55 2500.14C3589.43 2503.11 3589.6 2506.15 3590.08 2509.2L3590.29 2510.58Z" fill="#371A45"/>
<path d="M3636.99 2552.66C3633.67 2552.66 3630.41 2552.3 3627.25 2551.62C3627.24 2551.62 3627.23 2551.62 3627.23 2551.62C3627.2 2551.6 3627.18 2551.6 3627.16 2551.59C3623.15 2550.72 3619.31 2549.34 3615.71 2547.48C3611.83 2545.5 3608.24 2542.98 3605.04 2540C3605.03 2539.99 3605.02 2539.98 3605 2539.96C3597.62 2533.06 3592.39 2523.76 3590.71 2513.08L3590.3 2510.58L3590.08 2509.2C3589.6 2506.15 3589.43 2503.11 3589.55 2500.14C3589.55 2500.1 3589.55 2500.06 3589.55 2500.03C3589.74 2495.8 3590.51 2491.67 3591.77 2487.75C3600.4 2499.83 3614.57 2507.42 3629.91 2507.42C3632.31 2507.42 3634.72 2507.23 3637.16 2506.84L3700.15 2496.92C3718.18 2494.04 3732.26 2481.14 3737.48 2464.76C3741.64 2470.47 3744.52 2477.24 3745.7 2484.66L3746.11 2487.18L3746.34 2488.55C3747.36 2495.14 3746.96 2501.63 3745.35 2507.71C3743.39 2515.11 3739.66 2521.9 3734.55 2527.48C3732.08 2530.18 3729.29 2532.6 3726.24 2534.68C3720.72 2538.43 3714.31 2541.06 3707.3 2542.15L3644.31 2552.07C3641.85 2552.46 3639.4 2552.66 3636.99 2552.66Z" fill="#B97942"/>
<path d="M3699.42 2466.42C3698.1 2466.42 3696.76 2466.52 3695.42 2466.72L3632.43 2476.66C3618.51 2478.84 3608.96 2491.95 3611.16 2505.87L3611.76 2509.75C3613.96 2523.66 3627.06 2533.23 3640.99 2531.02L3703.99 2521.08C3710.68 2520.03 3716.59 2516.4 3720.63 2510.84C3724.67 2505.3 3726.31 2498.55 3725.26 2491.86L3724.64 2488C3722.67 2475.42 3711.76 2466.42 3699.42 2466.42ZM3636.98 2574C3604 2574 3574.91 2549.96 3569.62 2516.39L3569 2512.51C3566.18 2494.56 3570.54 2476.55 3581.28 2461.79C3592.03 2447.02 3607.84 2437.34 3625.79 2434.5L3688.78 2424.58C3725.99 2418.72 3760.94 2444.2 3766.79 2481.36L3767.4 2485.22C3773.26 2522.39 3747.79 2557.38 3710.63 2563.23L3647.63 2573.16C3644.06 2573.72 3640.5 2574 3636.98 2574Z" fill="#371A45"/>
<path d="M3422.6 1920.95C3422.6 1920.95 3378.47 1936.28 3350.22 1891.35C3324.79 1850.88 3287.79 1767.64 3325.94 1707.52C3352.66 1665.42 3448.04 1667.35 3448.04 1667.35L3422.6 1920.95Z" fill="white"/>
<path d="M3455.55 1674.24L3454.18 1687.98L3428.36 1945.26C3428.36 1945.26 3421.7 1947.54 3411.78 1947.88C3395.31 1948.44 3369.83 1943.6 3351.02 1913.56C3323.83 1870.36 3284.28 1781.39 3325.03 1717.16C3353.64 1672.14 3455.55 1674.24 3455.55 1674.24Z" fill="white"/>
<path d="M3378.26 1903.86C3359.91 1869 3341.87 1819.68 3348.04 1774.03C3352.12 1770.14 3356.19 1766.2 3360.19 1762.24C3360.42 1806.07 3367.26 1856.72 3378.26 1903.86Z" fill="#B9AFBE"/>
<path d="M3431.88 1696.28C3397.84 1698.9 3355.93 1708.31 3343.07 1728.58C3303.29 1791.24 3357.75 1884.23 3369.05 1902.23C3381.73 1922.4 3397.8 1926.68 3408.76 1926.82L3431.88 1696.28ZM3428.35 1945.23H3428.41H3428.35ZM3409.89 1969.32C3385.81 1969.32 3354.79 1959.7 3332.93 1924.94C3313.68 1894.3 3254.88 1787.92 3307.04 1705.72C3341.05 1652.12 3444.33 1652.64 3455.96 1652.88L3479.07 1653.36L3448.21 1960.91L3435.35 1965.38C3428.89 1967.63 3420 1969.32 3409.89 1969.32Z" fill="#371A45"/>
<path d="M3629.32 1617.36C3589.43 1565.51 3395.44 1625.84 3383.62 1721.99C3371.79 1818.15 3412.27 1992.15 3455.88 2036.28C3508.87 2089.9 3674.28 2076.14 3702 2024.08C3729.74 1972.04 3730.62 1749 3629.32 1617.36Z" fill="white"/>
<path d="M3569.55 2049.11C3526.71 2049.11 3488.42 2038.84 3471.06 2021.28C3437.08 1986.91 3398.02 1838.22 3403.28 1741.91C3415.47 1823.34 3442.51 1906.99 3470.87 1935.7C3494.18 1959.26 3539.19 1969.8 3584.68 1969.8C3627.1 1969.8 3669.94 1960.63 3695.98 1944.3C3694.36 1977.04 3689.52 2002.15 3683.18 2014.06C3677.03 2025.58 3651.71 2040 3608.96 2046.24C3595.71 2048.18 3582.42 2049.11 3569.55 2049.11Z" fill="#B9AFBE"/>
<path d="M3574.71 1619.7C3561 1619.7 3544.31 1621.87 3525.56 1626.99C3469.63 1642.27 3410.19 1680.71 3404.79 1724.6C3393.15 1819.28 3434.98 1984.78 3471.06 2021.28C3493.63 2044.12 3551.62 2054.62 3608.96 2046.24C3651.71 2040 3677.03 2025.58 3683.18 2014.06C3706.07 1971.08 3709.35 1756.34 3612.42 1630.38C3607.52 1624.02 3594.08 1619.7 3574.71 1619.7ZM3570.23 2091.67C3520.79 2091.67 3469.2 2080.11 3440.71 2051.28C3392.2 2002.2 3349.79 1822.3 3362.44 1719.39C3370.54 1653.58 3444.55 1604.88 3514.32 1585.83C3575.19 1569.19 3624.51 1576.12 3646.23 1604.35C3754.12 1744.55 3751.04 1977.39 3720.83 2034.11C3700.55 2072.19 3640.15 2084.8 3615.12 2088.47C3600.88 2090.55 3585.66 2091.67 3570.23 2091.67Z" fill="#371A45"/>
<path d="M2053.79 1582.54C2646.24 2503.8 3954.71 1726.87 3482.95 783.403C2898.87 -174.024 1547.08 630.323 2053.79 1582.54Z" fill="white"/>
<path d="M2053.79 1582.54C2646.24 2503.8 3954.71 1726.87 3482.95 783.403C2898.87 -174.024 1547.08 630.323 2053.79 1582.54Z" fill="white"/>
<path d="M3287.4 1902.1C3286.08 1877.1 3284.87 1852.83 3283.79 1829.51C3286.1 1827.71 3288.4 1825.88 3290.7 1824.06C3295.51 1846.56 3303.39 1867.51 3311.38 1884.92C3303.48 1890.79 3295.5 1896.51 3287.4 1902.1Z" fill="#B9AFBE"/>
<path d="M2810.78 2054.16C2669.11 2054.16 2525.16 2015.7 2392.92 1930.08C2454.35 1961.67 2519.18 1984.92 2586.8 1999.42C2641.32 2011.1 2696.82 2016.87 2752.5 2016.87C2896.82 2016.87 3042.28 1978.07 3174.39 1902.86C3212.98 1880.88 3249.51 1856.35 3283.79 1829.51C3284.87 1852.83 3286.08 1877.1 3287.4 1902.1C3252.36 1926.42 3215.51 1948.12 3177.27 1966.95C3063.86 2022.99 2938.26 2054.16 2810.78 2054.16Z" fill="#B9AFBE"/>
<path d="M3311.38 1884.92C3303.39 1867.51 3295.51 1846.56 3290.7 1824.06C3298.31 1817.98 3305.82 1811.76 3313.2 1805.46C3329.98 1838.52 3339.08 1863.52 3331.98 1869.14C3325.19 1874.51 3318.32 1879.78 3311.38 1884.92Z" fill="#371A45"/>
<path d="M2053.79 1582.54C2646.24 2503.8 3954.71 1726.87 3482.95 783.403C2898.87 -174.024 1547.08 630.323 2053.79 1582.54Z" fill="white"/>
<path d="M2066.91 1574.84C2365.19 2038.14 2828.92 2057.5 3156.31 1871.1C3476.18 1688.98 3710.59 1273.31 3469.64 790.777C3177.16 311.91 2694.86 292.95 2370.39 478.044C2042.75 664.937 1808.1 1087.83 2066.91 1574.84ZM2752.5 2010.75C2697.24 2010.75 2642.19 2005.02 2588.1 1993.43C2369.46 1946.58 2180.27 1807.34 2040.99 1590.76L2040.36 1589.68C1920.23 1363.91 1895 1130.44 1967.43 914.51C2032.06 721.83 2169.82 557.443 2355.32 451.617C2540.44 346.017 2750.68 312.07 2947.34 356.057C3169.1 405.644 3358.8 550.683 3495.94 775.483L3496.56 776.604C3608.58 1000.62 3629 1231 3555.66 1442.84C3490.06 1632.31 3353.58 1793.78 3171.36 1897.54C3040.18 1972.22 2895.76 2010.75 2752.5 2010.75Z" fill="#371A45"/>
<path d="M2898.72 1960.66C2931.97 1950.26 2964.8 1937.47 2996.95 1922.28C3138.83 1855.3 3256.91 1748.27 3335.91 1616.44C3356.24 1632.34 3378.57 1643.54 3401.65 1650.15C3332.8 1739.28 3246.71 1812.58 3153.28 1865.78C3074.89 1910.4 2988.67 1943.14 2898.72 1960.66ZM2680.92 1951.08C2586.31 1951.08 2487.81 1930.91 2392.57 1883.02C2378.47 1875.2 2364.49 1866.88 2350.6 1857.98C2449.64 1895.66 2549.43 1914.79 2647.37 1914.79C2691.05 1914.79 2734.37 1910.99 2777.09 1903.32C2913.16 1878.92 3037.68 1816.15 3137.24 1723.2C3192.35 1674.43 3239.79 1614.88 3276.32 1544.43C3284.4 1559.48 3293.53 1572.99 3303.53 1584.98C3226.44 1717.64 3109.59 1821.92 2978.72 1883.71C2891.47 1924.91 2788.71 1951.08 2680.92 1951.08Z" fill="#B9AFBE"/>
<path d="M2072.2 1571.74C2368.31 2031.42 2828.46 2050.71 3153.28 1865.78C3470.65 1685.07 3703.23 1272.6 3464.27 793.749C3173.91 318.616 2695.35 299.723 2373.43 483.363C2048.32 668.803 1815.54 1088.46 2072.2 1571.74ZM2752.49 2016.87C2696.81 2016.87 2641.32 2011.1 2586.8 1999.42C2366.54 1952.22 2176.01 1812.06 2035.84 1594.07L2034.95 1592.56C1914 1365.27 1888.64 1130.14 1961.62 912.563C2026.74 718.456 2165.47 552.869 2352.28 446.296C2538.72 339.936 2750.54 305.776 2948.67 350.083C3172.09 400.042 3363.13 546.043 3501.16 772.296L3502.03 773.856C3614.8 999.389 3635.35 1231.4 3561.44 1444.84C3495.35 1635.71 3357.89 1798.38 3174.39 1902.86C3042.28 1978.07 2896.81 2016.87 2752.49 2016.87Z" fill="#293856"/>
<path d="M2072.2 1571.74C2368.31 2031.42 2828.46 2050.71 3153.28 1865.78C3470.65 1685.07 3703.23 1272.6 3464.27 793.749C3173.91 318.616 2695.35 299.723 2373.43 483.363C2048.32 668.803 1815.54 1088.46 2072.2 1571.74ZM2752.49 2016.87C2696.81 2016.87 2641.32 2011.1 2586.8 1999.42C2366.54 1952.22 2176.01 1812.06 2035.84 1594.07L2034.95 1592.56C1914 1365.27 1888.64 1130.14 1961.62 912.563C2026.74 718.456 2165.47 552.869 2352.28 446.296C2538.72 339.936 2750.54 305.776 2948.67 350.083C3172.09 400.042 3363.13 546.043 3501.16 772.296L3502.03 773.856C3614.8 999.389 3635.35 1231.4 3561.44 1444.84C3495.35 1635.71 3357.89 1798.38 3174.39 1902.86C3042.28 1978.07 2896.81 2016.87 2752.49 2016.87Z" fill="#371A45"/>
<path d="M2180.78 1749.54C2997.99 2256.46 3722.34 1305.8 3106.7 731.442C2378.04 129.989 1525.35 1023.34 2180.78 1749.54Z" fill="#371A45"/>
<path d="M3137.24 1723.2C3166.11 1696.24 3192.88 1666.75 3217.23 1634.92C3239.39 1605.95 3259.08 1575.6 3276.2 1544.19C3276.24 1544.27 3276.28 1544.35 3276.32 1544.43C3239.79 1614.88 3192.35 1674.43 3137.24 1723.2Z" fill="#767382"/>
<path d="M2647.79 1873C2531.74 1873 2405.95 1844.34 2275.23 1778.23C2220.4 1743.5 2170.34 1700.8 2127.43 1650.31C2047 1540.12 2000.44 1428.4 1980.71 1320.87C1973.75 1275 1970.71 1226.48 1972.06 1175.26C2107.19 1432.5 2429.94 1611.38 2754.4 1611.38C2926.39 1611.38 3098.87 1561.1 3244.08 1445.56C3246.76 1462.1 3250.36 1477.63 3254.8 1492.19C3234.95 1533.86 3210.86 1573.04 3183.35 1609C3065.64 1762.88 2875.34 1873 2647.79 1873Z" fill="#281A39"/>
<path d="M2072.06 1571.52C2330.02 1996.1 2721.7 2005.06 2978.72 1883.71C3274.14 1744.23 3498.11 1388.31 3354.63 977.883C3281.27 784.203 3119.71 623.857 2911.58 538.483C2703.27 453.03 2475 453.723 2284.98 540.323C1933.55 782.07 1891.04 1268.31 2072.06 1571.52ZM2681.94 1994.14C2618.46 1994.14 2555.44 1985.52 2494.62 1968.14C2311.31 1915.75 2152.56 1786.23 2035.55 1593.62L2035.47 1593.47C1936.9 1428.39 1901.72 1217.74 1938.98 1015.54C1978.4 801.43 2093.27 619.803 2262.38 504.083L2265.54 502.31C2466.59 410.043 2707.96 408.843 2927.76 499.003C3146.79 588.857 3316.99 758.083 3394.71 963.283C3464.86 1163.87 3457.34 1365.26 3373.18 1546.18C3296.9 1710.19 3163.28 1843.76 2996.95 1922.28C2896.02 1969.95 2788.32 1994.14 2681.94 1994.14Z" fill="#371A45"/>
<path d="M2194.6 1733C2614.15 1991.76 2993.34 1857.4 3183.35 1609C3355.85 1383.47 3394.63 1029.67 3092.61 747.47C2728.43 447.243 2355.02 532.67 2146.47 750.63C1939.07 967.404 1865.98 1366.96 2194.6 1733ZM2647.37 1914.79C2489.25 1914.79 2326.35 1864.94 2169.54 1767.67L2166.97 1766.07L2164.95 1763.83C2007.55 1589.44 1924.63 1392.55 1925.14 1194.46C1925.59 1017.15 1993.24 849.057 2115.64 721.137C2235.25 596.123 2395.25 522.23 2566.19 513.07C2756.37 502.883 2947.91 572.71 3120.28 714.99L3121.25 715.844C3264.83 849.79 3346.42 1012.8 3357.2 1187.24C3366.96 1345.18 3317.26 1504.16 3217.23 1634.92C3108.92 1776.52 2952.61 1871.84 2777.09 1903.32C2734.37 1910.99 2691.05 1914.79 2647.37 1914.79Z" fill="#371A45"/>
<path d="M3687.71 1362.66C3626.92 1744.06 3239.56 1715.24 3260.88 1345.28C3309.91 943.19 3723.99 973.95 3687.71 1362.66Z" fill="white"/>
<path d="M3452.7 1614.66C3447.56 1614.66 3442.44 1614.38 3437.42 1613.83C3354.88 1604.9 3275.87 1522.28 3281.65 1357.84C3294.52 1373.19 3309.33 1379.82 3325.17 1379.82C3335.99 1379.82 3347.28 1376.74 3358.76 1371.23C3358.62 1372.4 3358.47 1373.58 3358.34 1374.75L3358.23 1376.02C3350.79 1505.3 3397.51 1583.46 3457.14 1614.59C3455.66 1614.63 3454.18 1614.66 3452.7 1614.66Z" fill="#B9AFBE"/>
<path d="M3687.71 1362.66H3687.78H3687.71ZM3282.14 1347.19C3272.48 1518.71 3353.11 1604.71 3437.42 1613.83C3526.66 1623.52 3636.31 1548.15 3666.52 1359.98C3683.06 1180.34 3598.24 1088.56 3512.34 1079.32C3415.52 1068.87 3305.5 1157.56 3282.14 1347.19ZM3452.54 1657.31C3445.88 1657.31 3439.32 1656.95 3432.82 1656.24C3328.34 1644.94 3228.06 1544.02 3239.58 1344.06L3239.71 1342.7C3266.23 1125.2 3399.19 1024.22 3516.9 1036.9C3623.06 1048.32 3728.44 1155.75 3708.95 1364.63L3708.78 1366C3676.38 1569.3 3557.07 1657.31 3452.54 1657.31Z" fill="#371A45"/>
<path d="M3702.47 1384.14C3652.88 1693.16 3362.32 1676.47 3379.52 1377.24C3418.16 1047.56 3733.92 1066.04 3702.47 1384.14Z" fill="white"/>
<path d="M3702.47 1384.14H3702.54H3702.47ZM3400.79 1379.1C3393.24 1513.66 3450.28 1580.47 3510.24 1586.99C3575.58 1594.1 3656.82 1532.75 3681.3 1381.39C3695.23 1238.54 3634.94 1166.27 3572.92 1159.58C3501.2 1151.87 3419.08 1224.74 3400.79 1379.1ZM3520.14 1630.19C3515.24 1630.19 3510.42 1629.92 3505.63 1629.4C3425.51 1620.7 3348.86 1538.96 3358.23 1376.02L3358.34 1374.75C3379.71 1192.4 3484.74 1107.15 3577.51 1117.15C3659.86 1126.04 3740.72 1214.04 3723.7 1386.23L3723.54 1387.51C3696.38 1556.74 3601.92 1630.19 3520.14 1630.19Z" fill="#371A45"/>
<path d="M3081.47 1274.24C3025.11 1274.24 2971.6 1223.58 2981.2 1143.06C2994.83 1065.98 3042.4 1032.75 3088.91 1032.75C3149.4 1032.75 3208.13 1088.92 3188.25 1177.91C3168.51 1245.15 3124.16 1274.24 3081.47 1274.24Z" fill="#C3BAC7"/>
<path d="M3046.8 1457.3C3021.68 1457.3 2998.24 1434.35 3008.24 1395.32C3016.79 1371.44 3034.83 1360.62 3052.1 1360.62C3077.22 1360.62 3100.66 1383.55 3090.64 1422.58C3082.11 1446.46 3064.06 1457.3 3046.8 1457.3Z" fill="#C3BAC7"/>
<path d="M2056.62 1237.84C1981.34 784.537 2309.28 624.044 2562.87 624.044C2652.15 624.044 2732.2 643.924 2782.22 677.924C2375.12 704.67 2194.16 955.457 2056.62 1237.84Z" fill="#C3BAC7"/>
<path d="M3520.44 1587.54C3517.02 1587.54 3513.6 1587.35 3510.24 1586.99C3450.28 1580.47 3393.24 1513.66 3400.79 1379.1C3401.07 1376.75 3401.36 1374.42 3401.67 1372.11C3427.94 1419.51 3466.54 1439.4 3507.47 1439.4C3573.87 1439.4 3646.4 1387.07 3682.35 1315.02C3683.88 1335.14 3683.66 1357.27 3681.3 1381.39C3658.07 1524.96 3583.79 1587.54 3520.44 1587.54Z" fill="#B9AFBE"/>
<path d="M3509.44 1605.18C3446.71 1605.18 3386.99 1557.43 3363.68 1447.31C3358.24 1403.62 3364.78 1358.28 3380.3 1316.86C3385.88 1338.36 3393.12 1356.68 3401.67 1372.11C3401.36 1374.42 3401.07 1376.75 3400.79 1379.1C3393.24 1513.66 3450.28 1580.47 3510.24 1586.99C3513.6 1587.35 3517.02 1587.54 3520.44 1587.54C3583.79 1587.54 3658.07 1524.96 3681.3 1381.39C3683.66 1357.27 3683.88 1335.14 3682.35 1315.02C3687.22 1305.27 3691.4 1295.16 3694.83 1284.79C3722.99 1476.99 3612.2 1605.18 3509.44 1605.18Z" fill="#371A45"/>
<path d="M3283.87 1114.12C3276.49 1114.12 3270.36 1112.24 3265.52 1109.84C3233.71 1094.08 3231.33 1042.76 3231.36 1027.42C3231.39 1015.64 3240.93 1006.12 3252.69 1006.12H3252.73C3264.51 1006.15 3274.04 1015.7 3274.03 1027.47C3274.05 1047.59 3279.79 1068.5 3284.49 1071.63C3284.47 1071.44 3288.64 1071.12 3297.48 1064.36C3306.84 1057.22 3320.23 1059 3327.39 1068.36C3334.55 1077.72 3332.75 1091.11 3323.39 1098.27C3307.77 1110.2 3294.53 1114.12 3283.87 1114.12Z" fill="#371A45"/>
<path d="M467.355 1761.74L782.887 1752.67C792.906 1752.39 801.26 1760.27 801.548 1770.3C801.835 1780.31 793.948 1788.66 783.931 1788.95C783.6 1788.96 783.214 1788.96 782.887 1788.95L467.355 1779.88C462.346 1779.74 458.403 1775.56 458.546 1770.55C458.684 1765.72 462.592 1761.88 467.355 1761.74Z" fill="#371A45"/>
<path d="M285.506 1625.06L838.135 1615.99C848.149 1615.83 856.402 1623.82 856.562 1633.83C856.735 1643.86 848.749 1652.11 838.722 1652.27C838.549 1652.27 838.309 1652.27 838.135 1652.27L285.506 1643.2C280.497 1643.12 276.504 1638.99 276.586 1633.98C276.666 1629.08 280.641 1625.15 285.506 1625.06Z" fill="#371A45"/>
<path d="M724.094 1510.26L997.562 1501.19C1007.59 1500.86 1015.98 1508.71 1016.31 1518.74C1016.64 1528.75 1008.79 1537.14 998.762 1537.47C998.375 1537.48 997.948 1537.48 997.562 1537.47L724.094 1528.4C719.086 1528.23 715.159 1524.04 715.326 1519.03C715.485 1514.23 719.37 1510.43 724.094 1510.26Z" fill="#371A45"/>
<path d="M401.996 2082.99L646.429 2073.92C656.446 2073.55 664.867 2081.36 665.239 2091.38C665.611 2101.4 657.791 2109.82 647.774 2110.19C647.337 2110.2 646.859 2110.2 646.429 2110.19L401.996 2101.12C396.987 2100.94 393.078 2096.72 393.263 2091.71C393.44 2086.95 397.304 2083.18 401.996 2082.99Z" fill="#371A45"/>
<path d="M8.9633 1884.1L780.266 1875.03C790.285 1874.91 798.501 1882.94 798.618 1892.95C798.737 1902.98 790.711 1911.19 780.693 1911.31H780.266L8.9633 1902.24C3.9553 1902.18 -0.0580316 1898.07 0.000635078 1893.06C0.0593017 1888.12 4.05796 1884.16 8.9633 1884.1Z" fill="#371A45"/>
<path d="M1119.54 2162.83C1098.42 2162.83 1077.34 2160.78 1056.6 2156.7C1089.15 2148.66 1128.48 2135.66 1170.83 2118.92C1208.98 2115.82 1247.26 2106.22 1284.14 2089.56C1327.32 2070.02 1364.49 2042.64 1394.74 2009.87C1361.32 2063.51 1312.44 2107.24 1253.07 2134.1C1210.46 2153.36 1164.91 2162.83 1119.54 2162.83ZM1038.76 2152.67C1019.03 2147.63 999.695 2140.72 981.068 2131.96C1003.67 2125.7 1028.56 2117.83 1055.15 2108.54C1083.7 2116.12 1113.28 2120.04 1143.16 2120.04C1144.06 2120.04 1144.92 2120.04 1145.82 2120.04C1105.35 2135.1 1068.23 2146.44 1038.76 2152.67Z" fill="#B97D18"/>
<path d="M981.069 2131.96C974.535 2128.9 968.082 2125.6 961.735 2122.08C984.015 2115.74 1006.83 2108.63 1030.02 2100.83C1038.28 2103.71 1046.68 2106.28 1055.15 2108.54C1028.56 2117.83 1003.67 2125.7 981.069 2131.96Z" fill="#9F4F1E"/>
<path d="M1056.6 2156.7C1050.63 2155.52 1044.67 2154.18 1038.76 2152.67C1068.23 2146.44 1105.35 2135.1 1145.82 2120.04C1154.14 2119.98 1162.48 2119.6 1170.83 2118.92C1128.48 2135.66 1089.15 2148.66 1056.6 2156.7Z" fill="#9F4F1E"/>
<path d="M1119.54 2181.16C1080.52 2181.16 1042.04 2174.47 1005.71 2161.7C988.109 2155.47 970.935 2147.86 954.562 2138.84C948.749 2135.64 943.029 2132.3 937.416 2128.79C967.322 2120.86 998.309 2111.48 1030.02 2100.83C1006.83 2108.63 984.015 2115.74 961.735 2122.08C968.082 2125.6 974.535 2128.9 981.069 2131.96C999.695 2140.72 1019.03 2147.63 1038.76 2152.67C1044.67 2154.18 1050.63 2155.52 1056.6 2156.7C1077.34 2160.78 1098.42 2162.83 1119.54 2162.83C1164.91 2162.83 1210.46 2153.36 1253.07 2134.1C1312.44 2107.24 1361.32 2063.51 1394.74 2009.87C1416.7 1986.07 1434.99 1959.42 1449.26 1930.86C1445.8 1943.12 1441.7 1955.22 1436.92 1967.07C1405.06 2045.79 1344.06 2112.84 1260.55 2150.63C1214.74 2171.35 1166.75 2181.16 1119.54 2181.16Z" fill="#371A45"/>
<path d="M937.415 2128.79C930.588 2124.51 923.908 2120 917.375 2115.26C944.815 2108.38 973.722 2100.03 1003.66 2090.42C1012.06 2094.1 1020.64 2097.55 1029.28 2100.56C1029.52 2100.66 1029.78 2100.74 1030.02 2100.83C998.308 2111.48 967.322 2120.86 937.415 2128.79Z" fill="#371A45"/>
</svg>
