<?xml version="1.0" encoding="utf-8"?>
<!-- Generator: Adobe Illustrator 16.0.0, SVG Export Plug-In . SVG Version: 6.00 Build 0)  -->
<!DOCTYPE svg PUBLIC "-//W3C//DTD SVG 1.1//EN" "http://www.w3.org/Graphics/SVG/1.1/DTD/svg11.dtd">
<svg version="1.1" id="Camada_1" xmlns="http://www.w3.org/2000/svg" xmlns:xlink="http://www.w3.org/1999/xlink" x="0px" y="0px"
	 width="1140px" height="245px" viewBox="0 0 1140 245" enable-background="new 0 0 1140 245" xml:space="preserve">
<g>
	<path d="M39.126,92.919c-5.4,0-15.228-3.78-19.98-10.692c-4.104-5.832-3.78-14.472-1.62-19.008
		c3.456-7.236,13.608-14.472,20.412-14.472c2.052,0,4.968,2.052,4.968,5.4c0,1.296-0.864,2.484-1.944,2.592
		c-6.588,0.648-11.124,4.104-11.88,7.128c-0.54,0.864,0.108,1.296,1.08,1.404c1.729,0.216,6.912,0.54,11.232,0.756
		c2.484,0.108,0,7.236-2.484,7.128c-4.104-0.216-8.532-0.432-10.692-0.54c-0.648,0-1.08,0.324-1.08,0.972
		c0.108,5.184,5.184,10.044,15.66,11.664c0.972,0.216,1.836,1.944,1.62,3.024C43.986,90.003,40.854,92.919,39.126,92.919z"/>
	<path d="M70.122,81.363c0,7.776-10.152,14.904-16.416,14.904c-2.376,0-5.292-2.376-5.292-3.672c0-0.864,0.972-2.592,1.944-2.7
		c6.264-0.864,9.504-4.212,9.504-7.56c0-2.376-2.052-4.536-4.644-6.696c-3.996-3.456-5.184-6.588-5.184-10.8
		c0-6.156,8.1-14.364,15.444-14.364c2.376,0,5.4,2.592,5.4,4.644c0,0.864-1.08,2.916-1.836,2.916c-5.94,0-8.532,2.916-8.532,6.264
		c0,2.376,1.296,4.104,4.104,6.48c3.996,3.132,5.508,6.588,5.508,10.476V81.363z"/>
	<path d="M107.164,62.787c-1.944,0.756-5.724,0.756-7.776,1.08c-1.188,0.216-1.728,1.188-1.728,2.376
		c-0.54,7.452-0.54,19.333-1.404,23.004c-0.864,3.24-4.212,5.4-5.833,5.4c-1.08,0-3.564-1.836-3.456-3.024
		c0.54-5.724,1.08-20.088,1.08-26.028c0-0.54-0.648-1.08-1.728-1.08c-2.916,0-4.644,0.108-7.02,0.324
		c-2.052,0.108-3.888-3.78-3.888-6.048c0-0.972,0.972-2.592,1.62-2.7c1.836-0.216,5.94,0.108,9.072-0.216
		c1.404-0.216,2.16-0.648,2.268-2.052c0.324-2.916-0.324-10.8-0.216-14.256c0.108-1.404,4.536-3.348,6.048-3.348
		c1.944,0,4.104,1.404,4.104,2.7c0,2.7-0.648,10.476-0.648,14.364c0,1.404,0.324,2.268,1.08,2.268c3.024,0,7.344-0.216,10.368-0.756
		c1.188-0.108,2.16,1.404,2.16,2.916C111.376,58.575,109.648,61.815,107.164,62.787z"/>
	<path d="M155.007,86.115c-0.54,2.484-4.428,4.968-5.724,4.968c-0.864,0-3.024-1.08-3.024-1.836
		c0.324-2.484,0.432-6.588,0.432-10.044c0-2.484-0.108-4.428-0.108-6.372c0-0.864-0.216-1.188-0.864-0.972
		c-1.728,2.16-8.64,14.472-18.036,14.472c-3.348,0-7.668-2.16-9.72-5.184c-1.836-2.7-3.024-8.1-3.024-15.012
		c0-3.132,0.324-7.344,0.864-9.288c0.648-2.916,4.86-5.832,7.452-5.832c0.972,0,3.132,1.512,2.916,2.376
		c-0.432,2.268-1.08,7.344-1.08,11.016c0,4.32,0.648,7.992,1.836,9.72c0.756,1.188,2.376,2.052,3.348,2.052
		c4.212,0,9.72-6.696,14.256-15.769c2.484-5.076,2.916-5.616,4.752-5.616c3.888,0,6.048,1.404,6.264,3.348
		c0.216,2.808,0.324,8.316,0.432,12.96C155.979,76.287,155.547,83.199,155.007,86.115z"/>
	<path d="M201.878,21.962c0,10.368-0.54,24.732-0.864,37.369c-0.324,11.232-0.756,24.517-1.188,30.781
		c-0.216,2.916-9.288,3.78-9.288,2.376c0-1.08-0.756-2.16-1.944-2.268c-3.24-0.216-10.476-1.296-13.5-2.592
		c-6.48-2.808-10.908-9.396-10.908-15.12c0-5.184,2.7-11.016,8.424-15.012c3.996-2.592,11.772-4.428,17.82-5.4
		c0.864-0.108,1.404-1.512,1.404-5.292c0.108-5.616,0-14.256-0.108-25.164c0-1.188,3.24-2.592,5.508-2.592
		c1.728,0,4.644,1.728,4.644,2.808V21.962z M191.186,65.487c0-2.592-0.54-3.564-2.052-3.564c-2.592,0-6.48,0.648-8.856,1.944
		c-3.024,1.512-5.076,4.752-5.076,8.424c0,4.752,5.508,9.396,11.556,9.396c1.296,0,3.348-0.432,3.78-1.62
		c0.432-1.188,0.648-8.856,0.648-14.472V65.487z"/>
	<path d="M233.089,92.919c-5.4,0-15.228-3.78-19.98-10.692c-4.104-5.832-3.78-14.472-1.62-19.008
		c3.456-7.236,13.608-14.472,20.412-14.472c2.052,0,4.968,2.052,4.968,5.4c0,1.296-0.864,2.484-1.944,2.592
		c-6.588,0.648-11.124,4.104-11.88,7.128c-0.54,0.864,0.108,1.296,1.08,1.404c1.728,0.216,6.912,0.54,11.232,0.756
		c2.484,0.108,0,7.236-2.484,7.128c-4.104-0.216-8.532-0.432-10.692-0.54c-0.648,0-1.08,0.324-1.08,0.972
		c0.108,5.184,5.184,10.044,15.66,11.664c0.972,0.216,1.836,1.944,1.62,3.024C237.949,90.003,234.817,92.919,233.089,92.919z"/>
</g>
<g>
	<path d="M291.198,69.807c0,1.296-0.54,3.132-1.404,3.672c-3.24,1.62-5.184,2.808-8.748,4.968c-2.268,1.404-6.912,4.86-8.532,4.86
		c-2.052,0-4.536-2.7-4.536-4.212c0-0.648,1.296-1.404,2.7-2.052c4.104-1.728,11.34-6.264,11.34-7.128
		c0-0.54-5.184-4.644-8.64-7.021c-1.836-1.296-3.996-2.484-3.996-3.24c0-2.592,3.348-4.86,4.86-4.86c0.54,0,4.428,3.564,8.208,6.912
		c2.808,2.376,6.48,4.968,8.1,6.156c0.54,0.324,0.648,0.972,0.648,1.836V69.807z M311.935,70.455c0,1.296-0.432,3.132-1.404,3.672
		c-3.132,1.728-5.184,2.808-8.748,4.968c-2.268,1.404-6.912,4.968-8.532,4.968c-1.944,0-4.428-2.808-4.428-4.32
		c0-0.648,1.188-1.404,2.592-1.944c4.104-1.836,11.34-6.264,11.34-7.128c0-0.648-5.184-4.644-8.64-7.128
		c-1.836-1.188-3.996-2.484-3.996-3.24c0-2.592,3.348-4.752,4.86-4.752c0.648,0,4.428,3.564,8.316,6.804
		c2.7,2.484,6.372,5.076,7.992,6.156c0.54,0.324,0.648,1.08,0.648,1.836V70.455z"/>
</g>
<g>
	<path d="M354.377,66.243c0,15.769,3.348,27.648,10.8,38.125c0.432,0.648-0.54,2.7-1.404,3.564
		c-0.864,0.756-3.456,1.188-4.104,0.324c-10.692-12.096-13.5-28.944-13.5-41.796c0-18.577,13.393-42.121,18.685-42.121
		c0.972,0,2.916,0.756,3.888,1.512c0.54,0.432,1.404,3.24,0.108,4.752C360.209,39.999,354.377,51.338,354.377,66.243z"/>
	<path d="M402.436,56.307c0,3.024-1.728,6.048-3.24,6.048c-2.592,0.108-6.372,0.648-8.64,1.188c-2.376,0.54-3.996,2.592-4.428,5.616
		c-0.216,1.62-0.432,5.292-0.432,8.748c0,2.917,0.108,6.912,0.216,9.396c0,0.864-1.728,3.132-3.456,3.132
		c-2.484,0-6.48-1.512-6.48-3.024c-0.216-8.748,0.648-27.648,1.512-35.316c0.216-1.62,3.348-3.24,5.508-3.24
		c1.404,0,3.996,1.188,3.996,2.268c0,0.648-0.216,2.7-0.216,3.564c0,0.54,0.324,1.188,1.188,1.188c1.08,0,8.532-2.16,11.232-2.916
		c1.62-0.54,3.24,1.404,3.24,3.24V56.307z"/>
	<path d="M428.463,92.919c-5.4,0-15.228-3.78-19.98-10.692c-4.104-5.832-3.78-14.472-1.62-19.008
		c3.456-7.236,13.608-14.472,20.412-14.472c2.052,0,4.968,2.052,4.968,5.4c0,1.296-0.864,2.484-1.944,2.592
		c-6.588,0.648-11.124,4.104-11.88,7.128c-0.54,0.864,0.108,1.296,1.08,1.404c1.729,0.216,6.912,0.54,11.232,0.756
		c2.484,0.108,0,7.236-2.484,7.128c-4.104-0.216-8.532-0.432-10.692-0.54c-0.648,0-1.08,0.324-1.08,0.972
		c0.108,5.184,5.184,10.044,15.66,11.664c0.972,0.216,1.836,1.944,1.62,3.024C433.323,90.003,430.191,92.919,428.463,92.919z"/>
	<path d="M458.811,64.299c0,21.168-12.204,44.064-16.632,44.064c-1.188,0-2.7-0.54-3.456-1.188c-0.756-0.648-1.62-2.484-0.972-3.348
		c6.804-8.856,13.068-22.141,13.068-36.829c0-18.037-4.428-28.405-10.692-38.125c-0.648-1.08,0.864-3.024,2.052-3.78
		c1.296-0.756,4.428-1.188,5.184-0.108c7.56,12.528,11.448,26.46,11.448,39.205V64.299z"/>
	<path d="M494.557,59.223c-9.936,0.216-16.092,5.508-16.092,12.096c0,5.832,5.184,11.664,14.796,14.148
		c0.756,0.324,1.404,1.62,1.404,2.16c0,2.052-5.94,4.212-8.856,3.888c-9.288-1.296-18.685-11.124-18.685-21.6
		c0-8.856,11.556-20.413,25.165-20.413c1.728,0,4.212,3.132,4.428,5.292C496.825,56.199,495.421,59.223,494.557,59.223z"/>
	<path d="M530.628,56.307c0,3.024-1.728,6.048-3.24,6.048c-2.592,0.108-6.372,0.648-8.64,1.188c-2.376,0.54-3.996,2.592-4.428,5.616
		c-0.216,1.62-0.432,5.292-0.432,8.748c0,2.917,0.108,6.912,0.216,9.396c0,0.864-1.728,3.132-3.456,3.132
		c-2.484,0-6.48-1.512-6.48-3.024c-0.216-8.748,0.648-27.648,1.512-35.316c0.216-1.62,3.348-3.24,5.508-3.24
		c1.404,0,3.996,1.188,3.996,2.268c0,0.648-0.216,2.7-0.216,3.564c0,0.54,0.324,1.188,1.188,1.188c1.08,0,8.532-2.16,11.232-2.916
		c1.62-0.54,3.24,1.404,3.24,3.24V56.307z"/>
	<path d="M547.691,54.039c0,7.776-0.54,25.057-1.62,33.157c-0.108,1.188-3.564,3.024-5.508,3.024c-2.268,0-5.616-2.916-5.4-4.428
		c1.08-7.236,2.16-24.192,2.592-32.616c0.108-1.296,2.592-2.917,3.564-2.917c2.7,0,6.372,2.16,6.372,3.672V54.039z M549.311,36.542
		c0,3.24-3.456,5.184-6.48,5.184c-2.268,0-4.536-3.132-4.536-5.292c0-2.484,3.024-5.184,5.184-5.184c2.7,0,5.832,2.052,5.832,5.184
		V36.542z"/>
	<path d="M579.874,92.919c-5.4,0-15.228-3.78-19.98-10.692c-4.104-5.832-3.78-14.472-1.62-19.008
		c3.456-7.236,13.608-14.472,20.412-14.472c2.053,0,4.969,2.052,4.969,5.4c0,1.296-0.864,2.484-1.944,2.592
		c-6.588,0.648-11.124,4.104-11.88,7.128c-0.54,0.864,0.108,1.296,1.08,1.404c1.728,0.216,6.912,0.54,11.232,0.756
		c2.483,0.108,0,7.236-2.484,7.128c-4.104-0.216-8.532-0.432-10.692-0.54c-0.648,0-1.08,0.324-1.08,0.972
		c0.108,5.184,5.185,10.044,15.66,11.664c0.973,0.216,1.836,1.944,1.62,3.024C584.734,90.003,581.603,92.919,579.874,92.919z"/>
</g>
<g>
	<path d="M638.092,69.807c0,1.296-0.54,3.132-1.403,3.672c-3.24,1.62-5.185,2.808-8.748,4.968c-2.269,1.404-6.912,4.86-8.532,4.86
		c-2.053,0-4.536-2.7-4.536-4.212c0-0.648,1.296-1.404,2.7-2.052c4.104-1.728,11.34-6.264,11.34-7.128
		c0-0.54-5.185-4.644-8.641-7.021c-1.836-1.296-3.996-2.484-3.996-3.24c0-2.592,3.349-4.86,4.86-4.86
		c0.54,0,4.428,3.564,8.208,6.912c2.809,2.376,6.48,4.968,8.101,6.156c0.54,0.324,0.647,0.972,0.647,1.836V69.807z M658.828,70.455
		c0,1.296-0.432,3.132-1.403,3.672c-3.133,1.728-5.185,2.808-8.748,4.968c-2.269,1.404-6.912,4.968-8.532,4.968
		c-1.944,0-4.429-2.808-4.429-4.32c0-0.648,1.188-1.404,2.593-1.944c4.104-1.836,11.34-6.264,11.34-7.128
		c0-0.648-5.185-4.644-8.641-7.128c-1.836-1.188-3.996-2.484-3.996-3.24c0-2.592,3.349-4.752,4.86-4.752
		c0.648,0,4.428,3.564,8.316,6.804c2.7,2.484,6.372,5.076,7.992,6.156c0.54,0.324,0.647,1.08,0.647,1.836V70.455z"/>
</g>
<g>
	<path d="M718.658,59.223c-9.936,0.216-16.092,5.508-16.092,12.096c0,5.832,5.184,11.664,14.796,14.148
		c0.756,0.324,1.404,1.62,1.404,2.16c0,2.052-5.94,4.212-8.856,3.888c-9.288-1.296-18.684-11.124-18.684-21.6
		c0-8.856,11.556-20.413,25.164-20.413c1.728,0,4.212,3.132,4.428,5.292C720.927,56.199,719.522,59.223,718.658,59.223z"/>
	<path d="M764.666,72.615c0,11.125-10.152,20.845-17.604,20.845c-15.769,0-22.572-10.044-22.572-17.82
		c0-3.672,1.512-9.18,3.779-12.313c3.349-4.968,10.585-9.288,18.9-9.288c3.456,0,7.992,1.512,11.124,4.104
		c3.673,2.916,6.373,8.748,6.373,14.364V72.615z M755.27,72.507c0-2.808-1.188-5.076-3.024-6.588
		c-2.16-1.836-5.184-2.808-7.884-2.808c-2.052,0-4.428,1.08-6.156,2.592c-2.268,2.052-3.348,5.076-3.348,8.208
		c0,3.564,1.403,6.912,3.888,8.748c1.296,1.08,2.7,1.728,4.86,1.728c3.456,0,6.804-1.08,8.64-3.024
		c1.836-1.944,3.024-5.076,3.024-8.748V72.507z"/>
	<path d="M834.001,95.835c-0.756,0-2.484-1.188-2.376-2.268c0.432-2.916,1.08-8.532,1.08-12.853c0-3.348-0.432-6.264-1.08-7.236
		c-0.432-0.54-0.972-1.404-2.16-1.404c-5.184,0-15.336,17.172-17.496,18.468c-1.62,0.972-7.992-0.54-8.424-1.728
		c-0.973-3.672-0.324-15.66-0.648-18.9c-0.107-1.08-0.54-1.404-1.404-1.404c-3.888,0-14.364,19.008-17.82,21.601
		c-1.728,1.296-8.748,0.864-8.964-0.54c-1.08-7.344-2.268-31.645-1.512-36.505c0.216-0.972,3.672-3.024,5.184-3.024
		c2.053-0.108,5.616,1.296,5.4,3.132c-0.432,2.7-0.648,15.768-0.108,22.572c0,0.648,0.757,0.864,1.08,0.648
		c2.053-1.296,10.152-16.092,15.769-19.548c1.08-0.756,4.428-0.756,6.48-0.216c2.16,0.648,4.859,2.268,5.292,3.78
		c0.756,2.7-0.108,13.284,0.216,16.2c0.108,0.54,0.54,0.972,1.08,0.864c1.512-0.864,11.34-16.957,19.116-16.957
		c3.672,0,7.992,2.16,8.856,4.536c0.647,1.836,0.972,5.832,0.972,10.476c0,4.86-0.54,10.908-1.62,15.336
		C840.481,92.487,836.053,95.835,834.001,95.835z"/>
	<path d="M890.483,70.131c0,4.536-4.645,11.556-9.072,14.256c-5.185,3.132-11.881,4.212-15.984,4.86
		c-0.864,0.108-1.188,0.972-1.296,3.132c-0.217,3.888-0.54,14.472-0.973,22.464c-0.107,1.188-2.808,3.348-4.212,3.348
		c-2.7,0-5.724-1.944-5.724-3.132c0.216-7.884,1.188-20.521,1.188-34.776c0-10.8-0.54-21.601-0.107-24.625
		c0.216-1.836,5.939-5.076,8.424-5.076c3.24,0,10.152,0.324,15.769,2.916c6.479,2.916,11.988,9.612,11.988,16.524V70.131z
		 M880.223,68.835c0-4.32-6.048-9.072-13.5-9.072c-1.08,0-1.944,0.432-2.269,1.404c-0.216,0.972-0.432,5.076-0.432,9.18
		c0,4.212,0.108,6.696,0.324,7.884s1.296,1.836,2.483,1.836c2.917,0,6.589-1.188,8.856-2.808c2.7-1.728,4.536-4.86,4.536-8.316
		V68.835z"/>
	<path d="M932.387,92.163c-0.864,0.648-3.456,1.188-4.104,0.324c-2.592-3.132-5.184-6.696-6.372-6.696
		c-2.052,0-12.313,4.32-20.952,4.32c-3.024,0-6.156-5.076-6.156-7.344c0-6.696,12.744-16.74,12.744-20.196
		c0-1.62-1.728-5.4-4.86-8.748c-0.972-1.08,2.376-4.968,5.725-5.292c1.728-0.216,4.428,0.324,4.968,1.188
		c1.729,3.78,4.752,10.8,10.152,19.224c4.32,6.696,9.612,13.392,12.313,16.092C936.814,86.115,934.87,90.435,932.387,92.163z
		 M917.914,78.555c0-0.864-4.644-7.884-5.292-7.884c-0.864,0-6.912,6.372-6.912,8.964c0,0.972,0.972,2.052,1.729,2.052
		c4.535,0,10.476-2.16,10.476-3.024V78.555z"/>
	<path d="M967.811,56.307c0,3.024-1.729,6.048-3.24,6.048c-2.592,0.108-6.372,0.648-8.64,1.188c-2.376,0.54-3.996,2.592-4.429,5.616
		c-0.216,1.62-0.432,5.292-0.432,8.748c0,2.917,0.107,6.912,0.216,9.396c0,0.864-1.728,3.132-3.456,3.132
		c-2.484,0-6.48-1.512-6.48-3.024c-0.216-8.748,0.648-27.648,1.513-35.316c0.216-1.62,3.348-3.24,5.508-3.24
		c1.404,0,3.996,1.188,3.996,2.268c0,0.648-0.216,2.7-0.216,3.564c0,0.54,0.324,1.188,1.188,1.188c1.08,0,8.532-2.16,11.232-2.916
		c1.62-0.54,3.24,1.404,3.24,3.24V56.307z"/>
	<path d="M1003.126,62.787c-1.944,0.756-5.725,0.756-7.776,1.08c-1.188,0.216-1.729,1.188-1.729,2.376
		c-0.539,7.452-0.539,19.333-1.403,23.004c-0.864,3.24-4.212,5.4-5.832,5.4c-1.08,0-3.564-1.836-3.456-3.024
		c0.54-5.724,1.08-20.088,1.08-26.028c0-0.54-0.648-1.08-1.729-1.08c-2.916,0-4.644,0.108-7.02,0.324
		c-2.053,0.108-3.889-3.78-3.889-6.048c0-0.972,0.973-2.592,1.62-2.7c1.836-0.216,5.94,0.108,9.072-0.216
		c1.404-0.216,2.16-0.648,2.268-2.052c0.324-2.916-0.323-10.8-0.216-14.256c0.108-1.404,4.536-3.348,6.049-3.348
		c1.943,0,4.104,1.404,4.104,2.7c0,2.7-0.648,10.476-0.648,14.364c0,1.404,0.324,2.268,1.08,2.268c3.024,0,7.345-0.216,10.368-0.756
		c1.188-0.108,2.16,1.404,2.16,2.916C1007.338,58.575,1005.609,61.815,1003.126,62.787z"/>
	<path d="M1024.076,54.039c0,7.776-0.54,25.057-1.62,33.157c-0.107,1.188-3.563,3.024-5.508,3.024c-2.268,0-5.616-2.916-5.4-4.428
		c1.08-7.236,2.16-24.192,2.593-32.616c0.107-1.296,2.592-2.917,3.563-2.917c2.7,0,6.372,2.16,6.372,3.672V54.039z M1025.696,36.542
		c0,3.24-3.456,5.184-6.48,5.184c-2.268,0-4.535-3.132-4.535-5.292c0-2.484,3.023-5.184,5.184-5.184c2.7,0,5.832,2.052,5.832,5.184
		V36.542z"/>
	<path d="M1046.431,89.247c-0.108,2.052-2.052,4.32-3.024,4.32c-2.052,0-6.804-0.864-6.804-2.7
		c-0.108-6.804-0.108-19.008-0.216-29.052c-0.324-13.824-0.756-24.084-1.08-34.021c-0.108-1.512,3.023-4.86,5.508-4.86
		c1.188,0,4.645,1.512,4.752,3.348c0.216,7.02,0.864,22.356,0.864,37.909c0,9.936,0.108,19.764,0,24.948V89.247z"/>
	<path d="M1098.271,73.155c0,6.048-1.404,14.581-2.7,18.36c-0.54,1.728-4.32,4.32-6.372,4.32c-1.08,0-3.024-1.512-2.809-2.484
		c0.757-3.456,1.944-11.34,1.944-15.876c0-3.672-0.54-7.128-1.296-8.208c-0.432-0.864-2.052-1.836-3.24-1.836
		c-2.916,0-8.64,5.724-12.42,13.068c-0.864,1.512-2.16,4.968-2.916,6.48c-0.756,1.512-9.181,0.756-9.181-1.944
		c0.108-11.016,0.217-45.901,1.188-59.293c0.108-1.512,4.32-3.672,7.236-3.672c1.08-0.108,3.672,1.404,3.456,2.916
		c-1.404,10.368-2.269,34.668-2.053,43.741c0,0.864,0.648,1.512,1.297,0.54c4.968-6.156,11.556-12.528,17.496-12.528
		c2.7,0,6.588,1.836,8.208,3.996c0.972,1.296,2.16,6.588,2.16,12.312V73.155z"/>
	<path d="M1130.13,92.919c-5.4,0-15.229-3.78-19.98-10.692c-4.104-5.832-3.78-14.472-1.62-19.008
		c3.456-7.236,13.608-14.472,20.412-14.472c2.053,0,4.969,2.052,4.969,5.4c0,1.296-0.864,2.484-1.944,2.592
		c-6.588,0.648-11.124,4.104-11.88,7.128c-0.54,0.864,0.107,1.296,1.08,1.404c1.728,0.216,6.912,0.54,11.232,0.756
		c2.483,0.108,0,7.236-2.484,7.128c-4.104-0.216-8.532-0.432-10.692-0.54c-0.647,0-1.08,0.324-1.08,0.972
		c0.108,5.184,5.185,10.044,15.66,11.664c0.973,0.216,1.836,1.944,1.62,3.024C1134.99,90.003,1131.858,92.919,1130.13,92.919z"/>
</g>
<g>
	<path d="M807.245,157.14c-3.396-2.725-10.747-6.512-14.294-2.538c-0.355,0.399-0.322,0.885,0,1.29
		c1.415,1.775,2.597,1.732,4.631,2.549c0.154,0.063,0.297,0.141,0.448,0.207c-1.058,0.084-2.05,0.688-2.643,2.044
		c-16.602,38.023-54.476,63.78-95.773,66.792c-43.707,3.187-85.231-17.879-114.786-48.981c2.913-1.339,5.917-2.428,8.899-3.744
		c3.592-1.585,0.796-6.359-2.467-5.852c-8.579,1.336-17.989,7.608-23.403,14.262c-0.931,1.145-1.316,3.057,0,4.156
		c0.519,0.434,1.122,0.755,1.72,0.832c-0.004,0.01-0.008,0.02-0.012,0.028c0.051,0,0.088-0.017,0.136-0.019
		c0.267,0.019,0.53-0.012,0.785-0.108c1.018-0.261,1.76-0.922,2.646-1.669c1.747-1.475,3.51-2.895,5.364-4.214
		c0.13,0.223,0.287,0.441,0.476,0.655c30.606,34.534,77.033,56.644,123.729,51.952c42.384-4.259,82.6-30.373,99.502-70.107
		c0.528-1.242,0.411-2.437-0.063-3.438c0.3,0.257,0.601,0.514,0.888,0.796c3.213,3.152,3.319,6.766,5.19,10.537
		c1.274,2.567,5.395,1.876,6.056-0.792C815.615,166.368,811.262,160.363,807.245,157.14"/>
	<path d="M687.522,177.644c-6.477-27.965-51.51-30.562-53.625,0.775c-0.166,2.472,3.671,2.928,4.278,0.579
		c2.61-10.09,10.709-18.547,21.776-18.283c11.185,0.266,18.492,8.787,22.294,18.384
		C683.519,182.311,688.336,181.153,687.522,177.644"/>
	<path d="M733.332,153.655c-11.895,0.809-26.827,10.146-20.917,23.676c0.933,2.134,4.527,1.053,4.371-1.184
		c-0.71-10.156,8.734-15.266,17.762-15.484c9.457-0.229,15.307,5.318,16.249,14.434c0.354,3.424,5.686,4.837,6.509,0.881
		C760.188,162.105,745.725,152.814,733.332,153.655"/>
</g>
</svg>
