<?xml version="1.0" encoding="utf-8"?>
<!-- Generator: Adobe Illustrator 16.0.0, SVG Export Plug-In . SVG Version: 6.00 Build 0)  -->
<!DOCTYPE svg PUBLIC "-//W3C//DTD SVG 1.1//EN" "http://www.w3.org/Graphics/SVG/1.1/DTD/svg11.dtd">
<svg version="1.1" xmlns="http://www.w3.org/2000/svg" xmlns:xlink="http://www.w3.org/1999/xlink" x="0px" y="0px" width="1500px"
	 height="500px" viewBox="0 0 1500 500" enable-background="new 0 0 1500 500" xml:space="preserve">
<g id="Camada_1" display="none">
</g>
<g id="Camada_2">
	<g>
		<g>
			<path fill="#010002" d="M368.577,222.607c0.798,0,1.595,0.798,1.595,1.994c0,1.595-0.797,4.386-2.791,8.373
				c-10.368,21.931-20.735,37.48-36.684,47.051c1.196,5.982,1.594,11.963,1.594,17.943c0,50.242-37.082,96.893-59.809,96.893
				c-14.753,0-20.735-17.943-20.735-39.873c0-61.007,40.671-173.45,57.817-212.127c0.399-1.196,1.594-1.994,3.19-1.994
				c7.576,0,23.923,15.152,23.923,27.115c0,1.994-0.398,3.588-1.195,5.183c-9.171,18.74-20.734,44.259-26.715,63.398
				c8.771,8.772,14.354,20.336,18.341,30.305c11.563-8.375,15.949-21.532,28.708-35.089
				C361.001,226.993,365.786,222.607,368.577,222.607z M282.052,358.974c8.772,0,31.101-33.891,31.101-72.968
				c-1.195,0-1.994,0.398-3.189,0.398c-5.184,0-10.368-1.992-14.355-5.184c-10.367,37.881-17.146,58.614-17.146,69.779
				c0,2.791,0.399,4.786,1.196,6.38C280.059,358.576,280.855,358.974,282.052,358.974z M284.045,243.342
				c6.38-29.507,16.348-57.817,28.709-85.33C295.209,191.107,285.242,219.816,284.045,243.342z M317.938,335.05
				c-0.399,0-2.791,7.178-4.386,10.767c-5.583,11.163-24.722,35.488-24.323,33.493c15.949-12.362,24.722-26.715,28.709-40.273
				C317.938,335.45,317.938,335.05,317.938,335.05z M304.381,249.721l-3.988,14.753c2.792,5.581,6.779,7.974,11.564,7.974
				C310.761,264.873,308.368,257.297,304.381,249.721z"/>
			<path fill="#010002" d="M465.07,224.202c0.798,0,1.196,0.797,1.196,1.595c0,2.393-1.595,6.379-4.386,11.563l-4.784,8.374
				c-16.747,31.103-36.685,67.386-69.38,67.386c-25.918,0-44.658-18.341-44.658-37.082c0-38.678,37.879-102.076,72.171-102.076
				c14.753,0,26.715,11.962,26.715,25.12c0,26.715-34.689,62.204-58.614,62.204c-2.393,0-4.386-0.4-6.38-1.199
				c-0.797,3.591-1.594,7.576-1.594,11.165c0,10.369,4.385,19.538,18.74,19.538c25.918,0,47.449-49.043,58.215-58.613
				C459.089,226.594,463.077,224.202,465.07,224.202z M387.317,192.702c-19.538,17.545-28.709,37.481-28.709,44.26
				c0.798,0,2.393-7.976,5.185-10.766C368.177,218.221,387.317,195.094,387.317,192.702z M398.482,194.297
				c-0.797,0-23.126,22.329-23.126,30.703C376.95,225.398,398.482,194.695,398.482,194.297z M414.431,199.88
				c-10.766,0-33.095,44.259-34.69,50.639c0.798,0.399,1.995,0.399,2.792,0.399c18.74,0,35.089-35.488,35.089-46.652
				c0-1.595-0.399-2.393-0.797-3.191C416.025,200.278,415.229,199.88,414.431,199.88z M419.615,214.233
				c-5.184,15.551-13.557,27.513-25.12,36.285C407.652,244.139,415.627,231.778,419.615,214.233z"/>
			<path fill="#010002" d="M530.466,223.405c1.196,0,1.994,0.797,1.994,1.993c0,1.595-1.195,4.386-3.19,8.374
				c-13.557,24.323-34.689,79.348-60.607,79.348c-18.341,0-25.12-15.948-25.12-39.075c0-61.805,49.444-175.444,57.418-178.634
				c0.797-0.399,1.594-0.399,2.791-0.399c7.576,0,15.949,11.962,15.949,24.722c0,3.987-0.398,7.576-1.993,11.164
				c-14.753,34.69-49.044,114.039-49.044,155.507c0,3.191,0.399,5.982,0.798,8.772c21.133-10.765,33.893-49.044,48.247-63
				C522.89,226.993,528.074,223.405,530.466,223.405z M484.214,140.866c-16.349,38.279-27.513,75.76-31.501,105.665
				C458.695,217.025,469.46,182.734,484.214,140.866z"/>
			<path fill="#010002" d="M590.278,223.803c1.196,0,1.994,0.797,1.994,1.994c0,6.779-41.069,86.925-65.393,86.925
				c-17.943,0-25.12-15.951-25.12-32.697c0-26.715,14.753-64.994,31.5-102.474c0.798-1.995,3.589-3.19,6.779-3.19
				c9.17,0,23.126,7.575,23.126,18.74c0,2.393-0.398,4.786-1.994,7.576c-18.74,33.893-32.298,69.777-32.298,93.304
				c20.335-12.359,34.69-48.247,48.646-61.804C582.702,227.79,587.486,223.803,590.278,223.803z M546.417,219.417
				c-5.981,0-21.532,45.854-21.93,60.209c0,2.791,0,3.987,0.398,3.987c0.399,0,0.798-2.393,1.196-5.184
				C527.277,266.469,545.62,218.62,546.417,219.417z M565.556,167.183c-5.583,0-16.747-6.778-16.747-13.158
				c0-6.779,11.164-38.278,18.74-38.278c7.177,0,24.722,10.766,24.722,16.347c0,0.399,0,0.798-0.399,1.196
				c-8.373,9.57-13.157,17.545-23.126,32.697C567.949,166.785,567.15,167.183,565.556,167.183z M554.79,148.442
				c2.393,0,3.589-5.98,3.589-5.583c1.595,0,9.171-17.146,9.171-19.139c-1.994,0-12.36,20.734-12.36,22.729
				C555.189,146.848,554.79,147.646,554.79,148.442z"/>
			<path fill="#010002" d="M676.005,206.657c0,39.475-28.31,90.912-45.854,100.083c-4.386,2.393-8.771,3.589-12.76,3.589
				c-13.955,0-25.917-11.563-33.094-23.126c-7.975,26.315-13.956,50.64-13.956,72.169c0,8.375,0.797,15.951,2.791,23.126
				c2.791,0.4,4.785,1.995,4.785,3.589c0,2.393-2.393,4.385-9.171,4.385c-24.722,0-33.493-16.744-33.493-38.278
				c0-52.232,48.645-142.745,53.43-173.049c0-1.197,0.798-1.594,1.995-1.594c5.98,0,22.328,9.967,23.923,18.74
				c11.164-12.759,25.519-24.323,37.879-24.323c13.558,0,22.329,19.14,23.127,26.715
				C676.005,201.474,676.005,203.867,676.005,206.657z M547.214,318.303c-1.594,0-5.98,25.519-5.98,31.898
				c0,7.576,3.589,20.336,3.987,20.336c0,0.798-1.595-9.569-1.595-11.563c0-10.765,1.196-28.31,3.588-38.676
				C547.214,319.102,547.214,318.303,547.214,318.303z M650.486,189.911c0-1.993-0.398-2.791-1.196-3.19
				c-23.923,11.962-39.873,52.633-43.462,63c-0.398,1.196-4.386,2.392-8.373,2.791c-1.595,5.183-2.791,9.967-2.791,14.355
				c0,8.372,3.588,15.55,12.36,20.335C616.993,287.601,650.486,206.657,650.486,189.911z M606.625,223.803
				c3.988-7.177,12.361-21.93,22.728-33.893c-9.969,8.772-15.55,18.342-22.329,32.298
				C607.024,223.006,606.625,223.803,606.625,223.803z M645.303,239.354c1.993,0,14.355-31.5,14.355-42.266
				c0-3.987-0.798-9.17-1.995-9.17c0,0.398,0,1.993,0.399,4.784c0,12.361-8.772,32.697-12.36,44.26
				C645.303,237.759,645.303,238.955,645.303,239.354z M664.841,201.873c0.398,0-1.595,3.19-1.595,6.778
				c0,1.596-5.184,20.335-6.778,24.722c-0.399,0.797,0,1.196,0.398,1.595c3.988-2.393,7.975-28.311,7.975-29.108V201.873z"/>
			<path fill="#010002" d="M796.424,224.202c0.796,0,1.196,0.797,1.196,1.595c0,2.393-1.597,6.379-4.388,11.563l-4.784,8.374
				c-16.748,31.103-36.685,67.386-69.38,67.386c-25.918,0-44.658-18.341-44.658-37.082c0-38.678,37.879-102.076,72.17-102.076
				c14.753,0,26.715,11.962,26.715,25.12c0,26.715-34.689,62.204-58.614,62.204c-2.393,0-4.386-0.4-6.38-1.199
				c-0.797,3.591-1.594,7.576-1.594,11.165c0,10.369,4.386,19.538,18.74,19.538c25.918,0,47.449-49.043,58.215-58.613
				C790.441,226.594,794.429,224.202,796.424,224.202z M718.669,192.702c-19.537,17.545-28.709,37.481-28.709,44.26
				c0.798,0,2.393-7.976,5.184-10.766C699.53,218.221,718.669,195.094,718.669,192.702z M729.834,194.297
				c-0.797,0-23.126,22.329-23.126,30.703C708.302,225.398,729.834,194.695,729.834,194.297z M745.784,199.88
				c-10.766,0-33.095,44.259-34.689,50.639c0.797,0.399,1.993,0.399,2.791,0.399c18.74,0,35.089-35.488,35.089-46.652
				c0-1.595-0.399-2.393-0.797-3.191C747.378,200.278,746.581,199.88,745.784,199.88z M750.967,214.233
				c-5.183,15.551-13.557,27.513-25.12,36.285C739.005,244.139,746.98,231.778,750.967,214.233z"/>
			<path fill="#010002" d="M842.681,247.728c13.558,30.703,30.702,53.031,45.059,66.588c1.594,1.594,1.992,2.791,1.992,4.385
				c0,2.791-2.791,5.184-8.372,5.184c-19.14,0-41.071-28.31-59.015-57.816c-10.366,12.759-26.715,53.431-31.898,53.431
				c-1.595,0-3.588-0.398-5.582-2.393c-10.366-5.184-14.354-11.961-14.354-19.14c0-16.346,18.739-35.488,31.898-49.043l4.386-4.785
				l-7.176-14.753c-9.969,17.544-20.735,34.69-24.324,34.69s-4.784-3.989-4.784-6.381c0-3.588,12.36-25.12,22.328-45.056
				c-3.589-9.171-6.38-17.944-9.171-26.715c0-5.583,16.349-10.766,29.108-10.766c1.595,11.962,5.981,25.917,11.165,38.677
				c-2.793-9.569-7.178-23.126-9.57-37.879c4.387,1.196,7.576,3.19,8.374,6.779c2.393,13.557,5.979,25.917,9.171,37.48
				c15.151-12.759,30.702-24.322,47.051-35.486c0-0.797,0.796-1.196,2.79-1.196c1.197,0,2.394-0.399,3.59-0.399
				c0.796,0,5.979,0,5.979,1.596c0,0.399-0.398,1.196-0.797,1.594c0.398-0.398,1.196-0.398,1.993-0.797h1.994
				c0,0.399,3.189,4.786,3.189,7.976c0,1.993-1.595,6.38-5.184,9.968C875.378,216.227,858.23,230.98,842.681,247.728z
				 M842.282,284.012c0,0,0,0.4,1.196,1.594c0,0,1.595,2.393,3.589,5.184c-2.393-2.791-3.589-5.184-3.589-7.176
				C843.081,283.614,842.681,283.614,842.282,284.012z M847.067,290.79c3.987,5.583,10.367,13.958,15.152,17.943
				c0.796,0.798,3.189,1.597,3.987,1.597C865.409,310.329,853.447,299.164,847.067,290.79z M850.657,286.006
				c1.196,1.594,9.17,17.943,18.341,17.943c-4.386-1.594-10.367-9.17-14.754-14.752
				C852.251,286.805,851.055,286.404,850.657,286.006z"/>
			<path fill="#010002" d="M1000.978,206.657c0,39.475-28.312,90.912-45.854,100.083c-4.387,2.393-8.772,3.589-12.759,3.589
				c-13.956,0-25.92-11.563-33.096-23.126c-7.974,26.315-13.956,50.64-13.956,72.169c0,8.375,0.797,15.951,2.791,23.126
				c2.791,0.4,4.785,1.995,4.785,3.589c0,2.393-2.393,4.385-9.17,4.385c-24.723,0-33.495-16.744-33.495-38.278
				c0-52.232,48.645-142.745,53.431-173.049c0-1.197,0.798-1.594,1.994-1.594c5.979,0,22.328,9.967,23.925,18.74
				c11.163-12.759,25.519-24.323,37.878-24.323c13.558,0,22.33,19.14,23.127,26.715
				C1000.978,201.474,1000.978,203.867,1000.978,206.657z M872.187,318.303c-1.597,0-5.981,25.519-5.981,31.898
				c0,7.576,3.589,20.336,3.987,20.336c0,0.798-1.595-9.569-1.595-11.563c0-10.765,1.196-28.31,3.589-38.676
				C872.187,319.102,872.187,318.303,872.187,318.303z M975.459,189.911c0-1.993-0.4-2.791-1.196-3.19
				c-23.925,11.962-39.875,52.633-43.462,63c-0.4,1.196-4.388,2.392-8.374,2.791c-1.595,5.183-2.791,9.967-2.791,14.355
				c0,8.372,3.589,15.55,12.361,20.335C941.964,287.601,975.459,206.657,975.459,189.911z M931.597,223.803
				c3.987-7.177,12.361-21.93,22.729-33.893c-9.969,8.772-15.551,18.342-22.328,32.298
				C931.997,223.006,931.597,223.803,931.597,223.803z M970.275,239.354c1.992,0,14.354-31.5,14.354-42.266
				c0-3.987-0.799-9.17-1.995-9.17c0,0.398,0,1.993,0.4,4.784c0,12.361-8.772,32.697-12.361,44.26
				C970.275,237.759,970.275,238.955,970.275,239.354z M989.813,201.873c0.398,0-1.594,3.19-1.594,6.778
				c0,1.596-5.184,20.335-6.78,24.722c-0.398,0.797,0,1.196,0.4,1.595c3.987-2.393,7.974-28.311,7.974-29.108V201.873z"/>
			<path fill="#010002" d="M1121.395,224.202c0.797,0,1.197,0.797,1.197,1.595c0,2.393-1.597,6.379-4.388,11.563l-4.785,8.374
				c-16.747,31.103-36.683,67.386-69.379,67.386c-25.917,0-44.658-18.341-44.658-37.082c0-38.678,37.88-102.076,72.171-102.076
				c14.752,0,26.716,11.962,26.716,25.12c0,26.715-34.691,62.204-58.614,62.204c-2.393,0-4.387-0.4-6.379-1.199
				c-0.799,3.591-1.598,7.576-1.598,11.165c0,10.369,4.388,19.538,18.742,19.538c25.916,0,47.448-49.043,58.216-58.613
				C1115.413,226.594,1119.4,224.202,1121.395,224.202z M1043.642,192.702c-19.54,17.545-28.71,37.481-28.71,44.26
				c0.798,0,2.393-7.976,5.184-10.766C1024.502,218.221,1043.642,195.094,1043.642,192.702z M1054.805,194.297
				c-0.796,0-23.127,22.329-23.127,30.703C1033.275,225.398,1054.805,194.695,1054.805,194.297z M1070.755,199.88
				c-10.765,0-33.095,44.259-34.689,50.639c0.796,0.399,1.993,0.399,2.791,0.399c18.741,0,35.087-35.488,35.087-46.652
				c0-1.595-0.397-2.393-0.796-3.191C1072.35,200.278,1071.553,199.88,1070.755,199.88z M1075.938,214.233
				c-5.184,15.551-13.558,27.513-25.121,36.285C1063.978,244.139,1071.951,231.778,1075.938,214.233z"/>
			<path fill="#010002" d="M1210.714,188.315c0,11.962-19.14,27.514-19.14,59.013c0,3.19,0.398,6.38,0.797,9.969
				c0,3.988-2.391,5.581-5.582,5.581c-11.563,0-17.545-13.556-17.545-37.479c0-2.792,0-5.583,0.4-8.772
				c-18.344,30.703-35.488,62.603-41.47,90.912c-0.796,3.189-3.188,5.184-6.38,5.184c-16.348,0-21.93-13.558-21.93-32.697
				c0-38.676,23.126-98.487,27.912-104.867c1.195-1.595,3.986-2.393,7.178-2.393c9.17,0,22.328,6.38,22.328,14.753
				c0,0.797,0,1.994-0.398,2.792c-7.576,18.341-19.938,44.658-23.925,68.583c4.786-17.545,36.685-82.938,62.999-82.938
				c3.59,0,7.179,1.196,10.768,4.386C1209.518,183.132,1210.714,185.524,1210.714,188.315z M1134.156,183.132
				c-11.961,16.349-18.343,33.894-18.74,51.836C1118.606,217.822,1124.986,200.278,1134.156,183.132z M1172.833,227.79
				c0,5.184,1.595,9.969,3.987,14.355c-1.595-7.177-1.595-16.747-1.595-27.114C1173.631,219.417,1172.833,223.803,1172.833,227.79z"
				/>
			<path fill="#010002" d="M1282.485,166.785c-5.979,0-13.956,0.398-21.93,0.398c-14.753,35.887-33.493,84.93-33.493,115.234
				c0,3.987,0.397,7.975,1.196,11.166c30.304-13.956,45.854-71.773,64.993-71.773c1.197,0,1.993,0.399,1.993,1.596
				c0,4.385-16.747,33.493-30.303,55.025c-7.976,12.759-23.925,33.095-39.475,33.095c-11.964,0-23.925-13.558-23.925-40.671
				c0-29.905,11.961-71.772,24.322-105.665c-13.157-2.393-23.924-7.576-23.924-18.74c0-3.589,2.393-7.177,4.387-7.177
				c0.797,0,1.595,0.398,2.393,1.594c2.393,5.982,11.962,7.976,23.525,7.976c12.759-31.102,20.335-42.267,24.322-42.267
				c7.975,0,16.349,11.962,16.349,25.121c0,3.588-0.398,7.177-1.995,10.766c-0.397,0.797-0.796,2.791-0.796,3.19
				c0,0,0.398,0.398,2.791,0.398c3.987-0.398,7.576-0.797,10.765-0.797c10.367,0,13.558,1.994,13.558,13.956
				c0,0.797,0,8.772-2.393,8.772C1292.854,167.183,1288.467,166.785,1282.485,166.785z M1233.84,166.385l-1.594-0.398
				c-10.367,28.708-17.545,55.423-20.336,78.151C1216.695,221.411,1223.873,195.892,1233.84,166.385z"/>
			<path fill="#010002" d="M1403.305,221.81c1.196,0,1.994,0.399,1.994,1.596c0,1.594-1.195,4.385-3.19,8.373
				c-15.55,27.513-29.506,46.251-51.834,50.639c-12.76,16.747-29.108,27.912-47.051,27.912c-31.103,0-44.261-25.917-44.261-50.242
				c0-7.974,4.785-45.056,13.558-45.056c3.587,0,9.171,1.995,13.556,5.583c-0.397-1.994-0.397-3.987-0.397-5.583
				c0-25.917,20.733-48.246,44.26-48.246c29.904,0,42.664,27.911,42.664,51.436c0,14.753-3.987,30.703-10.765,45.057
				c11.162-7.576,15.55-20.733,28.707-33.095C1395.729,225.398,1400.912,221.81,1403.305,221.81z M1273.316,226.196
				c-1.992,0-7.575,15.949-7.575,31.102c0,8.771,1.196,17.544,4.387,23.125c-1.595-4.786-2.393-11.961-2.393-19.538
				c0-12.36,1.993-25.12,4.785-30.702C1272.919,227.79,1273.316,226.196,1273.316,226.196z M1304.42,288.797
				c5.979,0,11.563-2.791,17.145-7.176c-11.961-5.184-22.729-15.552-29.904-29.508c-1.597,5.583-2.393,10.367-2.393,15.152
				c0,9.969,3.986,17.943,11.563,21.132C1302.027,288.797,1303.224,288.797,1304.42,288.797z M1346.686,209.847
				c0-13.557-4.388-22.727-15.951-22.727c-15.948,0-25.917,19.937-25.917,40.272c0,17.544,7.576,35.486,25.917,39.873
				C1337.515,256.499,1346.686,229.386,1346.686,209.847z M1362.235,203.069c0.398,0.797,1.196,2.392,1.196,1.994
				c0-7.576-8.772-24.323-19.938-26.316C1351.469,181.936,1361.838,195.892,1362.235,203.069z"/>
		</g>
		<g>
			<path fill="#010002" d="M246.33,215.671c0,41.465-32.395,115.325-82.066,115.325c-9.934,0-23.324-0.431-26.347-23.323
				c-3.456,1.726-6.048,2.592-9.071,4.318c-9.934,6.479-16.845,14.254-26.779,15.118h-1.727c-9.936,0-16.846-14.685-16.846-26.778
				c0-42.762,39.306-106.688,68.245-106.688c12.093,0,24.188,9.502,24.188,30.235c5.184,2.59,12.094,9.07,12.094,16.412
				c0,1.729-0.431,3.888-1.295,5.616c-7.775,14.685-17.277,31.531-21.165,47.512l-1.729,6.912c1.729,0,6.048,1.726,9.503,1.726
				c21.597,0,46.217-49.672,46.217-85.522c0-24.619-12.094-49.239-46.217-49.239c-35.85,0-67.38,35.417-86.385,69.109
				C75.285,257.136,62.76,290.826,62.76,318.47c0,22.46,8.639,41.032,30.235,43.191h3.456c13.822,0,27.211-9.501,35.417-23.323
				c1.729-3.455,3.888-4.75,5.615-4.75c4.32,0,8.207,7.342,8.207,17.276c0,15.118-12.093,44.922-49.672,44.922
				c-40.601,0-61.333-39.306-61.333-77.747c0-81.204,64.79-177.092,137.353-177.092c37.146,0,66.085,20.733,72.996,58.311
				C245.898,204.441,246.33,210.056,246.33,215.671z M43.323,318.9c0-25.482,6.048-53.126,17.709-82.93
				c-13.822,30.667-20.301,58.311-20.301,82.499c0,18.14,3.456,34.123,10.798,48.808C46.346,352.16,43.323,336.179,43.323,318.9z
				 M157.353,219.559c0-1.729-1.296-1.729-1.728-1.729c-9.935,0-49.24,75.588-49.24,88.114c0,1.296,0.432,1.729,1.296,1.729
				c4.751,0,41.032-38.875,41.032-43.626c-1.294-0.863-2.59-3.022-2.59-5.184c0-0.863,0.432-2.159,0.863-3.022
				C151.305,248.065,157.353,225.605,157.353,219.559z M109.84,245.042c0,0,0.864-1.296,1.729-3.456l3.023-5.615
				c4.319-8.207,15.118-19.868,20.733-27.643c-12.958,12.094-22.028,23.757-25.052,33.691
				C109.84,242.882,109.84,245.042,109.84,245.042z M139.643,213.511c-4.319,3.456-9.071,7.775-12.958,12.095l-2.591,3.023
				c-0.864,1.728-2.16,3.023-2.592,4.319l-2.16,3.456c-0.432,0.431-0.863,1.727-0.863,1.727c0.863,0,2.591-2.16,5.183-5.615
				l8.207-9.502c2.16-3.023,3.888-5.184,6.479-7.775C139.212,213.942,139.643,213.511,139.643,213.511z M137.916,307.672v-4.751
				c-2.592,3.022-5.615,6.044-9.071,9.069L137.916,307.672z M156.488,287.804c3.023-12.096,11.663-24.622,14.253-37.579l1.729-4.319
				c0.432-0.433,1.296-2.592,1.296-3.456c-0.864,0-3.024,3.456-3.456,5.184l-4.751,12.527c-2.16,4.75-3.887,9.501-5.615,14.685
				l-4.319,13.389c-0.864,2.592-2.16,5.614-2.16,9.071L156.488,287.804z M234.668,191.482
				c-5.184-24.188-16.846-38.442-34.123-41.896C216.958,159.52,228.62,173.773,234.668,191.482z"/>
		</g>
		<g>
			<path fill="#010002" d="M750.3,353.081c1.471-4.415,6.621-0.735,6.621-0.735c0,0.735,9.566,1.471,14.716,2.207
				c0,0,27.96-0.735,71.373-2.207c4.415,2.207,3.68,22.073-4.414,20.602c-46.356-1.473-77.995-3.68-80.202-4.415
				C748.092,364.119,750.3,354.552,750.3,353.081z M912.2,373.683c-7.359-2.944-4.415-21.337,8.093-22.075
				c149.365-3.68,440.006-15.451,468.703-35.317c7.357-5.151,18.396,5.149,16.188,14.715c-0.737,8.831-4.415,17.66-9.566,26.488
				c-12.509,22.075-33.846,30.17-55.921,30.17C1330.869,387.665,1059.358,379.569,912.2,373.683z"/>
		</g>
	</g>
</g>
</svg>
