<svg width="36" height="36" viewBox="0 0 36 36" fill="none" xmlns="http://www.w3.org/2000/svg">
<rect width="36" height="36" rx="8" fill="#F6FDD0"/>
<path d="M22.6936 10.3741C22.4096 9.8749 21.5888 9.8757 21.3048 10.3741L18.1056 15.9741C17.964 16.2221 17.9648 16.5261 18.108 16.7725C18.2512 17.0189 18.5152 17.1709 18.8 17.1709H25.2C25.4848 17.1709 25.7488 17.0189 25.892 16.7725C26.0352 16.5253 26.036 16.2221 25.8944 15.9741L22.6936 10.3741ZM10.8 25.9709H16.4C16.8424 25.9709 17.2 25.6133 17.2 25.1709V19.5709C17.2 19.1285 16.8424 18.7709 16.4 18.7709H10.8C10.3576 18.7709 10 19.1285 10 19.5709V25.1709C10 25.6133 10.3576 25.9709 10.8 25.9709ZM22.4 18.7709C20.4152 18.7709 18.8 20.3861 18.8 22.3709C18.8 24.3557 20.4152 25.9709 22.4 25.9709C24.3848 25.9709 26 24.3557 26 22.3709C26 20.3861 24.3848 18.7709 22.4 18.7709Z" fill="#A8C10A"/>
</svg>
