<svg width="36" height="36" viewBox="0 0 36 36" fill="none" xmlns="http://www.w3.org/2000/svg">
<rect width="36" height="36" rx="8" fill="#FDEBD0"/>
<path d="M21.2936 20.9798C21.2936 20.9798 23.6324 18.641 24.4319 17.8431C26.9412 15.3338 25.6861 10.3138 25.6861 10.3138C25.6861 10.3138 20.6661 9.05873 18.1568 11.5688C16.2808 13.4448 15.0307 14.7366 15.0307 14.7366C15.0307 14.7366 11.8825 14.078 10 15.9605L20.0394 25.9999C21.9219 24.1174 21.2936 20.9798 21.2936 20.9798ZM20.0631 13.6192C20.7037 12.9786 21.74 12.9786 22.3798 13.6192C23.0204 14.259 23.0204 15.2953 22.3798 15.936C21.74 16.5758 20.7037 16.5758 20.0631 15.936C19.4233 15.2953 19.4233 14.2599 20.0631 13.6192ZM10.7954 25.1791C10.7954 25.1791 13.2531 25.1791 14.8915 23.5406L12.4339 21.083C10.7954 21.9022 10.7954 25.1791 10.7954 25.1791Z" fill="#F49A12"/>
</svg>
